<?xml version="1.0" encoding="utf-8"?>
<!-- Generator: Adobe Illustrator 23.0.1, SVG Export Plug-In . SVG Version: 6.00 Build 0)  -->
<svg version="1.1" id="Enedis" xmlns="http://www.w3.org/2000/svg" xmlns:xlink="http://www.w3.org/1999/xlink" x="0px" y="0px"
	 viewBox="0 0 1000 700" enable-background="new 0 0 1000 700" xml:space="preserve">
<g>
	<g>
		<path fill="#94CC00" d="M464.2,357c-18.5,0-33.5-13.8-33.5-31l0.1-5.6h71.5c24.7,0,44.9-18.7,44.9-41.7v-26.4
			c0-23-20.1-41.7-44.9-41.7h-62.4c-3.5,0-7,0-10.4,0.8c-20.3,4.5-34.4,21.5-34.4,40.9v15.3c0,3.5,2.6,6.4,5.7,6.4h24.2
			c3.2,0,5.7-2.9,5.7-6.4v-3.8v-6.1c0-8,7.1-14.5,15.9-14.5h48.9c8.8,0,15.9,6.5,15.9,14.5v15.7c0,8-7.1,14.5-15.9,14.5H374.7v32.5
			H395v5.6c0,35.2,31.2,63.6,69.3,63.6h103.2V357L464.2,357z"/>
		<g>
			<path fill="#004CAC" d="M305.5,243.3c18.5,0,33.5,14,33.5,31.2v109.5c0,3.2,2.9,5.7,6.4,5.7h22.9c3.5,0,6.4-2.6,6.4-5.7V274.4
				c0-35.2-31-63.8-69.2-63.8h-73.7c-3.2,0-5.7,2.9-5.7,6.4v166.3c0,3.5,2.6,6.4,5.7,6.4H256c3.2,0,5.7-2.9,5.7-6.4v-140
				L305.5,243.3z"/>
			<path fill="#004CAC" d="M105.5,243.2h93.9c3.4,0,6.2-2.5,6.2-5.6v-21.4c0-3.1-2.7-5.6-6.2-5.6h-94.6c-26.3,0-47.8,19.7-47.8,44
				v91c0,24.3,21.4,44,47.8,44h94.6c3.4,0,6.2-2.5,6.2-5.6v-21.4c0-3.1-2.8-5.6-6.2-5.6h-93.9c-6.9,0-12.8-5.5-12.8-12v-25h56.2
				c3.4,0,6.2-2.5,6.2-5.6v-20.9c0-3.1-2.8-5.6-6.2-5.6H92.7v-32.7C92.7,248.7,98.6,243.2,105.5,243.2z"/>
			<path fill="#004CAC" d="M943,327.9c0-1.6,0-3.3-0.2-5.1c-1.8-19.9-22.3-35-43.9-35h-53.6l-1.4,0c-8.6,0-15.6-7.6-15.6-16.9
				l0.1-12.2c0-8.6,7.6-15.6,16.9-15.6h21.1l0.2,0h53.4c2.7,0,5.2-1.6,6-4c0.2-0.6,0.3-1.2,0.3-1.8v-21.2c0-3.2-2.9-5.7-6.4-5.7
				l-83.4,0c-24.2,0-44.1,18.2-44.1,40.6l0,25.3c0,24.2,18.2,43.8,40.6,43.8h58.4c8.6,0,15.5,7.6,15.5,16.9v4.1
				c0,8.6-7.5,15.6-16.9,15.6h-91.3c-2.7,0-5.2,1.6-6,3.9c-0.2,0.6-0.4,1.2-0.4,1.8v21.2c0,3.2,2.9,5.7,6.4,5.7h74.7l25.4,0
				c24.1,0,43.8-18.2,43.8-40.6V327.9z"/>
			<path fill="#004CAC" d="M651,210.6h-77.7c-3.2,0-5.7,2.9-5.7,6.4v105.3c0,3.5,2.6,6.4,5.7,6.4h24.2c3.2,0,5.7-2.9,5.7-6.4l0-79
				l43.8,0c18.5,0,33.5,14,33.5,31.2v57.5c0,17.2-15,25-33.5,25l-79.4,0.1v32.6l79.4-0.1c38.1,0,69.2-22.5,69.2-57.7v-57.9
				C716.2,240.3,687.9,210.6,651,210.6z"/>
			<path fill="#004CAC" d="M772.3,323.4l-0.1-59.8c0-3.5-2.6-6.4-5.7-6.4h-24.1c-3.2,0-5.7,2.9-5.7,6.4v59.8h0l0.1,59.8
				c0,3.5,2.6,6.4,5.7,6.4h24.1c3.2,0,5.7-2.9,5.7-6.4L772.3,323.4L772.3,323.4z"/>
			<path fill="#004CAC" d="M772.3,224.2l-0.1-7.2c0-3.5-2.6-6.4-5.7-6.4h-24.1c-3.2,0-5.7,2.9-5.7,6.4v7.2h0l0.1,12.7
				c0,3.5,2.6,6.4,5.7,6.4h24.1c3.2,0,5.7-2.9,5.7-6.4L772.3,224.2L772.3,224.2z"/>
			<path fill="#004CAC" d="M57,486v-44.1c0-0.9,0.5-1.6,1.4-2c0.9-0.5,2.1-0.7,3.4-0.7c1.3,0,2.5,0.2,3.4,0.7c0.9,0.5,1.4,1.1,1.4,2
				V481h18c0.9,0,1.6,0.4,2.1,1.2c0.5,0.8,0.8,1.7,0.8,2.7c0,1-0.3,1.9-0.8,2.7c-0.5,0.8-1.2,1.2-2.1,1.2H61.3c-1.1,0-2.1-0.2-3-0.7
				C57.5,487.5,57,486.9,57,486z"/>
			<path fill="#004CAC" d="M110.2,486v-44c0-0.9,0.4-1.5,1.3-2c0.8-0.5,1.8-0.7,3-0.7h26.3c1,0,1.7,0.4,2.3,1.2
				c0.5,0.8,0.8,1.7,0.8,2.6c0,1.1-0.3,2-0.8,2.8c-0.5,0.8-1.3,1.2-2.2,1.2h-20.9v13.6H131c0.9,0,1.7,0.3,2.2,1
				c0.5,0.7,0.8,1.5,0.8,2.5c0,0.9-0.3,1.6-0.8,2.3c-0.5,0.7-1.3,1.1-2.3,1.1h-11.2V481h20.9c0.9,0,1.7,0.4,2.2,1.2
				c0.5,0.8,0.8,1.7,0.8,2.8c0,1-0.3,1.9-0.8,2.6c-0.5,0.8-1.3,1.2-2.3,1.2h-26.3c-1.1,0-2.1-0.2-3-0.7
				C110.6,487.5,110.2,486.9,110.2,486z"/>
			<path fill="#004CAC" d="M153.9,486v-44.1c0-0.9,0.5-1.6,1.4-2c0.9-0.5,2.1-0.7,3.4-0.7c1.3,0,2.5,0.2,3.4,0.7
				c0.9,0.5,1.4,1.1,1.4,2V481h18c0.9,0,1.6,0.4,2.1,1.2c0.5,0.8,0.8,1.7,0.8,2.7c0,1-0.3,1.9-0.8,2.7c-0.5,0.8-1.2,1.2-2.1,1.2
				h-23.4c-1.1,0-2.1-0.2-3-0.7C154.3,487.5,153.9,486.9,153.9,486z"/>
			<path fill="#004CAC" d="M194.3,486v-44c0-0.9,0.4-1.5,1.3-2c0.8-0.5,1.8-0.7,3-0.7h26.3c1,0,1.7,0.4,2.3,1.2
				c0.5,0.8,0.8,1.7,0.8,2.6c0,1.1-0.3,2-0.8,2.8c-0.5,0.8-1.3,1.2-2.2,1.2h-20.9v13.6h11.2c0.9,0,1.7,0.3,2.2,1
				c0.5,0.7,0.8,1.5,0.8,2.5c0,0.9-0.3,1.6-0.8,2.3c-0.5,0.7-1.3,1.1-2.3,1.1h-11.2V481h20.9c0.9,0,1.7,0.4,2.2,1.2
				c0.5,0.8,0.8,1.7,0.8,2.8c0,1-0.3,1.9-0.8,2.6c-0.5,0.8-1.3,1.2-2.3,1.2h-26.3c-1.1,0-2.1-0.2-3-0.7
				C194.7,487.5,194.3,486.9,194.3,486z"/>
			<path fill="#004CAC" d="M236.9,473.7v-18.9c0-5.3,1.6-9.3,4.7-11.8c3.2-2.5,7.3-3.8,12.3-3.8c5.2,0,9.4,1.2,12.7,3.5
				c3.3,2.4,4.9,5.5,4.9,9.4c0,1.7-0.4,2.8-1.1,3.4c-0.7,0.6-2,0.9-3.7,0.9c-3.2,0-4.8-0.9-4.8-2.8c0-0.6-0.1-1.1-0.2-1.5
				c-0.1-0.4-0.3-1-0.6-1.7c-0.3-0.7-0.7-1.3-1.2-1.8c-0.5-0.5-1.2-0.9-2.2-1.2c-1-0.3-2.1-0.5-3.5-0.5c-5.2,0-7.8,2.6-7.8,7.8v18.9
				c0,5.2,2.6,7.8,7.9,7.8c1.6,0,2.9-0.2,4-0.7c1.1-0.5,1.8-1.1,2.3-1.9c0.5-0.8,0.8-1.6,1-2.2c0.2-0.7,0.3-1.5,0.3-2.4
				c0.1-1.9,1.7-2.8,4.7-2.8c1.7,0,3,0.3,3.7,0.9c0.8,0.6,1.1,1.8,1.1,3.4c0,4.1-1.6,7.3-4.9,9.8c-3.3,2.4-7.5,3.7-12.7,3.7
				c-5.1,0-9.2-1.3-12.3-3.8C238.5,482.9,236.9,479,236.9,473.7z"/>
			<path fill="#004CAC" d="M279.1,443c0-1,0.3-1.9,0.8-2.7c0.5-0.8,1.3-1.2,2.3-1.2h31.3c1,0,1.7,0.4,2.3,1.2
				c0.5,0.8,0.8,1.7,0.8,2.7c0,1.1-0.3,2-0.8,2.7c-0.5,0.8-1.3,1.2-2.2,1.2h-10.8v39c0,0.9-0.5,1.5-1.4,2c-1,0.5-2.1,0.7-3.4,0.7
				c-1.3,0-2.5-0.2-3.4-0.7c-0.9-0.5-1.4-1.2-1.4-2v-39h-10.9c-0.9,0-1.7-0.4-2.2-1.1C279.4,445.1,279.1,444.2,279.1,443z"/>
			<path fill="#004CAC" d="M326.3,486v-44.1c0-0.7,0.3-1.4,0.9-1.9c0.6-0.5,1.3-0.8,2.2-0.8H344c11.7,0,17.5,4.7,17.5,14.2
				c0,3.7-0.9,6.7-2.6,8.9c-1.7,2.3-4.1,3.8-7.1,4.6l9.7,16.5c0.2,0.3,0.4,0.6,0.4,1.1c0,1.1-0.6,2.2-1.9,3.2
				c-1.3,1-2.6,1.5-4.1,1.5c-1.4,0-2.5-0.7-3.3-2.1l-10.5-18.7h-6.2V486c0,0.9-0.5,1.5-1.4,2c-0.9,0.5-2.1,0.7-3.4,0.7
				c-1.3,0-2.4-0.2-3.4-0.7C326.7,487.5,326.3,486.9,326.3,486z M335.9,461.4h8.1c5.3,0,7.9-2.4,7.9-7.2c0-4.8-2.6-7.3-7.9-7.3h-8.1
				V461.4z"/>
			<path fill="#004CAC" d="M373,486v-44.1c0-0.9,0.5-1.6,1.4-2c0.9-0.5,2.1-0.7,3.4-0.7c1.3,0,2.5,0.2,3.4,0.7
				c0.9,0.5,1.4,1.1,1.4,2V486c0,0.9-0.5,1.5-1.4,2c-1,0.5-2.1,0.7-3.4,0.7c-1.3,0-2.5-0.2-3.4-0.7C373.4,487.5,373,486.9,373,486z"
				/>
			<path fill="#004CAC" d="M395.5,473.7v-18.9c0-5.3,1.6-9.3,4.7-11.8c3.2-2.5,7.3-3.8,12.3-3.8c5.2,0,9.4,1.2,12.7,3.5
				c3.3,2.4,4.9,5.5,4.9,9.4c0,1.7-0.4,2.8-1.1,3.4c-0.7,0.6-2,0.9-3.7,0.9c-3.2,0-4.8-0.9-4.8-2.8c0-0.6-0.1-1.1-0.2-1.5
				c-0.1-0.4-0.3-1-0.6-1.7c-0.3-0.7-0.7-1.3-1.2-1.8c-0.5-0.5-1.2-0.9-2.2-1.2c-1-0.3-2.1-0.5-3.5-0.5c-5.2,0-7.8,2.6-7.8,7.8v18.9
				c0,5.2,2.6,7.8,7.9,7.8c1.6,0,2.9-0.2,4-0.7c1.1-0.5,1.8-1.1,2.3-1.9s0.8-1.6,1-2.2c0.2-0.7,0.3-1.5,0.3-2.4
				c0.1-1.9,1.7-2.8,4.7-2.8c1.7,0,3,0.3,3.7,0.9c0.8,0.6,1.1,1.8,1.1,3.4c0,4.1-1.6,7.3-4.9,9.8c-3.3,2.4-7.5,3.7-12.7,3.7
				c-5.1,0-9.2-1.3-12.3-3.8C397.1,482.9,395.5,479,395.5,473.7z"/>
			<path fill="#004CAC" d="M441.5,486v-44.1c0-0.9,0.5-1.6,1.4-2c0.9-0.5,2.1-0.7,3.4-0.7c1.3,0,2.5,0.2,3.4,0.7
				c0.9,0.5,1.4,1.1,1.4,2V486c0,0.9-0.5,1.5-1.4,2c-1,0.5-2.1,0.7-3.4,0.7c-1.3,0-2.5-0.2-3.4-0.7C442,487.5,441.5,486.9,441.5,486
				z"/>
			<path fill="#004CAC" d="M461,443c0-1,0.3-1.9,0.8-2.7c0.5-0.8,1.3-1.2,2.3-1.2h31.3c1,0,1.7,0.4,2.3,1.2c0.5,0.8,0.8,1.7,0.8,2.7
				c0,1.1-0.3,2-0.8,2.7c-0.5,0.8-1.3,1.2-2.2,1.2h-10.8v39c0,0.9-0.5,1.5-1.4,2c-1,0.5-2.1,0.7-3.4,0.7c-1.3,0-2.5-0.2-3.4-0.7
				c-0.9-0.5-1.4-1.2-1.4-2v-39H464c-0.9,0-1.7-0.4-2.2-1.1S461,444.2,461,443z"/>
			<path fill="#004CAC" d="M508.2,486v-44c0-0.9,0.4-1.5,1.3-2c0.8-0.5,1.8-0.7,3-0.7h26.3c1,0,1.7,0.4,2.3,1.2
				c0.5,0.8,0.8,1.7,0.8,2.6c0,1.1-0.3,2-0.8,2.8c-0.5,0.8-1.3,1.2-2.2,1.2h-20.9v13.6H529c0.9,0,1.7,0.3,2.2,1
				c0.5,0.7,0.8,1.5,0.8,2.5c0,0.9-0.3,1.6-0.8,2.3c-0.5,0.7-1.3,1.1-2.3,1.1h-11.2V481h20.9c0.9,0,1.7,0.4,2.2,1.2
				c0.5,0.8,0.8,1.7,0.8,2.8c0,1-0.3,1.9-0.8,2.6c-0.5,0.8-1.3,1.2-2.3,1.2h-26.3c-1.1,0-2.1-0.2-3-0.7
				C508.6,487.5,508.2,486.9,508.2,486z"/>
			<path fill="#004CAC" d="M571.3,486v-44c0-0.9,0.4-1.5,1.3-2c0.8-0.5,1.8-0.7,3-0.7h26.3c1,0,1.7,0.4,2.3,1.2
				c0.5,0.8,0.8,1.7,0.8,2.6c0,1.1-0.3,2-0.8,2.8c-0.5,0.8-1.3,1.2-2.2,1.2h-20.9v13.6h11.2c0.9,0,1.7,0.3,2.2,1
				c0.5,0.7,0.8,1.5,0.8,2.5c0,0.9-0.3,1.6-0.8,2.3c-0.5,0.7-1.3,1.1-2.3,1.1h-11.2V481h20.9c0.9,0,1.7,0.4,2.2,1.2
				c0.5,0.8,0.8,1.7,0.8,2.8c0,1-0.3,1.9-0.8,2.6c-0.5,0.8-1.3,1.2-2.3,1.2h-26.3c-1.1,0-2.1-0.2-3-0.7
				C571.7,487.5,571.3,486.9,571.3,486z"/>
			<path fill="#004CAC" d="M615,486v-44c0-0.9,0.5-1.6,1.4-2.1c0.9-0.5,2.1-0.7,3.4-0.7c1.8,0,3.1,0.3,4.1,0.9
				c0.9,0.6,2,1.9,3.1,3.8l14.3,25.3v-27.3c0-0.9,0.5-1.6,1.4-2c0.9-0.5,2.1-0.7,3.4-0.7c1.3,0,2.5,0.2,3.4,0.7
				c0.9,0.5,1.4,1.1,1.4,2V486c0,0.9-0.5,1.5-1.4,2c-1,0.5-2.1,0.7-3.4,0.7c-2.6,0-4.5-0.9-5.5-2.8l-15.9-27.3V486
				c0,0.9-0.5,1.5-1.4,2c-1,0.5-2.1,0.7-3.4,0.7c-1.3,0-2.5-0.2-3.4-0.7C615.5,487.5,615,486.9,615,486z"/>
			<path fill="#004CAC" d="M683.7,486v-44.1c0-0.7,0.3-1.4,0.9-1.9c0.6-0.5,1.3-0.8,2.2-0.8h14.6c11.7,0,17.5,4.7,17.5,14.2
				c0,3.7-0.9,6.7-2.6,8.9c-1.7,2.3-4.1,3.8-7.1,4.6l9.7,16.5c0.2,0.3,0.4,0.6,0.4,1.1c0,1.1-0.6,2.2-1.9,3.2
				c-1.3,1-2.6,1.5-4.1,1.5c-1.4,0-2.5-0.7-3.3-2.1l-10.5-18.7h-6.2V486c0,0.9-0.5,1.5-1.4,2c-0.9,0.5-2.1,0.7-3.4,0.7
				c-1.3,0-2.4-0.2-3.4-0.7C684.1,487.5,683.7,486.9,683.7,486z M693.3,461.4h8.1c5.3,0,7.9-2.4,7.9-7.2c0-4.8-2.6-7.3-7.9-7.3h-8.1
				V461.4z"/>
			<path fill="#004CAC" d="M730.4,486v-44c0-0.9,0.4-1.5,1.3-2c0.8-0.5,1.8-0.7,3-0.7h26.3c1,0,1.7,0.4,2.3,1.2
				c0.5,0.8,0.8,1.7,0.8,2.6c0,1.1-0.3,2-0.8,2.8c-0.5,0.8-1.3,1.2-2.2,1.2H740v13.6h11.2c0.9,0,1.7,0.3,2.2,1
				c0.5,0.7,0.8,1.5,0.8,2.5c0,0.9-0.3,1.6-0.8,2.3c-0.5,0.7-1.3,1.1-2.3,1.1H740V481h20.9c0.9,0,1.7,0.4,2.2,1.2
				c0.5,0.8,0.8,1.7,0.8,2.8c0,1-0.3,1.9-0.8,2.6c-0.5,0.8-1.3,1.2-2.3,1.2h-26.3c-1.1,0-2.1-0.2-3-0.7
				C730.8,487.5,730.4,486.9,730.4,486z"/>
			<path fill="#004CAC" d="M771.4,481c0-1,0.4-2.1,1.3-3.2c0.9-1.1,1.8-1.6,2.9-1.6c0.6,0,1.4,0.3,2.2,0.8c0.8,0.6,1.6,1.2,2.4,1.9
				c0.8,0.7,1.9,1.3,3.3,1.9c1.4,0.6,3,0.8,4.7,0.8c2.4,0,4.3-0.5,5.9-1.5c1.6-1,2.4-2.5,2.4-4.4c0-1.4-0.4-2.6-1.3-3.6
				c-0.9-1.1-2-1.9-3.4-2.6c-1.4-0.7-2.9-1.4-4.6-2c-1.7-0.7-3.4-1.4-5.1-2.2c-1.7-0.8-3.3-1.7-4.7-2.7c-1.4-1-2.5-2.4-3.4-4.1
				c-0.9-1.7-1.3-3.6-1.3-5.8c0-2.4,0.5-4.6,1.6-6.4c1.1-1.9,2.5-3.3,4.2-4.3c1.8-1,3.7-1.8,5.7-2.3c2-0.5,4.2-0.7,6.4-0.7
				c1.3,0,2.6,0.1,4.1,0.2c1.4,0.2,2.9,0.4,4.5,0.8c1.6,0.4,2.9,0.9,3.9,1.7c1,0.8,1.5,1.7,1.5,2.8c0,1-0.3,2-1,3.1
				c-0.7,1.1-1.6,1.6-2.8,1.6c-0.4,0-1.7-0.4-3.6-1.3c-2-0.9-4.2-1.3-6.6-1.3c-2.7,0-4.7,0.5-6.2,1.4c-1.5,0.9-2.2,2.2-2.2,3.8
				c0,1.3,0.6,2.5,1.8,3.4c1.2,1,2.6,1.8,4.4,2.4c1.7,0.6,3.6,1.4,5.7,2.3c2,0.9,3.9,1.9,5.7,3c1.7,1.1,3.2,2.7,4.4,4.7
				c1.2,2.1,1.8,4.5,1.8,7.2c0,4.6-1.6,8.2-4.8,10.7c-3.2,2.5-7.5,3.8-12.7,3.8c-4.7,0-8.7-0.9-12-2.6
				C773.1,485,771.4,483.1,771.4,481z"/>
			<path fill="#004CAC" d="M818,486v-44c0-0.9,0.4-1.5,1.3-2c0.8-0.5,1.8-0.7,3-0.7h26.3c1,0,1.7,0.4,2.3,1.2
				c0.5,0.8,0.8,1.7,0.8,2.6c0,1.1-0.3,2-0.8,2.8c-0.5,0.8-1.3,1.2-2.2,1.2h-20.9v13.6h11.2c0.9,0,1.7,0.3,2.2,1
				c0.5,0.7,0.8,1.5,0.8,2.5c0,0.9-0.3,1.6-0.8,2.3c-0.5,0.7-1.3,1.1-2.3,1.1h-11.2V481h20.9c0.9,0,1.7,0.4,2.2,1.2
				c0.5,0.8,0.8,1.7,0.8,2.8c0,1-0.3,1.9-0.8,2.6c-0.5,0.8-1.3,1.2-2.3,1.2h-26.3c-1.1,0-2.1-0.2-3-0.7
				C818.4,487.5,818,486.9,818,486z"/>
			<path fill="#004CAC" d="M907.5,473.7v-31.7c0-0.9,0.5-1.6,1.4-2c0.9-0.5,2.1-0.7,3.4-0.7c1.3,0,2.5,0.2,3.4,0.7
				c0.9,0.5,1.4,1.1,1.4,2v31.7c0,5.2,2.7,7.8,8.1,7.8c5.4,0,8.1-2.6,8.1-7.8v-31.7c0-0.9,0.5-1.6,1.4-2c0.9-0.5,2.1-0.7,3.4-0.7
				s2.5,0.2,3.4,0.7c0.9,0.5,1.4,1.1,1.4,2v31.7c0,5.3-1.6,9.3-4.8,11.8c-3.2,2.5-7.5,3.8-12.9,3.8c-5.4,0-9.7-1.2-12.9-3.7
				C909.1,483,907.5,479,907.5,473.7z"/>
			<path fill="#004CAC" d="M100.3,443"/>
			<path fill="#004CAC" d="M92.5,440.1c0,0,1.2-1.5,2.8-1c0,0,2.8,0.7,3.9,2c0,0,0.7,1.2,0.1,2.3l-4.9,10.2c0,0-0.8,1.2-2.8,1
				c0,0-1.1,0.1-2.1-1c0,0-1.5-1.5-0.8-3L92.5,440.1z"/>
			<path fill="#004CAC" d="M887.8,478l2.8,9c0.4,1.2,1.6,1.8,3.7,1.8c1.6,0,2.4-0.4,3.8-1.1c1.5-0.8,2.2-1.7,2.2-2.8
				c0-0.1-0.1-0.3-0.1-0.7l-14.1-42c-0.4-1-1.2-1.9-2.3-2.5c-1.5-0.8-3.7-0.9-5.2-0.9c-1.5,0-3.6,0-5.2,0.9
				c-1.1,0.6-1.9,1.4-2.3,2.5l-14.1,42c-0.1,0.4-0.1,0.6-0.1,0.7c0,1.1,0.7,2,2.2,2.8c1.5,0.7,2.2,1.1,3.8,1.1
				c2.1,0,3.3-0.6,3.7-1.8l2.8-9H887.8z M871.4,471.1l7.1-23.3l7.1,23.3H871.4z"/>
		</g>
	</g>
</g>
</svg>
