<?xml version="1.0" encoding="utf-8"?>
<!-- Generator: Adobe Illustrator 23.0.1, SVG Export Plug-In . SVG Version: 6.00 Build 0)  -->
<svg version="1.1" id="Starcom" xmlns="http://www.w3.org/2000/svg" xmlns:xlink="http://www.w3.org/1999/xlink" x="0px" y="0px"
	 viewBox="0 0 1000 700" style="enable-background:new 0 0 1000 700;" xml:space="preserve">
<g>
	<g>
		<path d="M537.4,638c14,0,27.7-7.3,34-17.9l-11.9-8.6c-4.9,6.5-12.1,11.9-22.2,11.9c-14.7,0-25.4-10.3-25.4-25.2
			c0-14.5,10.6-25.2,24.4-25.2c9.8,0,16.9,5.7,21.2,11.6l11.4-9.6c-7.2-9.9-19.2-16.6-32.6-16.6c-23,0-39.9,17.3-39.9,39.9
			C496.5,620.7,513.7,638,537.4,638z"/>
		<path d="M298.4,608.7c0,8.3,1.6,15.3,6.2,20.4c4.9,5.5,12.1,9,21.7,9c4.4,0,9.1-0.7,12.1-1.6l-3.1-14c-2.3,0.7-6.2,1-8.5,1
			c-4.1,0-8.5-1.5-10.6-4.1c-2-2.3-2.3-5.7-2.3-9.8v-35.8h24.4v-13.8h-24.4v-21.2h-3.3l-12.1,11.9v9.3h-19.5v13.8h19.5V608.7z"/>
		<path d="M685.6,583.7c4.4-5.2,12.1-10.9,21.5-10.9c5.9,0,11.4,2.6,14.8,6.7c2.8,3.3,4.4,7.5,4.4,15.3v41.5h15.5v-39.1
			c0-5.4-0.5-9.8-1.3-13.5c5-5.2,12.2-10.9,23.3-10.9c5.7,0,10.9,2.6,14.3,6.7c2.8,3.3,4.4,7.5,4.4,15.3v41.5H798v-39.1
			c0-12.9-2.3-20.4-7-26.2c-6.3-8-16.3-12.9-27.2-12.9c-13.9,0-22.2,5.7-29.2,12.7c-6.4-7.7-15.8-12.7-27-12.7
			c-10.4,0-19.4,5.5-22.5,9v-7.3h-15v76.6h15.5V583.7z"/>
		<path d="M462.7,585.7c4.2-7.3,12.7-12.9,20.7-12.9c1.9,0,3.4,0.1,4.9,0.4v-14.9c-1.1-0.1-2.2-0.1-3.1-0.1
			c-11.2,0-19.2,5.2-23,10.4v-8.8h-15v76.6h15.5V585.7z"/>
		<path d="M619.1,638c22.6,0,39.6-17.1,39.6-39.9c0-22.8-16.9-39.9-39.6-39.9c-22.6,0-39.6,17.1-39.6,39.9
			C579.6,620.9,596.5,638,619.1,638z M619.1,572.8c14.2,0,24.1,11.2,24.1,25.2c0,14-9.9,25.2-24.1,25.2c-14.2,0-24.1-11.2-24.1-25.2
			C595,584.1,605,572.8,619.1,572.8z"/>
		<path d="M366.9,632.9c5.2,3.1,12.4,5.1,19.2,5.1c9.1,0,17.4-3.1,23.6-8.6v7h15v-76.6h-15v7c-7-6-15.3-8.6-23.9-8.6
			c-7.2,0-13.5,1.8-18.7,4.9c-11.6,6.8-19.7,19.7-19.7,35C347.3,613.4,355.3,626.1,366.9,632.9z M387.4,572.8
			c9.3,0,17.1,4.7,21.8,10.9v28.7c-5.2,7-13.2,10.9-21,10.9c-14.8,0-25.4-11.6-25.4-25.2C362.8,584.7,372.6,572.8,387.4,572.8z"/>
		<path d="M241.1,622.5c-11.7,0-21.2-6.5-27.9-14.7L202,618.9c10.1,12.2,24.3,19.1,39.9,19.1c19.9,0,35.3-13,35.3-33.1
			c0-13-7.2-21-14.8-26.1c-14.7-9.8-38.9-12.9-38.9-27.4c0-9.9,9.4-15.3,18.9-15.3c7.2,0,14.2,2.6,20.4,7.8l9.6-11.9
			c-6-5.1-16.1-11.4-30.6-11.4c-19.9,0-34.5,13.7-34.5,30.3c0,11.9,6.4,19.7,14.5,25.1C236.8,586,261,588,261,605.4
			C261,615.7,251.7,622.5,241.1,622.5z"/>
	</g>
	<g>
		<polygon style="fill:#FF8C00;" points="700.7,404.5 635.2,275.2 613.5,277.2 679.4,406 684.6,411 		"/>
		<polygon style="fill:#FF2C00;" points="612.3,340.6 591.8,349.1 684,416.4 700.7,404.5 		"/>
		<polygon style="fill:#FF8C00;" points="521.6,492.1 618.2,338.2 585.3,351.8 501,486.1 		"/>
		<polygon style="fill:#FF2C00;" points="521.4,316.9 500,316.9 500,488.1 521.4,492 		"/>
		<polygon style="fill:#FF8C00;" points="684.5,142.8 679.7,147.5 613.5,277.2 635.2,278.9 700.7,149.6 		"/>
		<polygon style="fill:#FFD600;" points="612.3,213.4 700.7,149.6 684,137.7 591.8,205 		"/>
		<polygon style="fill:#FF8C00;" points="521.6,62 502.1,67.8 504.3,73.2 585.3,202.3 618.2,215.8 		"/>
		<polygon style="fill:#FFD600;" points="263.1,285.8 268,284.8 521.4,237.1 513.2,219.2 257,266.9 		"/>
		<polygon style="fill:#FF2C00;" points="390.5,105.7 382.6,121.6 387.4,126.2 732.4,283.9 738.4,285.5 738.8,285.3 743,266.9 		"/>
		<polygon style="fill:#FF8C00;" points="390.8,442.7 398.4,440.9 508.5,277.1 487.4,270.9 378,433.1 		"/>
		<polygon style="fill:#FFD600;" points="378,433.1 378.9,434.2 390.5,448.4 743,287.2 743,266.7 		"/>
		<polygon style="fill:#FF8C00;" points="390.5,105.7 390.6,105.6 377.5,121.6 487.4,283.1 508.5,277.1 		"/>
		<polygon style="fill:#FF2C00;" points="257,267.2 257,287.7 513.2,335.4 521.4,316.9 		"/>
		<polygon style="fill:#FFD600;" points="521.4,237.1 500,237.1 500,66 521.4,62 		"/>
	</g>
</g>
</svg>
