<?xml version="1.0" encoding="utf-8"?>
<!-- Generator: Adobe Illustrator 23.0.1, SVG Export Plug-In . SVG Version: 6.00 Build 0)  -->
<svg version="1.1" id="Panthéon_Sorbonne" xmlns="http://www.w3.org/2000/svg" xmlns:xlink="http://www.w3.org/1999/xlink" x="0px"
	 y="0px" viewBox="0 0 1000 700" enable-background="new 0 0 1000 700" xml:space="preserve">
<g>
	<path fill="#BE7C08" d="M500,171.5c1.4,0,2.5-1.1,2.5-2.5c0-1.4-1.1-2.5-2.5-2.5c-1.4,0-2.5,1.1-2.5,2.5
		C497.5,170.3,498.6,171.5,500,171.5"/>
	<polygon fill="#BE7C08" points="500,246.7 436.4,273.2 563.6,273.2 	"/>
	<path fill="#BE7C08" d="M492.7,198.1c0-0.7,0.3-1.8,1.6-1.8s1.6,1,1.6,1.8v10.9c-1.1,0.1-2.1,0.2-3.1,0.4V198.1z M497.9,197.3
		c0-1,0.4-2.5,2.2-2.5c1.8,0,2.2,1.5,2.2,2.5v11.4c-0.7,0-1.5-0.1-2.2-0.1c-0.7,0-1.5,0-2.2,0.1V197.3z M504.2,198.1
		c0-0.7,0.3-1.8,1.6-1.8c1.3,0,1.6,1,1.6,1.8v11.2c-1-0.2-2.1-0.3-3.1-0.4V198.1z M514.3,222.2v-11.2l-4-3.8v-13.6l1.9-1.9
		c-0.3-0.3-6.8-7.5-9-17.3h-6.7c-2.1,9.4-8.2,16.5-8.9,17.3l0,0l2,2v13.6l-4,3.8v11.2c-16.7,5.5-29,20.5-30.8,38.6l43.4-18.1
		l1.6-0.7l1.6,0.7l43.4,18.1C543.3,242.7,531,227.8,514.3,222.2"/>
	<rect x="250.7" y="450.4" fill="#BE7C08" width="498.6" height="3.2"/>
	<path fill="#0A2756" d="M250.8,303.5c0-0.4,0.4-0.8,0.8-0.8h1.6c0.5,0,0.8,0.4,0.8,0.8v17.6c0,4.8,3,8.6,7.9,8.6c5,0,8-3.7,8-8.5
		v-17.7c0-0.4,0.3-0.8,0.8-0.8h1.6c0.4,0,0.8,0.4,0.8,0.8v17.8c0,6.4-4.6,11.3-11.2,11.3c-6.6,0-11.1-4.9-11.1-11.3V303.5z"/>
	<path fill="#0A2756" d="M288.7,303c0-0.4,0.4-0.8,0.8-0.8h1.1l19,23.7h0.1v-22.5c0-0.4,0.3-0.8,0.8-0.8h1.5c0.4,0,0.8,0.4,0.8,0.8
		v28.4c0,0.4-0.4,0.8-0.8,0.8h-0.8l-19.4-24.2h0v23c0,0.4-0.3,0.8-0.8,0.8h-1.5c-0.4,0-0.8-0.4-0.8-0.8V303z"/>
	<path fill="#0A2756" d="M328.7,303.5c0-0.4,0.4-0.8,0.8-0.8h1.7c0.4,0,0.8,0.4,0.8,0.8v27.9c0,0.4-0.4,0.8-0.8,0.8h-1.7
		c-0.4,0-0.8-0.4-0.8-0.8V303.5z"/>
	<path fill="#0A2756" d="M344,303.8c-0.3-0.6,0.1-1.1,0.7-1.1h1.7c0.4,0,0.6,0.3,0.7,0.5l10.5,23.6h0.2l10.5-23.6
		c0.1-0.2,0.4-0.5,0.7-0.5h1.7c0.6,0,1,0.5,0.7,1.1l-12.8,28.4c-0.1,0.3-0.4,0.5-0.7,0.5h-0.4c-0.3,0-0.6-0.2-0.7-0.5L344,303.8z"/>
	<path fill="#0A2756" d="M383.3,303.5c0-0.4,0.3-0.8,0.8-0.8h16.6c0.5,0,0.8,0.4,0.8,0.8v1.2c0,0.4-0.3,0.8-0.8,0.8h-14.2v10.3h12.1
		c0.4,0,0.8,0.4,0.8,0.8v1.2c0,0.5-0.4,0.8-0.8,0.8h-12.1v10.8h14.2c0.5,0,0.8,0.4,0.8,0.8v1.2c0,0.4-0.3,0.8-0.8,0.8h-16.6
		c-0.5,0-0.8-0.4-0.8-0.8V303.5z"/>
	<path fill="#0A2756" d="M415.7,303.5c0-0.4,0.3-0.8,0.8-0.8h10.9c5.1,0,9.2,4,9.2,9c0,3.9-2.6,7.1-6.2,8.6l5.8,10.7
		c0.3,0.6,0,1.2-0.7,1.2h-2.2c-0.4,0-0.6-0.2-0.7-0.4l-5.6-11.2h-8.1v10.8c0,0.4-0.4,0.8-0.8,0.8h-1.6c-0.5,0-0.8-0.4-0.8-0.8V303.5
		z M427.2,317.9c3.2,0,6.1-2.7,6.1-6.2c0-3.2-2.8-5.9-6.1-5.9H419v12.1H427.2z"/>
	<path fill="#0A2756" d="M449,327.8c0.2-0.3,0.4-0.6,0.6-0.8c0.4-0.5,0.9-0.9,1.5-0.4c0.3,0.3,3.4,3.2,7.1,3.2
		c3.4,0,5.7-2.2,5.7-4.6c0-2.9-2.5-4.6-7.4-6.7c-4.6-2-7.4-3.9-7.4-8.7c0-2.9,2.3-7.5,9-7.5c4.1,0,7.2,2.1,7.2,2.1
		c0.3,0.1,0.8,0.6,0.3,1.4c-0.2,0.3-0.3,0.6-0.5,0.8c-0.4,0.6-0.8,0.8-1.5,0.4c-0.3-0.2-3-1.9-5.5-1.9c-4.5,0-5.8,2.9-5.8,4.6
		c0,2.8,2.1,4.5,5.7,5.9c5.7,2.3,9.4,4.5,9.4,9.4c0,4.4-4.2,7.6-9.1,7.6c-5,0-8.4-2.9-8.9-3.4C448.9,328.9,448.5,328.6,449,327.8"/>
	<path fill="#0A2756" d="M480.8,303.5c0-0.4,0.4-0.8,0.8-0.8h1.7c0.4,0,0.8,0.4,0.8,0.8v27.9c0,0.4-0.4,0.8-0.8,0.8h-1.7
		c-0.4,0-0.8-0.4-0.8-0.8V303.5z"/>
	<path fill="#0A2756" d="M504.2,305.5h-7.3c-0.5,0-0.8-0.4-0.8-0.8v-1.2c0-0.4,0.3-0.8,0.8-0.8h17.9c0.5,0,0.8,0.4,0.8,0.8v1.2
		c0,0.4-0.3,0.8-0.8,0.8h-7.3v25.9c0,0.4-0.4,0.8-0.8,0.8H505c-0.4,0-0.8-0.4-0.8-0.8V305.5z"/>
	<path fill="#0A2756" d="M527.5,303.5c0-0.4,0.3-0.8,0.8-0.8h16.6c0.5,0,0.8,0.4,0.8,0.8v1.2c0,0.4-0.3,0.8-0.8,0.8h-14.2v10.3h12.1
		c0.4,0,0.8,0.4,0.8,0.8v1.2c0,0.5-0.4,0.8-0.8,0.8h-12.1v10.8h14.2c0.5,0,0.8,0.4,0.8,0.8v1.2c0,0.4-0.3,0.8-0.8,0.8h-16.6
		c-0.5,0-0.8-0.4-0.8-0.8V303.5z M532.8,298.3c-0.2-0.3,0-0.7,0.3-0.8l6.3-3.5c0.3-0.2,0.9-0.3,1.1,0.1l0.8,1.5
		c0.2,0.3,0.1,0.8-0.3,0.9l-6.8,2.8c-0.6,0.2-0.8,0.2-1-0.1L532.8,298.3z"/>
	<path fill="#0A2756" d="M576.6,303.5c0-0.4,0.3-0.8,0.8-0.8h9.3c5.2,0,9.5,4.2,9.5,9.3c0,5.2-4.3,9.5-9.4,9.5h-7v9.9
		c0,0.4-0.4,0.8-0.8,0.8h-1.6c-0.5,0-0.8-0.4-0.8-0.8V303.5z M586.5,318.4c3.5,0,6.4-2.8,6.4-6.5c0-3.4-3-6-6.4-6h-6.7v12.5H586.5z"
		/>
	<path fill="#0A2756" d="M603.7,331.1l12.8-28.4c0.1-0.3,0.3-0.5,0.7-0.5h0.4c0.4,0,0.6,0.2,0.7,0.5l12.7,28.4
		c0.3,0.6-0.1,1.1-0.7,1.1h-1.7c-0.4,0-0.6-0.3-0.7-0.5l-3.1-7h-15l-3.1,7c-0.1,0.2-0.3,0.5-0.7,0.5h-1.7
		C603.8,332.2,603.5,331.7,603.7,331.1 M623.8,322.2c-2.1-4.6-4.1-9.2-6.2-13.8h-0.3l-6.2,13.8H623.8z"/>
	<path fill="#0A2756" d="M643.1,303.5c0-0.4,0.3-0.8,0.8-0.8h10.9c5.1,0,9.2,4,9.2,9c0,3.9-2.6,7.1-6.2,8.6l5.8,10.7
		c0.3,0.6,0,1.2-0.7,1.2h-2.2c-0.4,0-0.6-0.2-0.7-0.4l-5.6-11.2h-8.1v10.8c0,0.4-0.4,0.8-0.8,0.8h-1.6c-0.5,0-0.8-0.4-0.8-0.8V303.5
		z M654.6,317.9c3.2,0,6.1-2.7,6.1-6.2c0-3.2-2.8-5.9-6.1-5.9h-8.2v12.1H654.6z"/>
	<path fill="#0A2756" d="M678.4,303.5c0-0.4,0.4-0.8,0.8-0.8h1.7c0.4,0,0.8,0.4,0.8,0.8v27.9c0,0.4-0.4,0.8-0.8,0.8h-1.7
		c-0.4,0-0.8-0.4-0.8-0.8V303.5z"/>
	<path fill="#0A2756" d="M695.7,327.8c0.2-0.3,0.4-0.6,0.6-0.8c0.4-0.5,0.9-0.9,1.5-0.4c0.3,0.3,3.4,3.2,7.1,3.2
		c3.4,0,5.7-2.2,5.7-4.6c0-2.9-2.5-4.6-7.4-6.7c-4.6-2-7.4-3.9-7.4-8.7c0-2.9,2.3-7.5,9-7.5c4.1,0,7.2,2.1,7.2,2.1
		c0.3,0.1,0.8,0.6,0.3,1.4c-0.2,0.3-0.3,0.6-0.5,0.8c-0.4,0.6-0.8,0.8-1.5,0.4c-0.3-0.2-3-1.9-5.5-1.9c-4.5,0-5.8,2.9-5.8,4.6
		c0,2.8,2.1,4.5,5.7,5.9c5.7,2.3,9.4,4.5,9.4,9.4c0,4.4-4.2,7.6-9.1,7.6c-5,0-8.4-2.9-8.9-3.4C695.6,328.9,695.2,328.6,695.7,327.8"
		/>
	<path fill="#0A2756" d="M746.1,308.8l-3,2.4c-0.3,0.3-0.7,0.3-1,0l-0.8-0.9c-0.3-0.3-0.1-0.7,0.1-0.9l5.9-5.7h1.1
		c0.4,0,0.8,0.4,0.8,0.8v27.1c0,0.4-0.3,0.8-0.8,0.8h-1.5c-0.5,0-0.8-0.4-0.8-0.8V308.8z"/>
	<path fill="#0A2756" d="M63.3,416.2c-0.6-0.1-1.2-0.2-1.8-0.3c-0.2-0.2-0.8-1.2-0.8-4.1v-41.3c0-4.4,0.9-4.6,2.5-4.6h1.5
		c8.6,0,13.5,4.6,13.5,12.7c0,8.4-4.8,13.5-12.9,13.5h-1.2v0.7c0,0.1,0,2,0.8,3.2l0.2,0.3h0.6c14.5,0,23.8-7,23.8-17.8
		c0-14.6-16.1-16.8-25.6-16.8H42.6v3.8l0.5,0.1c1.8,0.4,4.3,0.8,5.9,1c0.2,0.2,0.7,1.1,0.7,3.9v41.3c0,2.9-0.6,3.9-0.7,4.1
		c-0.5,0.1-1.2,0.2-1.8,0.3c-1.5,0.2-3,0.4-4.1,0.7l-0.5,0.1v3.8H68V417l-0.5-0.1C66.3,416.6,64.8,416.4,63.3,416.2"/>
	<path fill="#0A2756" d="M198.7,361.7H180v3.9l1.4,0c3.5,0,7,0.6,7,4.9v33.3L153.9,362l-0.2-0.2H140v4.1h0.7c1.3,0,5.9,3.9,7.5,6.7
		V412c0,4.3-2.9,4.9-5.7,4.9l-1.3,0v3.9H161v-3.9l-1.4,0c-3.5,0-7-0.6-7-4.9v-34.5l35.5,43.1l0.2,0.2h4.5v-50.3
		c0-4.3,2.9-4.9,5.7-4.9l0.3,0V361.7z"/>
	<path fill="#0A2756" d="M249.3,362.4l0-0.7H202l0,0.6c0,0.1-0.2,5.9-1.1,10.6l-0.1,0.6l0.5,0.2c0.1,0,1.9,0.6,3.1,0.5l0.5,0
		l0.1-0.5c0.3-2.3,1.8-7.8,8.4-7.8h6.7v45.9c0,2.9-0.6,3.9-0.7,4.1c-0.5,0.1-1.2,0.2-1.8,0.3c-1.5,0.2-3,0.4-4.1,0.7L213,417v3.8
		h25.4V417l-0.5-0.1c-1.2-0.3-2.7-0.5-4.1-0.7c-0.6-0.1-1.2-0.2-1.8-0.3c-0.2-0.2-0.8-1.2-0.8-4.1V366h6.9c6.3,0,7.9,5.4,8.2,7.8
		l0.1,0.5l0.5,0c0,0,1.4,0.1,3.1-0.5l0.5-0.2l-0.1-0.6C250.4,373,249.4,367,249.3,362.4"/>
	<path fill="#0A2756" d="M293,365.5l0.5,0.1c1.8,0.4,4.3,0.8,5.9,1c0.2,0.2,0.7,1.1,0.7,3.9v17.2h-29.1v-17.2c0-2.9,0.6-3.8,0.7-3.9
		c1.7-0.2,4.2-0.6,6-1l0.5-0.1v-3.8h-25.4v3.8l0.5,0.1c1.8,0.4,4.3,0.8,5.9,1c0.2,0.2,0.7,1.1,0.7,3.9v41.3c0,2.9-0.6,3.9-0.7,4
		c-0.6,0.1-1.2,0.2-1.8,0.3c-1.5,0.2-3,0.4-4.1,0.7l-0.5,0.1v3.8h25.4V417l-0.5-0.1c-1.2-0.3-2.7-0.5-4.1-0.7
		c-0.6-0.1-1.2-0.2-1.8-0.3c-0.2-0.2-0.8-1.2-0.8-4.1V392h29.1v19.9c0,2.9-0.6,3.9-0.7,4c-0.5,0.1-1.2,0.2-1.8,0.3
		c-1.5,0.2-3,0.4-4.1,0.7L293,417v3.8h25.4V417l-0.5-0.1c-1.2-0.3-2.7-0.5-4.1-0.7c-0.6-0.1-1.2-0.2-1.8-0.3
		c-0.2-0.2-0.8-1.2-0.8-4.1v-41.3c0-2.9,0.6-3.8,0.7-3.9c1.7-0.2,4.2-0.6,6-1l0.5-0.1v-3.8H293V365.5z"/>
	<path fill="#0A2756" d="M365.4,409.2l-0.6,0l-0.1,0.5c-0.2,0.8-0.9,3.3-2,4.4c-1.7,1.8-4,2.5-8.3,2.5h-8.9c-2,0-3.4-0.3-3.4-4.7
		v-18.9h11c2.3,0,2.9,1.2,3.2,7l0,0.7l4-0.3v-19.3l-4-0.3l0,0.7c-0.3,6.1-0.8,7.2-3.2,7.2h-11V366h9.5c3.4,0,6.2,1.1,7.5,2.9
		c1.1,1.5,1.7,3.9,1.7,4l0.1,0.5l0.5,0c0,0,1.4,0.1,3.1-0.5l0.5-0.2L365,372c0-0.1-1-5.1-1.1-9.6l0-0.7h-39.9v3.8l0.5,0.1
		c1.8,0.4,4.2,0.8,5.9,1c0.2,0.2,0.6,1,0.8,3.1v43c-0.1,2.2-0.6,3-0.8,3.2c-0.5,0.1-1.1,0.2-1.8,0.3c-1.5,0.2-3,0.4-4.1,0.7
		l-0.5,0.1v3.8h43.8l0-0.7c0.1-4.3,1.1-9.6,1.1-9.6l0.1-0.5l-0.5-0.2C367.5,409.4,365.6,409.2,365.4,409.2"/>
	<path fill="#0A2756" d="M341.7,359.5c5.5-2.4,12.3-7.2,15.2-9.4l0.3-0.2v-2l-3.5-4.8l-14.4,14.1l2,2.6L341.7,359.5z"/>
	<path fill="#0A2756" d="M400.3,417.2c-4.6,0-8.5-1.5-11.3-4.4c-4.2-4.3-6.3-11.6-6.2-21.2c0.1-6.2,1.7-26.4,17.5-26.4
		c12.9,0,17.5,13.6,17.5,26.4C417.8,414.7,405.6,417.2,400.3,417.2 M400.3,360.7c-16.8,0-29.4,13.3-29.4,30.8
		c0,17.7,12.1,30,29.4,30c17.2,0,29.2-12.4,29.2-30C429.5,374,417,360.7,400.3,360.7"/>
	<path fill="#0A2756" d="M471.4,365.7l1.4,0c3.5,0,7,0.6,7,4.9v33.3L445.4,362l-0.2-0.2h-13.7v4.1h0.7c1.3,0,5.9,3.9,7.5,6.7V412
		c0,4.3-2.9,4.9-5.7,4.9l-1.3,0v3.9h19.8v-3.9l-1.4,0c-3.5,0-7-0.6-7-4.9v-34.5l35.5,43.1l0.2,0.2h4.5v-50.3c0-4.3,2.9-4.9,5.7-4.9
		l1.3,0v-3.9h-19.8V365.7z"/>
	<path fill="#0A2756" d="M542,386.5c-5.9-3.8-11.6-7.3-11.6-13.7c0-5.1,4.4-7.8,8.8-7.8c5.1,0,8.6,3.4,9.7,9.4l0.1,0.4l0.4,0.1
		c0.8,0.2,2.7,0,2.8,0l0.6-0.1l0.4-11l-0.4-0.2c-3.8-2.1-9-2.9-12.6-2.9c-9.5,0-19.1,5.1-19.1,16.4c0,9.1,6.8,13.5,13.4,17.7
		c5.9,3.8,11.5,7.4,11.5,14c0,6.4-4.9,8.7-9.5,8.7c-6.9,0-11.8-4.1-13.1-11.1l-0.1-0.5l-0.5,0c-1.1-0.1-2.7,0-2.7,0l-0.7,0l0,0.7
		c0,0,0.2,4.2,0.8,11.4l0,0.4l0.3,0.2c4.9,2.9,11.3,3.3,14.7,3.3c10,0,20.6-6,20.6-17.2C556,395.3,548.9,390.8,542,386.5"/>
	<path fill="#0A2756" d="M589.2,417.2c-4.7,0-8.5-1.5-11.3-4.4c-4.2-4.3-6.3-11.6-6.2-21.2c0.1-6.2,1.7-26.4,17.5-26.4
		c12.9,0,17.5,13.6,17.5,26.4C606.7,414.7,594.5,417.2,589.2,417.2 M589.2,360.7c-16.8,0-29.4,13.3-29.4,30.8
		c0,17.7,12.1,30,29.4,30c17.2,0,29.2-12.4,29.2-30C618.5,374,605.9,360.7,589.2,360.7"/>
	<path fill="#0A2756" d="M756.2,417.2c-4.6,0-8.5-1.5-11.3-4.4c-4.2-4.3-6.3-11.6-6.2-21.2c0.1-6.2,1.7-26.4,17.5-26.4
		c12.9,0,17.5,13.6,17.5,26.4C773.7,414.7,761.4,417.2,756.2,417.2 M756.2,360.7c-16.8,0-29.4,13.3-29.4,30.8
		c0,17.7,12.1,30,29.4,30c17.2,0,29.2-12.4,29.2-30C785.4,374,772.9,360.7,756.2,360.7"/>
	<path fill="#0A2756" d="M827.3,365.7l1.4,0c3.5,0,7,0.6,7,4.9v33.3L801.3,362l-0.2-0.2h-13.7v4.1h0.7c1.3,0,5.9,3.9,7.5,6.7V412
		c0,4.3-2.9,4.9-5.7,4.9l-1.3,0v3.9h19.8v-3.9l-1.4,0c-3.5,0-7-0.6-7-4.9v-34.5l35.5,43.1l0.2,0.2h4.5v-50.3c0-4.3,2.9-4.9,5.7-4.9
		l1.3,0v-3.9h-19.8V365.7z"/>
	<path fill="#0A2756" d="M956.9,409.8c-1-0.4-2.9-0.5-3.1-0.6l-0.6,0l-0.1,0.5c0,0-0.7,3-2,4.4c-1.7,1.8-4,2.5-8.3,2.5h-8.9
		c-2.1,0-3.4-0.3-3.4-4.7v-18.9h11c2.3,0,2.9,1.2,3.2,7l0,0.7l4-0.3v-19.3l-4-0.3l0,0.7c-0.3,6.1-0.8,7.2-3.2,7.2h-11V366h9.5
		c3.4,0,6.2,1.1,7.5,2.9c1,1.5,1.7,3.9,1.7,4l0.1,0.5l0.5,0c0,0,1.4,0.1,3.1-0.5l0.5-0.2l-0.1-0.6c0-0.1-1-5.1-1.1-9.6l0-0.7h-39.9
		v3.8l0.5,0.1c1.8,0.4,4.2,0.8,5.9,1c0.2,0.2,0.6,1,0.8,3.1v43c-0.1,2.2-0.6,3-0.8,3.2c-0.5,0.1-1.1,0.2-1.8,0.3
		c-1.5,0.2-3,0.4-4.1,0.7l-0.5,0.1v3.8h43.8l0-0.7c0.1-4.3,1.1-9.6,1.1-9.6l0.1-0.5L956.9,409.8z"/>
	<path fill="#0A2756" d="M97.5,394.8l7.5-20.2l7.4,20.2H97.5z M133.7,416.3c-0.5-0.1-1-0.1-1.3-0.2c-0.2-0.2-0.7-0.8-1.5-3
		l-19.1-51.9l-0.2-0.4h-0.5c-1.4,0-4.8,0.6-6.1,1.4l-0.2,0.1l-18.8,50.5c-1.6,4.2-4.4,4.2-6.7,4.2h-0.7v3.9h19.4V417h-0.7
		c-2.6,0-5.9,0-6.8-1.3c-0.4-0.5-0.4-1.3,0-2.4L96,399h17.9l5.2,14.3c0.4,1,0.4,1.8,0,2.3c-0.7,0.9-2.7,1.4-5.9,1.4h-0.7v3.9h24.5
		v-4.1C135.9,416.6,134.7,416.5,133.7,416.3"/>
	<path fill="#0A2756" d="M645.3,392.2h-4.7v-21.6c0-4.4,0.9-4.6,2.5-4.6h1.5c8.6,0,13.6,4.6,13.6,12.7
		C658.1,387.1,653.3,392.2,645.3,392.2 M671.7,417c-0.3,0-1.4-0.3-1.9-0.6c-2.7-1.5-5.2-5.5-7.9-9.8c-2.7-4.2-5.4-8.6-8.7-10.9
		c7.9-1.5,16.3-6.8,16.3-17.1c0-14.6-16.1-16.8-25.7-16.8h-21.5v3.8l0.5,0.1c1.8,0.4,4.3,0.8,5.9,1c0.2,0.2,0.7,1.1,0.7,3.9V412
		c0,2.9-0.6,3.9-0.7,4.1c-0.5,0.1-1.2,0.2-1.8,0.3c-1.5,0.2-3,0.4-4.1,0.7l-0.5,0.1v3.8h25.4v-3.8l-0.5-0.1
		c-1.2-0.3-2.7-0.5-4.1-0.7c-0.6-0.1-1.2-0.2-1.8-0.3c-0.2-0.2-0.8-1.2-0.8-4.1v-15.6h0.9c3.3,0,5.9,5.6,8.5,11
		c3.1,6.6,6.4,13.5,11.7,13.5H672V417H671.7z"/>
	<path fill="#0A2756" d="M699.6,416.7h-3.8c-2.1,0-3.3-0.8-3.3-4.7v-19.5h4.4c9.8,0,14.8,4.2,14.8,12.4
		C711.6,412.3,707.1,416.7,699.6,416.7 M692.5,370.6c0-4.4,0.1-4.6,1.2-4.6h2.6c10.3,0,11.1,8.4,11.1,11c0,7.5-4,11.3-12,11.3h-2.8
		V370.6z M709.4,389.2c4.9-1.9,9.3-6.7,9.3-12.2c0-9.8-7.5-15.2-21.1-15.2h-23.4v3.8l0.5,0.1c1.8,0.4,4.3,0.8,5.9,1
		c0.2,0.2,0.7,1.1,0.7,3.9V412c0,2.9-0.6,3.9-0.7,4.1c-0.6,0.1-1.2,0.2-1.8,0.3c-1.3,0.2-2.7,0.4-3.8,0.6v4h27
		c15.6,0,21.2-8.8,21.2-17C723.3,395.8,716.8,390.7,709.4,389.2"/>
	<path fill="#0A2756" d="M889.6,361.7v3.9l1.4,0c3.5,0,7,0.6,7,4.9v33.4l-34.6-42l-0.2-0.2h-12.4v4.3c1.8,0.7,5.5,4.1,6.9,6.5v39.5
		c0,4.3-2.9,4.9-5.7,4.9h-1.3v3.9h19.8V417h-1.4c-3.5,0-7-0.6-7-4.9v-34.6l35.6,43.2l0.2,0.2h4.5v-50.4c0-4.3,2.9-4.9,5.7-4.9l1.3,0
		v-3.9H889.6z"/>
</g>
</svg>
