<?xml version="1.0" encoding="utf-8"?>
<!-- Generator: Adobe Illustrator 23.0.1, SVG Export Plug-In . SVG Version: 6.00 Build 0)  -->
<svg version="1.1" id="Concern" xmlns="http://www.w3.org/2000/svg" xmlns:xlink="http://www.w3.org/1999/xlink" x="0px" y="0px"
	 viewBox="0 0 1000 700" style="enable-background:new 0 0 1000 700;" xml:space="preserve">
<g>
	<path style="fill:#1F502D;" d="M895.5,318.9c-1.5-5.9-4.3-10.3-5.9-16.3c-1.3-4.9-1.9-10.6-3-14.8c-1.4-5.2-3.5-9.4-4.4-13.3
		c-0.4-1.6,1.8-3.1,1.5-5.9c-0.4-4.2-3.4-4.2-4.4-7.4c4.6-7.1-0.8-13.2-1.5-17.8c-0.5-3.5,0.7-7,0-8.9c-1.2-3.3-5.1-7.1-7.4-10.4
		c-2.9-4.1-5.7-7.1-7.4-10.4c-19.8-1.4-23.7,0.8-25.2,8.9c-0.6,3.2,4.5,14.3,5.9,16.3c3.7,5.2,9.3,5.4,10.4,10.4
		c0.4,2-1,6.4-1.5,8.9c-0.5,2.7,0.8,7.6-3,7.4c-5.6-1.1-12.5-7.9-17.8-10.4c-5-2.4-7.7-4.3-10.4-7.4c-2.7-3.3-5.1-5.2-8.9-7.4
		c-7.3-4.2-12.4-14.4-19.2-14.8c-7.6-0.5-10.9,6.8-17.8,11.8c-3.8,23.7,10.3,33.6,5.9,53.3c4.8,5.2,6.7,14.5,4.4,20.7
		c-2.3,6.4-0.1,19.3,3,23.7c3.8,5.4,11.3,9.3,20.7,7.4c2.8-10,7.1-18.7,5.9-31.1c-0.9-9-7.5-20,3-22.2c2.2,4.6,7.9,3.8,11.8,5.9
		c3.9,2.1,6.9,7.1,11.8,7.4c0.4,11,12,10.7,13.3,20.7c2.2,0.8,7.7-1.7,7.4,1.5c5.3,6.5,7.1,16.6,11.8,23.7c4.8,0.4,10.8,1.7,14.8,0
		c2.5-1.1,8.8-11.2,8.9-11.8C899.2,333,897.2,325.6,895.5,318.9z"/>
	<path style="fill:#1F502D;" d="M738.5,295.2c2.9-3.1,9-4.1,13.3-7.4c6.3-4.9,15-14.9,16.3-20.7c1.8-8-1.1-25.5-4.4-29.6
		c-3.1-3.8-13.8-5.1-19.2-7.4c-2.9-1.2-3.5-2.4-5.9-3c-2.7-0.6-7.6,0.5-11.8,0c-4.8-0.6-8.2-3-11.8-3c-2.6,0-4.5,2.5-7.4,3
		c-5.9,1-12.8-0.6-16.3,0c-10.4,1.9-17.6,8.3-26.7,10.4c-0.4,10.1-8,20.4-8.9,32.6c-0.3,4.1,1,11.7,1.5,17.8
		c1.2,15.2,3.1,27.5,4.4,40c1.2,11.2,1.1,21.5,3,28.1c0.9,3.4,1.5,9.6,3,11.8c1.3,2,4,1.3,4.4,4.4c10.5,0.6,19.4-0.3,25.2-4.4
		c-1.7-9.8,2.9-18,3-25.2c0-5.7-5.5-10.8-1.5-16.3c18.3-2.7,25,7.1,34.1,11.8c7.6,4,15.6,4,20.7,10.4c5.5-3.9,19.4,0.7,25.2-3
		c4.8-14.3-4.4-21.8-8.9-31.1C758,309.2,745,305.4,738.5,295.2z M714.8,275.9c-7.3,4-13.5,9.2-26.7,7.4c-2.2-5.6-2.2-16.6,0-22.2
		c9.6-9.3,29.6-6.3,42.9-5.9C736,267.4,727.9,277.1,714.8,275.9z"/>
	<path style="fill:#1F502D;" d="M645.2,372.2c2-10,1.5-20.6,0-29.6c-8.1-10.6-21.8,1.7-32.6,3c-1.8,0.2-4.1,0.1-5.9,0
		c-6-0.4-14.2-0.4-14.8-8.9c-1-13,17.1-10.5,26.7-13.3c3-0.9,5.8-3.9,8.9-4.4c3.6-0.7,8.6,1.1,11.8,0c0.8-0.3,3.6-3.9,4.4-4.4
		c2.3-1.5,4.9-1.5,5.9-3c0-6.4,0.5-13.3-1.5-17.8c-6.9-2.2-10.2-6.2-16.3-5.9c-5.3,0.3-9.5,6.7-16.3,7.4c-4.2,0.4-6.5,0-11.8-1.5
		c-6.7,7.3-27.9,6.1-23.7-7.4c2-6.6,9.2-4,19.2-5.9c3-0.6,5.6-2.7,8.9-3c4.9-0.5,9.9,0.4,14.8,0c10.9-0.9,12.1-2.3,14.8-8.9
		c2.4-5.8,3.9-10.7,1.5-19.2c-6.3-1.9-10-8.6-17.8-8.9c-0.3,0-1.2-0.1-1.5,0c-4.1,2-11.6,5.3-17.8,5.9c-3.9,0.4-7.4-1.3-11.8-1.5
		c-0.3,0-3.4,1.8-5.9,1.5c-0.9-0.1-3-1.7-5.9-1.5c-3.3,0.2-8.1,2.3-11.8,3c-5.1,1-11,0.2-13.3,1.5c-4.3,2.5-10,13-10.4,22.2
		c-0.1,3.2,2.1,7.2,3,11.8c0.8,4.5,0.7,10.6,1.5,16.3c0.8,5.6,2.5,11.3,3,16.3c0.4,4.9-0.8,10.5,0,14.8c0.4,2.2,3.1,7.5,4.4,11.8
		c2.5,8.4,3.7,12.4,5.9,16.3c3.3,5.8,7.7,7.2,11.8,10.4c1.2,0.9,1.5,2.1,3,3c5.9,3.5,12.4,6.7,16.3,7.4c8.5,1.5,19.3,0.7,28.1,0
		C627.6,379,637.8,378,645.2,372.2z"/>
	<path style="fill:#1F502D;" d="M217.3,381.1c-5.2-2-14.8,3-19.2,3c-4.5-0.1-20.7-6.3-25.2-7.4c-5.4-1.4-10.4-1.6-11.8-3
		c-1.9-1.8-6.1-3.8-7.4-4.4c-10.4-5.3-25.1-10-26.7-19.2c-1.9-11.5,4.5-11,7.4-16.3c3.5-6.3,5.2-13.3,7.4-16.3
		c1.9-2.5,6.7-6.7,10.4-10.4c6.3-6.3,12.6-11.3,19.2-14.8c4.2-2.2,8.7-2.6,13.3-4.4c5.9-2.4,9.6-5.5,13.3-5.9
		c8.6-1,17.2,2.6,25.2,1.5c7.1-1,15.3-4.3,17.8-10.4c3.7-9-3-16.9-7.4-23.7c-5.2,1.9-11.6-0.3-17.8,0c-11,0.4-30.8,1.2-37,4.4
		c-4,2.1-6,8.3-10.4,11.8c-3.1,2.5-10.3,4.5-11.8,5.9c-1.3,1.2-1.2,0.5-3,1.5c-6.6,3.8-9.4,7.5-14.8,11.8c-3.5,2.9-7.8,4.8-10.4,7.4
		c-1.9,2-2.2,5.7-4.4,8.9c-1.6,2.3-5.5,5.3-7.4,7.4c-7.7,8.8-14.3,13.6-17.8,20.7c-3.8,7.9-7.5,17.3-7.4,22.2
		c0.1,9.7,9.4,20,13.3,25.2c0.7,1,0.6,3.6,1.5,4.4c1.4,1.3,5.5,2.2,8.9,4.4c2.9,1.9,4.7,5.6,7.4,7.4c5.3,3.6,15.1,8.6,19.2,10.4
		c6.5,2.8,14.6,4,22.2,5.9c9,2.3,17.3,5.5,23.7,5.9c7.7,0.5,24.3-1,29.6-4.4c5.9-3.9,9.5-14.4,8.9-19.2
		C225.4,385.5,220.2,382.2,217.3,381.1z"/>
	<path style="fill:#1F502D;" d="M540.1,330.7c-11,1.8-19.5,8.1-29.6,5.9c-2.6-0.6-5.3-3.2-8.9-5.9c-3.1-2.3-7.1-5.3-8.9-7.4
		c-1.4-1.6-1.7-5.3-3-7.4c-1.9-3.4-5.7-4.1-4.4-7.4c5.3-6.7,4.3-13.4,11.8-17.8c5.6-3.2,15.7,1.5,19.2-5.9
		c2.6-12.9-6.5-14.2-8.9-22.2c-8-2.2-12.5,0.6-23.7,1.5c-2.5,5.2-5.6,7.4-8.9,10.4c-4.2,3.7-10.4,5.3-13.3,10.4
		c-2.5,4.3-1.3,10.3-3,16.3c-0.2,0.8-2.5,3.2-3,4.4c-3.9,10.1,2.7,24.7,5.9,32.6c3.7,9,5.2,10.4,11.8,14.8c4.5,3,7.2,3.3,13.3,5.9
		c3.4,1.5,6.6,3.9,8.9,4.4c21.5,5.3,43.9,0.9,53.3-5.9C550.7,343.8,543.9,338.8,540.1,330.7z"/>
	<path style="fill:#1F502D;" d="M383.1,361.8c17,3.2,23.8,16.6,44.4,16.3c3.1,3.8,4.4,9.4,8.9,11.8c4.9,0,9.9,0,14.8,0
		c2.7-6.4,9.6-10.2,10.4-17.8c0.4-3.4,0-9.4-1.5-13.3c-0.4-1-3.8-1.9-4.4-3c-0.7-1.2-1.3-5.2-1.5-5.9c-1.3-4.6-0.4-9.2-1.5-13.3
		c-0.7-2.8-3.4-5.4-4.4-8.9c-1.1-3.7-0.5-8.6-1.5-13.3c-0.8-4-2.5-8.2-3-11.8c-1.3-11,0.3-24.4-3-29.6c-7.1-11.3-30.4-10.7-34.1,5.9
		c-0.5,2.1,0.5,3.6,1.5,4.4c0.9,0.7-1.4,2-1.5,1.5c1,7,5.5,14.4,7.4,22.2c1.1,4.5,1.1,10,1.5,14.8c0.3,3.6,4.5,9.9-1.5,11.8
		c-18.1-4.6-17.6-27.8-37-31.1c-0.4-4.5-3.2-6.7-4.4-10.4c-8.6-1.6-11.6-9.9-19.2-8.9c-5.2,0.7-4.3,4.2-7.4,7.4
		c-3,3.1-7.4,3.9-8.9,7.4c2.1,3.6-0.4,7.9,0,11.8c0.9,9.9,6.3,19.7,8.9,29.6c0.8,3.1-0.7,5.6,0,8.9c1.2,5.6,4.8,10.8,5.9,16.3
		c2.8,13.7,1,26.8,5.9,38.5c6.8-0.1,14.5,0.7,19.3-1.5c0.1-8.4,6.8-14.3,7.4-22.2C385,374.1,379.1,367.7,383.1,361.8z"/>
	<path style="fill:#1F502D;" d="M328.3,318.9c-5.5-9.1-16.6-18.5-23.7-20.7c-7.5-2.4-17-0.9-23.7,0c-2.8,0.4-9.7,0.1-14.8,1.5
		c-1.2,0.3-4.8,3.2-7.4,4.4c-1.7,0.8-3.1,0.7-4.4,1.5c-1.2,0.7-2.1,2.6-3,3c-4.1,1.8-7.8,0.4-10.4,1.5c-0.4,0.2-2.3,2.5-3,3
		c-4.1,3.1-2.5,3.4-4.4,7.4c-0.3,0.6-2.8,0.7-3,1.5c-0.5,1.9,0.9,5.6,0,8.9c-1.2,4.6-3.7,8.7-4.4,13.3c-3,17.7,0.9,34.9,5.9,45.9
		c5,10.7,10.8,24.7,19.3,28.1c7.9,3.2,26.7,2.9,37,1.5c3.5-0.5,7.5-3.2,11.8-4.4c5.5-1.6,12-1.7,14.8-3c3-1.3,7.2-6.1,8.9-7.4
		c1.2-0.9,3.1-0.5,4.4-1.5c5.5-4.2,8.6-8,10.4-11.8c4.6-10,2.9-24,0-38.5C336.2,340.2,333,326.6,328.3,318.9z M312,363.3
		c-0.3,5.3-6.9,16.5-13.3,20.7c-1.3,0.8-4.4-0.5-5.9,0c-2.7,0.8-7.2,5.9-11.8,5.9c-6.9,0-18.5-7-20.7-13.3c-1-2.7,1.5-5.8,1.5-10.4
		c-0.1-9.4-1-17.6,3-28.1c10.5-3.9,18.9-8.4,28.1-3c3.3,2,12.7,8.4,14.8,11.8c1.4,2.2,0.5,5.8,1.5,8.9
		C310.5,360.3,312.2,360.1,312,363.3z"/>
	<polygon style="fill:#1F502D;" points="435.8,450 441,450 435.3,467.2 426.2,439.4 413.9,439.4 404.5,467.2 398.8,450 403.8,450 
		403.8,439.4 378.7,439.4 378.7,450 384.5,450 396.7,486.3 409.6,486.3 418.5,459.1 427.6,486.3 440.4,486.3 452.4,450 458.1,450 
		458.1,439.4 435.8,439.4 	"/>
	<path style="fill:#1F502D;" d="M485.9,438.2c-6.8,0-12.6,2.2-17.3,6.5c-4.7,4.3-7,10.2-7,17.7c0,7.5,2.3,13.4,7,17.7
		c4.7,4.3,10.5,6.5,17.3,6.5c6.9,0,12.7-2.2,17.4-6.5c4.6-4.4,6.9-10.3,6.9-17.7c0-7.5-2.3-13.4-7-17.7
		C498.5,440.4,492.7,438.2,485.9,438.2z M492.5,472.1c-1.7,2.1-3.9,3.2-6.7,3.2c-3.1,0-5.3-1.2-6.9-3.5c-1.5-2.3-2.3-5.3-2.3-8.9
		c0-8.8,3-13.2,9.1-13.2c2.8,0,5.1,1.1,6.7,3.3c1.7,2.2,2.5,5.3,2.5,9.2C495.1,466.7,494.2,469.9,492.5,472.1z"/>
	<path style="fill:#1F502D;" d="M546.4,442.4c-2.9,2.5-4.8,5.4-5.7,8.8v-11.8h-21.5V450h8V475h-8.6v10.7h32.5V475H542v-5.7
		c0-3.8,0.8-7.1,2.3-9.9c1.5-2.8,3.5-4.6,5.8-5.4c2.4-0.8,5.4-1.2,9.1-1.2v-13.9c-0.9,0-1.7,0-2.4,0
		C552.9,438.7,549.4,439.9,546.4,442.4z"/>
	<polygon style="fill:#1F502D;" points="587.7,419.2 565.7,419.2 565.7,429.8 572.9,429.8 572.9,475 565.7,475 565.7,485.6 
		594.3,485.6 594.3,475 587.7,475 	"/>
	<path style="fill:#1F502D;" d="M650.7,419.2h-22v10.7h7.2v14.7c-3.5-4.2-7.9-6.3-13.3-6.3c-5.6,0-10.3,2.3-14.2,7
		c-3.9,4.6-5.8,10.3-5.8,17.1c0,6.7,1.9,12.3,5.7,17c3.8,4.7,8.6,7,14.3,7c4.8,0,9.3-2.1,13.4-6.2v5.5h22.4V475h-7.6V419.2z
		 M633.3,471.8c-1.9,1.9-4,2.9-6.5,2.9c-3,0-5.2-1.2-6.8-3.6c-1.6-2.4-2.3-5.3-2.3-8.8c0-3.7,0.8-6.6,2.4-8.9
		c1.6-2.2,3.8-3.4,6.7-3.4c2.4,0,4.6,0.9,6.5,2.8c1.9,1.9,2.8,5,2.8,9.5C636.1,466.7,635.1,469.9,633.3,471.8z"/>
	<polygon style="fill:#1F502D;" points="717.9,450 723.1,450 717.4,467.2 708.2,439.4 696,439.4 686.5,467.2 680.9,450 685.9,450 
		685.9,439.4 660.7,439.4 660.7,450 666.6,450 678.7,486.3 691.6,486.3 700.6,459.1 709.6,486.3 722.4,486.3 734.4,450 740.2,450 
		740.2,439.4 717.9,439.4 	"/>
	<path style="fill:#1F502D;" d="M766.7,431.8c1.6-1.6,2.4-3.5,2.4-5.7c0-2.2-0.8-4.1-2.3-5.7c-1.6-1.6-3.5-2.4-5.7-2.4
		c-2.2,0-4.1,0.8-5.7,2.4c-1.6,1.6-2.4,3.5-2.4,5.7c0,2.2,0.8,4.1,2.4,5.7c1.6,1.6,3.5,2.4,5.7,2.4
		C763.3,434.2,765.2,433.4,766.7,431.8z"/>
	<polygon style="fill:#1F502D;" points="768.2,439.4 746.5,439.4 746.5,450 753.5,450 753.5,475 746.5,475 746.5,485.6 775.1,485.6 
		775.1,475 768.2,475 	"/>
	<path style="fill:#1F502D;" d="M831,419.2h-22v10.7h7.2v14.7c-3.5-4.2-7.9-6.3-13.3-6.3c-5.6,0-10.3,2.3-14.2,7
		c-3.9,4.6-5.8,10.3-5.8,17.1c0,6.7,1.9,12.3,5.7,17c3.8,4.7,8.6,7,14.3,7c4.8,0,9.3-2.1,13.4-6.2v5.5h22.4V475H831V419.2z
		 M813.6,471.8c-1.9,1.9-4,2.9-6.5,2.9c-3,0-5.2-1.2-6.8-3.6c-1.6-2.4-2.3-5.3-2.3-8.8c0-3.7,0.8-6.6,2.4-8.9
		c1.6-2.2,3.8-3.4,6.7-3.4c2.4,0,4.6,0.9,6.5,2.8c1.9,1.9,2.8,5,2.8,9.5C816.4,466.7,815.4,469.9,813.6,471.8z"/>
	<path style="fill:#1F502D;" d="M893,452.2c-1.5-4-4.2-7.3-8-10c-3.9-2.7-8.4-4-13.7-4c-7.3,0-13.3,2.4-18,7.2
		c-4.7,4.8-7.1,10.7-7.1,17.9c0,7,2.3,12.7,6.9,17c4.6,4.3,10.9,6.4,19.1,6.4c10.2,0,17.7-3.8,22.5-11.3l-11.5-3.7
		c-3.6,3.6-7.2,5.4-10.7,5.4c-2.7,0-5.3-0.9-7.7-2.6c-2.4-1.8-3.8-4.7-4-8.9h34.4C895.2,460.7,894.5,456.2,893,452.2z M861,457.3
		c0.9-6.2,4-9.3,9.5-9.3c2.9,0,5.2,0.9,6.9,2.7c1.7,1.8,2.7,4,3,6.6H861z"/>
</g>
</svg>
