<?xml version="1.0" encoding="utf-8"?>
<!-- Generator: Adobe Illustrator 23.0.1, SVG Export Plug-In . SVG Version: 6.00 Build 0)  -->
<svg version="1.1" id="Calque_1" xmlns="http://www.w3.org/2000/svg" xmlns:xlink="http://www.w3.org/1999/xlink" x="0px" y="0px"
	 viewBox="0 0 50 50" enable-background="new 0 0 50 50" xml:space="preserve">
<g>
	<path fill="#FD1015" d="M25,22.6h4.5c0.2,0,0.3-0.1,0.3-0.3v-4.5c0-0.2-0.1-0.3-0.3-0.3H25c-0.2,0-0.3,0.1-0.3,0.3v4.5
		C24.7,22.5,24.9,22.6,25,22.6z"/>
	<path fill="#FD1015" d="M15.4,30.4c-0.6,0-1.2,0.5-1.2,1.2c0,0.6,0.5,1.2,1.2,1.2s1.2-0.5,1.2-1.2C16.6,30.9,16,30.4,15.4,30.4z"/>
	<path fill="#FD1015" d="M18.8,22.6h4.5c0.2,0,0.3-0.1,0.3-0.3v-4.5c0-0.2-0.1-0.3-0.3-0.3h-4.5c-0.2,0-0.3,0.1-0.3,0.3v4.5
		C18.4,22.5,18.5,22.6,18.8,22.6z"/>
	<path fill="#FD1015" d="M12.4,22.6h4.5c0.2,0,0.3-0.1,0.3-0.3v-4.5c0-0.2-0.1-0.3-0.3-0.3h-4.5c-0.2,0-0.3,0.1-0.3,0.3v4.5
		C12.1,22.5,12.2,22.6,12.4,22.6z"/>
	<path fill="#FD1015" d="M34.1,30.4c-0.6,0-1.2,0.5-1.2,1.2c0,0.6,0.5,1.2,1.2,1.2c0.6,0,1.2-0.5,1.2-1.2S34.7,30.4,34.1,30.4z"/>
	<path fill="#FD1015" d="M25,0C11.2,0,0,11.2,0,25s11.1,25,25,25s25-11.1,25-25S38.9,0,25,0z M10.5,17.7c0-1.4,1-2.5,2.3-2.7
		c4.1-0.5,7.8-0.8,11.5-0.8c6.4,0,8.9,0.5,11.2,1.8c1.5,0.8,2.8,2.7,4.2,5.7c0.2,0.5,0.4,1.1,0.4,1.8v3.6c0,0.2-0.1,0.3-0.3,0.3
		h-0.5c-0.1,0-0.2,0-0.2-0.1c-0.2-0.2-0.3-0.4-0.5-0.5C37.4,25.6,35.7,25,34,25H10.8c-0.2,0-0.3-0.1-0.3-0.3L10.5,17.7z M15.4,34.1
		c-1.4,0-2.4-1-2.4-2.4c0-1.4,1-2.4,2.4-2.4s2.4,1,2.4,2.4C17.8,33,16.8,34.1,15.4,34.1z M34.1,34.1c-1.4,0-2.4-1-2.4-2.4
		c0-1.4,1-2.4,2.4-2.4c1.4,0,2.4,1,2.4,2.4C36.5,33,35.4,34.1,34.1,34.1z M40.7,31c0,0.3-0.3,0.6-0.6,0.6H38l0,0
		c-0.2,0-0.3-0.1-0.3-0.3C37.6,29.5,36,28,34.1,28c-1.9,0-3.4,1.5-3.6,3.3c0,0.2-0.1,0.3-0.3,0.3l0,0H19.3c-0.2,0-0.3-0.1-0.3-0.3
		l0,0c-0.1-1.9-1.7-3.3-3.6-3.3s-3.4,1.5-3.6,3.3l0,0l0,0c0,0.1-0.1,0.2-0.3,0.2l0,0h-0.9c-0.2,0-0.3-0.1-0.3-0.3v-0.6
		c0-0.2,0.1-0.3,0.3-0.3v-4c0-0.2,0.1-0.3,0.3-0.3H34c1.6,0,3,0.7,4.1,1.8c0.1,0.1,0.2,0.2,0.3,0.3c0.1,0.1,0.3,0.2,0.5,0.2h0.3
		c0.2,0,0.5,0,0.9,0c0.3,0,0.6,0.3,0.6,0.6L40.7,31z"/>
	<path fill="#FD1015" d="M31.4,22.6h7h0.1c0.1-0.1,0.2-0.2,0.2-0.4c-0.3-0.8-0.7-1.7-1.1-2.4c-0.1-0.1-0.1-0.2-0.2-0.3
		c-0.6-1.3-1.9-2-3.3-2h-2.6c-0.2,0-0.3,0.1-0.3,0.3v4.5C31,22.5,31.1,22.6,31.4,22.6z"/>
</g>
</svg>
