<?xml version="1.0" encoding="utf-8"?>
<!-- Generator: Adobe Illustrator 23.0.1, SVG Export Plug-In . SVG Version: 6.00 Build 0)  -->
<svg version="1.1" id="Calque_1" xmlns="http://www.w3.org/2000/svg" xmlns:xlink="http://www.w3.org/1999/xlink" x="0px" y="0px"
	 viewBox="0 0 48 47.8" enable-background="new 0 0 48 47.8" xml:space="preserve">
<symbol  id="Lisaa" viewBox="-24 -23.9 48 47.8">
	<g>
		<path fill="#EF7864" d="M4.9-17.3h1.8L7-18.1h1.8l0,0L7-13.5H5.3l-1.8-4.6l0,0h1.2L4.9-17.3z M5.9-14.8l0.6-1.8H5.2L5.9-14.8z"/>
		<polygon fill="#EF7864" points="-13.4,-17.4 -13.4,-17.3 -15.3,-17.3 -15.3,-13.5 -17,-13.5 -17,-18.1 -13.8,-18.1 		"/>
		<rect x="-12" y="-18.1" fill="#EF7864" width="1.7" height="4.6"/>
		<path fill="#EF7864" d="M-6.3-17.5c-0.6,0-1.3,0.4-1.7,0.7l-0.7-0.6c0.3-0.4,1.1-0.9,2.3-0.9S-4-17.8-4-16.7c0,1-1.1,1.4-1.8,1.6
			c-0.8,0.2-1.3,0.3-1.3,0.6s0.4,0.4,0.8,0.4s1-0.2,1.4-0.5l0.6,0.5c-0.5,0.5-1.2,0.7-2.1,0.7s-2.3-0.3-2.3-1.6c0-1,1.1-1.3,1.7-1.5
			c0.7-0.2,1.3-0.3,1.3-0.7C-5.4-17.5-6-17.5-6.3-17.5z"/>
		<path fill="#EF7864" d="M-1.3-17.3h1.8l0.3-0.8h1.8l0,0l-1.8,4.6h-1.7l-1.9-4.6l0,0h1.2L-1.3-17.3z M-0.4-14.8l0.6-1.8h-1.3
			L-0.4-14.8z"/>
		<path fill="#EF7864" d="M-24,23.9v-47.8h37.9L24-0.5v24.4H-24z M21.1,0.1l-9.1-21h-33V21h42.2V0.1H21.1z"/>
	</g>
</symbol>
<use xlink:href="#Lisaa"  width="48" height="47.8" x="-24" y="-23.9" transform="matrix(1 0 0 -1 24 23.9)" overflow="visible"/>
</svg>
