<?xml version="1.0" encoding="utf-8"?>
<!-- Generator: Adobe Illustrator 23.0.1, SVG Export Plug-In . SVG Version: 6.00 Build 0)  -->
<svg version="1.1" id="Calque_1" xmlns="http://www.w3.org/2000/svg" xmlns:xlink="http://www.w3.org/1999/xlink" x="0px" y="0px"
	 viewBox="0 0 24.9 24" enable-background="new 0 0 24.9 24" xml:space="preserve">
<rect fill="#FFFF00" width="24.9" height="24"/>
<g>
	<path d="M21.1,6.8C21,7,20.9,7.1,20.8,7.2c-0.1,0.1-0.2,0.1-0.4,0.1c-0.2,0-0.3-0.1-0.5-0.2c-0.1-0.1-0.2-0.3-0.2-0.5h1.8l0-0.1
		c0-0.4-0.1-0.7-0.3-1c-0.2-0.2-0.5-0.4-0.9-0.4c-0.4,0-0.7,0.1-0.9,0.4c-0.2,0.2-0.3,0.6-0.3,1c0,0.4,0.1,0.7,0.3,1
		c0.2,0.2,0.5,0.4,0.9,0.4c0.1,0,0.3,0,0.4,0c0.1,0,0.2-0.1,0.3-0.1c0.1-0.1,0.2-0.1,0.3-0.2c0.1-0.1,0.2-0.2,0.2-0.3L21.1,6.8z
		 M19.9,5.9c0-0.1,0.1-0.1,0.1-0.1c0.1,0,0.1-0.1,0.2-0.1c0.1,0,0.1,0,0.2,0c0.3,0,0.5,0.2,0.6,0.5h-1.2C19.8,6.1,19.9,6,19.9,5.9z"
		/>
	<path d="M5.1,3.5l-2,4.2h0.6l0.4-1H6l0.4,1H7L5.1,3.5z M4.5,6.2l0.6-1.4l0.6,1.4H4.5z"/>
	<path d="M18,11.4v0.3c-0.2-0.2-0.5-0.4-0.8-0.4c-0.3,0-0.6,0.1-0.8,0.4C16.2,12,16,12.3,16,12.7c0,0.4,0.1,0.7,0.3,1
		c0.2,0.3,0.5,0.4,0.9,0.4c0.3,0,0.5-0.1,0.8-0.3v0.3h0.6v-2.5H18z M17.9,13.3c-0.1,0.1-0.3,0.2-0.5,0.2c-0.2,0-0.4-0.1-0.5-0.2
		c-0.1-0.2-0.2-0.3-0.2-0.6c0-0.2,0.1-0.4,0.2-0.6c0.1-0.2,0.3-0.2,0.5-0.2c0.2,0,0.4,0.1,0.5,0.2c0.1,0.2,0.2,0.3,0.2,0.6
		C18.1,12.9,18,13.1,17.9,13.3z"/>
	<path d="M15.1,13c-0.1,0.2-0.2,0.3-0.3,0.4c-0.1,0.1-0.2,0.1-0.4,0.1c-0.2,0-0.3-0.1-0.5-0.2c-0.1-0.1-0.2-0.3-0.2-0.5h1.8l0-0.1
		c0-0.4-0.1-0.7-0.3-1c-0.2-0.2-0.5-0.4-0.9-0.4c-0.4,0-0.7,0.1-0.9,0.4c-0.2,0.2-0.3,0.6-0.3,1c0,0.4,0.1,0.7,0.3,1
		c0.2,0.2,0.5,0.4,0.9,0.4c0.1,0,0.3,0,0.4,0c0.1,0,0.2-0.1,0.3-0.1c0.1-0.1,0.2-0.1,0.3-0.2c0.1-0.1,0.2-0.2,0.2-0.3L15.1,13z
		 M13.9,12.1c0-0.1,0.1-0.1,0.1-0.1c0.1,0,0.1-0.1,0.2-0.1c0.1,0,0.1,0,0.2,0c0.3,0,0.5,0.2,0.6,0.5h-1.2
		C13.8,12.3,13.8,12.2,13.9,12.1z"/>
	<path d="M4.8,18.7c0.2-0.1,0.4-0.2,0.6-0.4c0.1-0.2,0.2-0.4,0.2-0.7c0-0.3-0.1-0.6-0.4-0.8c-0.2-0.2-0.6-0.3-1.1-0.3H3.6v3.7h0.6
		v-1.5h0.1l1.1,1.5H6L4.8,18.7z M4.2,18.3v-1.2h0.2c0.5,0,0.8,0.2,0.8,0.6c0,0.4-0.3,0.6-0.8,0.6H4.2z"/>
	<path d="M11.9,5.2v0.3c-0.2-0.2-0.5-0.4-0.8-0.4c-0.4,0-0.7,0.1-0.9,0.4C10.1,5.8,10,6.1,10,6.5c0,0.4,0.1,0.7,0.3,0.9
		c0.2,0.2,0.5,0.4,0.8,0.4c0.3,0,0.6-0.1,0.8-0.4v0.4c0,0.5-0.2,0.8-0.6,0.8c-0.2,0-0.4-0.1-0.5-0.2c-0.1-0.1-0.1-0.2-0.1-0.3h-0.6
		c0,0.3,0.2,0.6,0.4,0.8C10.7,9,11,9.1,11.3,9.1c0.4,0,0.7-0.1,0.9-0.4c0.1-0.1,0.2-0.3,0.2-0.5c0-0.1,0-0.1,0-0.2
		c0-0.1,0-0.2,0-0.3V5.2H11.9z M11.8,7c-0.1,0.2-0.3,0.2-0.5,0.2c-0.2,0-0.4-0.1-0.5-0.2c-0.1-0.1-0.2-0.3-0.2-0.6
		c0-0.2,0.1-0.4,0.2-0.6c0.1-0.2,0.3-0.2,0.5-0.2c0.2,0,0.4,0.1,0.5,0.2C11.9,6,12,6.2,12,6.5C12,6.7,11.9,6.9,11.8,7z"/>
	<polygon points="6.6,20.3 8.6,20.3 8.6,19.7 7.1,19.7 7.1,18.5 8.5,18.5 8.5,18 7.1,18 7.1,17.1 8.6,17.1 8.6,16.6 6.6,16.6 	"/>
	<polygon points="6.7,13.9 7.3,13.9 7.3,11.9 7.8,11.9 7.8,11.3 7.3,11.3 7.3,10.3 6.7,10.3 6.7,11.3 6.4,11.3 6.4,11.9 6.7,11.9 	
		"/>
	<path d="M9.5,6.7V5.2H8.9v1.4c0,0.4-0.2,0.6-0.5,0.6c-0.3,0-0.5-0.2-0.5-0.6V5.2H7.3v1.5c0,0.2,0,0.4,0.1,0.5
		c0.1,0.1,0.1,0.2,0.3,0.4c0.2,0.2,0.4,0.3,0.7,0.3c0.3,0,0.6-0.1,0.7-0.3c0.1-0.1,0.2-0.2,0.2-0.4C9.4,7.1,9.5,6.9,9.5,6.7z"/>
	<path d="M13.5,7.6c0.2,0.2,0.4,0.3,0.7,0.3c0.3,0,0.6-0.1,0.7-0.3c0.1-0.1,0.2-0.2,0.2-0.4c0-0.1,0.1-0.3,0.1-0.5V5.2h-0.6v1.4
		c0,0.4-0.2,0.6-0.5,0.6c-0.3,0-0.5-0.2-0.5-0.6V5.2h-0.6v1.5c0,0.2,0,0.4,0.1,0.5C13.3,7.3,13.3,7.4,13.5,7.6z"/>
	<path d="M16.6,7.3c-0.1,0-0.2,0-0.3-0.1c0,0-0.1-0.1-0.2-0.2l-0.5,0.2c0.2,0.4,0.5,0.6,0.9,0.6c0.2,0,0.5-0.1,0.6-0.2
		c0.2-0.2,0.3-0.4,0.3-0.6c0-0.2-0.1-0.3-0.2-0.5c-0.1-0.1-0.3-0.2-0.6-0.4c-0.2-0.1-0.3-0.2-0.3-0.3c0-0.1,0-0.1,0.1-0.1
		c0,0,0.1-0.1,0.1-0.1c0.1,0,0.2,0.1,0.3,0.2l0.5-0.3c-0.2-0.3-0.4-0.5-0.7-0.5c-0.2,0-0.4,0.1-0.6,0.2c-0.1,0.1-0.2,0.3-0.2,0.5
		c0,0.2,0,0.3,0.1,0.4c0.1,0.1,0.2,0.2,0.4,0.2c0.1,0,0.1,0.1,0.2,0.1c0.1,0,0.1,0.1,0.2,0.1c0.2,0.1,0.2,0.2,0.2,0.3
		C16.9,7.2,16.8,7.3,16.6,7.3z"/>
	<path d="M11.8,12.5c0,0.3,0,0.6-0.1,0.7c-0.1,0.1-0.2,0.2-0.4,0.2c-0.1,0-0.3,0-0.4-0.1l-0.3,0.5c0.2,0.1,0.5,0.2,0.7,0.2
		c0.3,0,0.6-0.1,0.8-0.4c0.1-0.1,0.2-0.3,0.2-0.4c0-0.2,0.1-0.4,0.1-0.7V10h-0.6V12.5z"/>
	<polygon points="18.5,4.3 17.9,4.3 17.9,5.2 17.7,5.2 17.7,5.8 17.9,5.8 17.9,7.7 18.5,7.7 18.5,5.8 19,5.8 19,5.2 18.5,5.2 	"/>
	<path d="M19.9,12.7c0-0.3,0-0.5,0.1-0.7c0.1-0.1,0.2-0.2,0.4-0.2c0.2,0,0.3,0,0.4,0.1c0.1,0.1,0.1,0.3,0.1,0.5v1.4h0.6v-1.5
		c0-0.4-0.1-0.6-0.2-0.8c-0.2-0.2-0.4-0.3-0.7-0.3c-0.3,0-0.5,0.1-0.7,0.3v-0.2h-0.6v2.5h0.6V12.7z"/>
	<path d="M15.3,16.5c-0.5,0-1,0.2-1.4,0.6c-0.4,0.4-0.6,0.8-0.6,1.3c0,0.6,0.2,1.1,0.6,1.4c0.4,0.3,0.8,0.5,1.3,0.5
		c0.5,0,1-0.2,1.4-0.6c0.4-0.4,0.6-0.8,0.6-1.3c0-0.5-0.2-1-0.6-1.4C16.2,16.7,15.8,16.5,15.3,16.5z M16.2,19.4
		c-0.3,0.3-0.6,0.4-1,0.4c-0.4,0-0.7-0.1-0.9-0.4c-0.3-0.3-0.4-0.6-0.4-1c0-0.4,0.1-0.7,0.4-1c0.3-0.3,0.6-0.4,1-0.4
		c0.4,0,0.7,0.1,1,0.4c0.3,0.3,0.4,0.6,0.4,1C16.6,18.8,16.5,19.1,16.2,19.4z"/>
	<rect x="17.9" y="16.6" width="0.6" height="3.7"/>
	<polygon points="12,19.1 9.3,16.3 9.3,20.3 9.9,20.3 9.9,17.7 12.6,20.5 12.6,16.6 12,16.6 	"/>
	<path d="M20.6,18.7c0.2-0.1,0.4-0.2,0.6-0.4c0.1-0.2,0.2-0.4,0.2-0.7c0-0.3-0.1-0.6-0.4-0.8c-0.2-0.2-0.6-0.3-1.1-0.3h-0.7v3.7h0.6
		v-1.5H20l1.1,1.5h0.7L20.6,18.7z M19.9,18.3v-1.2h0.2c0.5,0,0.8,0.2,0.8,0.6c0,0.4-0.3,0.6-0.8,0.6H19.9z"/>
	<path d="M5.5,13c-0.1,0.2-0.2,0.3-0.3,0.4c-0.1,0.1-0.2,0.1-0.4,0.1c-0.2,0-0.4-0.1-0.5-0.2c-0.1-0.1-0.2-0.3-0.2-0.5h1.9l0-0.1
		c0-0.4-0.1-0.8-0.3-1c-0.2-0.2-0.5-0.4-0.9-0.4c-0.4,0-0.7,0.1-0.9,0.4c-0.2,0.3-0.3,0.6-0.3,1c0,0.4,0.1,0.8,0.4,1
		C4,13.9,4.3,14,4.7,14c0.1,0,0.3,0,0.4,0c0.1,0,0.2-0.1,0.3-0.1c0.1-0.1,0.2-0.1,0.3-0.2c0.1-0.1,0.2-0.2,0.3-0.3L5.5,13z
		 M4.2,12.1c0-0.1,0.1-0.1,0.1-0.2c0.1,0,0.1-0.1,0.2-0.1c0.1,0,0.1,0,0.2,0c0.3,0,0.5,0.2,0.6,0.5H4.1C4.1,12.2,4.1,12.1,4.2,12.1z
		"/>
</g>
</svg>
