<?xml version="1.0" encoding="utf-8"?>
<!-- Generator: Adobe Illustrator 23.0.1, SVG Export Plug-In . SVG Version: 6.00 Build 0)  -->
<svg version="1.1" id="Piano" xmlns="http://www.w3.org/2000/svg" xmlns:xlink="http://www.w3.org/1999/xlink" x="0px" y="0px"
	 viewBox="0 0 144 144" enable-background="new 0 0 144 144" xml:space="preserve">
<path fill-rule="evenodd" clip-rule="evenodd" fill="#1C7AAE" d="M48,11.9c5.8-1.1,11.8-0.9,17.4,0.9C77.5,16.6,83.3,25.5,88,37.7
	c2.3,6,4.2,11.7,7.9,16.2c1.8,2.2,4.9,3.1,8,4.1c9.1,2.8,11.3,7.4,13.4,17.2c1.3,6,8.6,38.8,3.1,42.5c-5.7,3.7-16.1,3.1-24.5,3.7
	c-1.4,0.1-2.8,0.3-4.1,0.6c-7.1,1.4-14.1,2.8-21.2,4.2c-7.7,1.5-15,2-22.2,3.5c-6.7,1.4-16.8,2.2-20.4-2.2c-4.5-5.6-5.4-28.2-7-37.6
	c-1.3-7.8-2.5-15.7-3.8-23.5C15.4,57,12.8,45,16.3,35.5c1.6-4.3,4.5-7.5,7.2-10.7c3.1-3.6,6.3-7.2,10.9-9.3
	C38.9,13.5,43.2,12.8,48,11.9z"/>
</svg>
