<?xml version="1.0" encoding="utf-8"?>
<!-- Generator: Adobe Illustrator 23.0.1, SVG Export Plug-In . SVG Version: 6.00 Build 0)  -->
<svg version="1.1" xmlns="http://www.w3.org/2000/svg" xmlns:xlink="http://www.w3.org/1999/xlink" x="0px" y="0px"
	 viewBox="0 0 144 144" enable-background="new 0 0 144 144" xml:space="preserve">
<g id="Piano">
	<path fill-rule="evenodd" clip-rule="evenodd" fill="#F8D713" d="M22.4,113.3c-3.3-4.9-5.5-10.5-6.1-16.4
		C15,84.3,20.9,75.5,30.2,66.3c4.6-4.5,9.1-8.5,11.8-13.7c1.3-2.5,0.9-5.8,0.6-8.9c-1-9.5,2.3-13.3,10.4-19.1
		c5-3.5,32.2-23.4,37.8-19.7c5.7,3.7,9.2,13.5,13.2,21c0.7,1.2,1.4,2.4,2.2,3.6c4.1,5.9,8.2,11.8,12.3,17.8c4.5,6.5,7.8,13,12,19
		c3.9,5.6,8.7,14.5,6,19.6c-3.4,6.4-23.8,16.2-31.7,21.4c-6.7,4.3-13.4,8.5-20.1,12.8c-7.9,5.3-17.8,12.5-27.9,13
		c-4.6,0.2-8.7-1.1-12.7-2.4c-4.6-1.4-9.1-2.9-12.9-6.3C27.5,121,25.2,117.4,22.4,113.3z"/>
</g>
<g id="Calque_1">
</g>
</svg>
