<?xml version="1.0" encoding="utf-8"?>
<!-- Generator: Adobe Illustrator 23.0.1, SVG Export Plug-In . SVG Version: 6.00 Build 0)  -->
<svg version="1.1" id="Piano" xmlns="http://www.w3.org/2000/svg" xmlns:xlink="http://www.w3.org/1999/xlink" x="0px" y="0px"
	 viewBox="0 0 144 144" enable-background="new 0 0 144 144" xml:space="preserve">
<path fill-rule="evenodd" clip-rule="evenodd" fill="#1A2733" d="M126.2,46.8c1.4,5.7,1.6,11.7,0.2,17.4
	c-3.1,12.3-11.5,18.6-23.4,24.1c-5.8,2.7-11.5,4.9-15.7,8.9c-2,1.9-2.8,5.1-3.5,8.2c-2.2,9.3-6.6,11.7-16.3,14.4
	c-5.9,1.6-38.2,11.1-42.2,5.8c-4.1-5.4-4.1-15.8-5.3-24.2c-0.2-1.4-0.5-2.7-0.8-4.1c-1.8-7-3.7-13.9-5.5-20.9
	c-2-7.6-3-14.9-4.9-21.9C6.9,47.9,5.4,38,9.6,34.1c5.3-4.9,27.9-7.2,37.1-9.4c7.7-1.8,15.5-3.5,23.2-5.3c9.2-2.4,21-5.7,30.7-2.8
	c4.4,1.3,7.8,4,11.1,6.5c3.8,2.8,7.6,5.8,10,10.3C124.1,37.8,125,42,126.2,46.8z"/>
</svg>
