<?xml version="1.0" encoding="utf-8"?>
<!-- Generator: Adobe Illustrator 23.0.1, SVG Export Plug-In . SVG Version: 6.00 Build 0)  -->
<svg version="1.1" xmlns="http://www.w3.org/2000/svg" xmlns:xlink="http://www.w3.org/1999/xlink" x="0px" y="0px"
	 viewBox="0 0 1000 700" enable-background="new 0 0 1000 700" xml:space="preserve">
<g id="Calque_1">
	<g id="Calque_4">
	</g>
	<g id="Calque_3_1_">
	</g>
</g>
<g id="Mode_Isolation">
	<rect x="265.9" y="493.6" fill="#008AC9" width="4.8" height="5"/>
	<path fill="#008AC9" d="M279.8,497.7h-4.3v7.2h-4.9v3.5h4.9v19.3c0,3.8,2,5.5,5.4,5.5h5.4v-3.6h-3.5c-1.9,0-2.9-1.1-2.9-3.2v-18
		h6.6v-3.5h-6.6V497.7z"/>
	<rect x="293" y="504.9" fill="#008AC9" width="4.3" height="28.3"/>
	<rect x="260.5" y="504.9" fill="#008AC9" width="4.3" height="28.3"/>
	<rect x="480" y="188.6" fill="#008AC9" width="18.2" height="89.7"/>
	<rect x="292.6" y="492.2" fill="#008AC9" width="5.1" height="5.1"/>
	<rect x="184.9" y="188.6" fill="#008AC9" width="18.2" height="89.7"/>
	<polygon fill="#008AC9" points="214.6,509.3 191.4,509.3 191.4,490.8 186.8,490.8 186.8,533.2 191.4,533.2 191.4,513.4 
		214.6,513.4 214.6,533.2 219.1,533.2 219.1,490.8 214.6,490.8 	"/>
	<path fill="#008AC9" d="M249.9,513.4c0-6.1-3.3-9.1-10.6-9.1c-6.4,0-10.5,2.8-11.8,8.5l3.9,1.2c1.1-4.5,2.9-6.6,7.6-6.6
		c4.6,0,6.6,2.3,6.6,6v1.2c-5.7,4.6-18.6,1.6-18.6,11.2c0,4.9,3.3,7.8,7.8,7.8c2.5,0,5.1-0.7,7-2.2l3.8-5.7v3.8l-0.3,3.6h9.3v-3.5
		h-4.7V513.4z M245.6,523.4c-2.4,5.1-5.4,7.1-9.1,7.1c-2.8,0-4.9-1.8-4.9-5.1c0-6.6,9.9-5,14-9.8V523.4z"/>
	<rect x="254.6" y="493.6" fill="#008AC9" width="4.7" height="5"/>
	<rect x="712.6" y="359.5" fill="#008AC9" width="18.2" height="90.7"/>
	<polygon fill="#008AC9" points="754,188.6 689.4,188.6 689.4,207.7 712.6,207.7 712.6,324.5 730.8,324.5 730.8,207.7 754,207.7 	
		"/>
	<path fill="#008AC9" d="M788.3,371.4C774,361.6,770,357.7,770,348c0-8.3,6.3-15.3,14.4-15.3c6.7,0,12.3,4,16.4,10.5l13.7-11.7
		c-6.2-11.5-17.1-18.3-30.1-18.3c-19.4,0-33.3,17-33.3,35.5c0,21.5,11.8,29.7,25.7,39.5c16.6,11.7,21.2,16.6,21.2,27.1
		c0,8.7-6.8,17.2-16.2,17.2c-6.9,0-11.6-4.3-19.6-14.6l-14.3,12.6c8.3,14.4,19.8,21.8,34.1,21.8c18.8,0,35.3-16.9,35.3-37.6
		C817.3,393.1,803.7,382,788.3,371.4z"/>
	<polygon fill="#008AC9" points="461.4,207.7 461.4,188.6 396.8,188.6 396.8,207.7 420,207.7 420,315.4 438.2,315.4 438.2,207.7 	
		"/>
	<path fill="#008AC9" d="M583.6,412.4c-3.6,15-7.6,20.3-15.5,20.3c-18.4,0-19.8-38.3-19.8-50.1c0-18.6,2.4-49.7,18.6-49.7
		c9.7,0,12.9,6.7,15.2,18.3l0.1,0.3l18.4-5l-0.1-0.3c-3.5-22.3-14.3-33.1-33-33.1c-2.4,0-4.6,0.3-6.8,0.7V207.7h23.2v-19.1h-64.7
		v19.1h23.2v119.2c-8.3,11.8-12.9,30.9-12.9,56.2c0,37,9.3,60.6,26.2,67.4l-5.7,28h18l4.9-26.4c14.9-2.3,23.8-13.1,27.8-33.8
		l0.1-0.3l-16.9-5.7L583.6,412.4z"/>
	<path fill="#008AC9" d="M491.5,374.7c0,5,0.1,15.7,0.2,22.5l-0.9,0.2l-1.5-3.8c-2-5-4.2-10.8-5.7-14.3l-26.9-64h-18.4v134.9h17.9
		v-67.4c0-5-0.1-15.7-0.2-22.5l0.9-0.2l1.5,3.8c1.9,5,4.2,10.8,5.7,14.3l30.2,72.1h15.2V315.4h-17.9V374.7z"/>
	<path fill="#008AC9" d="M313.3,388.4l0.4-0.2c12.8-5.7,19.3-17.6,19.3-35.3c0-22.7-12.4-36.6-33.3-37.5V188.6h-17.9V248
		c0,5,0.1,15.7,0.3,22.5l-0.9,0.2l-1.5-3.8c-1.9-5-4.2-10.8-5.7-14.3l-26.9-64.1h-18.4v126.8h-43.7v134.9h18.2v-61.2h27.2v-18.7
		h-27.2v-36.2h43.3v-10.8v-8.1V256c0-5-0.1-15.7-0.2-22.5l0.9-0.2l1.5,3.8c1.9,5,4.2,10.8,5.7,14.3l26.8,64h-19.2v134.9h18.2v-58.5
		l14.1,0.3l18.6,58.1h20.6L313.3,388.4z M296.2,373.1h-16.1v-38.8h16.1c11.6,0,18,6.8,18,19.2C314.3,366.5,308.2,373.1,296.2,373.1z
		"/>
	<path fill="#008AC9" d="M664.4,315.6c6.9-7.3,10.8-18.4,10.8-32.3v-94.7h-18.1v95.2c0,6.7-1.7,22.1-17.5,22.1
		c-16.1,0-17.3-17.1-17.3-22.3v-95.1h-18.3v95.8c0,24.3,14.6,41.2,35.6,41.2c1.3,0,2.5-0.1,3.7-0.2l-28.8,124.8H634l7.2-35.5H668
		l7.4,35.5h19.9L664.4,315.6z M644.9,396.3l4.6-22.2c1.4-7.1,3.4-18.3,4.6-25.1h0.9c1.2,6.8,3.2,18.1,4.6,25.1l4.6,22.2H644.9z"/>
	<path fill="#008AC9" d="M392.8,315.4h-16.5c6.8-6.9,11.1-16.5,11.1-27.1c0-21.7-15.3-33.1-30.7-43.6c-14.3-9.8-18.3-13.7-18.3-23.4
		c0-8.3,6.3-15.3,14.3-15.3c6.7,0,12.3,4,16.4,10.5l13.7-11.7c-6.2-11.5-17.1-18.3-30.1-18.3c-19.4,0-33.3,17-33.3,35.5
		c0,21.5,11.8,29.7,25.7,39.5c16.6,11.7,22.8,16.9,22.8,27.4c0,8.7-6.8,17.2-16.2,17.2c-6.9,0-11.6-4.3-19.6-14.6L318,304.1
		c8.3,14.4,19.7,21.9,34.1,21.9c7.9,0,15.4-3,21.5-8.1l-30.5,132.4h19.3l7.2-35.5h26.8l7.4,35.5h19.9L392.8,315.4z M373.4,396.3
		l4.6-22.2c1.4-7.1,3.4-18.3,4.6-25.1h0.9c1.2,6.8,3.2,18.1,4.6,25.1l4.6,22.2H373.4z"/>
</g>
</svg>
