<?xml version="1.0" encoding="utf-8"?>
<!-- Generator: Adobe Illustrator 23.0.1, SVG Export Plug-In . SVG Version: 6.00 Build 0)  -->
<svg version="1.1" xmlns="http://www.w3.org/2000/svg" xmlns:xlink="http://www.w3.org/1999/xlink" x="0px" y="0px"
	 viewBox="0 0 1000 700" enable-background="new 0 0 1000 700" xml:space="preserve">
<g id="Typo">
	<g>
		<g>
			<g>
				<path fill="#5AE1B7" d="M751,317.6c7.7-9.4,16.9-14.1,27.4-14.1c6.5,0,11.7,1.8,15.7,5.3c3.9,3.6,5.9,8.2,5.9,14
					c0,13.2-7.7,22.8-22.9,28.8l16,36.4h-24l-16-39.8c8.9-2.7,15.2-5.8,19-9.3c3.8-3.5,5.7-7.7,5.7-12.6c0-2.3-0.6-4.1-1.9-5.3
					c-1.3-1.3-3.1-1.9-5.5-1.9c-3.7,0-7.5,1.5-11.3,4.6c-3.8,3-7.4,7.7-10.7,13.9l-7,50.5h-21.9l16.1-114.9l22-2.5L751,317.6z"/>
			</g>
		</g>
	</g>
</g>
<g id="Logo">
	<polygon fill="#5AE1B7" points="384.8,442.4 263.3,442.4 263.3,413.3 355.7,413.3 355.7,286.7 344.1,286.7 344.1,257.6 
		384.8,257.6 	"/>
</g>
</svg>
