<?xml version="1.0" encoding="utf-8"?>
<!-- Generator: Adobe Illustrator 23.0.1, SVG Export Plug-In . SVG Version: 6.00 Build 0)  -->
<svg version="1.1" id="logo" xmlns="http://www.w3.org/2000/svg" xmlns:xlink="http://www.w3.org/1999/xlink" x="0px" y="0px"
	 viewBox="0 0 1000 700" enable-background="new 0 0 1000 700" xml:space="preserve">
<g>
	<g>
		<path fill="#0973FF" d="M609.7,244.2l-29.2,35.7c-20.1-14.4-41.4-21.6-63.9-21.6c-13.8,0-24.4,2.5-32,7.5
			c-7.5,5-11.3,11.9-11.3,20.6c0,8.1,3.5,14.3,10.6,18.9c7,4.5,21,10.2,41.8,16.9c24.5,7.7,42.6,17.9,54.4,30.5
			c11.7,12.6,17.6,29.1,17.6,49.6c0,17.8-4.8,33.5-14.3,47.1c-9.6,13.6-23.1,24.1-40.5,31.5s-37.8,11.1-60.9,11.1
			c-22.2,0-42.2-3.9-60.2-11.6c-18-7.7-32.8-17.6-44.6-29.7l33.2-34.7c21.5,18.5,45.8,27.7,73,27.7c16.8,0,29.3-3.4,37.5-10.3
			c8.2-6.9,12.3-14.9,12.3-23.9c0-7-1.6-12.8-4.8-17.4c-3.2-4.5-8.5-8.6-15.9-12.1c-7.4-3.5-18.6-7.8-33.7-12.8
			c-24.5-7.7-42.2-17.5-53.1-29.5c-10.9-11.9-16.4-27.3-16.4-46.1c0-14.1,4.1-27.4,12.3-39.8c8.2-12.4,20.4-22.4,36.5-30
			c16.1-7.5,35.6-11.3,58.4-11.3C552.9,210.5,583.9,221.7,609.7,244.2z"/>
	</g>
	<polygon fill="#5AE1B7" points="800,650 405.6,650 405.6,555.6 705.6,555.6 705.6,144.4 667.8,144.4 667.8,50 800,50 	"/>
	<polygon fill="#0973FF" points="332.2,650 200,650 200,50 594.4,50 594.4,144.4 294.4,144.4 294.4,555.6 332.2,555.6 	"/>
</g>
</svg>
