<?xml version="1.0" encoding="utf-8"?>
<!-- Generator: Adobe Illustrator 23.0.1, SVG Export Plug-In . SVG Version: 6.00 Build 0)  -->
<svg version="1.1" id="Calque_1" xmlns="http://www.w3.org/2000/svg" xmlns:xlink="http://www.w3.org/1999/xlink" x="0px" y="0px"
	 viewBox="-6 -6 1000 700" enable-background="new 0 0 1000 700" xml:space="preserve">
<g id="Typo">
	<g opacity="0.2">
		<g>
			<g>
				<path fill="rgba(255,0,0,1)" d="M461.9,308.1c3.7,1.3,7.2,3.4,10.4,6.2l-2.3,2.2c-3.1-2.5-6.3-4.3-9.5-5.5s-7-1.8-11.3-1.8
					c-6.6,0-12,1.5-16.2,4.6s-6.3,7.3-6.3,12.6c0,4,1.4,7.4,4.1,10s7.8,5.1,15.3,7.4c8.1,2.6,13.8,5.6,17.1,8.9
					c3.4,3.4,5,7.8,5,13.3c0,6.8-2.5,12.5-7.5,17s-12.2,6.7-21.5,6.7c-6,0-11.1-0.9-15.3-2.7s-8-4.3-11.5-7.5l2-2.2
					c3.6,3,7.3,5.3,11,6.8c3.7,1.6,8.2,2.3,13.5,2.3c7.5,0,13.7-1.7,18.5-5.2s7.2-8.5,7.2-15.1c0-4.7-1.4-8.6-4.3-11.5
					c-2.8-2.9-8.1-5.5-15.7-7.9c-8.1-2.6-13.7-5.4-16.8-8.6c-3.2-3.2-4.7-7.1-4.7-11.7c0-6,2.5-10.9,7.4-14.6
					c5-3.8,11.2-5.7,18.6-5.7C453.9,306.1,458.2,306.8,461.9,308.1z"/>
				<path fill="rgba(255,0,0,1)" d="M503.1,307.2h6.2l-0.9,11.5c8.1-8.7,16.9-13,26.5-13c7.8,0,13.7,2.6,18,7.8c4.2,5.2,6.4,12.7,6.4,22.5
					c0,8.3-1.3,16.5-4,24.7s-7.1,15.1-13.3,20.8c-6.2,5.6-14.1,8.4-23.8,8.4c-6.6,0-13-1.2-19.1-3.6l-4.7,32.4l-7.1,0.9L503.1,307.2
					z M537.9,376c5.1-5.1,8.7-11.3,10.9-18.7c2.2-7.3,3.3-14.6,3.3-21.7c0-15.9-6-23.9-18.1-23.9c-5.2,0-9.8,1.2-13.8,3.7
					s-8.1,6-12.2,10.7l-7.6,53.9c2.8,1.2,5.6,2.1,8.3,2.7c2.7,0.6,6,0.9,9.7,0.9C526.2,383.6,532.8,381.1,537.9,376z"/>
				<path fill="rgba(255,0,0,1)" d="M633,307.1c4,1.1,8.2,2.8,12.4,5l-8.5,58.4c-0.2,1.1-0.3,2.7-0.3,4.6c0,2.2,0.4,3.9,1.2,5.2
					c0.8,1.3,2.1,2.4,4,3.2l-2.6,6.4c-3.6-0.8-6.4-2.3-8.2-4.6c-1.9-2.2-2.7-5.6-2.6-10.2c-3.1,4.6-6.8,8.1-11.1,10.8
					c-4.3,2.6-8.9,4-13.9,4c-8.1,0-14.3-2.8-18.8-8.4s-6.7-13.3-6.7-23c0-8.1,1.4-16.2,4.3-24.3c2.9-8.2,7.5-15,13.7-20.5
					c6.3-5.5,14.1-8.2,23.6-8.2C624.5,305.4,629,305.9,633,307.1z M601.3,319.8c-4.9,4.8-8.5,10.6-10.7,17.7c-2.2,7-3.3,14-3.3,20.9
					c0,7.9,1.5,13.8,4.5,17.8s7.3,6,12.9,6c4.9,0,9.2-1.4,13.1-4.3c3.9-2.9,7.6-7.1,11.1-12.7l7-48.8c-5-2.5-10.3-3.7-16.1-3.7
					C612.4,312.6,606.2,315,601.3,319.8z"/>
				<path fill="rgba(255,0,0,1)" d="M718.9,305.7l-4.2,13.8c-2-0.5-4.2-0.8-6.7-0.8c-5.1,0-9.5,2.2-13.3,6.6s-7.2,10.9-10.2,19.6l-6.2,43.2
					h-14.1l11.5-81.7h12.1l-0.9,16.7c3-6.2,6.5-10.8,10.6-13.9s8.4-4.7,13.1-4.7C713.3,304.6,716,304.9,718.9,305.7z"/>
				<path fill="rgba(255,0,0,1)" d="M751,317.6c7.7-9.4,16.9-14.1,27.4-14.1c6.5,0,11.7,1.8,15.7,5.3c3.9,3.6,5.9,8.2,5.9,14
					c0,13.2-7.7,22.8-22.9,28.8l16,36.4h-24l-16-39.8c8.9-2.7,15.2-5.8,19-9.3s5.7-7.7,5.7-12.6c0-2.3-0.6-4.1-1.9-5.3
					c-1.3-1.3-3.1-1.9-5.5-1.9c-3.7,0-7.5,1.5-11.3,4.6c-3.8,3-7.4,7.7-10.7,13.9l-7,50.5h-21.9l16.1-114.9l22-2.5L751,317.6z"/>
			</g>
		</g>
	</g>
</g>
<g id="Logo">
	<g opacity="0.2">
		<path fill="rgba(255,0,0,1)" d="M326.2,317.4l-9,11c-6.2-4.4-12.8-6.7-19.7-6.7c-4.2,0-7.5,0.8-9.8,2.3c-2.3,1.6-3.5,3.7-3.5,6.4
			c0,2.5,1.1,4.4,3.3,5.8c2.2,1.4,6.5,3.1,12.9,5.2c7.5,2.4,13.1,5.5,16.7,9.4s5.4,9,5.4,15.3c0,5.5-1.5,10.3-4.4,14.5
			s-7.1,7.4-12.5,9.7s-11.6,3.4-18.8,3.4c-6.8,0-13-1.2-18.5-3.6s-10.1-5.4-13.7-9.1l10.2-10.7c6.6,5.7,14.1,8.5,22.5,8.5
			c5.2,0,9-1.1,11.5-3.2s3.8-4.6,3.8-7.4c0-2.2-0.5-4-1.5-5.3c-1-1.4-2.6-2.6-4.9-3.7s-5.7-2.4-10.4-4c-7.5-2.4-13-5.4-16.4-9.1
			s-5-8.4-5-14.2c0-4.3,1.3-8.4,3.8-12.2s6.3-6.9,11.2-9.2c5-2.3,11-3.5,18-3.5C308.7,307,318.2,310.5,326.2,317.4z"/>
	</g>
	<polygon opacity="0.2" fill="rgba(255,0,0,1)" enable-background="new    " points="384.8,442.4 263.3,442.4 263.3,413.3 355.7,413.3
		355.7,286.7 344.1,286.7 344.1,257.6 384.8,257.6 	"/>
	<polygon opacity="0.2" fill="rgba(255,0,0,1)" enable-background="new    " points="240.7,442.4 200,442.4 200,257.6 321.4,257.6
		321.4,286.7 229.1,286.7 229.1,413.3 240.7,413.3 	"/>
</g>
<rect x="200" y="257.6" fill="none" stroke="#000000" stroke-miterlimit="10" stroke-dasharray="6" width="184.8" height="184.8"/>
<rect x="229.1" y="286.7" fill="none" stroke="#000000" stroke-miterlimit="10" stroke-dasharray="6" width="126.6" height="126.6"/>
<line fill="none" stroke="#000000" stroke-miterlimit="10" stroke-dasharray="6" x1="321.4" y1="305.5" x2="321.4" y2="238.8"/>
<line fill="none" stroke="#000000" stroke-miterlimit="10" stroke-dasharray="6" x1="344.2" y1="305.5" x2="344.2" y2="238.8"/>
<line fill="none" stroke="#000000" stroke-miterlimit="10" stroke-dasharray="6" x1="240.5" y1="460.4" x2="240.5" y2="393.7"/>
<line fill="none" stroke="#000000" stroke-miterlimit="10" stroke-dasharray="6" x1="263.3" y1="460.4" x2="263.3" y2="393.7"/>
<line fill="none" stroke="#000000" stroke-miterlimit="10" stroke-dasharray="6" x1="416.5" y1="387.3" x2="793.1" y2="387.3"/>
<line fill="none" stroke="#000000" stroke-miterlimit="10" stroke-dasharray="6" x1="416.5" y1="307" x2="793.1" y2="307"/>
<line fill="none" stroke="#000000" stroke-miterlimit="10" stroke-dasharray="6" x1="263.4" y1="391.3" x2="321.4" y2="391.3"/>
<line fill="none" stroke="#000000" stroke-miterlimit="10" stroke-dasharray="6" x1="263.4" y1="305.5" x2="321.4" y2="305.5"/>
</svg>
