<?xml version="1.0" encoding="utf-8"?>
<!-- Generator: Adobe Illustrator 23.0.1, SVG Export Plug-In . SVG Version: 6.00 Build 0)  -->
<svg version="1.1" id="Spark" xmlns="http://www.w3.org/2000/svg" xmlns:xlink="http://www.w3.org/1999/xlink" x="0px" y="0px"
	 viewBox="0 0 1000 700" enable-background="new 0 0 1000 700" xml:space="preserve">
<g id="logo">
</g>
<g>
	<g>
		<path fill="#5AE1B7" d="M800,322.8c0-5.8-2-10.4-5.9-14c-4-3.5-9.2-5.3-15.7-5.3c-10.5,0-19.7,4.7-27.4,14.1l6.6-46.9l-22,2.5
			l-16.1,114.9h21.9l7-50.5c3.3-6.2,6.9-10.9,10.7-13.9c3.8-3.1,7.6-4.6,11.3-4.6c2.4,0,4.2,0.6,5.5,1.9c1.3,1.2,1.9,3,1.9,5.3
			c0,4.9-1.9,9.1-5.7,12.6s-10.1,6.6-19,9.3l16,39.8h24l-16-36.4C792.3,345.6,800,336,800,322.8z"/>
		<polygon fill="#5AE1B7" points="344.1,286.7 355.7,286.7 355.7,413.3 263.3,413.3 263.3,442.4 384.8,442.4 384.8,257.6 
			344.1,257.6 		"/>
	</g>
	<g>
		<path fill="#0973FF" d="M449.1,306.1c-7.4,0-13.6,1.9-18.6,5.7c-4.9,3.7-7.4,8.6-7.4,14.6c0,4.6,1.5,8.5,4.7,11.7
			c3.1,3.2,8.7,6,16.8,8.6c7.6,2.4,12.9,5,15.7,7.9c2.9,2.9,4.3,6.8,4.3,11.5c0,6.6-2.4,11.6-7.2,15.1s-11,5.2-18.5,5.2
			c-5.3,0-9.8-0.7-13.5-2.3c-3.7-1.5-7.4-3.8-11-6.8l-2,2.2c3.5,3.2,7.3,5.7,11.5,7.5c4.2,1.8,9.3,2.7,15.3,2.7
			c9.3,0,16.5-2.2,21.5-6.7s7.5-10.2,7.5-17c0-5.5-1.6-9.9-5-13.3c-3.3-3.3-9-6.3-17.1-8.9c-7.5-2.3-12.6-4.8-15.3-7.4
			c-2.7-2.6-4.1-6-4.1-10c0-5.3,2.1-9.5,6.3-12.6c4.2-3.1,9.6-4.6,16.2-4.6c4.3,0,8.1,0.6,11.3,1.8s6.4,3,9.5,5.5l2.3-2.2
			c-3.2-2.8-6.7-4.9-10.4-6.2S453.9,306.1,449.1,306.1z"/>
		<path fill="#0973FF" d="M534.9,305.7c-9.6,0-18.4,4.3-26.5,13l0.9-11.5h-6.2l-15.8,112.4l7.1-0.9l4.7-32.4
			c6.1,2.4,12.5,3.6,19.1,3.6c9.7,0,17.6-2.8,23.8-8.4c6.2-5.7,10.6-12.6,13.3-20.8s4-16.4,4-24.7c0-9.8-2.2-17.3-6.4-22.5
			C548.6,308.3,542.7,305.7,534.9,305.7z M548.8,357.3c-2.2,7.4-5.8,13.6-10.9,18.7c-5.1,5.1-11.7,7.6-19.5,7.6
			c-3.7,0-7-0.3-9.7-0.9c-2.7-0.6-5.5-1.5-8.3-2.7l7.6-53.9c4.1-4.7,8.2-8.2,12.2-10.7s8.6-3.7,13.8-3.7c12.1,0,18.1,8,18.1,23.9
			C552.1,342.7,551,350,548.8,357.3z"/>
		<path fill="#0973FF" d="M645.4,312.1c-4.2-2.2-8.4-3.9-12.4-5c-4-1.2-8.5-1.7-13.5-1.6c-9.5,0-17.3,2.7-23.6,8.2
			c-6.2,5.5-10.8,12.3-13.7,20.5c-2.9,8.1-4.3,16.2-4.3,24.3c0,9.7,2.2,17.4,6.7,23c4.5,5.6,10.7,8.4,18.8,8.4c5,0,9.6-1.4,13.9-4
			c4.3-2.7,8-6.2,11.1-10.8c-0.1,4.6,0.7,8,2.6,10.2c1.8,2.3,4.6,3.8,8.2,4.6l2.6-6.4c-1.9-0.8-3.2-1.9-4-3.2s-1.2-3-1.2-5.2
			c0-1.9,0.1-3.5,0.3-4.6L645.4,312.1z M628.9,365.2c-3.5,5.6-7.2,9.8-11.1,12.7c-3.9,2.9-8.2,4.3-13.1,4.3c-5.6,0-9.9-2-12.9-6
			s-4.5-9.9-4.5-17.8c0-6.9,1.1-13.9,3.3-20.9c2.2-7.1,5.8-12.9,10.7-17.7s11.1-7.2,18.5-7.1c5.8,0,11.1,1.2,16.1,3.7L628.9,365.2z"
			/>
		<path fill="#0973FF" d="M710.6,304.5c-4.7,0-9,1.6-13.1,4.7c-4.1,3.1-7.6,7.7-10.6,13.9l0.9-16.7h-12.1l-11.5,81.7h14.1l6.2-43.2
			c3-8.7,6.4-15.2,10.2-19.6c3.8-4.4,8.2-6.6,13.3-6.6c2.5,0,4.7,0.3,6.7,0.8l4.2-13.8C716,304.9,713.3,304.6,710.6,304.5z"/>
		<path fill="#0973FF" d="M287.7,324c2.3-1.5,5.6-2.3,9.8-2.3c6.9,0,13.5,2.3,19.7,6.7l9-11c-8-6.9-17.5-10.4-28.8-10.4
			c-7,0-13,1.2-18,3.5c-4.9,2.3-8.7,5.4-11.2,9.2c-2.5,3.8-3.8,7.9-3.8,12.2c0,5.8,1.6,10.5,5,14.2c3.4,3.7,8.9,6.7,16.4,9.1
			c4.7,1.6,8.1,2.9,10.4,4c2.3,1.1,3.9,2.3,4.9,3.7c1,1.3,1.5,3.1,1.5,5.3c0,2.8-1.3,5.3-3.8,7.4c-2.5,2.1-6.3,3.2-11.5,3.2
			c-8.4,0-15.9-2.8-22.5-8.5L254.6,381c3.6,3.7,8.2,6.7,13.7,9.1c5.5,2.4,11.7,3.6,18.5,3.6c7.2,0,13.4-1.1,18.8-3.4
			c5.4-2.3,9.6-5.5,12.5-9.7c2.9-4.2,4.4-9,4.4-14.5c0-6.3-1.8-11.4-5.4-15.3c-3.6-3.9-9.2-7-16.7-9.4c-6.4-2.1-10.7-3.8-12.9-5.2
			c-2.2-1.4-3.3-3.3-3.3-5.8C284.2,327.7,285.4,325.6,287.7,324z"/>
		<polygon fill="#0973FF" points="229.1,286.7 321.4,286.7 321.4,257.6 200,257.6 200,442.4 240.7,442.4 240.7,413.3 229.1,413.3 		
			"/>
	</g>
</g>
</svg>
