<?xml version="1.0" encoding="utf-8"?>
<!-- Generator: Adobe Illustrator 23.0.1, SVG Export Plug-In . SVG Version: 6.00 Build 0)  -->
<svg version="1.1" id="UE" xmlns="http://www.w3.org/2000/svg" xmlns:xlink="http://www.w3.org/1999/xlink" x="0px" y="0px"
	 viewBox="0 0 1000 700" style="enable-background:new 0 0 1000 700;" xml:space="preserve">
<rect x="68" y="61.9" style="fill:#0F218B;" width="864" height="576"/>
<path style="fill:#0F218B;" d="M500,349.9"/>
<g>
	<polygon style="fill:#FFFF00;" points="499.8,130.8 492.8,152.6 470,152.5 488.5,165.8 481.6,187.4 499.8,174.1 518.1,187.4 
		511.1,165.8 529.6,152.5 506.8,152.5 	"/>
	<polygon style="fill:#FFFF00;" points="387.2,212.7 405.5,199.4 423.7,212.7 416.8,191.2 435.3,177.9 412.4,177.9 405.5,156.1 
		398.5,177.9 375.7,177.9 394.2,191.2 	"/>
	<polygon style="fill:#FFFF00;" points="336.4,225.3 329.5,247.1 306.6,247.1 325.1,260.4 318.2,281.9 336.4,268.6 354.7,281.9 
		347.7,260.4 366.2,247.1 343.4,247.1 	"/>
	<polygon style="fill:#FFFF00;" points="311.1,362.8 329.3,376.1 322.4,354.6 340.9,341.3 318.1,341.3 311.1,319.5 304.1,341.3 
		281.3,341.3 299.8,354.6 292.9,376.1 	"/>
	<polygon style="fill:#FFFF00;" points="343.4,435.8 336.4,414 329.5,435.8 306.6,435.8 325.1,449.1 318.2,470.6 336.4,457.3 
		354.7,470.6 347.7,449.1 366.2,435.8 	"/>
	<polygon style="fill:#FFFF00;" points="412.6,505 405.6,483.2 398.6,505 375.8,505 394.3,518.3 387.4,539.8 405.6,526.5 
		423.8,539.8 416.9,518.3 435.4,505 	"/>
	<polygon style="fill:#FFFF00;" points="506.8,530 499.8,508.2 492.9,530.1 470,530 488.5,543.3 481.6,564.9 499.8,551.6 
		518.1,564.9 511.1,543.3 529.6,530 	"/>
	<polygon style="fill:#FFFF00;" points="601,505 594.1,483.2 587.1,505 564.3,505 582.8,518.3 575.8,539.8 594.1,526.5 612.3,539.8 
		605.4,518.3 623.9,505 	"/>
	<polygon style="fill:#FFFF00;" points="670.2,435.8 663.2,414 656.2,435.8 633.4,435.8 652,449.1 645,470.6 663.2,457.3 
		681.5,470.6 674.5,449.1 693,435.8 	"/>
	<polygon style="fill:#FFFF00;" points="718.1,341 695.3,341 688.3,319.2 681.3,341.1 658.5,341 677,354.3 670.1,375.9 688.3,362.5 
		706.5,375.9 699.6,354.3 	"/>
	<polygon style="fill:#FFFF00;" points="645,281.6 663.2,268.3 681.5,281.6 674.5,260.1 693,246.8 670.2,246.8 663.2,225 
		656.2,246.8 633.4,246.8 652,260.1 	"/>
	<polygon style="fill:#FFFF00;" points="594.3,156.1 587.4,177.9 564.5,177.9 583,191.2 576.1,212.7 594.4,199.4 612.6,212.7 
		605.6,191.2 624.2,177.9 601.3,177.9 	"/>
</g>
</svg>
