<?xml version="1.0" encoding="utf-8"?>
<!-- Generator: Adobe Illustrator 23.0.2, SVG Export Plug-In . SVG Version: 6.00 Build 0)  -->
<svg version="1.1" xmlns="http://www.w3.org/2000/svg" xmlns:xlink="http://www.w3.org/1999/xlink" x="0px" y="0px"
	 viewBox="0 0 1000 700" style="enable-background:new 0 0 1000 700;" xml:space="preserve">
<style type="text/css">
	.st0{fill:#008AC9;}
</style>
<g id="Spark">
	<g id="logo">
	</g>
</g>
<g id="Calque_1">
	<g>
		<rect x="501.5" y="142.9" class="st0" width="56.8" height="289.2"/>
		<rect x="614.4" y="103.2" class="st0" width="56.8" height="289.3"/>
		<rect x="727.3" y="170.6" class="st0" width="56.8" height="289.3"/>
	</g>
	<g>
		<path class="st0" d="M215.9,471.1v-7h7.3c3.7,0,5.7-2.1,5.7-6.1v-68.8h8.3v71.3c0,7.3-3.7,10.6-10.4,10.6H215.9z M228.1,374.5
			v-9.8h9.8v9.8H228.1z"/>
		<path class="st0" d="M277.7,444.9c-17,0-26.2-12-26.2-28c0-17.3,10.5-28.8,26.1-28.8c16.3,0,25.1,10.5,25.3,27.6h-42v1.4
			c0,13.5,5.9,21.7,16.9,21.7c11.2,0,15.5-7.5,16.4-16.5h8.7C302.4,432.5,294.4,444.9,277.7,444.9z M261.2,411.7h32.3
			c0-8.8-4.4-17.6-15.8-17.6C268.5,394.1,262.5,399.9,261.2,411.7z"/>
		<path class="st0" d="M357.3,426.4c-2.4,12-10.2,18.5-20.3,18.5c-11.8,0-22.7-9.3-22.7-28.7c0-19.1,11.1-28.1,22.8-28.1
			c10.2,0,17.8,6.2,20.2,18v-44.2h8.3v81.9h-8.3V426.4z M340.1,439c10.2,0,17.1-7.9,17.1-22.7c0-14.7-7-22.3-16.6-22.3
			c-9.1,0-17,7.2-17,22.3C323.6,431.6,331.2,439,340.1,439z"/>
		<path class="st0" d="M382.4,374.5v-9.8h9.8v9.8H382.4z M383.1,443.8v-54.6h8.3v54.6H383.1z"/>
		<path class="st0" d="M369.8,485.3c17,0,32.8,9.4,32.8,27.8v83.7h-28.4v-73c0-6.6-5.5-14.4-18.1-14.4c-17.7,0-23.4,13.6-23.4,19.7
			v67.7h-28.4v-73c0-6.6-5.5-14.4-18.1-14.4c-17.7,0-23.4,13.6-23.4,19.7v67.7h-28.4V487.5h28.4v29.3c4.2-19.7,15.5-31.5,37.2-31.5
			c17,0,32.8,9.4,32.8,27.8v3.7C336.8,497.1,348.2,485.3,369.8,485.3z"/>
		<path class="st0" d="M431,461.3v-28.4h28.4v28.4H431z M431,596.8V487.5h28.4v109.3H431z"/>
		<path class="st0" d="M485.6,596.8v-17.5l56.4-67.7h-54.2v-24h91.8V505l-56.4,67.8h56.4v24H485.6z"/>
		<path class="st0" d="M606.9,461.3v-28.4h28.4v28.4H606.9z M606.9,596.8V487.5h28.4v109.3H606.9z"/>
		<path class="st0" d="M702.6,556.1l-10.5,11.8v28.9h-28.4V432.8h28.4v101.4l38.2-46.8h33.9l-42.2,47l42.2,62.3h-35L702.6,556.1z"/>
	</g>
</g>
</svg>
