<?xml version="1.0" encoding="utf-8"?>
<!-- Generator: Adobe Illustrator 23.0.1, SVG Export Plug-In . SVG Version: 6.00 Build 0)  -->
<svg version="1.1" xmlns="http://www.w3.org/2000/svg" xmlns:xlink="http://www.w3.org/1999/xlink" x="0px" y="0px"
	 viewBox="0 0 1000 700" enable-background="new 0 0 1000 700" xml:space="preserve">
<g id="Typo">
	<g>
		<polygon points="141,477.1 148.4,484.6 151.2,484 158.7,473.8 158.7,489.2 169.5,487.5 169.5,450.2 166,450.8 149.7,472.6 
			133.5,456.2 130.2,456.8 130.2,494.1 141,492.5 		"/>
		<path d="M180.3,487.5c4,3,8.7,4,14.5,3c5.7-1,10.5-3.6,14.5-7.9c4-4.3,5.9-9.2,5.9-14.5s-2-9.5-5.9-12.5c-4-3-8.8-4-14.5-3
			c-5.7,1-10.5,3.6-14.5,7.9s-5.9,9.2-5.9,14.5S176.4,484.6,180.3,487.5z M187.4,465.4c1.9-2.2,4.4-3.6,7.4-4.1c3-0.5,5.4,0,7.4,1.6
			c2,1.5,2.9,3.9,2.9,6.9c0,3.1-1,5.7-2.9,7.9c-2,2.2-4.4,3.6-7.4,4c-3.1,0.5-5.5,0-7.4-1.5s-2.9-3.9-2.9-6.9
			C184.5,470.2,185.5,467.6,187.4,465.4z"/>
		<path d="M225.2,486.8c3.1,2.5,7.2,3.3,12.1,2.4c4.8-0.8,9-3,12.2-6.5c3.2-3.5,4.9-7.7,4.9-12.6V449l-10.9,1.7v21.8
			c0,2.1-0.3,3.8-1.6,5.3s-2.7,2.3-4.8,2.6s-3.5,0-4.8-1c-1.3-1-1.8-2.5-1.8-4.6V453l-10.2,1.7v21.1
			C220.4,480.7,222.1,484.3,225.2,486.8z"/>
		<polygon points="278,477.2 295.2,436.9 284.1,438.8 276.5,458.1 268.9,441.4 257.7,443.3 274.9,477.7 		"/>
		<polygon points="308.6,467.7 315.7,475.2 318.7,474.7 326.3,464.4 326.3,479.8 335.1,478.1 335.1,440.8 332.4,441.4 316.7,463.2 
			300.8,446.9 297.8,447.4 297.8,484.7 308.6,483 		"/>
		<path d="M357.8,424.5l-17.2,40.3l10.6-1.8l1.4-3.3l13.6-2.3l1.4,2.8l10.6-1.8L361,423.9L357.8,424.5z M356.1,451.4l3.3-9.1
			l3.3,7.9L356.1,451.4z"/>
		<polygon points="398.2,400.1 398.2,418.4 378,402.9 375.1,403.4 375.1,440.8 384,439.1 384,420.5 405.2,436.3 409.1,435.7 
			409.1,398.4 		"/>
	</g>
</g>
<g id="MPP">
	<polygon fill="#FBBA00" points="285.4,294.2 345.5,355.5 368.4,350.9 429.6,267.2 429.6,541.3 518.6,581.4 518.6,74 489.7,78.5 
		356.6,256.9 223.4,123.4 196.4,128 196.4,432.6 285.4,414.9 	"/>
</g>
</svg>
