<?xml version="1.0" encoding="utf-8"?>
<!-- Generator: Adobe Illustrator 23.0.1, SVG Export Plug-In . SVG Version: 6.00 Build 0)  -->
<svg version="1.1" xmlns="http://www.w3.org/2000/svg" xmlns:xlink="http://www.w3.org/1999/xlink" x="0px" y="0px"
	 viewBox="-6 -6 1000 700" enable-background="new 0 0 1000 700" xml:space="preserve">
<g id="Calque_4">
</g>
<g id="Calque_1">
	<g id="mpp" opacity="0.2">
		<path fill="#FF0000" d="M155.6,554.4c-2.7-1.8-6.3-2.4-10.6-1.6l-14.9,2.6v36.6l10.9-1.7v-11.4l4.6-0.8c4.2-0.7,7.5-2.5,10.2-5.3
			c2.8-2.8,4-6.1,4-9.9C159.9,559,158.4,556.2,155.6,554.4z M148.5,567.9c-0.8,0.9-1.5,1.5-2.9,1.8l-4.6,0.9v-8.6l4.6-0.9
			c1.4-0.2,2.3,0,3.1,0.6s1.1,1.6,1.1,2.9S149.4,566.9,148.5,567.9z"/>
		<path fill="#FF0000" d="M174,564l-17.2,40.3l10.6-1.8l1.4-3.3l13.6-2.3l1.4,2.8l10.6-1.8l-17.2-34.4L174,564z M172.3,590.9
			l3.3-9.1l3.3,7.9L172.3,590.9z"/>
		<path fill="#FF0000" d="M223.6,550.4c-2.7-1.8-5.3-2.4-9.6-1.7l-13.9,2.6v36.7l9.5-1.7v-11.4l4.3-0.8c4.2-0.7,7.3-2.5,10.1-5.3
			c2.8-2.8,4-6.1,4-9.9C227.9,555,226.3,552.2,223.6,550.4z M216.4,563.9c-0.8,0.9-1.2,1.5-2.6,1.8l-4.3,0.9v-8.6l4.3-0.9
			c1.4-0.2,2.1,0,2.9,0.6s1.1,1.6,1.1,2.9C217.9,561.8,217.3,562.9,216.4,563.9z"/>
		<path fill="#FF0000" d="M242,568.5l-17.2,40.3l10.6-1.8l1.4-3.3l13.6-2.3l1.4,2.8l10.6-1.8l-17.2-34.4L242,568.5z M240.2,595.4
			l3.3-9.1l3.3,7.9L240.2,595.4z"/>
		<polygon fill="#FF0000" points="275.6,557.6 268.5,546 258.3,547.9 272,568.4 272,582.3 279.5,580.6 279.5,566.5 292.9,541.7
			282.4,543.6 		"/>
	</g>
	<g id="Calque_3" opacity="0.2">
		<path fill="#FF0000" d="M155.6,504.6c-2.7-1.8-6.3-2.4-10.6-1.6l-14.9,2.6v36.6l10.9-1.7v-11.4l4.6-0.8c4.2-0.7,7.5-2.5,10.2-5.3
			c2.8-2.8,4-6.1,4-9.9C159.9,509.3,158.4,506.4,155.6,504.6z M148.5,518.2c-0.8,0.9-1.5,1.5-2.9,1.8l-4.6,0.9v-8.6l4.6-0.9
			c1.4-0.2,2.3,0,3.1,0.6c0.8,0.7,1.1,1.6,1.1,2.9C149.9,516.1,149.4,517.2,148.5,518.2z"/>
		<polygon fill="#FF0000" points="191.2,524 191.2,515.4 164.1,519.9 164.1,556.5 191.2,551.9 191.2,543.3 175,546.2 175,539.8
			185.8,537.8 185.8,529.8 175,531.8 175,526.8 		"/>
		<polygon fill="#FF0000" points="205.4,499.4 194.5,501.3 207.5,521.8 207.5,535.7 218.4,534.1 218.4,520 230.8,495.2 219.7,497.1
			212.5,511 		"/>
		<polygon fill="#FF0000" points="230.6,549.8 241.4,548.1 241.4,511.5 230.6,513.1 		"/>
		<polygon fill="#FF0000" points="279.5,486.7 251,491.7 251,500.3 265.2,497.8 248.9,526.2 248.9,528.7 279.5,523.3 279.5,514.7
			262.8,517.6 279.5,489.2 		"/>
		<path fill="#FF0000" d="M298.7,495.5l-17.2,40.3l10.6-1.8l1.4-3.3l13.6-2.3l1.4,2.8l10.6-1.8L301.9,495L298.7,495.5z M297,522.4
			l3.3-9.1l3.3,7.9L297,522.4z"/>
		<polygon fill="#FF0000" points="345.9,501.2 325.8,485.8 322.9,486.3 322.9,523.6 333.8,521.9 333.8,503.3 353.9,519.1
			356.8,518.5 356.8,481.2 345.9,482.9 		"/>
	</g>
	<g opacity="0.2">
		<polygon fill="#FF0000" points="141,477.1 148.4,484.6 151.2,484 158.7,473.8 158.7,489.2 169.5,487.5 169.5,450.2 166,450.8
			149.7,472.6 133.5,456.2 130.2,456.8 130.2,494.1 141,492.5 		"/>
		<path fill="#FF0000" d="M180.3,487.5c4,3,8.7,4,14.5,3c5.7-1,10.5-3.6,14.5-7.9c4-4.3,5.9-9.2,5.9-14.5s-2-9.5-5.9-12.5
			c-4-3-8.8-4-14.5-3c-5.7,1-10.5,3.6-14.5,7.9s-5.9,9.2-5.9,14.5S176.4,484.6,180.3,487.5z M187.4,465.4c1.9-2.2,4.4-3.6,7.4-4.1
			c3-0.5,5.4,0,7.4,1.6c2,1.5,2.9,3.9,2.9,6.9c0,3.1-1,5.7-2.9,7.9c-2,2.2-4.4,3.6-7.4,4c-3.1,0.5-5.5,0-7.4-1.5s-2.9-3.9-2.9-6.9
			C184.5,470.2,185.5,467.6,187.4,465.4z"/>
		<path fill="#FF0000" d="M225.2,486.8c3.1,2.5,7.2,3.3,12.1,2.4c4.8-0.8,9-3,12.2-6.5c3.2-3.5,4.9-7.7,4.9-12.6V449l-10.9,1.7v21.8
			c0,2.1-0.3,3.8-1.6,5.3s-2.7,2.3-4.8,2.6s-3.5,0-4.8-1c-1.3-1-1.8-2.5-1.8-4.6V453l-10.2,1.7v21.1
			C220.4,480.7,222.1,484.3,225.2,486.8z"/>
		<polygon fill="#FF0000" points="278,477.2 295.2,436.9 284.1,438.8 276.5,458.1 268.9,441.4 257.7,443.3 274.9,477.7 		"/>
		<polygon fill="#FF0000" points="308.6,467.7 315.7,475.2 318.7,474.7 326.3,464.4 326.3,479.8 335.1,478.1 335.1,440.8
			332.4,441.4 316.7,463.2 300.8,446.9 297.8,447.4 297.8,484.7 308.6,483 		"/>
		<path fill="#FF0000" d="M357.8,424.5l-17.2,40.3l10.6-1.8l1.4-3.3l13.6-2.3l1.4,2.8l10.6-1.8L361,423.9L357.8,424.5z M356.1,451.4
			l3.3-9.1l3.3,7.9L356.1,451.4z"/>
		<polygon fill="#FF0000" points="398.2,400.1 398.2,418.4 378,402.9 375.1,403.4 375.1,440.8 384,439.1 384,420.5 405.2,436.3
			409.1,435.7 409.1,398.4 		"/>
	</g>
	<path opacity="0.2" fill="#FF0000" d="M841.7,267c-22.4-14.8-51.7-19.4-86.4-13.3l-122.1,20.9V643l89-44.5V467.1l37.3-6.8
		c34.2-5.7,61.3-20.5,83.7-43.4c22.8-23.2,33.1-49.8,33.1-80.7C876.3,305.1,864.2,281.9,841.7,267z M783.5,377.7
		c-6.8,7.6-12.2,12.6-23.6,14.5l-37.7,7.2V329l37.7-7.2c11.4-1.9,18.6-0.4,25.1,4.9c6.5,5.3,9.1,12.9,9.1,23.6
		C794.2,361,790.4,369.7,783.5,377.7z"/>
	<path opacity="0.2" fill="#FF0000" d="M741.3,65.9c-22.4-14.8-51.7-19.4-86.4-13.3L532.8,73.5v424.2l89-13.7V266l37.3-6.8
		c34.2-6.1,61.3-20.5,83.7-43.4c22.8-23.2,33.1-49.8,33.1-80.7C775.9,104,763.8,80.8,741.3,65.9z M683.1,176.6
		c-6.8,7.6-12.2,12.6-23.6,14.5l-37.7,7.2v-70.4l37.7-7.2c11.4-1.9,18.6-0.4,25.1,4.9c6.5,5.3,9.1,12.9,9.1,23.6
		C694.2,159.5,690,168.7,683.1,176.6z"/>
	<polygon opacity="0.2" fill="#FF0000" points="285.4,294.2 345.5,355.5 368.4,350.9 429.6,267.2 429.6,541.3 518.6,581.4 518.6,74
		489.7,78.5 356.6,256.9 223.4,123.4 196.4,128 196.4,432.6 285.4,414.9 	"/>
	<polygon fill="none" stroke="#000000" stroke-miterlimit="10" stroke-dasharray="6" points="867.1,443.7 196.4,552.3 196.4,128
		867.1,19.3 	"/>
	<line fill="none" stroke="#000000" stroke-miterlimit="10" stroke-dasharray="6" x1="109.8" y1="479.1" x2="409.1" y2="430.6"/>
	<line fill="none" stroke="#000000" stroke-miterlimit="10" stroke-dasharray="6" x1="194.5" y1="430" x2="867.1" y2="321"/>
	<line fill="none" stroke="#000000" stroke-miterlimit="10" stroke-dasharray="6" x1="194.5" y1="269.8" x2="867.1" y2="160.9"/>
	<line fill="none" stroke="#000000" stroke-miterlimit="10" stroke-dasharray="6" x1="194.5" y1="198.3" x2="867.1" y2="89.4"/>
	<line fill="none" stroke="#000000" stroke-miterlimit="10" stroke-dasharray="6" x1="194.5" y1="382.2" x2="867.1" y2="273.2"/>
	<line fill="none" stroke="#000000" stroke-miterlimit="10" stroke-dasharray="6" x1="109.8" y1="535.6" x2="356.8" y2="495.6"/>
	<line fill="none" stroke="#000000" stroke-miterlimit="10" stroke-dasharray="6" x1="109.8" y1="591.1" x2="291.1" y2="561.7"/>
</g>
<g id="Calque_2">
</g>
<g id="Calque_3_1_">
</g>
</svg>
