<?xml version="1.0" encoding="utf-8"?>
<!-- Generator: Adobe Illustrator 23.0.1, SVG Export Plug-In . SVG Version: 6.00 Build 0)  -->
<svg version="1.1" id="Calque_1" xmlns="http://www.w3.org/2000/svg" xmlns:xlink="http://www.w3.org/1999/xlink" x="0px" y="0px"
	 viewBox="0 0 1000 700" enable-background="new 0 0 1000 700" xml:space="preserve">
<g id="Calque_4">
</g>
<g>
	<g id="mpp" opacity="0.2">
		<path fill="#FF0000" d="M161.6,560.4c-2.7-1.8-6.3-2.4-10.6-1.6l-14.9,2.6V598l10.9-1.7v-11.4l4.6-0.8c4.2-0.7,7.5-2.5,10.2-5.3
			c2.8-2.8,4-6.1,4-9.9C165.9,565,164.4,562.2,161.6,560.4z M154.5,573.9c-0.8,0.9-1.5,1.5-2.9,1.8l-4.6,0.9V568l4.6-0.9
			c1.4-0.2,2.3,0,3.1,0.6s1.1,1.6,1.1,2.9S155.4,572.9,154.5,573.9z"/>
		<path fill="#FF0000" d="M180,570l-17.2,40.3l10.6-1.8l1.4-3.3l13.6-2.3l1.4,2.8l10.6-1.8l-17.2-34.4L180,570z M178.3,596.9
			l3.3-9.1l3.3,7.9L178.3,596.9z"/>
		<path fill="#FF0000" d="M229.6,556.4c-2.7-1.8-5.3-2.4-9.6-1.7l-13.9,2.6V594l9.5-1.7v-11.4l4.3-0.8c4.2-0.7,7.3-2.5,10.1-5.3
			s4-6.1,4-9.9C233.9,561,232.3,558.2,229.6,556.4z M222.4,569.9c-0.8,0.9-1.2,1.5-2.6,1.8l-4.3,0.9V564l4.3-0.9
			c1.4-0.2,2.1,0,2.9,0.6s1.1,1.6,1.1,2.9C223.9,567.8,223.3,568.9,222.4,569.9z"/>
		<path fill="#FF0000" d="M248,574.5l-17.2,40.3l10.6-1.8l1.4-3.3l13.6-2.3l1.4,2.8l10.6-1.8L251.2,574L248,574.5z M246.2,601.4
			l3.3-9.1l3.3,7.9L246.2,601.4z"/>
		<polygon fill="#FF0000" points="281.6,563.6 274.5,552 264.3,553.9 278,574.4 278,588.3 285.5,586.6 285.5,572.5 298.9,547.7 
			288.4,549.6 		"/>
	</g>
	<g id="Calque_3" opacity="0.2">
		<path fill="#FF0000" d="M161.6,510.6c-2.7-1.8-6.3-2.4-10.6-1.6l-14.9,2.6v36.6l10.9-1.7v-11.4l4.6-0.8c4.2-0.7,7.5-2.5,10.2-5.3
			c2.8-2.8,4-6.1,4-9.9C165.9,515.3,164.4,512.4,161.6,510.6z M154.5,524.2c-0.8,0.9-1.5,1.5-2.9,1.8l-4.6,0.9v-8.6l4.6-0.9
			c1.4-0.2,2.3,0,3.1,0.6c0.8,0.7,1.1,1.6,1.1,2.9C155.9,522.1,155.4,523.2,154.5,524.2z"/>
		<polygon fill="#FF0000" points="197.2,530 197.2,521.4 170.1,525.9 170.1,562.5 197.2,557.9 197.2,549.3 181,552.2 181,545.8 
			191.8,543.8 191.8,535.8 181,537.8 181,532.8 		"/>
		<polygon fill="#FF0000" points="211.4,505.4 200.5,507.3 213.5,527.8 213.5,541.7 224.4,540.1 224.4,526 236.8,501.2 225.7,503.1 
			218.5,517 		"/>
		<polygon fill="#FF0000" points="236.6,555.8 247.4,554.1 247.4,517.5 236.6,519.1 		"/>
		<polygon fill="#FF0000" points="285.5,492.7 257,497.7 257,506.3 271.2,503.8 254.9,532.2 254.9,534.7 285.5,529.3 285.5,520.7 
			268.8,523.6 285.5,495.2 		"/>
		<path fill="#FF0000" d="M304.7,501.5l-17.2,40.3l10.6-1.8l1.4-3.3l13.6-2.3l1.4,2.8l10.6-1.8L307.9,501L304.7,501.5z M303,528.4
			l3.3-9.1l3.3,7.9L303,528.4z"/>
		<polygon fill="#FF0000" points="351.9,507.2 331.8,491.8 328.9,492.3 328.9,529.6 339.8,527.9 339.8,509.3 359.9,525.1 
			362.8,524.5 362.8,487.2 351.9,488.9 		"/>
	</g>
	<g opacity="0.2">
		<polygon fill="#FF0000" points="147,483.1 154.4,490.6 157.2,490 164.7,479.8 164.7,495.2 175.5,493.5 175.5,456.2 172,456.8 
			155.7,478.6 139.5,462.2 136.2,462.8 136.2,500.1 147,498.5 		"/>
		<path fill="#FF0000" d="M186.3,493.5c4,3,8.7,4,14.5,3c5.7-1,10.5-3.6,14.5-7.9s5.9-9.2,5.9-14.5s-2-9.5-5.9-12.5
			c-4-3-8.8-4-14.5-3s-10.5,3.6-14.5,7.9s-5.9,9.2-5.9,14.5S182.4,490.6,186.3,493.5z M193.4,471.4c1.9-2.2,4.4-3.6,7.4-4.1
			s5.4,0,7.4,1.6c2,1.5,2.9,3.9,2.9,6.9c0,3.1-1,5.7-2.9,7.9c-2,2.2-4.4,3.6-7.4,4c-3.1,0.5-5.5,0-7.4-1.5s-2.9-3.9-2.9-6.9
			C190.5,476.2,191.5,473.6,193.4,471.4z"/>
		<path fill="#FF0000" d="M231.2,492.8c3.1,2.5,7.2,3.3,12.1,2.4c4.8-0.8,9-3,12.2-6.5c3.2-3.5,4.9-7.7,4.9-12.6V455l-10.9,1.7v21.8
			c0,2.1-0.3,3.8-1.6,5.3s-2.7,2.3-4.8,2.6s-3.5,0-4.8-1s-1.8-2.5-1.8-4.6V459l-10.2,1.7v21.1C226.4,486.7,228.1,490.3,231.2,492.8z
			"/>
		<polygon fill="#FF0000" points="284,483.2 301.2,442.9 290.1,444.8 282.5,464.1 274.9,447.4 263.7,449.3 280.9,483.7 		"/>
		<polygon fill="#FF0000" points="314.6,473.7 321.7,481.2 324.7,480.7 332.3,470.4 332.3,485.8 341.1,484.1 341.1,446.8 
			338.4,447.4 322.7,469.2 306.8,452.9 303.8,453.4 303.8,490.7 314.6,489 		"/>
		<path fill="#FF0000" d="M363.8,430.5l-17.2,40.3l10.6-1.8l1.4-3.3l13.6-2.3l1.4,2.8l10.6-1.8L367,429.9L363.8,430.5z M362.1,457.4
			l3.3-9.1l3.3,7.9L362.1,457.4z"/>
		<polygon fill="#FF0000" points="404.2,406.1 404.2,424.4 384,408.9 381.1,409.4 381.1,446.8 390,445.1 390,426.5 411.2,442.3 
			415.1,441.7 415.1,404.4 		"/>
	</g>
	<path opacity="0.2" fill="#FF0000" enable-background="new    " d="M847.7,273c-22.4-14.8-51.7-19.4-86.4-13.3l-122.1,20.9V649
		l89-44.5V473.1l37.3-6.8c34.2-5.7,61.3-20.5,83.7-43.4c22.8-23.2,33.1-49.8,33.1-80.7C882.3,311.1,870.2,287.9,847.7,273z
		 M789.5,383.7c-6.8,7.6-12.2,12.6-23.6,14.5l-37.7,7.2V335l37.7-7.2c11.4-1.9,18.6-0.4,25.1,4.9s9.1,12.9,9.1,23.6
		C800.2,367,796.4,375.7,789.5,383.7z"/>
	<path opacity="0.2" fill="#FF0000" enable-background="new    " d="M747.3,71.9c-22.4-14.8-51.7-19.4-86.4-13.3L538.8,79.5v424.2
		l89-13.7V272l37.3-6.8c34.2-6.1,61.3-20.5,83.7-43.4c22.8-23.2,33.1-49.8,33.1-80.7C781.9,110,769.8,86.8,747.3,71.9z M689.1,182.6
		c-6.8,7.6-12.2,12.6-23.6,14.5l-37.7,7.2v-70.4l37.7-7.2c11.4-1.9,18.6-0.4,25.1,4.9c6.5,5.3,9.1,12.9,9.1,23.6
		C700.2,165.5,696,174.7,689.1,182.6z"/>
	<polygon opacity="0.2" fill="#FF0000" enable-background="new    " points="291.4,300.2 351.5,361.5 374.4,356.9 435.6,273.2 
		435.6,547.3 524.6,587.4 524.6,80 495.7,84.5 362.6,262.9 229.4,129.4 202.4,134 202.4,438.6 291.4,420.9 	"/>
	<polygon fill="none" stroke="#000000" stroke-miterlimit="10" stroke-dasharray="6" points="873.1,449.7 202.4,558.3 202.4,134 
		873.1,25.3 	"/>
	<line fill="none" stroke="#000000" stroke-miterlimit="10" stroke-dasharray="6" x1="115.8" y1="485.1" x2="415.1" y2="436.6"/>
	<line fill="none" stroke="#000000" stroke-miterlimit="10" stroke-dasharray="6" x1="115.8" y1="541.6" x2="362.8" y2="501.6"/>
	<line fill="none" stroke="#000000" stroke-miterlimit="10" stroke-dasharray="6" x1="115.8" y1="597.1" x2="297.1" y2="567.7"/>
	<path fill="none" stroke="#000000" stroke-miterlimit="10" stroke-dasharray="6" d="M847.7,273c-22.4-14.8-51.7-19.4-86.4-13.3
		l-122.1,20.9V649l89-44.5V473.1l37.3-6.8c34.2-5.7,61.3-20.5,83.7-43.4c22.8-23.2,33.1-49.8,33.1-80.7
		C882.3,311.1,870.2,287.9,847.7,273z M789.5,383.7c-6.8,7.6-12.2,12.6-23.6,14.5l-37.7,7.2V335l37.7-7.2
		c11.4-1.9,18.6-0.4,25.1,4.9s9.1,12.9,9.1,23.6C800.2,367,796.4,375.7,789.5,383.7z"/>
	<path fill="none" stroke="#000000" stroke-miterlimit="10" stroke-dasharray="6" d="M747.3,71.9c-22.4-14.8-51.7-19.4-86.4-13.3
		L538.8,79.5v424.2l89-13.7V272l37.3-6.8c34.2-6.1,61.3-20.5,83.7-43.4c22.8-23.2,33.1-49.8,33.1-80.7
		C781.9,110,769.8,86.8,747.3,71.9z M689.1,182.6c-6.8,7.6-12.2,12.6-23.6,14.5l-37.7,7.2v-70.4l37.7-7.2
		c11.4-1.9,18.6-0.4,25.1,4.9c6.5,5.3,9.1,12.9,9.1,23.6C700.2,165.5,696,174.7,689.1,182.6z"/>
	<polygon fill="none" stroke="#000000" stroke-miterlimit="10" stroke-dasharray="6" points="291.4,300.2 351.5,361.5 374.4,356.9 
		435.6,273.2 435.6,547.3 524.6,587.4 524.6,80 495.7,84.5 362.6,262.9 229.4,129.4 202.4,134 202.4,438.6 291.4,420.9 	"/>
</g>
<g id="Calque_3_1_">
</g>
<line fill="none" stroke="#000000" stroke-miterlimit="10" stroke-dasharray="6" x1="202.4" y1="350" x2="873.1" y2="257.1"/>
</svg>
