<?xml version="1.0" encoding="utf-8"?>
<!-- Generator: Adobe Illustrator 23.0.1, SVG Export Plug-In . SVG Version: 6.00 Build 0)  -->
<svg version="1.1" xmlns="http://www.w3.org/2000/svg" xmlns:xlink="http://www.w3.org/1999/xlink" x="0px" y="0px"
	 viewBox="0 0 1000 700" enable-background="new 0 0 1000 700" xml:space="preserve">
<g id="SibyllineEscapade">
	<path d="M254.8,459.3c-5.9-3.9-13.6-5.1-22.7-3.5l-32.1,5.5V540l23.4-3.6v-24.5l9.8-1.8c9-1.5,16.1-5.4,22-11.4
		c6-6.1,8.7-13.1,8.7-21.2C263.9,469.3,260.7,463.2,254.8,459.3z M239.5,488.4c-1.8,2-3.2,3.3-6.2,3.8l-9.9,1.9v-18.5l9.9-1.9
		c3-0.5,4.9-0.1,6.6,1.3s2.4,3.4,2.4,6.2S241.3,486.3,239.5,488.4z"/>
	<path d="M294.4,480.1l-37,86.6l22.8-3.9l3-7.1l29.2-5l3,6.1l22.8-3.9l-37-74L294.4,480.1z M290.7,537.9l7.1-19.5l7,17.1
		L290.7,537.9z"/>
	<path d="M401,450.7c-5.9-3.9-11.5-5.1-20.6-3.6l-30,5.5v78.9l20.4-3.6v-24.5l9.2-1.8c9-1.5,15.8-5.4,21.7-11.4
		c6-6.1,8.5-13.1,8.5-21.2C410.2,460.6,406.9,454.6,401,450.7z M385.6,479.7c-1.8,2-2.6,3.3-5.5,3.8l-9.3,1.9v-18.5l9.3-1.9
		c3-0.5,4.5-0.1,6.3,1.3c1.8,1.4,2.3,3.4,2.3,6.2C388.7,475.3,387.4,477.7,385.6,479.7z"/>
	<path d="M440.5,489.7l-37,86.6l22.8-3.9l3-7.1l29.2-5l3,6.1l22.8-3.9l-37-74L440.5,489.7z M436.8,547.5L444,528l7,17.1L436.8,547.5
		z"/>
	<polygon points="512.8,466.2 497.7,441.3 475.7,445.3 505.1,489.4 505.1,519.3 521.2,515.7 521.2,485.5 550.2,432.1 527.6,436.1 	
		"/>
</g>
<g id="Calque_3">
	<path d="M254.8,352.3c-5.9-3.9-13.6-5.1-22.7-3.5l-32.1,5.5V433l23.4-3.6v-24.5l9.8-1.8c9-1.6,16.1-5.4,22-11.4
		c6-6.1,8.7-13.1,8.7-21.2C263.9,362.3,260.7,356.2,254.8,352.3z M239.5,381.4c-1.8,2-3.2,3.3-6.2,3.8l-9.9,1.9v-18.5l9.9-1.9
		c3-0.5,4.9-0.1,6.6,1.3s2.4,3.4,2.4,6.2C242.4,376.9,241.3,379.3,239.5,381.4z"/>
	<polygon points="331.4,393.9 331.4,375.4 273,385.1 273,463.9 331.4,454 331.4,435.5 296.4,441.8 296.4,428 319.7,423.7 
		319.7,406.5 296.4,410.8 296.4,400 	"/>
	<polygon points="361.8,341.1 338.4,345.1 366.4,389.2 366.4,419.2 389.8,415.6 389.8,385.4 416.5,332 392.7,336 377.1,366 	"/>
	<polygon points="416.1,449.4 439.4,445.8 439.4,367 416.1,370.6 	"/>
	<polygon points="521.2,313.7 459.9,324.4 459.9,342.9 490.6,337.7 455.5,398.7 455.5,404.1 521.2,392.5 521.2,374 485.4,380.1 
		521.2,319 	"/>
	<path d="M562.6,332.7l-37,86.6l22.8-3.9l3-7.1l29.2-5l3,6.1l22.8-3.9l-37-74L562.6,332.7z M558.9,390.5l7.1-19.5l7,17.1
		L558.9,390.5z"/>
	<polygon points="664.2,345 620.8,311.7 614.6,312.8 614.6,393.1 638,389.5 638,349.5 681.4,383.4 687.6,382.2 687.6,301.9 
		664.2,305.6 	"/>
</g>
<g id="Calque_1">
	<polygon points="223.4,293.1 239.2,309.2 245.2,308 261.3,286 261.3,319.1 284.7,315.5 284.7,235.2 277.1,236.4 242.1,283.3 
		207.1,248.2 200,249.4 200,329.7 223.4,326.1 	"/>
	<path d="M307.9,315.5c8.5,6.4,18.8,8.6,31.1,6.5c12.2-2.1,22.6-7.8,31.2-17.1c8.5-9.3,12.8-19.7,12.8-31.3
		c0-11.6-4.3-20.5-12.8-26.9c-8.5-6.4-18.9-8.5-31.2-6.4c-12.2,2.1-22.6,7.8-31.1,17.1c-8.5,9.3-12.7,19.7-12.7,31.3
		S299.5,309.1,307.9,315.5z M323.1,267.9c4.1-4.8,9.4-7.7,16-8.8c6.4-1.1,11.7,0,15.9,3.4c4.2,3.3,6.3,8.3,6.3,14.8
		c0,6.6-2.1,12.3-6.3,17c-4.2,4.7-9.5,7.7-15.9,8.7c-6.6,1.1-11.9,0-16-3.3c-4.1-3.3-6.2-8.3-6.2-14.9
		C316.9,278.3,319,272.7,323.1,267.9z"/>
	<path d="M404.5,313.9c6.7,5.3,15.5,7,26,5.2c10.4-1.8,19.4-6.5,26.2-14c6.8-7.6,10.5-16.6,10.5-27v-45.4l-23.4,3.6v47
		c0,4.5-0.6,8.2-3.4,11.3c-2.8,3.1-5.9,5-10.3,5.7c-4.4,0.7-7.6,0.1-10.3-2.1c-2.8-2.1-3.8-5.4-3.8-9.9v-47l-21.9,3.6v45.4
		C394.2,300.8,397.7,308.6,404.5,313.9z"/>
	<polygon points="518.1,293.2 555.1,206.5 531.1,210.6 514.8,252.1 498.4,216.2 474.4,220.3 511.4,294.3 	"/>
	<polygon points="583.9,272.8 599.2,289 605.5,287.8 621.9,265.8 621.9,298.9 640.9,295.3 640.9,215 635,216.2 601.2,263.1 567,228 
		560.6,229.2 560.6,309.4 583.9,305.8 	"/>
	<path d="M689.8,179.9l-37,86.6l22.8-3.9l3-7.1l29.2-5l3,6.1l22.8-3.9l-37-74L689.8,179.9z M686.1,237.8l7.1-19.5l7,17.1
		L686.1,237.8z"/>
	<polygon points="776.6,127.4 776.6,166.8 733.2,133.5 727,134.6 727,214.9 746,211.3 746,171.3 791.7,205.2 800,204 800,123.7 	"/>
</g>
</svg>
