<?xml version="1.0" encoding="utf-8"?>
<!-- Generator: Adobe Illustrator 23.0.1, SVG Export Plug-In . SVG Version: 6.00 Build 0)  -->
<svg version="1.1" xmlns="http://www.w3.org/2000/svg" xmlns:xlink="http://www.w3.org/1999/xlink" x="0px" y="0px"
	 viewBox="0 0 1000 700" enable-background="new 0 0 1000 700" xml:space="preserve">
<g id="Typo">
	<g id="mpp_1_">
		<path d="M155.6,554.4c-2.7-1.8-6.3-2.4-10.6-1.6l-14.9,2.6v36.6l10.9-1.7v-11.4l4.6-0.8c4.2-0.7,7.5-2.5,10.2-5.3
			c2.8-2.8,4-6.1,4-9.9C159.9,559,158.4,556.2,155.6,554.4z M148.5,567.9c-0.8,0.9-1.5,1.5-2.9,1.8l-4.6,0.9v-8.6l4.6-0.9
			c1.4-0.2,2.3,0,3.1,0.6s1.1,1.6,1.1,2.9S149.4,566.9,148.5,567.9z"/>
		<path d="M174,564l-17.2,40.3l10.6-1.8l1.4-3.3l13.6-2.3l1.4,2.8l10.6-1.8l-17.2-34.4L174,564z M172.3,590.9l3.3-9.1l3.3,7.9
			L172.3,590.9z"/>
		<path d="M223.6,550.4c-2.7-1.8-5.3-2.4-9.6-1.7l-13.9,2.6v36.7l9.5-1.7v-11.4l4.3-0.8c4.2-0.7,7.3-2.5,10.1-5.3
			c2.8-2.8,4-6.1,4-9.9C227.9,555,226.3,552.2,223.6,550.4z M216.4,563.9c-0.8,0.9-1.2,1.5-2.6,1.8l-4.3,0.9v-8.6l4.3-0.9
			c1.4-0.2,2.1,0,2.9,0.6s1.1,1.6,1.1,2.9C217.9,561.8,217.3,562.9,216.4,563.9z"/>
		<path d="M242,568.5l-17.2,40.3l10.6-1.8l1.4-3.3l13.6-2.3l1.4,2.8l10.6-1.8l-17.2-34.4L242,568.5z M240.2,595.4l3.3-9.1l3.3,7.9
			L240.2,595.4z"/>
		<polygon points="275.6,557.6 268.5,546 258.3,547.9 272,568.4 272,582.3 279.5,580.6 279.5,566.5 292.9,541.7 282.4,543.6 		"/>
	</g>
</g>
<g id="MPP">
	<path fill="#FBBA00" d="M841.7,267c-22.4-14.8-51.7-19.4-86.4-13.3l-122.1,20.9V643l89-44.5V467.1l37.3-6.8
		c34.2-5.7,61.3-20.5,83.7-43.4c22.8-23.2,33.1-49.8,33.1-80.7C876.3,305.1,864.2,281.9,841.7,267z M783.5,377.7
		c-6.8,7.6-12.2,12.6-23.6,14.5l-37.7,7.2V329l37.7-7.2c11.4-1.9,18.6-0.4,25.1,4.9c6.5,5.3,9.1,12.9,9.1,23.6
		C794.2,361,790.4,369.7,783.5,377.7z"/>
</g>
</svg>
