<?xml version="1.0" encoding="utf-8"?>
<!-- Generator: Adobe Illustrator 23.0.1, SVG Export Plug-In . SVG Version: 6.00 Build 0)  -->
<svg version="1.1" id="Papay" xmlns="http://www.w3.org/2000/svg" xmlns:xlink="http://www.w3.org/1999/xlink" x="0px" y="0px"
	 viewBox="0 0 1000 700" enable-background="new 0 0 1000 700" xml:space="preserve">
<path d="M254.8,459.3c-5.9-3.9-13.6-5.1-22.7-3.5l-32.1,5.5V540l23.4-3.6v-24.5l9.8-1.8c9-1.5,16.1-5.4,22-11.4
	c6-6.1,8.7-13.1,8.7-21.2C263.9,469.3,260.7,463.2,254.8,459.3z M239.5,488.4c-1.8,2-3.2,3.3-6.2,3.8l-9.9,1.9v-18.5l9.9-1.9
	c3-0.5,4.9-0.1,6.6,1.3s2.4,3.4,2.4,6.2S241.3,486.3,239.5,488.4z"/>
<path d="M294.4,480.1l-37,86.6l22.8-3.9l3-7.1l29.2-5l3,6.1l22.8-3.9l-37-74L294.4,480.1z M290.7,537.9l7.1-19.5l7,17.1L290.7,537.9
	z"/>
<path d="M401,450.7c-5.9-3.9-11.5-5.1-20.6-3.6l-30,5.5v78.9l20.4-3.6v-24.5l9.2-1.8c9-1.5,15.8-5.4,21.7-11.4
	c6-6.1,8.5-13.1,8.5-21.2C410.2,460.6,406.9,454.6,401,450.7z M385.6,479.7c-1.8,2-2.6,3.3-5.5,3.8l-9.3,1.9v-18.5l9.3-1.9
	c3-0.5,4.5-0.1,6.3,1.3c1.8,1.4,2.3,3.4,2.3,6.2C388.7,475.3,387.4,477.7,385.6,479.7z"/>
<path d="M440.5,489.7l-37,86.6l22.8-3.9l3-7.1l29.2-5l3,6.1l22.8-3.9l-37-74L440.5,489.7z M436.8,547.5L444,528l7,17.1L436.8,547.5z
	"/>
<polygon points="512.8,466.2 497.7,441.3 475.7,445.3 505.1,489.4 505.1,519.3 521.2,515.7 521.2,485.5 550.2,432.1 527.6,436.1 "/>
</svg>
