<?xml version="1.0" encoding="utf-8"?>
<!-- Generator: Adobe Illustrator 23.0.1, SVG Export Plug-In . SVG Version: 6.00 Build 0)  -->
<svg version="1.1" xmlns="http://www.w3.org/2000/svg" xmlns:xlink="http://www.w3.org/1999/xlink" x="0px" y="0px"
	 viewBox="0 0 1000 700" enable-background="new 0 0 1000 700" xml:space="preserve">
<g id="Typo">
	<g id="Calque_3">
		<path d="M155.6,504.6c-2.7-1.8-6.3-2.4-10.6-1.6l-14.9,2.6v36.6l10.9-1.7v-11.4l4.6-0.8c4.2-0.7,7.5-2.5,10.2-5.3
			c2.8-2.8,4-6.1,4-9.9C159.9,509.3,158.4,506.4,155.6,504.6z M148.5,518.2c-0.8,0.9-1.5,1.5-2.9,1.8l-4.6,0.9v-8.6l4.6-0.9
			c1.4-0.2,2.3,0,3.1,0.6c0.8,0.7,1.1,1.6,1.1,2.9C149.9,516.1,149.4,517.2,148.5,518.2z"/>
		<polygon points="191.2,524 191.2,515.4 164.1,519.9 164.1,556.5 191.2,551.9 191.2,543.3 175,546.2 175,539.8 185.8,537.8 
			185.8,529.8 175,531.8 175,526.8 		"/>
		<polygon points="205.4,499.4 194.5,501.3 207.5,521.8 207.5,535.7 218.4,534.1 218.4,520 230.8,495.2 219.7,497.1 212.5,511 		"/>
		<polygon points="230.6,549.8 241.4,548.1 241.4,511.5 230.6,513.1 		"/>
		<polygon points="279.5,486.7 251,491.7 251,500.3 265.2,497.8 248.9,526.2 248.9,528.7 279.5,523.3 279.5,514.7 262.8,517.6 
			279.5,489.2 		"/>
		<path d="M298.7,495.5l-17.2,40.3l10.6-1.8l1.4-3.3l13.6-2.3l1.4,2.8l10.6-1.8L301.9,495L298.7,495.5z M297,522.4l3.3-9.1l3.3,7.9
			L297,522.4z"/>
		<polygon points="345.9,501.2 325.8,485.8 322.9,486.3 322.9,523.6 333.8,521.9 333.8,503.3 353.9,519.1 356.8,518.5 356.8,481.2 
			345.9,482.9 		"/>
	</g>
</g>
<g id="MPP">
	<path fill="#FBBA00" d="M741.3,65.9c-22.4-14.8-51.7-19.4-86.4-13.3L532.8,73.5v424.2l89-13.7V266l37.3-6.8
		c34.2-6.1,61.3-20.5,83.7-43.4c22.8-23.2,33.1-49.8,33.1-80.7C775.9,104,763.8,80.8,741.3,65.9z M683.1,176.6
		c-6.8,7.6-12.2,12.6-23.6,14.5l-37.7,7.2v-70.4l37.7-7.2c11.4-1.9,18.6-0.4,25.1,4.9c6.5,5.3,9.1,12.9,9.1,23.6
		C694.2,159.5,690,168.7,683.1,176.6z"/>
</g>
</svg>
