<?xml version="1.0" encoding="utf-8"?>
<!-- Generator: Adobe Illustrator 23.0.1, SVG Export Plug-In . SVG Version: 6.00 Build 0)  -->
<svg version="1.1" id="Calque_3" xmlns="http://www.w3.org/2000/svg" xmlns:xlink="http://www.w3.org/1999/xlink" x="0px" y="0px"
	 viewBox="0 0 1000 700" enable-background="new 0 0 1000 700" xml:space="preserve">
<path d="M254.8,352.3c-5.9-3.9-13.6-5.1-22.7-3.5l-32.1,5.5V433l23.4-3.6v-24.5l9.8-1.8c9-1.6,16.1-5.4,22-11.4
	c6-6.1,8.7-13.1,8.7-21.2C263.9,362.3,260.7,356.2,254.8,352.3z M239.5,381.4c-1.8,2-3.2,3.3-6.2,3.8l-9.9,1.9v-18.5l9.9-1.9
	c3-0.5,4.9-0.1,6.6,1.3s2.4,3.4,2.4,6.2C242.4,376.9,241.3,379.3,239.5,381.4z"/>
<polygon points="331.4,393.9 331.4,375.4 273,385.1 273,463.9 331.4,454 331.4,435.5 296.4,441.8 296.4,428 319.7,423.7 
	319.7,406.5 296.4,410.8 296.4,400 "/>
<polygon points="361.8,341.1 338.4,345.1 366.4,389.2 366.4,419.2 389.8,415.6 389.8,385.4 416.5,332 392.7,336 377.1,366 "/>
<polygon points="416.1,449.4 439.4,445.8 439.4,367 416.1,370.6 "/>
<polygon points="521.2,313.7 459.9,324.4 459.9,342.9 490.6,337.7 455.5,398.7 455.5,404.1 521.2,392.5 521.2,374 485.4,380.1 
	521.2,319 "/>
<path d="M562.6,332.7l-37,86.6l22.8-3.9l3-7.1l29.2-5l3,6.1l22.8-3.9l-37-74L562.6,332.7z M558.9,390.5l7.1-19.5l7,17.1L558.9,390.5
	z"/>
<polygon points="664.2,345 620.8,311.7 614.6,312.8 614.6,393.1 638,389.5 638,349.5 681.4,383.4 687.6,382.2 687.6,301.9 
	664.2,305.6 "/>
</svg>
