<?xml version="1.0" encoding="utf-8"?>
<!-- Generator: Adobe Illustrator 23.0.2, SVG Export Plug-In . SVG Version: 6.00 Build 0)  -->
<svg version="1.1" id="Cath_Flon_Couleur" xmlns="http://www.w3.org/2000/svg" xmlns:xlink="http://www.w3.org/1999/xlink" x="0px"
	 y="0px" viewBox="0 0 1000 700" style="enable-background:new 0 0 1000 700;" xml:space="preserve">
<g>
	<g>
		<path style="fill:#FF8857;" d="M323.4,247.2c-2.8-19.9-18.2-30.3-39.7-30.3c-33.1,0-45.8,29.2-45.8,58.5
			c0,29.2,12.7,58.5,45.8,58.5c24,0,37.8-13.8,39.7-36.4h51.3c-2.8,50.7-40,80.5-89.9,80.5c-59.6,0-98.2-45.5-98.2-102.6
			s38.6-102.6,98.2-102.6c42.5,0,88.5,27,89.9,74.5H323.4z"/>
		<path style="fill:#BC201A;" d="M398.1,274.8c0.8-18.8,9.7-30.9,22.3-38.3c12.7-7.2,29.2-9.9,45.5-9.9c33.9,0,66.7,7.4,66.7,48
			v62.6c0,12.1,0,25.4,5.5,36.7H491c-1.7-4.4-2.2-8.8-2.8-13.5c-12.1,12.7-30.1,17.6-47.2,17.6c-27.3,0-48.8-13.8-48.8-43.3
			c0-46.6,50.7-43,83.3-49.6c8-1.7,12.4-4.4,12.4-13.2c0-10.8-13-14.9-22.6-14.9c-13,0-21.2,5.8-23.4,17.9H398.1z M458.8,349
			c22.3,0,29.8-12.7,28.7-42.2c-6.6,4.1-18.8,5-29,7.7c-10.5,2.5-19.3,6.9-19.3,18.2C439.2,344.3,448.3,349,458.8,349z"/>
		<path style="fill:#880723;" d="M649.9,199.7h-29v65.1c0,11.3,6.6,13.8,16.8,13.8c3.9,0,8-0.6,12.1-0.6v34.5
			c-8.5,0.3-17.1,1.4-25.6,1.4c-40,0-50.2-11.6-50.2-50.5v-63.7h-23.7v-30.3H574v-43.3h46.9v43.3h29V199.7z"/>
		<path style="fill:#B9564E;" d="M670.8,62h46.9v73.3h0.6c7.2-14.6,26.5-23.7,43.6-23.7c47.7,0,51.6,34.7,51.6,55.4v91.8h-46.9
			v-69.2c0-19.6,2.2-39.4-23.4-39.4c-17.6,0-25.4,14.9-25.4,30.6v78h-46.9V62z"/>
		<path style="fill:#47545D;" d="M192.7,431.2h145v41.1H244v40.3h81.1v39.7H244V628h-51.3V431.2z"/>
		<path style="fill:#C4C8C9;" d="M360.9,438.8h46.9v196.9h-46.9V438.8z"/>
		<path style="fill:#A1A9D6;" d="M509.2,438.7c44.4,0,75.6,32.8,75.6,75.8c0,43-31.2,75.6-75.6,75.6S434,557.5,434,514.5
			C434,471.5,464.8,438.7,509.2,438.7z M509.2,554.2c21.8,0,28.7-21.5,28.7-39.7c0-18.2-6.9-40-28.7-40c-21.8,0-28.4,21.8-28.4,40
			C480.8,532.7,487.5,554.2,509.2,554.2z"/>
		<path style="fill:#3F4BBC;" d="M609.3,373.9h45.5v19.6h0.5c8.5-14.6,27.8-23.7,44.9-23.7c47.7,0,51.6,34.7,51.6,55.4V517H705
			v-69.2c0-19.6,2.2-39.4-23.4-39.4c-17.6,0-25.4,14.9-25.4,30.6v78h-46.9V373.9z"/>
	</g>
	<g>
		<path style="fill-rule:evenodd;clip-rule:evenodd;fill:#B9564E;" d="M639.4,225.8c0,0-0.3,3-0.9,3.6c-0.6,0.6-7.4,2-9.4,3.1
			c-2,1.2-14.1,4.6-18.8,5.4c-4.7,0.8-12,3.7-14.3,4.5c-2.3,0.8-5.4,2.8-8.1,2.7c0,0-1.3,1.6-3.1,2.7s-8.2,1.1-11.6,2.7
			c-3.4,1.6-11.3,5.1-17.5,4.9c-1.3,1.6-6.2,3.4-12.1,4c-2.3,1.7-7.6,1.7-11.2,3.6c-1.9-1.5-5.4-0.8-8.1-0.4c-2.6,0.3-12.5,0-12.5,0
			l1.3,3.6l-1.8,23.3c0,0-3.2,1-7.2,0.9c-4-0.1-15.6,4.2-17,5.4c-1.4,1.2-9.9,5.8-13.4,6.7c-3.5,0.9-5.3,3.8-6.7,6.7
			c0,0-7.4-8.4-8.9-9.9c-1.6-1.5-7.9-7-12.5-13c-1.2,0.3-11.4-2.3-25.1-5.4c-13.7-3.1-31.5-10.7-33.6-11.7c-2-0.9-4.2-3-5.4-6.7
			c-1.2-3.7-12-21.3-14.3-24.7c-2.3-3.3-3.9-9.3-3.1-11.7c2.4,0.2,3.3,1.1,5.4,1.3l1.8,2.2c0,0-0.4-1.7-1.3-3.1
			c1.5-0.8,3.5-7,4.5-11.7c1.8,1.4,16.8,30.6,19.2,33.6c2.4,3,6.3,5.8,9.4,6.7c7.3-1.2,13,1.4,14.8,2.2c1.8,0.8,6,0,7.2,0.9
			c1.2,0.9,6.6,1.4,13.4-0.4c6.8-1.8,10.7-0.4,10.7-0.4c1.4,1.3,4.9,5.2,6.7,6.3c1.8,1,19.3,1.1,25.1,0.9c5.8-0.2,13-0.6,13.9,0.9
			c0.8,1.5,6.3,15.2,6.3,15.2s1.3-7,0.9-9s-2-5.5-1.3-6.3c0.6-0.8,14.4-10.7,16.1-12.6c-0.1-1.2-2.3-9.3-2.7-14.3
			c0.1-0.9,8.9,0.1,17,0.4c0.6-0.9,2.2-1,3.6-0.9c0.9-1.1,10.3-2,14.3-1.8c0,0,1.8-1.2,2.7-1.8c0.9-0.5,4.4-0.1,6.7,0
			c1-1.7,11.6-3.8,16.6-4.9c2.6-2.1,13.7-4.8,26-6.7c12.2-2,30.9-6.9,32.7-7.6c1.8-0.7,3.6,0.2,3.1,0c-0.5-0.2-1.3,1.3-1.3,1.3
			c-0.2,2.6,0,10.8,0,10.8l-2.7,1.8l3.6-1.8L639.4,225.8z"/>
		<path style="fill-rule:evenodd;clip-rule:evenodd;fill:#3F4BBC;" d="M479.7,326.3c1.6,0.7,3.6,1.5,4,2.6c0.9,2.1,1.8,3.8,0.4,7.2
			c-1.4,3.4-5.9,15.4-7.2,24.2c-1.2,8.8-2.3,11.4-1.8,24.2c0.5,12.8,2.2,26,2.2,26c5.7-17.1,10.4-32.6,12.1-39.5s8.5-28.7,9.4-35
			c0.9-6.2,4.8-27,8.1-29.1c-9.6,3.5-18.3,8.1-19.7,9C485.3,318.1,479.8,323.7,479.7,326.3z M507.4,591.6c1.7-1.3,1.6-4.5,2.2-8.5
			c0.6-4,1.5-20,2.2-26.9c0.7-6.9,1.1-22.9,0.9-30c-0.2-7.1,0.5-22.3,2.2-30.5c1.8-8.2,10.5-33.6,15.2-45.7
			c4.7-12.2,12.1-29.3,15.2-39c3.1-9.7,7.1-26.8,7.2-35c0.1-8.2,0.4-22.1-5.8-33.6c-6.2-11.5-19.4-35-20.6-38.6
			c0.7,0.2,0.4-0.9,0.4-0.9c-2.9-0.5-5.4,0.4-5.4,0.4c2.8,3.3,5.3,13.1,6.3,16.1c0.9,3,6.4,18,5.4,25.6c-1,7.5-4.7,25.5-6.3,32.3
			c-1.6,6.8-8.1,29.2-10.3,39c-2.2,9.8-12.4,45.5-14.8,58.3s-4.9,22.6-6.7,24.2c-1.4,10.8-9.1,51.2-8.9,56.5
			c1.2,5.2,1.8,22.6,1.8,25.1c0,2.5-0.1,12.6,0.9,13.4c1,0.9,2.7,0.4,2.7,0.4S502.4,593.8,507.4,591.6z"/>
		<path style="fill:#26120B;" d="M374.6,215c-1.1-2.7-4.6-8.1-8.5-11.2c-3.9-3.1-8.4-7.8-8.9-9.9c-0.5-2.1-2.7-3.7-3.6-4
			c-0.9-0.3-5.5-4.9-6.7-4.9c-2.7-1-5.2-1.6-5.8-1.3c-3.3-1.3-9.3-2.7-13.9-2.7c-4.5,0-5,0.2-5.4,1.3c-0.4,1.2,2.2,2.2,5.4,1.8
			c3.2-0.4,5.2,1.4,8.1,3.1c2.9,1.7,7.7,3.3,8.9,4.9c1.3,1.7,3.4,5.1,4.9,5.8c0,1.6,0,2.7,0,2.7s-1.6,0.1-3.6-0.9
			c-2-1-7.1-1.8-8.1-0.9c-0.9,0.9-0.8,3.5,2.2,4.5s8.8,1.7,10.7,3.6c1.9,1.9,4.9,4.5,8.9,5.4c1.9,1.8,4.6,9.6,4.9,13.9
			c2.4,0.2,3.3,1.1,5.4,1.3l1.8,2.2c0,0-0.3-1.7-1.3-3.1C371.5,225.9,373.6,219.7,374.6,215z M504.3,241.5
			c-2.5,1.2-13.5,1.3-15.7-0.9c-2.2-2.2-3.9-6.7-4-7.2c-0.4-5.7-2.2-8.8,0.9-11.2c3-2.4,9.3-6.2,9.4-9c0.1-2.7-2.1-3.6-2.7-4.5
			c-0.4-1.8-0.3-3.1-1.8-4c0.1-2-0.6-2.4-0.9-2.7c-0.3-0.2-2.2-2.2-2.2-2.2s1.2-1,2.2-2.2c1-1.3-0.1-2.5-1.8-2.7
			c-1.7-0.2-8.1-0.9-8.1-0.9s-2.3-5.6-7.2-7.2c-4.9-1.5-7.2-1.8-7.2-1.8c-4.1-2.3-12.7-2.9-19.2,3.1s-12,16.1-9.4,26.9
			c-3.4,4.3-1.8,6.3-1.8,6.3c-2.8,1.9-2.4,11.7-2.2,13c0.1,1.3,4.7,7,6.7,7.2c2,0.2,7.5,0.4,8.9,0c4.2,0.4,12.8-3,13-4.9
			c0.1,4.8,0.2,8.9-4.5,13.5c-4.6,4.5-7.6,7.6-7.6,7.6c1.4,1.3,4.9,5.2,6.7,6.3c1.8,1,19.3,1.1,25.1,0.9c5.8-0.2,13-0.6,13.9,0.9
			c0.8,1.5,6.3,15.2,6.3,15.2s1.3-7,0.9-9c-0.4-1.9-2-5.5-1.3-6.3c0.6-0.8,14.4-10.7,16.1-12.6c-0.1-1.2-2.3-9.3-2.7-14.4
			C510.8,238.8,506.8,240.3,504.3,241.5z M671.2,185.4c-0.9,0.5-1.3,0.9-1.3,0.9s0-1.9-0.4-2.2c0.1-0.6-0.4-1.2-1.8,0.4
			c-1.4,1.6-5,6.1-6.3,7.2c-1.2,1.1-4.3,6.4-5.4,8.1c-1,1.7-9.6,12-13.9,14.4c-2.8,1.2-5.8,1.2-5.4,1.3c0.1,0,0.1,0,0,0
			c-0.5-0.2-1.3,1.3-1.3,1.3c-0.2,2.6,0,10.8,0,10.8l-2.7,1.8l3.6-1.8l3.1-1.8c0,0,4.3-2.3,5.8-1.8s3-1.1,5.4-3.6
			c2.3-2.5,7.6-8.6,7.6-9.4c0-0.8,0.4-2.2,0.4-2.2s5.7-4.4,7.2-5.4c1.5-1,3-3.6,2.7-4c0.4-0.7,0-1.9-0.9-1.8
			c-0.9,0.3-1.3,0.9-1.3,0.9s-4.1,3.2-5.4,4c-1.2,0.9-2.2,0.9-2.2,0.9s2.7-2.5,4-4s6.1-5.9,6.3-6.7s0-1.3,0-1.3s1.7-1.2,2.7-2.2
			S672.3,185.2,671.2,185.4z M491.3,594.4c0,0-1.7,0.4-2.7-0.4c1,0.9,1.6,3.8,1.3,6.3c-1.2,2.9-6.7,17.7-6.3,20.2c0,0-4.5,7-3.6,9.9
			c0.9,2.8,2.2,6.9,8.1,7.6c2.3,0.3,5.5-0.3,8.9-2.7c3.4-2.4,6.3-5.1,6.3-14.8c0.6-2.4,1.9-5.1,2.2-7.2c0.3-2.1,1.3-6.5,1.8-8.5
			c0.5-2,0-11.6,0-13C502.4,593.9,491.3,594.4,491.3,594.4z"/>
		<path style="fill-rule:evenodd;clip-rule:evenodd;fill:#C4C8C9;" d="M483.7,620.3c0,0-0.2-1.2-0.9,0c-0.7,1.2-5.7,0.7-5.8-0.9
			c-0.1-1.6-2.9-7.7-5.4-11.7c0.2,3-2.7,3.7-5.8,5.4c-3.1,1.7-10.3-1.4-11.2-3.1c-0.9-1.8-12.7-11.1-15.7-13c-3-1.9-2.1-4.4-0.4-5.4
			c0.6-1.1,6.4-27.8,7.2-33.6s3.2-23.6,6.3-30c-0.6-5.4,6-32.7,8.9-37.7c0.3-4.1,6.5-34.8,7.6-39.9c1.1-5.1,8.9-39.9,8.9-39.9
			s10.4-32.6,12.1-39.5s8.5-28.7,9.4-35c0.9-6.2,4.8-27,8.1-29.1c-9.6,3.5-18.3,8.1-19.7,9c-2,2.2-7.5,7.8-7.6,10.4
			c1.6,0.7-3.1-1-3.1-1s-1.3-1-2.2-2.2c-0.9-1.2-0.9-5.4-0.9-5.4s0.1-0.6-1.3-1.3c-1.4-0.7-3.1-2.6-3.1-4c0-1.4-1.7-2.2-1.8-3.1
			c1.4-2.9,3.2-5.8,6.7-6.7c3.5-0.9,12-5.6,13.4-6.7c1.4-1.2,13-5.4,17-5.4c4,0.1,7.2-0.9,7.2-0.9l1.8-23.3l-1.3-3.6
			c0,0,9.9,0.3,12.5,0c2.6-0.3,6.5-1.2,8.1,0.4c0,0,1,1,2.2,0.9c0,0,0.9,2.2,2.2,5.4c1.3,3.2-0.5,8.1-3.6,12.1
			c-3.1,4-7.6,8.1-7.6,8.1l-1.3,0.4v2.7h1.8v4.9c0,0,1.9,3.7,2.2,4.5c0.4,0.8-1.8,0.9-1.8,0.9l-5.4,0.4c2.8,3.3,5.3,13.1,6.3,16.1
			c0.9,3,6.4,18,5.4,25.6c-1,7.5-4.7,25.5-6.3,32.3c-1.6,6.8-8.1,29.2-10.3,39c-2.2,9.8-12.4,45.5-14.8,58.3s-4.9,22.6-6.7,24.2
			c-1.4,10.8-9.1,51.2-8.9,56.5c1.2,5.2,1.8,22.6,1.8,25.1c0,2.5-0.1,12.6,0.9,13.4c1,0.9,1.6,3.8,1.3,6.3
			C488.7,603,483.3,617.9,483.7,620.3z"/>
		<path style="fill-rule:evenodd;clip-rule:evenodd;fill:#FF8857;" d="M521.3,303.4l5.4-0.4c0,0,2.1-0.1,1.8-0.9
			c-0.4-0.8-2.2-4.5-2.2-4.5v-4.9h-1.8v-2.7c0,0-7.3-1.5-13-0.4c0,0-3.2,1-7.2,0.9c-4-0.1-15.6,4.2-17,5.4
			c-1.4,1.2-9.9,5.8-13.4,6.7c-3.5,0.9-5.3,3.8-6.7,6.7c0.1,1,1.8,1.7,1.8,3.1c0,1.4,1.7,3.3,3.1,4c1.4,0.7,1.3,1.3,1.3,1.3
			s0,4.2,0.9,5.4c0.9,1.2,2.2,2.2,2.2,2.2s4.7,1.7,3.1,1c0.1-2.6,5.6-8.2,7.6-10.4c1.4-0.9,10.1-5.5,19.7-9
			C508.1,306,519.9,302.4,521.3,303.4z"/>
		<path style="fill-rule:evenodd;clip-rule:evenodd;" d="M446.1,188.1c-6.6,6.1-12,16.1-9.4,26.9c-3.4,4.3-1.8,6.3-1.8,6.3
			c-2.8,1.9-2.4,11.7-2.2,13c0.1,1.3,4.7,7,6.7,7.2s7.5,0.4,8.9,0c4.2,0.4,12.8-3,13-4.9c1.5-2.6,2.6-14.5-8.1-22.9
			c-1.3-1,0-4.5,0-4.5c-2.2-1.7-2.5-7,0.9-6.7c3.4,0.2,6.9-0.9,7.6-2.2c-0.7,0-2.3-5.5-0.9-8.1c1.4-2.6-4-4.5-4-4.5s2-3.9,8.5-2.7
			C461.3,182.7,452.7,182.1,446.1,188.1z M477.5,194.4c0.1-0.3-0.4-1.3-0.4-1.3s0.1,0,0.9-0.9c-1.3,0.9-6.7,1.3-6.7,1.3
			c2.7,0.6,6.7,2.2,6.7,2.2l-0.9-0.9C477,194.9,477.4,194.7,477.5,194.4z"/>
		<path style="fill:#BC201A;" d="M489.4,601.7c0.2-0.6,0.4-1.1,0.6-1.5C490.1,599.5,489.8,600.3,489.4,601.7z M507.4,591.7
			c-0.2,9.4-0.3,12.8-1,15.1c-0.7,2.3-1.6,8.3-3.1,10.3c-1.5,2-0.5,7.3-7.1,5.8c-6.7-1.5-8.3-2.7-9.4-2.7c-1.1,0-1.7-5.1-0.9-6.7
			c0.6-1.1,2.5-8.4,3.5-11.8c-1.8,4.7-6.1,16.6-5.7,18.7c0,0-4.5,7-3.6,9.9c0.9,2.8,2.2,6.9,8.1,7.6c2.3,0.3,5.5-0.3,8.9-2.7
			c3.4-2.4,6.3-5.1,6.3-14.8c0.6-2.4,1.9-5.1,2.2-7.2c0.3-2.1,1.3-6.5,1.8-8.5C508,602.8,507.4,593.1,507.4,591.7z"/>
	</g>
</g>
</svg>
