<?xml version="1.0" encoding="utf-8"?>
<!-- Generator: Adobe Illustrator 23.0.2, SVG Export Plug-In . SVG Version: 6.00 Build 0)  -->
<svg version="1.1" id="Cath_Flon" xmlns="http://www.w3.org/2000/svg" xmlns:xlink="http://www.w3.org/1999/xlink" x="0px" y="0px"
	 viewBox="0 0 1000 700" style="enable-background:new 0 0 1000 700;" xml:space="preserve">
<style type="text/css">
	.st0{fill:none;stroke:#000000;stroke-miterlimit:10;}
	.st1{fill:none;stroke:#000000;stroke-miterlimit:10;stroke-dasharray:5.8861,5.8861;}
	.st2{fill:none;stroke:#000000;stroke-miterlimit:10;stroke-dasharray:6.4695,6.4695;}
	.st3{fill:none;stroke:#000000;stroke-miterlimit:10;stroke-dasharray:6.0609,6.0609;}
	.st4{fill:none;stroke:#000000;stroke-miterlimit:10;stroke-dasharray:5.9914,5.9914;}
	.st5{fill:none;stroke:#000000;stroke-miterlimit:10;stroke-dasharray:5.8792,5.8792;}
	.st6{fill:none;stroke:#000000;stroke-miterlimit:10;stroke-dasharray:6.0926,6.0926;}
	.st7{fill:none;stroke:#000000;stroke-miterlimit:10;stroke-dasharray:5.4064,5.4064;}
	.st8{fill:none;stroke:#000000;stroke-miterlimit:10;stroke-dasharray:6.1475,6.1475;}
	.st9{fill:none;stroke:#000000;stroke-miterlimit:10;stroke-dasharray:7.651,7.651;}
	.st10{fill:none;stroke:#000000;stroke-miterlimit:10;stroke-dasharray:5.6746,5.6746;}
	.st11{fill:none;stroke:#000000;stroke-miterlimit:10;stroke-dasharray:5.6938,5.6938;}
	.st12{fill:none;stroke:#000000;stroke-miterlimit:10;stroke-dasharray:5.7928,5.7928;}
	.st13{fill:none;stroke:#000000;stroke-miterlimit:10;stroke-dasharray:5.9045,5.9045;}
	.st14{fill:none;stroke:#000000;stroke-miterlimit:10;stroke-dasharray:4.8662,4.8662;}
	.st15{fill:none;stroke:#000000;stroke-miterlimit:10;stroke-dasharray:5.3276,5.3276;}
	.st16{fill:none;stroke:#000000;stroke-miterlimit:10;stroke-dasharray:5.8396,5.8396;}
	.st17{fill:none;stroke:#000000;stroke-miterlimit:10;stroke-dasharray:5.8391,5.8391;}
	.st18{fill:none;stroke:#000000;stroke-miterlimit:10;stroke-dasharray:6.1226,6.1226;}
	.st19{fill:none;stroke:#000000;stroke-miterlimit:10;stroke-dasharray:6.0787,6.0787;}
	.st20{fill:none;stroke:#000000;stroke-miterlimit:10;stroke-dasharray:6.1493,6.1493;}
	.st21{fill:none;stroke:#000000;stroke-miterlimit:10;stroke-dasharray:6.1575,6.1575;}
	.st22{fill:none;stroke:#000000;stroke-miterlimit:10;stroke-dasharray:6.0453,6.0453;}
	.st23{fill:none;stroke:#000000;stroke-miterlimit:10;stroke-dasharray:7.0173,7.0173;}
	.st24{fill:none;stroke:#000000;stroke-miterlimit:10;stroke-dasharray:5.8503,5.8503;}
	.st25{fill:none;stroke:#000000;stroke-miterlimit:10;stroke-dasharray:6.852,6.852;}
	.st26{fill:none;stroke:#000000;stroke-miterlimit:10;stroke-dasharray:5.7746,5.7746;}
	.st27{fill:none;stroke:#000000;stroke-miterlimit:10;stroke-dasharray:6.7413,6.7413;}
	.st28{fill:none;stroke:#000000;stroke-miterlimit:10;stroke-dasharray:6.3482,6.3482;}
	.st29{fill:none;stroke:#000000;stroke-miterlimit:10;stroke-dasharray:5.9778,5.9778;}
	.st30{fill:none;stroke:#000000;stroke-miterlimit:10;stroke-dasharray:6.1184,6.1184;}
	.st31{fill:none;stroke:#000000;stroke-miterlimit:10;stroke-dasharray:5.6425,5.6425;}
	.st32{fill:none;stroke:#000000;stroke-miterlimit:10;stroke-dasharray:4.5258,4.5258;}
	.st33{fill:none;stroke:#000000;stroke-miterlimit:10;stroke-dasharray:6.1051,6.1051;}
	.st34{fill:none;stroke:#000000;stroke-miterlimit:10;stroke-dasharray:5.9614,5.9614;}
	.st35{opacity:0.2;}
	.st36{fill:#FF0000;}
	.st37{fill-rule:evenodd;clip-rule:evenodd;fill:#FFFFFF;stroke:#000000;stroke-miterlimit:10;stroke-dasharray:6;}
	.st38{fill:#FFFFFF;stroke:#000000;stroke-miterlimit:10;stroke-dasharray:6;}
	.st39{fill-rule:evenodd;clip-rule:evenodd;fill:#FF0000;}
</style>
<g>
	<g>
		<g>
			<g>
				<g>
					<path class="st0" d="M326.4,247.2h-3c-0.1-1-0.3-2-0.5-3"/>
					<path class="st1" d="M321.2,238.6c-5.5-14.3-19.4-21.7-37.5-21.7c-33.1,0-45.8,29.2-45.8,58.5c0,29.2,12.7,58.5,45.8,58.5
						c21.8,0,35.2-11.4,38.9-30.5"/>
					<path class="st0" d="M323.1,300.4c0.1-1,0.2-2,0.3-3h3"/>
					<line class="st2" x1="332.9" y1="297.4" x2="368.5" y2="297.4"/>
					<path class="st0" d="M371.7,297.4h3c-0.1,1-0.1,2-0.2,3"/>
					<path class="st3" d="M373.8,306.4c-6.4,45.2-42.1,71.5-89,71.5c-59.6,0-98.2-45.5-98.2-102.6s38.6-102.6,98.2-102.6
						c40.6,0,84.6,24.7,89.5,68.4"/>
					<path class="st0" d="M374.5,244.2c0.1,1,0.1,2,0.1,3h-3"/>
					<line class="st2" x1="365.2" y1="247.2" x2="329.6" y2="247.2"/>
				</g>
			</g>
		</g>
		<g>
			<g>
				<g>
					<path class="st0" d="M401.1,274.8h-3c0-1,0.1-2,0.2-3"/>
					<path class="st4" d="M399.2,265.9c2.8-13.8,10.7-23.2,21.3-29.4c12.7-7.2,29.2-9.9,45.5-9.9c33.9,0,66.7,7.4,66.7,48v62.6
						c0,10.2,0,21.2,3.3,31.1"/>
					<path class="st0" d="M537,371c0.4,0.9,0.8,1.8,1.2,2.7h-3"/>
					<line class="st5" x1="529.3" y1="373.8" x2="497" y2="373.8"/>
					<path class="st0" d="M494,373.8h-3c-0.4-1-0.7-1.9-0.9-2.9"/>
					<path class="st0" d="M488.6,363.2c-0.1-1-0.2-2-0.4-3c-0.7,0.7-1.4,1.4-2.1,2.1"/>
					<path class="st6" d="M481.4,366.2c-11.5,8.3-26.2,11.7-40.3,11.7c-27.3,0-48.8-13.8-48.8-43.3c0-46.6,50.7-43,83.3-49.6
						c8-1.7,12.4-4.4,12.4-13.2c0-10.8-13-14.9-22.6-14.9c-10.7,0-18.2,3.9-21.7,12.1"/>
					<path class="st0" d="M442.6,271.9c-0.3,0.9-0.5,1.9-0.7,2.9h-3"/>
					<line class="st7" x1="433.6" y1="274.8" x2="403.8" y2="274.8"/>
				</g>
				<g>
					<path class="st0" d="M487.5,309.8c0-1,0-2-0.1-3c-0.8,0.5-1.7,1-2.7,1.4"/>
					<path class="st8" d="M479,310.1c-6.3,1.6-13.8,2.6-20.5,4.4c-10.5,2.5-19.3,6.9-19.3,18.2c0,11.6,9.1,16.3,19.6,16.3
						c20.7,0,28.6-10.9,28.8-36.1"/>
				</g>
			</g>
		</g>
		<g>
			<g>
				<g>
					<polyline class="st0" points="649.9,196.7 649.9,199.7 646.9,199.7 					"/>
					<line class="st9" x1="639.2" y1="199.7" x2="627.7" y2="199.7"/>
					<polyline class="st0" points="623.9,199.7 620.9,199.7 620.9,202.7 					"/>
					<path class="st10" d="M620.9,208.4v56.4c0,11.3,6.6,13.8,16.8,13.8c2,0,4.2-0.2,6.3-0.3"/>
					<path class="st0" d="M646.9,278.1c1,0,2-0.1,3-0.1v3"/>
					<line class="st11" x1="649.9" y1="286.7" x2="649.9" y2="306.7"/>
					<path class="st0" d="M649.9,309.5v3c-1,0-2,0.1-3,0.1"/>
					<path class="st12" d="M641.1,313c-5.6,0.4-11.2,0.9-16.9,0.9c-40,0-50.2-11.6-50.2-50.5v-57.8"/>
					<polyline class="st0" points="574,202.7 574,199.7 571,199.7 					"/>
					<line class="st13" x1="565.1" y1="199.7" x2="556.3" y2="199.7"/>
					<polyline class="st0" points="553.3,199.7 550.3,199.7 550.3,196.7 					"/>
					<line class="st14" x1="550.3" y1="191.9" x2="550.3" y2="174.8"/>
					<polyline class="st0" points="550.3,172.4 550.3,169.4 553.3,169.4 					"/>
					<line class="st13" x1="559.2" y1="169.4" x2="568.1" y2="169.4"/>
					<polyline class="st0" points="571,169.4 574,169.4 574,166.4 					"/>
					<line class="st15" x1="574" y1="161.1" x2="574" y2="131.8"/>
					<polyline class="st0" points="574,129.1 574,126.1 577,126.1 					"/>
					<line class="st16" x1="582.9" y1="126.1" x2="615" y2="126.1"/>
					<polyline class="st0" points="617.9,126.1 620.9,126.1 620.9,129.1 					"/>
					<line class="st15" x1="620.9" y1="134.4" x2="620.9" y2="163.7"/>
					<polyline class="st0" points="620.9,166.4 620.9,169.4 623.9,169.4 					"/>
					<line class="st9" x1="631.6" y1="169.4" x2="643" y2="169.4"/>
					<polyline class="st0" points="646.9,169.4 649.9,169.4 649.9,172.4 					"/>
					<line class="st14" x1="649.9" y1="177.3" x2="649.9" y2="194.3"/>
				</g>
			</g>
		</g>
		<g>
			<g>
				<g>
					<polyline class="st0" points="670.8,65 670.8,62 673.8,62 					"/>
					<line class="st17" x1="679.6" y1="62" x2="711.8" y2="62"/>
					<polyline class="st0" points="714.7,62 717.7,62 717.7,65 					"/>
					<line class="st18" x1="717.7" y1="71.1" x2="717.7" y2="129.3"/>
					<path class="st0" d="M717.7,132.3v3h0.6c0.4-0.9,0.9-1.8,1.5-2.6"/>
					<path class="st19" d="M723.3,127.9c9.1-10.2,24.5-16.2,38.5-16.2c47.7,0,51.6,34.7,51.6,55.4v85.8"/>
					<polyline class="st0" points="813.4,255.9 813.4,258.9 810.4,258.9 					"/>
					<line class="st16" x1="804.5" y1="258.9" x2="772.4" y2="258.9"/>
					<polyline class="st0" points="769.5,258.9 766.5,258.9 766.5,255.9 					"/>
					<path class="st20" d="M766.5,249.7v-60.1c0-19.6,2.2-39.4-23.4-39.4c-17.6,0-25.4,14.9-25.4,30.6v72"/>
					<polyline class="st0" points="717.7,255.9 717.7,258.9 714.7,258.9 					"/>
					<line class="st17" x1="708.8" y1="258.9" x2="676.7" y2="258.9"/>
					<polyline class="st0" points="673.8,258.9 670.8,258.9 670.8,255.9 					"/>
					<line class="st21" x1="670.8" y1="249.7" x2="670.8" y2="68.1"/>
				</g>
			</g>
		</g>
		<g>
			<g>
				<g>
					<polyline class="st0" points="192.7,434.2 192.7,431.2 195.7,431.2 					"/>
					<line class="st22" x1="201.8" y1="431.2" x2="331.7" y2="431.2"/>
					<polyline class="st0" points="334.7,431.2 337.7,431.2 337.7,434.2 					"/>
					<line class="st23" x1="337.7" y1="441.2" x2="337.7" y2="465.7"/>
					<polyline class="st0" points="337.7,469.3 337.7,472.3 334.7,472.3 					"/>
					<line class="st24" x1="328.9" y1="472.3" x2="249.9" y2="472.3"/>
					<polyline class="st0" points="247,472.3 244,472.3 244,475.3 					"/>
					<line class="st25" x1="244" y1="482.1" x2="244" y2="506.1"/>
					<polyline class="st0" points="244,509.5 244,512.5 247,512.5 					"/>
					<line class="st26" x1="252.8" y1="512.5" x2="319.2" y2="512.5"/>
					<polyline class="st0" points="322.1,512.5 325.1,512.5 325.1,515.5 					"/>
					<line class="st27" x1="325.1" y1="522.3" x2="325.1" y2="545.8"/>
					<polyline class="st0" points="325.1,549.2 325.1,552.2 322.1,552.2 					"/>
					<line class="st26" x1="316.3" y1="552.2" x2="249.9" y2="552.2"/>
					<polyline class="st0" points="247,552.2 244,552.2 244,555.2 					"/>
					<line class="st28" x1="244" y1="561.6" x2="244" y2="621.9"/>
					<polyline class="st0" points="244,625 244,628 241,628 					"/>
					<line class="st2" x1="234.5" y1="628" x2="198.9" y2="628"/>
					<polyline class="st0" points="195.7,628 192.7,628 192.7,625 					"/>
					<line class="st21" x1="192.7" y1="618.9" x2="192.7" y2="437.2"/>
				</g>
			</g>
		</g>
		<g>
			<g>
				<g>
					<polyline class="st0" points="360.9,441.8 360.9,438.8 363.9,438.8 					"/>
					<line class="st16" x1="369.7" y1="438.8" x2="401.9" y2="438.8"/>
					<polyline class="st0" points="404.8,438.8 407.8,438.8 407.8,441.8 					"/>
					<line class="st21" x1="407.8" y1="448" x2="407.8" y2="629.6"/>
					<polyline class="st0" points="407.8,632.7 407.8,635.7 404.8,635.7 					"/>
					<line class="st16" x1="398.9" y1="635.7" x2="366.8" y2="635.7"/>
					<polyline class="st0" points="363.9,635.7 360.9,635.7 360.9,632.7 					"/>
					<line class="st21" x1="360.9" y1="626.5" x2="360.9" y2="444.9"/>
				</g>
			</g>
		</g>
		<g>
			<g>
				<path class="st29" d="M509.2,438.7c44.4,0,75.6,32.8,75.6,75.8c0,43-31.2,75.6-75.6,75.6S434,557.5,434,514.5
					C434,471.5,464.8,438.7,509.2,438.7z"/>
				<path class="st30" d="M509.2,554.2c21.8,0,28.7-21.5,28.7-39.7c0-18.2-6.9-40-28.7-40c-21.8,0-28.4,21.8-28.4,40
					C480.8,532.7,487.5,554.2,509.2,554.2z"/>
			</g>
		</g>
		<g>
			<g>
				<g>
					<polyline class="st0" points="609.3,376.9 609.3,373.9 612.3,373.9 					"/>
					<line class="st31" x1="618" y1="373.9" x2="649" y2="373.9"/>
					<polyline class="st0" points="651.8,373.9 654.8,373.9 654.8,376.9 					"/>
					<line class="st32" x1="654.8" y1="381.4" x2="654.8" y2="388.2"/>
					<path class="st0" d="M654.8,390.5v3h0.5c0.5-0.9,1-1.7,1.6-2.5"/>
					<path class="st33" d="M660.9,386.2c9.8-10.3,25.4-16.5,39.5-16.5c47.7,0,51.6,34.7,51.6,55.4v85.8"/>
					<polyline class="st0" points="751.9,514 751.9,517 748.9,517 					"/>
					<line class="st16" x1="743" y1="517" x2="710.9" y2="517"/>
					<polyline class="st0" points="708,517 705,517 705,514 					"/>
					<path class="st20" d="M705,507.8v-60.1c0-19.6,2.2-39.4-23.4-39.4c-17.6,0-25.4,14.9-25.4,30.6v72"/>
					<polyline class="st0" points="656.2,514 656.2,517 653.2,517 					"/>
					<line class="st17" x1="647.4" y1="517" x2="615.2" y2="517"/>
					<polyline class="st0" points="612.3,517 609.3,517 609.3,514 					"/>
					<line class="st34" x1="609.3" y1="508" x2="609.3" y2="379.9"/>
				</g>
			</g>
		</g>
	</g>
	<g class="st35">
		<g>
			<path class="st36" d="M323.4,247.2c-2.8-19.9-18.2-30.3-39.7-30.3c-33.1,0-45.8,29.2-45.8,58.5c0,29.2,12.7,58.5,45.8,58.5
				c24,0,37.8-13.8,39.7-36.4h51.3c-2.8,50.7-40,80.5-89.9,80.5c-59.6,0-98.2-45.5-98.2-102.6s38.6-102.6,98.2-102.6
				c42.5,0,88.5,27,89.9,74.5H323.4z"/>
			<g>
				<g>
					<path class="st0" d="M326.4,247.2h-3c-0.1-1-0.3-2-0.5-3"/>
					<path class="st1" d="M321.2,238.6c-5.5-14.3-19.4-21.7-37.5-21.7c-33.1,0-45.8,29.2-45.8,58.5c0,29.2,12.7,58.5,45.8,58.5
						c21.8,0,35.2-11.4,38.9-30.5"/>
					<path class="st0" d="M323.1,300.4c0.1-1,0.2-2,0.3-3h3"/>
					<line class="st2" x1="332.9" y1="297.4" x2="368.5" y2="297.4"/>
					<path class="st0" d="M371.7,297.4h3c-0.1,1-0.1,2-0.2,3"/>
					<path class="st3" d="M373.8,306.4c-6.4,45.2-42.1,71.5-89,71.5c-59.6,0-98.2-45.5-98.2-102.6s38.6-102.6,98.2-102.6
						c40.6,0,84.6,24.7,89.5,68.4"/>
					<path class="st0" d="M374.5,244.2c0.1,1,0.1,2,0.1,3h-3"/>
					<line class="st2" x1="365.2" y1="247.2" x2="329.6" y2="247.2"/>
				</g>
			</g>
		</g>
		<g>
			<path class="st36" d="M398.1,274.8c0.8-18.8,9.7-30.9,22.3-38.3c12.7-7.2,29.2-9.9,45.5-9.9c33.9,0,66.7,7.4,66.7,48v62.6
				c0,12.1,0,25.4,5.5,36.7H491c-1.7-4.4-2.2-8.8-2.8-13.5c-12.1,12.7-30.1,17.6-47.2,17.6c-27.3,0-48.8-13.8-48.8-43.3
				c0-46.6,50.7-43,83.3-49.6c8-1.7,12.4-4.4,12.4-13.2c0-10.8-13-14.9-22.6-14.9c-13,0-21.2,5.8-23.4,17.9H398.1z M458.8,349
				c22.3,0,29.8-12.7,28.7-42.2c-6.6,4.1-18.8,5-29,7.7c-10.5,2.5-19.3,6.9-19.3,18.2C439.2,344.3,448.3,349,458.8,349z"/>
			<g>
				<g>
					<path class="st0" d="M401.1,274.8h-3c0-1,0.1-2,0.2-3"/>
					<path class="st4" d="M399.2,265.9c2.8-13.8,10.7-23.2,21.3-29.4c12.7-7.2,29.2-9.9,45.5-9.9c33.9,0,66.7,7.4,66.7,48v62.6
						c0,10.2,0,21.2,3.3,31.1"/>
					<path class="st0" d="M537,371c0.4,0.9,0.8,1.8,1.2,2.7h-3"/>
					<line class="st5" x1="529.3" y1="373.8" x2="497" y2="373.8"/>
					<path class="st0" d="M494,373.8h-3c-0.4-1-0.7-1.9-0.9-2.9"/>
					<path class="st0" d="M488.6,363.2c-0.1-1-0.2-2-0.4-3c-0.7,0.7-1.4,1.4-2.1,2.1"/>
					<path class="st6" d="M481.4,366.2c-11.5,8.3-26.2,11.7-40.3,11.7c-27.3,0-48.8-13.8-48.8-43.3c0-46.6,50.7-43,83.3-49.6
						c8-1.7,12.4-4.4,12.4-13.2c0-10.8-13-14.9-22.6-14.9c-10.7,0-18.2,3.9-21.7,12.1"/>
					<path class="st0" d="M442.6,271.9c-0.3,0.9-0.5,1.9-0.7,2.9h-3"/>
					<line class="st7" x1="433.6" y1="274.8" x2="403.8" y2="274.8"/>
				</g>
				<g>
					<path class="st0" d="M487.5,309.8c0-1,0-2-0.1-3c-0.8,0.5-1.7,1-2.7,1.4"/>
					<path class="st8" d="M479,310.1c-6.3,1.6-13.8,2.6-20.5,4.4c-10.5,2.5-19.3,6.9-19.3,18.2c0,11.6,9.1,16.3,19.6,16.3
						c20.7,0,28.6-10.9,28.8-36.1"/>
				</g>
			</g>
		</g>
		<g>
			<path class="st36" d="M649.9,199.7h-29v65.1c0,11.3,6.6,13.8,16.8,13.8c3.9,0,8-0.6,12.1-0.6v34.5c-8.5,0.3-17.1,1.4-25.6,1.4
				c-40,0-50.2-11.6-50.2-50.5v-63.7h-23.7v-30.3H574v-43.3h46.9v43.3h29V199.7z"/>
			<g>
				<g>
					<polyline class="st0" points="649.9,196.7 649.9,199.7 646.9,199.7 					"/>
					<line class="st9" x1="639.2" y1="199.7" x2="627.7" y2="199.7"/>
					<polyline class="st0" points="623.9,199.7 620.9,199.7 620.9,202.7 					"/>
					<path class="st10" d="M620.9,208.4v56.4c0,11.3,6.6,13.8,16.8,13.8c2,0,4.2-0.2,6.3-0.3"/>
					<path class="st0" d="M646.9,278.1c1,0,2-0.1,3-0.1v3"/>
					<line class="st11" x1="649.9" y1="286.7" x2="649.9" y2="306.7"/>
					<path class="st0" d="M649.9,309.5v3c-1,0-2,0.1-3,0.1"/>
					<path class="st12" d="M641.1,313c-5.6,0.4-11.2,0.9-16.9,0.9c-40,0-50.2-11.6-50.2-50.5v-57.8"/>
					<polyline class="st0" points="574,202.7 574,199.7 571,199.7 					"/>
					<line class="st13" x1="565.1" y1="199.7" x2="556.3" y2="199.7"/>
					<polyline class="st0" points="553.3,199.7 550.3,199.7 550.3,196.7 					"/>
					<line class="st14" x1="550.3" y1="191.9" x2="550.3" y2="174.8"/>
					<polyline class="st0" points="550.3,172.4 550.3,169.4 553.3,169.4 					"/>
					<line class="st13" x1="559.2" y1="169.4" x2="568.1" y2="169.4"/>
					<polyline class="st0" points="571,169.4 574,169.4 574,166.4 					"/>
					<line class="st15" x1="574" y1="161.1" x2="574" y2="131.8"/>
					<polyline class="st0" points="574,129.1 574,126.1 577,126.1 					"/>
					<line class="st16" x1="582.9" y1="126.1" x2="615" y2="126.1"/>
					<polyline class="st0" points="617.9,126.1 620.9,126.1 620.9,129.1 					"/>
					<line class="st15" x1="620.9" y1="134.4" x2="620.9" y2="163.7"/>
					<polyline class="st0" points="620.9,166.4 620.9,169.4 623.9,169.4 					"/>
					<line class="st9" x1="631.6" y1="169.4" x2="643" y2="169.4"/>
					<polyline class="st0" points="646.9,169.4 649.9,169.4 649.9,172.4 					"/>
					<line class="st14" x1="649.9" y1="177.3" x2="649.9" y2="194.3"/>
				</g>
			</g>
		</g>
		<g>
			<path class="st36" d="M670.8,62h46.9v73.3h0.6c7.2-14.6,26.5-23.7,43.6-23.7c47.7,0,51.6,34.7,51.6,55.4v91.8h-46.9v-69.2
				c0-19.6,2.2-39.4-23.4-39.4c-17.6,0-25.4,14.9-25.4,30.6v78h-46.9V62z"/>
			<g>
				<g>
					<polyline class="st0" points="670.8,65 670.8,62 673.8,62 					"/>
					<line class="st17" x1="679.6" y1="62" x2="711.8" y2="62"/>
					<polyline class="st0" points="714.7,62 717.7,62 717.7,65 					"/>
					<line class="st18" x1="717.7" y1="71.1" x2="717.7" y2="129.3"/>
					<path class="st0" d="M717.7,132.3v3h0.6c0.4-0.9,0.9-1.8,1.5-2.6"/>
					<path class="st19" d="M723.3,127.9c9.1-10.2,24.5-16.2,38.5-16.2c47.7,0,51.6,34.7,51.6,55.4v85.8"/>
					<polyline class="st0" points="813.4,255.9 813.4,258.9 810.4,258.9 					"/>
					<line class="st16" x1="804.5" y1="258.9" x2="772.4" y2="258.9"/>
					<polyline class="st0" points="769.5,258.9 766.5,258.9 766.5,255.9 					"/>
					<path class="st20" d="M766.5,249.7v-60.1c0-19.6,2.2-39.4-23.4-39.4c-17.6,0-25.4,14.9-25.4,30.6v72"/>
					<polyline class="st0" points="717.7,255.9 717.7,258.9 714.7,258.9 					"/>
					<line class="st17" x1="708.8" y1="258.9" x2="676.7" y2="258.9"/>
					<polyline class="st0" points="673.8,258.9 670.8,258.9 670.8,255.9 					"/>
					<line class="st21" x1="670.8" y1="249.7" x2="670.8" y2="68.1"/>
				</g>
			</g>
		</g>
		<g>
			<path class="st36" d="M192.7,431.2h145v41.1H244v40.3h81.1v39.7H244V628h-51.3V431.2z"/>
			<g>
				<g>
					<polyline class="st0" points="192.7,434.2 192.7,431.2 195.7,431.2 					"/>
					<line class="st22" x1="201.8" y1="431.2" x2="331.7" y2="431.2"/>
					<polyline class="st0" points="334.7,431.2 337.7,431.2 337.7,434.2 					"/>
					<line class="st23" x1="337.7" y1="441.2" x2="337.7" y2="465.7"/>
					<polyline class="st0" points="337.7,469.3 337.7,472.3 334.7,472.3 					"/>
					<line class="st24" x1="328.9" y1="472.3" x2="249.9" y2="472.3"/>
					<polyline class="st0" points="247,472.3 244,472.3 244,475.3 					"/>
					<line class="st25" x1="244" y1="482.1" x2="244" y2="506.1"/>
					<polyline class="st0" points="244,509.5 244,512.5 247,512.5 					"/>
					<line class="st26" x1="252.8" y1="512.5" x2="319.2" y2="512.5"/>
					<polyline class="st0" points="322.1,512.5 325.1,512.5 325.1,515.5 					"/>
					<line class="st27" x1="325.1" y1="522.3" x2="325.1" y2="545.8"/>
					<polyline class="st0" points="325.1,549.2 325.1,552.2 322.1,552.2 					"/>
					<line class="st26" x1="316.3" y1="552.2" x2="249.9" y2="552.2"/>
					<polyline class="st0" points="247,552.2 244,552.2 244,555.2 					"/>
					<line class="st28" x1="244" y1="561.6" x2="244" y2="621.9"/>
					<polyline class="st0" points="244,625 244,628 241,628 					"/>
					<line class="st2" x1="234.5" y1="628" x2="198.9" y2="628"/>
					<polyline class="st0" points="195.7,628 192.7,628 192.7,625 					"/>
					<line class="st21" x1="192.7" y1="618.9" x2="192.7" y2="437.2"/>
				</g>
			</g>
		</g>
		<g>
			<path class="st36" d="M360.9,438.8h46.9v196.9h-46.9V438.8z"/>
			<g>
				<g>
					<polyline class="st0" points="360.9,441.8 360.9,438.8 363.9,438.8 					"/>
					<line class="st16" x1="369.7" y1="438.8" x2="401.9" y2="438.8"/>
					<polyline class="st0" points="404.8,438.8 407.8,438.8 407.8,441.8 					"/>
					<line class="st21" x1="407.8" y1="448" x2="407.8" y2="629.6"/>
					<polyline class="st0" points="407.8,632.7 407.8,635.7 404.8,635.7 					"/>
					<line class="st16" x1="398.9" y1="635.7" x2="366.8" y2="635.7"/>
					<polyline class="st0" points="363.9,635.7 360.9,635.7 360.9,632.7 					"/>
					<line class="st21" x1="360.9" y1="626.5" x2="360.9" y2="444.9"/>
				</g>
			</g>
		</g>
		<g>
			<path class="st36" d="M509.2,438.7c44.4,0,75.6,32.8,75.6,75.8c0,43-31.2,75.6-75.6,75.6S434,557.5,434,514.5
				C434,471.5,464.8,438.7,509.2,438.7z M509.2,554.2c21.8,0,28.7-21.5,28.7-39.7c0-18.2-6.9-40-28.7-40c-21.8,0-28.4,21.8-28.4,40
				C480.8,532.7,487.5,554.2,509.2,554.2z"/>
			<g>
				<path class="st29" d="M509.2,438.7c44.4,0,75.6,32.8,75.6,75.8c0,43-31.2,75.6-75.6,75.6S434,557.5,434,514.5
					C434,471.5,464.8,438.7,509.2,438.7z"/>
				<path class="st30" d="M509.2,554.2c21.8,0,28.7-21.5,28.7-39.7c0-18.2-6.9-40-28.7-40c-21.8,0-28.4,21.8-28.4,40
					C480.8,532.7,487.5,554.2,509.2,554.2z"/>
			</g>
		</g>
		<g>
			<path class="st36" d="M609.3,373.9h45.5v19.6h0.5c8.5-14.6,27.8-23.7,44.9-23.7c47.7,0,51.6,34.7,51.6,55.4V517H705v-69.2
				c0-19.6,2.2-39.4-23.4-39.4c-17.6,0-25.4,14.9-25.4,30.6v78h-46.9V373.9z"/>
			<g>
				<g>
					<polyline class="st0" points="609.3,376.9 609.3,373.9 612.3,373.9 					"/>
					<line class="st31" x1="618" y1="373.9" x2="649" y2="373.9"/>
					<polyline class="st0" points="651.8,373.9 654.8,373.9 654.8,376.9 					"/>
					<line class="st32" x1="654.8" y1="381.4" x2="654.8" y2="388.2"/>
					<path class="st0" d="M654.8,390.5v3h0.5c0.5-0.9,1-1.7,1.6-2.5"/>
					<path class="st33" d="M660.9,386.2c9.8-10.3,25.4-16.5,39.5-16.5c47.7,0,51.6,34.7,51.6,55.4v85.8"/>
					<polyline class="st0" points="751.9,514 751.9,517 748.9,517 					"/>
					<line class="st16" x1="743" y1="517" x2="710.9" y2="517"/>
					<polyline class="st0" points="708,517 705,517 705,514 					"/>
					<path class="st20" d="M705,507.8v-60.1c0-19.6,2.2-39.4-23.4-39.4c-17.6,0-25.4,14.9-25.4,30.6v72"/>
					<polyline class="st0" points="656.2,514 656.2,517 653.2,517 					"/>
					<line class="st17" x1="647.4" y1="517" x2="615.2" y2="517"/>
					<polyline class="st0" points="612.3,517 609.3,517 609.3,514 					"/>
					<line class="st34" x1="609.3" y1="508" x2="609.3" y2="379.9"/>
				</g>
			</g>
		</g>
	</g>
	<g>
		<path class="st37" d="M639.4,225.8c0,0-0.3,3-0.9,3.6c-0.6,0.6-7.4,2-9.4,3.1c-2,1.2-14.1,4.6-18.8,5.4c-4.7,0.8-12,3.7-14.3,4.5
			c-2.3,0.8-5.4,2.8-8.1,2.7c0,0-1.3,1.6-3.1,2.7s-8.2,1.1-11.6,2.7c-3.4,1.6-11.3,5.1-17.5,4.9c-1.3,1.6-6.2,3.4-12.1,4
			c-2.3,1.7-7.6,1.7-11.2,3.6c-1.9-1.5-5.4-0.8-8.1-0.4c-2.6,0.3-12.5,0-12.5,0l1.3,3.6l-1.8,23.3c0,0-3.2,1-7.2,0.9
			c-4-0.1-15.6,4.2-17,5.4c-1.4,1.2-9.9,5.8-13.4,6.7c-3.5,0.9-5.3,3.8-6.7,6.7c0,0-7.4-8.4-8.9-9.9c-1.6-1.5-7.9-7-12.5-13
			c-1.2,0.3-11.4-2.3-25.1-5.4c-13.7-3.1-31.5-10.7-33.6-11.7c-2-0.9-4.2-3-5.4-6.7c-1.2-3.7-12-21.3-14.3-24.7
			c-2.3-3.3-3.9-9.3-3.1-11.7c2.4,0.2,3.3,1.1,5.4,1.3l1.8,2.2c0,0-0.4-1.7-1.3-3.1c1.5-0.8,3.5-7,4.5-11.7
			c1.8,1.4,16.8,30.6,19.2,33.6c2.4,3,6.3,5.8,9.4,6.7c7.3-1.2,13,1.4,14.8,2.2c1.8,0.8,6,0,7.2,0.9c1.2,0.9,6.6,1.4,13.4-0.4
			c6.8-1.8,10.7-0.4,10.7-0.4c1.4,1.3,4.9,5.2,6.7,6.3c1.8,1,19.3,1.1,25.1,0.9c5.8-0.2,13-0.6,13.9,0.9c0.8,1.5,6.3,15.2,6.3,15.2
			s1.3-7,0.9-9s-2-5.5-1.3-6.3c0.6-0.8,14.4-10.7,16.1-12.6c-0.1-1.2-2.3-9.3-2.7-14.3c0.1-0.9,8.9,0.1,17,0.4
			c0.6-0.9,2.2-1,3.6-0.9c0.9-1.1,10.3-2,14.3-1.8c0,0,1.8-1.2,2.7-1.8c0.9-0.5,4.4-0.1,6.7,0c1-1.7,11.6-3.8,16.6-4.9
			c2.6-2.1,13.7-4.8,26-6.7c12.2-2,30.9-6.9,32.7-7.6c1.8-0.7,3.6,0.2,3.1,0c-0.5-0.2-1.3,1.3-1.3,1.3c-0.2,2.6,0,10.8,0,10.8
			l-2.7,1.8l3.6-1.8L639.4,225.8z"/>
		<path class="st37" d="M479.7,326.3c1.6,0.7,3.6,1.5,4,2.6c0.9,2.1,1.8,3.8,0.4,7.2c-1.4,3.4-5.9,15.4-7.2,24.2
			c-1.2,8.8-2.3,11.4-1.8,24.2c0.5,12.8,2.2,26,2.2,26c5.7-17.1,10.4-32.6,12.1-39.5s8.5-28.7,9.4-35c0.9-6.2,4.8-27,8.1-29.1
			c-9.6,3.5-18.3,8.1-19.7,9C485.3,318.1,479.8,323.7,479.7,326.3z M507.4,591.6c1.7-1.3,1.6-4.5,2.2-8.5c0.6-4,1.5-20,2.2-26.9
			c0.7-6.9,1.1-22.9,0.9-30c-0.2-7.1,0.5-22.3,2.2-30.5c1.8-8.2,10.5-33.6,15.2-45.7c4.7-12.2,12.1-29.3,15.2-39
			c3.1-9.7,7.1-26.8,7.2-35c0.1-8.2,0.4-22.1-5.8-33.6c-6.2-11.5-19.4-35-20.6-38.6c0.7,0.2,0.4-0.9,0.4-0.9
			c-2.9-0.5-5.4,0.4-5.4,0.4c2.8,3.3,5.3,13.1,6.3,16.1c0.9,3,6.4,18,5.4,25.6c-1,7.5-4.7,25.5-6.3,32.3c-1.6,6.8-8.1,29.2-10.3,39
			c-2.2,9.8-12.4,45.5-14.8,58.3s-4.9,22.6-6.7,24.2c-1.4,10.8-9.1,51.2-8.9,56.5c1.2,5.2,1.8,22.6,1.8,25.1
			c0,2.5-0.1,12.6,0.9,13.4c1,0.9,2.7,0.4,2.7,0.4S502.4,593.8,507.4,591.6z"/>
		<path class="st38" d="M374.6,215c-1.1-2.7-4.6-8.1-8.5-11.2c-3.9-3.1-8.4-7.8-8.9-9.9c-0.5-2.1-2.7-3.7-3.6-4
			c-0.9-0.3-5.5-4.9-6.7-4.9c-2.7-1-5.2-1.6-5.8-1.3c-3.3-1.3-9.3-2.7-13.9-2.7c-4.5,0-5,0.2-5.4,1.3c-0.4,1.2,2.2,2.2,5.4,1.8
			c3.2-0.4,5.2,1.4,8.1,3.1c2.9,1.7,7.7,3.3,8.9,4.9c1.3,1.7,3.4,5.1,4.9,5.8c0,1.6,0,2.7,0,2.7s-1.6,0.1-3.6-0.9
			c-2-1-7.1-1.8-8.1-0.9c-0.9,0.9-0.8,3.5,2.2,4.5s8.8,1.7,10.7,3.6c1.9,1.9,4.9,4.5,8.9,5.4c1.9,1.8,4.6,9.6,4.9,13.9
			c2.4,0.2,3.3,1.1,5.4,1.3l1.8,2.2c0,0-0.3-1.7-1.3-3.1C371.5,225.9,373.6,219.7,374.6,215z M504.3,241.5
			c-2.5,1.2-13.5,1.3-15.7-0.9c-2.2-2.2-3.9-6.7-4-7.2c-0.4-5.7-2.2-8.8,0.9-11.2c3-2.4,9.3-6.2,9.4-9c0.1-2.7-2.1-3.6-2.7-4.5
			c-0.4-1.8-0.3-3.1-1.8-4c0.1-2-0.6-2.4-0.9-2.7c-0.3-0.2-2.2-2.2-2.2-2.2s1.2-1,2.2-2.2c1-1.3-0.1-2.5-1.8-2.7
			c-1.7-0.2-8.1-0.9-8.1-0.9s-2.3-5.6-7.2-7.2c-4.9-1.5-7.2-1.8-7.2-1.8c-4.1-2.3-12.7-2.9-19.2,3.1s-12,16.1-9.4,26.9
			c-3.4,4.3-1.8,6.3-1.8,6.3c-2.8,1.9-2.4,11.7-2.2,13c0.1,1.3,4.7,7,6.7,7.2c2,0.2,7.5,0.4,8.9,0c4.2,0.4,12.8-3,13-4.9
			c0.1,4.8,0.2,8.9-4.5,13.5c-4.6,4.5-7.6,7.6-7.6,7.6c1.4,1.3,4.9,5.2,6.7,6.3c1.8,1,19.3,1.1,25.1,0.9c5.8-0.2,13-0.6,13.9,0.9
			c0.8,1.5,6.3,15.2,6.3,15.2s1.3-7,0.9-9c-0.4-1.9-2-5.5-1.3-6.3c0.6-0.8,14.4-10.7,16.1-12.6c-0.1-1.2-2.3-9.3-2.7-14.4
			C510.8,238.8,506.8,240.3,504.3,241.5z M671.2,185.4c-0.9,0.5-1.3,0.9-1.3,0.9s0-1.9-0.4-2.2c0.1-0.6-0.4-1.2-1.8,0.4
			c-1.4,1.6-5,6.1-6.3,7.2c-1.2,1.1-4.3,6.4-5.4,8.1c-1,1.7-9.6,12-13.9,14.4c-2.8,1.2-5.8,1.2-5.4,1.3c0.1,0,0.1,0,0,0
			c-0.5-0.2-1.3,1.3-1.3,1.3c-0.2,2.6,0,10.8,0,10.8l-2.7,1.8l3.6-1.8l3.1-1.8c0,0,4.3-2.3,5.8-1.8s3-1.1,5.4-3.6
			c2.3-2.5,7.6-8.6,7.6-9.4c0-0.8,0.4-2.2,0.4-2.2s5.7-4.4,7.2-5.4c1.5-1,3-3.6,2.7-4c0.4-0.7,0-1.9-0.9-1.8
			c-0.9,0.3-1.3,0.9-1.3,0.9s-4.1,3.2-5.4,4c-1.2,0.9-2.2,0.9-2.2,0.9s2.7-2.5,4-4s6.1-5.9,6.3-6.7s0-1.3,0-1.3s1.7-1.2,2.7-2.2
			S672.3,185.2,671.2,185.4z M491.3,594.4c0,0-1.7,0.4-2.7-0.4c1,0.9,1.6,3.8,1.3,6.3c-1.2,2.9-6.7,17.7-6.3,20.2c0,0-4.5,7-3.6,9.9
			c0.9,2.8,2.2,6.9,8.1,7.6c2.3,0.3,5.5-0.3,8.9-2.7c3.4-2.4,6.3-5.1,6.3-14.8c0.6-2.4,1.9-5.1,2.2-7.2c0.3-2.1,1.3-6.5,1.8-8.5
			c0.5-2,0-11.6,0-13C502.4,593.9,491.3,594.4,491.3,594.4z"/>
		<path class="st37" d="M483.7,620.3c0,0-0.2-1.2-0.9,0c-0.7,1.2-5.7,0.7-5.8-0.9c-0.1-1.6-2.9-7.7-5.4-11.7c0.2,3-2.7,3.7-5.8,5.4
			c-3.1,1.7-10.3-1.4-11.2-3.1c-0.9-1.8-12.7-11.1-15.7-13c-3-1.9-2.1-4.4-0.4-5.4c0.6-1.1,6.4-27.8,7.2-33.6s3.2-23.6,6.3-30
			c-0.6-5.4,6-32.7,8.9-37.7c0.3-4.1,6.5-34.8,7.6-39.9c1.1-5.1,8.9-39.9,8.9-39.9s10.4-32.6,12.1-39.5s8.5-28.7,9.4-35
			c0.9-6.2,4.8-27,8.1-29.1c-9.6,3.5-18.3,8.1-19.7,9c-2,2.2-7.5,7.8-7.6,10.4c1.6,0.7-3.1-1-3.1-1s-1.3-1-2.2-2.2
			c-0.9-1.2-0.9-5.4-0.9-5.4s0.1-0.6-1.3-1.3c-1.4-0.7-3.1-2.6-3.1-4c0-1.4-1.7-2.2-1.8-3.1c1.4-2.9,3.2-5.8,6.7-6.7
			c3.5-0.9,12-5.6,13.4-6.7c1.4-1.2,13-5.4,17-5.4c4,0.1,7.2-0.9,7.2-0.9l1.8-23.3l-1.3-3.6c0,0,9.9,0.3,12.5,0
			c2.6-0.3,6.5-1.2,8.1,0.4c0,0,1,1,2.2,0.9c0,0,0.9,2.2,2.2,5.4c1.3,3.2-0.5,8.1-3.6,12.1c-3.1,4-7.6,8.1-7.6,8.1l-1.3,0.4v2.7h1.8
			v4.9c0,0,1.9,3.7,2.2,4.5c0.4,0.8-1.8,0.9-1.8,0.9l-5.4,0.4c2.8,3.3,5.3,13.1,6.3,16.1c0.9,3,6.4,18,5.4,25.6
			c-1,7.5-4.7,25.5-6.3,32.3c-1.6,6.8-8.1,29.2-10.3,39c-2.2,9.8-12.4,45.5-14.8,58.3s-4.9,22.6-6.7,24.2
			c-1.4,10.8-9.1,51.2-8.9,56.5c1.2,5.2,1.8,22.6,1.8,25.1c0,2.5-0.1,12.6,0.9,13.4c1,0.9,1.6,3.8,1.3,6.3
			C488.7,603,483.3,617.9,483.7,620.3z"/>
		<path class="st37" d="M521.3,303.4l5.4-0.4c0,0,2.1-0.1,1.8-0.9c-0.4-0.8-2.2-4.5-2.2-4.5v-4.9h-1.8v-2.7c0,0-7.3-1.5-13-0.4
			c0,0-3.2,1-7.2,0.9c-4-0.1-15.6,4.2-17,5.4c-1.4,1.2-9.9,5.8-13.4,6.7c-3.5,0.9-5.3,3.8-6.7,6.7c0.1,1,1.8,1.7,1.8,3.1
			c0,1.4,1.7,3.3,3.1,4c1.4,0.7,1.3,1.3,1.3,1.3s0,4.2,0.9,5.4c0.9,1.2,2.2,2.2,2.2,2.2s4.7,1.7,3.1,1c0.1-2.6,5.6-8.2,7.6-10.4
			c1.4-0.9,10.1-5.5,19.7-9C508.1,306,519.9,302.4,521.3,303.4z"/>
		<path class="st37" d="M446.1,188.1c-6.6,6.1-12,16.1-9.4,26.9c-3.4,4.3-1.8,6.3-1.8,6.3c-2.8,1.9-2.4,11.7-2.2,13
			c0.1,1.3,4.7,7,6.7,7.2s7.5,0.4,8.9,0c4.2,0.4,12.8-3,13-4.9c1.5-2.6,2.6-14.5-8.1-22.9c-1.3-1,0-4.5,0-4.5
			c-2.2-1.7-2.5-7,0.9-6.7c3.4,0.2,6.9-0.9,7.6-2.2c-0.7,0-2.3-5.5-0.9-8.1c1.4-2.6-4-4.5-4-4.5s2-3.9,8.5-2.7
			C461.3,182.7,452.7,182.1,446.1,188.1z M477.5,194.4c0.1-0.3-0.4-1.3-0.4-1.3s0.1,0,0.9-0.9c-1.3,0.9-6.7,1.3-6.7,1.3
			c2.7,0.6,6.7,2.2,6.7,2.2l-0.9-0.9C477,194.9,477.4,194.7,477.5,194.4z"/>
		<path class="st38" d="M489.4,601.7c0.2-0.6,0.4-1.1,0.6-1.5C490.1,599.5,489.8,600.3,489.4,601.7z M507.4,591.7
			c-0.2,9.4-0.3,12.8-1,15.1c-0.7,2.3-1.6,8.3-3.1,10.3c-1.5,2-0.5,7.3-7.1,5.8c-6.7-1.5-8.3-2.7-9.4-2.7c-1.1,0-1.7-5.1-0.9-6.7
			c0.6-1.1,2.5-8.4,3.5-11.8c-1.8,4.7-6.1,16.6-5.7,18.7c0,0-4.5,7-3.6,9.9c0.9,2.8,2.2,6.9,8.1,7.6c2.3,0.3,5.5-0.3,8.9-2.7
			c3.4-2.4,6.3-5.1,6.3-14.8c0.6-2.4,1.9-5.1,2.2-7.2c0.3-2.1,1.3-6.5,1.8-8.5C508,602.8,507.4,593.1,507.4,591.7z"/>
	</g>
	<g class="st35">
		<path class="st39" d="M639.4,225.8c0,0-0.3,3-0.9,3.6c-0.6,0.6-7.4,2-9.4,3.1c-2,1.2-14.1,4.6-18.8,5.4c-4.7,0.8-12,3.7-14.3,4.5
			c-2.3,0.8-5.4,2.8-8.1,2.7c0,0-1.3,1.6-3.1,2.7s-8.2,1.1-11.6,2.7c-3.4,1.6-11.3,5.1-17.5,4.9c-1.3,1.6-6.2,3.4-12.1,4
			c-2.3,1.7-7.6,1.7-11.2,3.6c-1.9-1.5-5.4-0.8-8.1-0.4c-2.6,0.3-12.5,0-12.5,0l1.3,3.6l-1.8,23.3c0,0-3.2,1-7.2,0.9
			c-4-0.1-15.6,4.2-17,5.4c-1.4,1.2-9.9,5.8-13.4,6.7c-3.5,0.9-5.3,3.8-6.7,6.7c0,0-7.4-8.4-8.9-9.9c-1.6-1.5-7.9-7-12.5-13
			c-1.2,0.3-11.4-2.3-25.1-5.4c-13.7-3.1-31.5-10.7-33.6-11.7c-2-0.9-4.2-3-5.4-6.7c-1.2-3.7-12-21.3-14.3-24.7
			c-2.3-3.3-3.9-9.3-3.1-11.7c2.4,0.2,3.3,1.1,5.4,1.3l1.8,2.2c0,0-0.4-1.7-1.3-3.1c1.5-0.8,3.5-7,4.5-11.7
			c1.8,1.4,16.8,30.6,19.2,33.6c2.4,3,6.3,5.8,9.4,6.7c7.3-1.2,13,1.4,14.8,2.2c1.8,0.8,6,0,7.2,0.9c1.2,0.9,6.6,1.4,13.4-0.4
			c6.8-1.8,10.7-0.4,10.7-0.4c1.4,1.3,4.9,5.2,6.7,6.3c1.8,1,19.3,1.1,25.1,0.9c5.8-0.2,13-0.6,13.9,0.9c0.8,1.5,6.3,15.2,6.3,15.2
			s1.3-7,0.9-9s-2-5.5-1.3-6.3c0.6-0.8,14.4-10.7,16.1-12.6c-0.1-1.2-2.3-9.3-2.7-14.3c0.1-0.9,8.9,0.1,17,0.4
			c0.6-0.9,2.2-1,3.6-0.9c0.9-1.1,10.3-2,14.3-1.8c0,0,1.8-1.2,2.7-1.8c0.9-0.5,4.4-0.1,6.7,0c1-1.7,11.6-3.8,16.6-4.9
			c2.6-2.1,13.7-4.8,26-6.7c12.2-2,30.9-6.9,32.7-7.6c1.8-0.7,3.6,0.2,3.1,0c-0.5-0.2-1.3,1.3-1.3,1.3c-0.2,2.6,0,10.8,0,10.8
			l-2.7,1.8l3.6-1.8L639.4,225.8z"/>
		<path class="st39" d="M479.7,326.3c1.6,0.7,3.6,1.5,4,2.6c0.9,2.1,1.8,3.8,0.4,7.2c-1.4,3.4-5.9,15.4-7.2,24.2
			c-1.2,8.8-2.3,11.4-1.8,24.2c0.5,12.8,2.2,26,2.2,26c5.7-17.1,10.4-32.6,12.1-39.5s8.5-28.7,9.4-35c0.9-6.2,4.8-27,8.1-29.1
			c-9.6,3.5-18.3,8.1-19.7,9C485.3,318.1,479.8,323.7,479.7,326.3z M507.4,591.6c1.7-1.3,1.6-4.5,2.2-8.5c0.6-4,1.5-20,2.2-26.9
			c0.7-6.9,1.1-22.9,0.9-30c-0.2-7.1,0.5-22.3,2.2-30.5c1.8-8.2,10.5-33.6,15.2-45.7c4.7-12.2,12.1-29.3,15.2-39
			c3.1-9.7,7.1-26.8,7.2-35c0.1-8.2,0.4-22.1-5.8-33.6c-6.2-11.5-19.4-35-20.6-38.6c0.7,0.2,0.4-0.9,0.4-0.9
			c-2.9-0.5-5.4,0.4-5.4,0.4c2.8,3.3,5.3,13.1,6.3,16.1c0.9,3,6.4,18,5.4,25.6c-1,7.5-4.7,25.5-6.3,32.3c-1.6,6.8-8.1,29.2-10.3,39
			c-2.2,9.8-12.4,45.5-14.8,58.3s-4.9,22.6-6.7,24.2c-1.4,10.8-9.1,51.2-8.9,56.5c1.2,5.2,1.8,22.6,1.8,25.1
			c0,2.5-0.1,12.6,0.9,13.4c1,0.9,2.7,0.4,2.7,0.4S502.4,593.8,507.4,591.6z"/>
		<path class="st36" d="M374.6,215c-1.1-2.7-4.6-8.1-8.5-11.2c-3.9-3.1-8.4-7.8-8.9-9.9c-0.5-2.1-2.7-3.7-3.6-4
			c-0.9-0.3-5.5-4.9-6.7-4.9c-2.7-1-5.2-1.6-5.8-1.3c-3.3-1.3-9.3-2.7-13.9-2.7c-4.5,0-5,0.2-5.4,1.3c-0.4,1.2,2.2,2.2,5.4,1.8
			c3.2-0.4,5.2,1.4,8.1,3.1c2.9,1.7,7.7,3.3,8.9,4.9c1.3,1.7,3.4,5.1,4.9,5.8c0,1.6,0,2.7,0,2.7s-1.6,0.1-3.6-0.9
			c-2-1-7.1-1.8-8.1-0.9c-0.9,0.9-0.8,3.5,2.2,4.5s8.8,1.7,10.7,3.6c1.9,1.9,4.9,4.5,8.9,5.4c1.9,1.8,4.6,9.6,4.9,13.9
			c2.4,0.2,3.3,1.1,5.4,1.3l1.8,2.2c0,0-0.3-1.7-1.3-3.1C371.5,225.9,373.6,219.7,374.6,215z M504.3,241.5
			c-2.5,1.2-13.5,1.3-15.7-0.9c-2.2-2.2-3.9-6.7-4-7.2c-0.4-5.7-2.2-8.8,0.9-11.2c3-2.4,9.3-6.2,9.4-9c0.1-2.7-2.1-3.6-2.7-4.5
			c-0.4-1.8-0.3-3.1-1.8-4c0.1-2-0.6-2.4-0.9-2.7c-0.3-0.2-2.2-2.2-2.2-2.2s1.2-1,2.2-2.2c1-1.3-0.1-2.5-1.8-2.7
			c-1.7-0.2-8.1-0.9-8.1-0.9s-2.3-5.6-7.2-7.2c-4.9-1.5-7.2-1.8-7.2-1.8c-4.1-2.3-12.7-2.9-19.2,3.1s-12,16.1-9.4,26.9
			c-3.4,4.3-1.8,6.3-1.8,6.3c-2.8,1.9-2.4,11.7-2.2,13c0.1,1.3,4.7,7,6.7,7.2c2,0.2,7.5,0.4,8.9,0c4.2,0.4,12.8-3,13-4.9
			c0.1,4.8,0.2,8.9-4.5,13.5c-4.6,4.5-7.6,7.6-7.6,7.6c1.4,1.3,4.9,5.2,6.7,6.3c1.8,1,19.3,1.1,25.1,0.9c5.8-0.2,13-0.6,13.9,0.9
			c0.8,1.5,6.3,15.2,6.3,15.2s1.3-7,0.9-9c-0.4-1.9-2-5.5-1.3-6.3c0.6-0.8,14.4-10.7,16.1-12.6c-0.1-1.2-2.3-9.3-2.7-14.4
			C510.8,238.8,506.8,240.3,504.3,241.5z M671.2,185.4c-0.9,0.5-1.3,0.9-1.3,0.9s0-1.9-0.4-2.2c0.1-0.6-0.4-1.2-1.8,0.4
			c-1.4,1.6-5,6.1-6.3,7.2c-1.2,1.1-4.3,6.4-5.4,8.1c-1,1.7-9.6,12-13.9,14.4c-2.8,1.2-5.8,1.2-5.4,1.3c0.1,0,0.1,0,0,0
			c-0.5-0.2-1.3,1.3-1.3,1.3c-0.2,2.6,0,10.8,0,10.8l-2.7,1.8l3.6-1.8l3.1-1.8c0,0,4.3-2.3,5.8-1.8s3-1.1,5.4-3.6
			c2.3-2.5,7.6-8.6,7.6-9.4c0-0.8,0.4-2.2,0.4-2.2s5.7-4.4,7.2-5.4c1.5-1,3-3.6,2.7-4c0.4-0.7,0-1.9-0.9-1.8
			c-0.9,0.3-1.3,0.9-1.3,0.9s-4.1,3.2-5.4,4c-1.2,0.9-2.2,0.9-2.2,0.9s2.7-2.5,4-4s6.1-5.9,6.3-6.7s0-1.3,0-1.3s1.7-1.2,2.7-2.2
			S672.3,185.2,671.2,185.4z M491.3,594.4c0,0-1.7,0.4-2.7-0.4c1,0.9,1.6,3.8,1.3,6.3c-1.2,2.9-6.7,17.7-6.3,20.2c0,0-4.5,7-3.6,9.9
			c0.9,2.8,2.2,6.9,8.1,7.6c2.3,0.3,5.5-0.3,8.9-2.7c3.4-2.4,6.3-5.1,6.3-14.8c0.6-2.4,1.9-5.1,2.2-7.2c0.3-2.1,1.3-6.5,1.8-8.5
			c0.5-2,0-11.6,0-13C502.4,593.9,491.3,594.4,491.3,594.4z"/>
		<path class="st39" d="M483.7,620.3c0,0-0.2-1.2-0.9,0c-0.7,1.2-5.7,0.7-5.8-0.9c-0.1-1.6-2.9-7.7-5.4-11.7c0.2,3-2.7,3.7-5.8,5.4
			c-3.1,1.7-10.3-1.4-11.2-3.1c-0.9-1.8-12.7-11.1-15.7-13c-3-1.9-2.1-4.4-0.4-5.4c0.6-1.1,6.4-27.8,7.2-33.6s3.2-23.6,6.3-30
			c-0.6-5.4,6-32.7,8.9-37.7c0.3-4.1,6.5-34.8,7.6-39.9c1.1-5.1,8.9-39.9,8.9-39.9s10.4-32.6,12.1-39.5s8.5-28.7,9.4-35
			c0.9-6.2,4.8-27,8.1-29.1c-9.6,3.5-18.3,8.1-19.7,9c-2,2.2-7.5,7.8-7.6,10.4c1.6,0.7-3.1-1-3.1-1s-1.3-1-2.2-2.2
			c-0.9-1.2-0.9-5.4-0.9-5.4s0.1-0.6-1.3-1.3c-1.4-0.7-3.1-2.6-3.1-4c0-1.4-1.7-2.2-1.8-3.1c1.4-2.9,3.2-5.8,6.7-6.7
			c3.5-0.9,12-5.6,13.4-6.7c1.4-1.2,13-5.4,17-5.4c4,0.1,7.2-0.9,7.2-0.9l1.8-23.3l-1.3-3.6c0,0,9.9,0.3,12.5,0
			c2.6-0.3,6.5-1.2,8.1,0.4c0,0,1,1,2.2,0.9c0,0,0.9,2.2,2.2,5.4c1.3,3.2-0.5,8.1-3.6,12.1c-3.1,4-7.6,8.1-7.6,8.1l-1.3,0.4v2.7h1.8
			v4.9c0,0,1.9,3.7,2.2,4.5c0.4,0.8-1.8,0.9-1.8,0.9l-5.4,0.4c2.8,3.3,5.3,13.1,6.3,16.1c0.9,3,6.4,18,5.4,25.6
			c-1,7.5-4.7,25.5-6.3,32.3c-1.6,6.8-8.1,29.2-10.3,39c-2.2,9.8-12.4,45.5-14.8,58.3s-4.9,22.6-6.7,24.2
			c-1.4,10.8-9.1,51.2-8.9,56.5c1.2,5.2,1.8,22.6,1.8,25.1c0,2.5-0.1,12.6,0.9,13.4c1,0.9,1.6,3.8,1.3,6.3
			C488.7,603,483.3,617.9,483.7,620.3z"/>
		<path class="st39" d="M521.3,303.4l5.4-0.4c0,0,2.1-0.1,1.8-0.9c-0.4-0.8-2.2-4.5-2.2-4.5v-4.9h-1.8v-2.7c0,0-7.3-1.5-13-0.4
			c0,0-3.2,1-7.2,0.9c-4-0.1-15.6,4.2-17,5.4c-1.4,1.2-9.9,5.8-13.4,6.7c-3.5,0.9-5.3,3.8-6.7,6.7c0.1,1,1.8,1.7,1.8,3.1
			c0,1.4,1.7,3.3,3.1,4c1.4,0.7,1.3,1.3,1.3,1.3s0,4.2,0.9,5.4c0.9,1.2,2.2,2.2,2.2,2.2s4.7,1.7,3.1,1c0.1-2.6,5.6-8.2,7.6-10.4
			c1.4-0.9,10.1-5.5,19.7-9C508.1,306,519.9,302.4,521.3,303.4z"/>
		<path class="st39" d="M446.1,188.1c-6.6,6.1-12,16.1-9.4,26.9c-3.4,4.3-1.8,6.3-1.8,6.3c-2.8,1.9-2.4,11.7-2.2,13
			c0.1,1.3,4.7,7,6.7,7.2s7.5,0.4,8.9,0c4.2,0.4,12.8-3,13-4.9c1.5-2.6,2.6-14.5-8.1-22.9c-1.3-1,0-4.5,0-4.5
			c-2.2-1.7-2.5-7,0.9-6.7c3.4,0.2,6.9-0.9,7.6-2.2c-0.7,0-2.3-5.5-0.9-8.1c1.4-2.6-4-4.5-4-4.5s2-3.9,8.5-2.7
			C461.3,182.7,452.7,182.1,446.1,188.1z M477.5,194.4c0.1-0.3-0.4-1.3-0.4-1.3s0.1,0,0.9-0.9c-1.3,0.9-6.7,1.3-6.7,1.3
			c2.7,0.6,6.7,2.2,6.7,2.2l-0.9-0.9C477,194.9,477.4,194.7,477.5,194.4z"/>
		<path class="st36" d="M489.4,601.7c0.2-0.6,0.4-1.1,0.6-1.5C490.1,599.5,489.8,600.3,489.4,601.7z M507.4,591.7
			c-0.2,9.4-0.3,12.8-1,15.1c-0.7,2.3-1.6,8.3-3.1,10.3c-1.5,2-0.5,7.3-7.1,5.8c-6.7-1.5-8.3-2.7-9.4-2.7c-1.1,0-1.7-5.1-0.9-6.7
			c0.6-1.1,2.5-8.4,3.5-11.8c-1.8,4.7-6.1,16.6-5.7,18.7c0,0-4.5,7-3.6,9.9c0.9,2.8,2.2,6.9,8.1,7.6c2.3,0.3,5.5-0.3,8.9-2.7
			c3.4-2.4,6.3-5.1,6.3-14.8c0.6-2.4,1.9-5.1,2.2-7.2c0.3-2.1,1.3-6.5,1.8-8.5C508,602.8,507.4,593.1,507.4,591.7z"/>
	</g>
</g>
</svg>
