<?xml version="1.0" encoding="utf-8"?>
<!-- Generator: Adobe Illustrator 23.0.2, SVG Export Plug-In . SVG Version: 6.00 Build 0)  -->
<svg version="1.1" id="Calque_1" xmlns="http://www.w3.org/2000/svg" xmlns:xlink="http://www.w3.org/1999/xlink" x="0px" y="0px"
	 viewBox="0 0 1000 700" style="enable-background:new 0 0 1000 700;" xml:space="preserve">
<g id="typo">
	<path d="M245.7,535.9h-11.5l-2,4.4c-0.5,1.1-0.7,1.9-0.7,2.4c0,0.4,0.2,0.8,0.6,1.1c0.4,0.3,1.4,0.5,2.8,0.6v0.8h-9.4v-0.8
		c1.2-0.2,2.1-0.5,2.4-0.8c0.7-0.7,1.6-2,2.5-4l10.5-22.8h0.8l10.4,23c0.8,1.9,1.6,3,2.3,3.6c0.7,0.5,1.6,0.9,2.8,0.9v0.8h-11.8
		v-0.8c1.2-0.1,2-0.2,2.4-0.6c0.4-0.3,0.6-0.7,0.6-1.1c0-0.6-0.3-1.5-0.9-2.8L245.7,535.9 M245,534.4l-5.1-11.2l-5.2,11.2H245z"/>
	<path d="M276.7,545.2l-11.5-23.3v18.5c0,1.7,0.2,2.8,0.6,3.2c0.5,0.6,1.4,0.9,2.6,0.9h1.1v0.8H259v-0.8h1.1c1.3,0,2.2-0.4,2.7-1.1
		c0.3-0.4,0.5-1.4,0.5-3v-18.1c0-1.2-0.1-2.1-0.4-2.6c-0.2-0.4-0.6-0.7-1.1-1c-0.6-0.3-1.4-0.4-2.6-0.4v-0.8h8.4l10.8,21.6
		l10.6-21.6h8.4v0.8h-1c-1.3,0-2.2,0.4-2.7,1.1c-0.3,0.4-0.5,1.4-0.5,3v18.1c0,1.7,0.2,2.8,0.6,3.2c0.5,0.6,1.4,0.9,2.6,0.9h1v0.8
		h-12.7v-0.8h1.1c1.3,0,2.2-0.4,2.7-1.1c0.3-0.4,0.5-1.4,0.5-3V522l-11.5,23.3h-0.8"/>
	<path d="M319.7,531.1c2.1,0.4,3.6,1.1,4.6,2c1.4,1.3,2.1,2.8,2.1,4.6c0,1.4-0.5,2.7-1.4,3.9c-0.9,1.3-2.2,2.2-3.9,2.8
		c-1.6,0.6-4.1,0.9-7.5,0.9h-14.1v-0.8h1.1c1.2,0,2.1-0.4,2.7-1.1c0.3-0.5,0.5-1.5,0.5-3v-17.9c0-1.7-0.2-2.8-0.6-3.2
		c-0.6-0.6-1.4-0.9-2.5-0.9h-1.1v-0.8h12.9c2.4,0,4.3,0.2,5.8,0.5c2.2,0.5,3.9,1.4,5,2.6c1.2,1.2,1.7,2.7,1.7,4.3
		c0,1.4-0.5,2.6-1.4,3.7C322.8,529.7,321.5,530.5,319.7,531.1 M308.2,530c0.5,0.1,1.2,0.2,1.9,0.2c0.7,0,1.5,0.1,2.3,0.1
		c2.1,0,3.7-0.2,4.8-0.6c1.1-0.4,1.9-1.1,2.5-2s0.9-1.9,0.9-2.9c0-1.6-0.7-3-2.1-4.1s-3.5-1.7-6.2-1.7c-1.5,0-2.8,0.2-4,0.4
		L308.2,530L308.2,530z M308.2,543.2c1.7,0.4,3.4,0.6,5,0.6c2.7,0,4.7-0.6,6.1-1.7c1.4-1.1,2.1-2.5,2.1-4.1c0-1.1-0.3-2.1-0.9-3.1
		s-1.7-1.8-3.1-2.3c-1.4-0.6-3.2-0.9-5.3-0.9c-0.9,0-1.7,0-2.3,0c-0.6,0-1.2,0.1-1.6,0.1L308.2,543.2L308.2,543.2z"/>
	<path d="M350.2,535.9h-11.5l-2,4.4c-0.5,1.1-0.7,1.9-0.7,2.4c0,0.4,0.2,0.8,0.6,1.1s1.4,0.5,2.8,0.6v0.8H330v-0.8
		c1.2-0.2,2.1-0.5,2.4-0.8c0.7-0.7,1.6-2,2.5-4l10.5-22.8h0.8l10.4,23c0.8,1.9,1.6,3,2.3,3.6c0.7,0.5,1.6,0.9,2.8,0.9v0.8h-11.8
		v-0.8c1.2-0.1,2-0.2,2.4-0.6c0.4-0.3,0.6-0.7,0.6-1.1c0-0.6-0.3-1.5-0.9-2.8L350.2,535.9 M349.6,534.4l-5.1-11.2l-5.2,11.2H349.6z"
		/>
	<path d="M383.5,516.9v9.6h-0.8c-0.3-1.8-0.7-3.3-1.4-4.4c-0.7-1.1-1.7-2-2.9-2.6c-1.3-0.6-2.6-1-3.9-1c-1.5,0-2.8,0.4-3.8,1.3
		c-1,0.9-1.5,1.8-1.5,2.9c0,0.8,0.3,1.6,0.9,2.3c0.9,1,3.1,2.4,6.5,4.1c2.8,1.4,4.7,2.4,5.7,3.2c1,0.7,1.8,1.6,2.4,2.6
		c0.5,1,0.8,2.1,0.8,3.2c0,2.1-0.9,3.9-2.6,5.4c-1.8,1.5-4,2.3-6.8,2.3c-0.9,0-1.7-0.1-2.4-0.2c-0.5-0.1-1.4-0.3-2.8-0.7
		s-2.3-0.6-2.7-0.6c-0.4,0-0.7,0.1-0.9,0.3c-0.2,0.2-0.4,0.6-0.5,1.3H366v-9.5h0.8c0.4,2,0.9,3.5,1.5,4.5s1.6,1.8,3,2.5
		c1.3,0.7,2.8,1,4.4,1c1.8,0,3.3-0.4,4.3-1.3c1.1-0.9,1.6-2,1.6-3.2c0-0.7-0.2-1.4-0.6-2.1c-0.4-0.7-1-1.3-1.9-1.9
		c-0.6-0.4-2.1-1.3-4.7-2.6c-2.5-1.3-4.4-2.4-5.4-3.2c-1.1-0.8-1.9-1.7-2.4-2.6c-0.6-1-0.8-2-0.8-3.1c0-2,0.8-3.7,2.5-5.1
		c1.6-1.4,3.7-2.2,6.3-2.2c1.6,0,3.3,0.4,5,1.1c0.8,0.3,1.4,0.5,1.7,0.5c0.4,0,0.7-0.1,0.9-0.3c0.2-0.2,0.4-0.6,0.6-1.3h0.7"/>
	<path d="M409.2,516.9v9.6h-0.8c-0.3-1.8-0.7-3.3-1.4-4.4c-0.7-1.1-1.7-2-2.9-2.6c-1.3-0.6-2.6-1-3.9-1c-1.5,0-2.8,0.4-3.8,1.3
		c-1,0.9-1.5,1.8-1.5,2.9c0,0.8,0.3,1.6,0.9,2.3c0.9,1,3.1,2.4,6.5,4.1c2.8,1.4,4.7,2.4,5.7,3.2c1,0.7,1.8,1.6,2.4,2.6
		c0.5,1,0.8,2.1,0.8,3.2c0,2.1-0.9,3.9-2.6,5.4s-4,2.3-6.8,2.3c-0.9,0-1.7-0.1-2.4-0.2c-0.5-0.1-1.4-0.3-2.8-0.7s-2.3-0.6-2.7-0.6
		c-0.4,0-0.7,0.1-0.9,0.3c-0.2,0.2-0.4,0.6-0.5,1.3h-0.8v-9.5h0.8c0.4,2,0.9,3.5,1.5,4.5s1.6,1.8,3,2.5c1.3,0.7,2.8,1,4.4,1
		c1.8,0,3.3-0.4,4.3-1.3c1.1-0.9,1.6-2,1.6-3.2c0-0.7-0.2-1.4-0.6-2.1c-0.4-0.7-1-1.3-1.9-1.9c-0.6-0.4-2.1-1.3-4.7-2.6
		c-2.5-1.3-4.4-2.4-5.4-3.2c-1.1-0.8-1.9-1.7-2.5-2.6c-0.6-1-0.8-2-0.8-3.1c0-2,0.8-3.7,2.5-5.1c1.6-1.4,3.7-2.2,6.3-2.2
		c1.6,0,3.3,0.4,5,1.1c0.8,0.3,1.4,0.5,1.7,0.5c0.4,0,0.7-0.1,0.9-0.3c0.2-0.2,0.4-0.6,0.6-1.3h0.8"/>
	<path d="M434.8,535.9h-11.5l-2,4.4c-0.5,1.1-0.7,1.9-0.7,2.4c0,0.4,0.2,0.8,0.6,1.1s1.4,0.5,2.8,0.6v0.8h-9.4v-0.8
		c1.2-0.2,2.1-0.5,2.4-0.8c0.7-0.7,1.6-2,2.5-4l10.5-22.8h0.8l10.4,23c0.8,1.9,1.6,3,2.3,3.6c0.7,0.5,1.6,0.9,2.8,0.9v0.8h-11.8
		v-0.8c1.2-0.1,2-0.2,2.4-0.6c0.4-0.3,0.6-0.7,0.6-1.1c0-0.6-0.3-1.5-0.9-2.8L434.8,535.9 M434.2,534.4l-5.1-11.2l-5.2,11.2H434.2z"
		/>
	<path d="M448.2,545.2v-0.8h1.1c1.3,0,2.2-0.4,2.7-1.1c0.3-0.4,0.5-1.5,0.5-3v-17.9c0-1.7-0.2-2.8-0.6-3.2c-0.6-0.6-1.4-0.9-2.5-0.9
		h-1.1v-0.8h12.1c4.5,0,7.8,0.5,10.2,1.4c2.3,0.9,4.2,2.5,5.6,4.7s2.1,4.7,2.1,7.6c0,3.8-1.3,7.1-3.8,9.6c-2.8,2.9-7.1,4.3-12.9,4.3
		h-13.4 M456.7,543.2c1.9,0.4,3.4,0.6,4.7,0.6c3.4,0,6.2-1.1,8.5-3.3c2.2-2.2,3.4-5.2,3.4-9s-1.1-6.8-3.4-9
		c-2.2-2.2-5.1-3.3-8.6-3.3c-1.3,0-2.8,0.2-4.5,0.6v23.4H456.7z"/>
	<path d="M490,519v11h6.5c1.7,0,2.8-0.2,3.4-0.7c0.8-0.6,1.2-1.7,1.3-3.3h0.8v9.6h-0.8c-0.2-1.3-0.4-2.2-0.6-2.6
		c-0.3-0.5-0.7-0.8-1.3-1.1c-0.6-0.3-1.5-0.4-2.8-0.4H490v9.1c0,1.2,0.1,2,0.2,2.2c0.1,0.3,0.3,0.5,0.6,0.6c0.3,0.2,0.8,0.2,1.7,0.2
		h5.1c1.7,0,2.9-0.1,3.7-0.3c0.8-0.2,1.5-0.6,2.2-1.3c0.9-0.8,1.8-2.1,2.8-3.8h0.9l-2.6,6.9h-23v-0.8h1.1c0.7,0,1.4-0.2,2-0.5
		c0.5-0.2,0.8-0.5,1-1c0.2-0.4,0.3-1.3,0.3-2.7v-18c0-1.8-0.2-2.8-0.6-3.2c-0.5-0.5-1.4-0.8-2.6-0.8h-1.1v-0.8h23l0.3,6.1h-1
		c-0.3-1.5-0.6-2.5-1-3s-0.9-1-1.7-1.2c-0.6-0.2-1.6-0.3-3.1-0.3L490,519"/>
	<path d="M521.5,545.2v-0.8h1.1c1.3,0,2.2-0.4,2.7-1.1c0.3-0.4,0.5-1.5,0.5-3v-17.9c0-1.7-0.2-2.8-0.6-3.2c-0.6-0.6-1.4-0.9-2.6-0.9
		h-1.1v-0.8h12.1c4.5,0,7.8,0.5,10.2,1.4s4.2,2.5,5.6,4.7s2.1,4.7,2.1,7.6c0,3.8-1.3,7.1-3.8,9.6c-2.8,2.9-7.1,4.3-12.9,4.3h-13.3
		 M530,543.2c1.9,0.4,3.4,0.6,4.7,0.6c3.4,0,6.2-1.1,8.5-3.3c2.2-2.2,3.4-5.2,3.4-9s-1.1-6.8-3.4-9c-2.2-2.2-5.1-3.3-8.6-3.3
		c-1.3,0-2.8,0.2-4.5,0.6v23.4H530z"/>
	<path d="M563.3,519v11h6.5c1.7,0,2.8-0.2,3.4-0.7c0.8-0.6,1.2-1.7,1.3-3.3h0.8v9.6h-0.8c-0.2-1.3-0.4-2.2-0.6-2.6
		c-0.3-0.5-0.7-0.8-1.3-1.1s-1.5-0.4-2.8-0.4h-6.5v9.1c0,1.2,0.1,2,0.2,2.2c0.1,0.3,0.3,0.5,0.6,0.6c0.3,0.2,0.9,0.2,1.7,0.2h5.1
		c1.7,0,2.9-0.1,3.7-0.3s1.5-0.6,2.2-1.3c0.9-0.8,1.8-2.1,2.8-3.8h0.9l-2.6,6.9h-23v-0.8h1.1c0.7,0,1.4-0.2,2-0.5
		c0.5-0.2,0.8-0.5,1-1c0.2-0.4,0.3-1.3,0.3-2.7v-18c0-1.8-0.2-2.8-0.6-3.2c-0.5-0.5-1.4-0.8-2.6-0.8H555v-0.8h23l0.3,6.1h-0.9
		c-0.3-1.5-0.6-2.5-1-3s-0.9-1-1.7-1.2c-0.6-0.2-1.6-0.3-3.1-0.3L563.3,519"/>
	<path d="M603.2,519v10.9h5.4c1.2,0,2.2-0.3,2.7-0.8c0.6-0.5,1-1.5,1.2-3h0.8v9.4h-0.8c0-1.1-0.2-1.9-0.5-2.4s-0.7-0.9-1.2-1.1
		c-0.5-0.3-1.3-0.4-2.3-0.4h-5.4v8.7c0,1.4,0.1,2.3,0.3,2.8c0.1,0.3,0.5,0.6,0.9,0.9c0.6,0.3,1.3,0.5,2,0.5h1.1v0.8h-12.8v-0.8h1.1
		c1.2,0,2.1-0.3,2.7-1c0.4-0.4,0.5-1.5,0.5-3.1v-17.9c0-1.4-0.1-2.3-0.3-2.8c-0.1-0.3-0.4-0.6-0.9-0.9c-0.6-0.3-1.3-0.5-2-0.5h-1.1
		v-0.8h22.2l0.3,6.1h-0.8c-0.4-1.3-0.8-2.2-1.3-2.8s-1.1-1-1.9-1.3c-0.7-0.3-1.9-0.4-3.4-0.4h-6.5"/>
	<path d="M650.1,545.2h-8L632,532.3c-0.7,0-1.4,0-1.8,0c-0.2,0-0.4,0-0.6,0c-0.2,0-0.4,0-0.7,0v8c0,1.7,0.2,2.8,0.6,3.2
		c0.6,0.6,1.4,0.9,2.5,0.9h1.2v0.8h-12.8v-0.8h1.1c1.3,0,2.2-0.4,2.7-1.1c0.3-0.4,0.5-1.4,0.5-3v-17.9c0-1.7-0.2-2.8-0.6-3.2
		c-0.6-0.6-1.4-0.9-2.5-0.9h-1.1v-0.8h10.9c3.2,0,5.5,0.2,7,0.6c1.5,0.4,2.8,1.2,3.8,2.4c1,1.1,1.6,2.5,1.6,4.1
		c0,1.7-0.6,3.2-1.8,4.4c-1.2,1.3-3,2.1-5.5,2.7l6.2,7.9c1.4,1.8,2.6,3,3.6,3.6s2.3,1,4,1.1v0.9 M628.9,531c0.3,0,0.5,0,0.7,0
		s0.4,0,0.5,0c2.8,0,5-0.6,6.4-1.7c1.4-1.1,2.2-2.6,2.2-4.4c0-1.7-0.6-3.1-1.7-4.2c-1.2-1.1-2.7-1.6-4.6-1.6c-0.8,0-2,0.1-3.4,0.4
		V531H628.9z"/>
	<path d="M671,535.9h-11.5l-2,4.4c-0.5,1.1-0.7,1.9-0.7,2.4c0,0.4,0.2,0.8,0.6,1.1c0.4,0.3,1.4,0.5,2.8,0.6v0.8h-9.4v-0.8
		c1.2-0.2,2.1-0.5,2.4-0.8c0.7-0.7,1.6-2,2.5-4l10.5-22.8h0.8l10.4,23c0.8,1.9,1.6,3,2.3,3.6c0.7,0.5,1.6,0.9,2.8,0.9v0.8h-11.8
		v-0.8c1.2-0.1,2-0.2,2.4-0.6c0.4-0.3,0.6-0.7,0.6-1.1c0-0.6-0.3-1.5-0.9-2.8L671,535.9 M670.4,534.4l-5.1-11.2l-5.2,11.2H670.4z"/>
	<path d="M683,517.5h8.1l18.2,20.7v-15.9c0-1.7-0.2-2.8-0.6-3.2c-0.5-0.6-1.4-0.9-2.6-0.9h-1v-0.8h10.4v0.8h-1.1
		c-1.3,0-2.2,0.4-2.7,1.1c-0.3,0.4-0.5,1.4-0.5,3v23.3h-0.8l-19.6-22.3v17c0,1.7,0.2,2.8,0.6,3.2c0.6,0.6,1.4,0.9,2.6,0.9h1.1v0.8
		h-10.4v-0.8h1c1.3,0,2.2-0.4,2.7-1.1c0.3-0.4,0.5-1.4,0.5-3v-19.2c-0.9-0.9-1.5-1.6-2-1.9c-0.4-0.3-1.1-0.6-2-0.8
		c-0.4-0.1-1.1-0.2-1.9-0.2V517.5"/>
	<path d="M743.9,516.9l0.7,9.4h-0.7c-0.9-2.8-2.2-4.8-3.9-6.1s-3.7-1.9-6.1-1.9c-2,0-3.8,0.5-5.4,1.4c-1.6,0.9-2.9,2.4-3.8,4.5
		c-0.9,2-1.4,4.6-1.4,7.6c0,2.5,0.4,4.7,1.3,6.5c0.9,1.8,2.2,3.2,3.9,4.2s3.7,1.5,5.9,1.5c1.9,0,3.6-0.4,5.1-1.2s3.1-2.3,4.9-4.6
		l0.7,0.4c-1.5,2.5-3.2,4.3-5.2,5.4c-2,1.1-4.4,1.7-7.1,1.7c-4.9,0-8.8-1.7-11.5-5.1c-2-2.5-3-5.5-3-8.9c0-2.8,0.7-5.3,2-7.6
		s3.2-4.1,5.5-5.4c2.3-1.3,4.9-1.9,7.7-1.9c2.2,0,4.3,0.5,6.4,1.5c0.6,0.3,1.1,0.4,1.3,0.4c0.4,0,0.7-0.1,1-0.4
		c0.4-0.4,0.7-0.9,0.8-1.5L743.9,516.9"/>
	<path d="M756.9,519v11h6.5c1.7,0,2.8-0.2,3.4-0.7c0.8-0.6,1.2-1.7,1.3-3.3h0.8v9.6h-0.8c-0.2-1.3-0.4-2.2-0.6-2.6
		c-0.3-0.5-0.7-0.8-1.3-1.1s-1.5-0.4-2.8-0.4h-6.5v9.1c0,1.2,0.1,2,0.2,2.2c0.1,0.3,0.3,0.5,0.6,0.6c0.3,0.2,0.8,0.2,1.7,0.2h5.1
		c1.7,0,2.9-0.1,3.7-0.3s1.5-0.6,2.2-1.3c0.9-0.8,1.8-2.1,2.8-3.8h0.9l-2.6,6.9h-23v-0.8h1.1c0.7,0,1.4-0.2,2-0.5
		c0.5-0.2,0.8-0.5,1-1c0.2-0.4,0.3-1.3,0.3-2.7v-18c0-1.8-0.2-2.8-0.6-3.2c-0.5-0.5-1.4-0.8-2.6-0.8h-1.1v-0.8h23l0.3,6.1H771
		c-0.3-1.5-0.6-2.5-1-3s-0.9-1-1.7-1.2c-0.6-0.2-1.6-0.3-3.1-0.3L756.9,519"/>
	<path d="M410.2,575.4v10.9h6.6c1.7,0,2.8-0.2,3.4-0.7c0.8-0.6,1.2-1.7,1.3-3.3h0.8v9.6h-0.8c-0.2-1.3-0.4-2.2-0.6-2.6
		c-0.3-0.5-0.7-0.8-1.3-1.1c-0.6-0.3-1.5-0.4-2.8-0.4h-6.6v9.1c0,1.2,0.1,2,0.2,2.2c0.1,0.3,0.3,0.5,0.6,0.6
		c0.3,0.2,0.8,0.2,1.7,0.2h5.1c1.7,0,2.9-0.1,3.7-0.3c0.8-0.2,1.5-0.6,2.2-1.3c0.9-0.8,1.8-2.1,2.8-3.8h0.9l-2.6,6.9h-23v-0.8h1.1
		c0.7,0,1.4-0.2,2-0.5c0.5-0.2,0.8-0.5,1-1c0.2-0.4,0.3-1.3,0.3-2.7v-18c0-1.8-0.2-2.8-0.6-3.2c-0.5-0.5-1.4-0.8-2.6-0.8h-1.1v-0.8
		h23l0.3,6.1h-0.9c-0.3-1.5-0.6-2.5-1-3s-0.9-1-1.7-1.2c-0.6-0.2-1.6-0.3-3.1-0.3h-8.3"/>
	<path d="M428.3,573.9h8.1l18.2,20.7v-15.9c0-1.7-0.2-2.8-0.6-3.2c-0.5-0.6-1.4-0.9-2.6-0.9h-1v-0.8h10.4v0.8h-1.1
		c-1.3,0-2.2,0.4-2.7,1.1c-0.3,0.4-0.5,1.4-0.5,3V602h-0.8l-19.6-22.3v17c0,1.7,0.2,2.8,0.6,3.2c0.6,0.6,1.4,0.9,2.6,0.9h1.1v0.8
		H430v-0.8h1c1.3,0,2.2-0.4,2.7-1.1c0.3-0.4,0.5-1.4,0.5-3v-19.2c-0.9-0.9-1.5-1.6-2-1.9c-0.4-0.3-1.1-0.6-2-0.8
		c-0.4-0.1-1.1-0.2-1.9-0.2L428.3,573.9"/>
	<path d="M483.3,586.7h13.8v-7.9c0-1.4-0.1-2.3-0.3-2.8c-0.1-0.3-0.5-0.6-0.9-0.9c-0.6-0.3-1.3-0.5-2-0.5h-1.1v-0.8h12.7v0.8h-1.1
		c-0.7,0-1.4,0.2-2,0.5c-0.5,0.2-0.8,0.5-1,1c-0.2,0.4-0.3,1.3-0.3,2.7v17.8c0,1.4,0.1,2.3,0.3,2.8c0.1,0.3,0.4,0.6,0.9,0.9
		c0.6,0.3,1.3,0.5,2,0.5h1.1v0.8h-12.7v-0.8h1.1c1.2,0,2.1-0.3,2.7-1c0.4-0.4,0.6-1.5,0.6-3.1v-8.4h-13.8v8.4c0,1.4,0.1,2.3,0.3,2.8
		c0.1,0.3,0.5,0.6,0.9,0.9c0.6,0.3,1.3,0.5,2,0.5h1.1v0.8h-12.8v-0.8h1.1c1.2,0,2.1-0.3,2.7-1c0.4-0.4,0.5-1.5,0.5-3.1V579
		c0-1.4-0.1-2.3-0.3-2.8c-0.1-0.3-0.4-0.6-0.9-0.9c-0.6-0.3-1.3-0.5-2-0.5h-1.1V574h12.8v0.8h-1.1c-0.7,0-1.4,0.2-2,0.5
		c-0.5,0.2-0.8,0.5-0.9,1c-0.2,0.4-0.3,1.3-0.3,2.7L483.3,586.7"/>
	<path d="M527.8,592.3h-11.5l-2,4.4c-0.5,1.1-0.7,1.9-0.7,2.4c0,0.4,0.2,0.8,0.6,1.1c0.4,0.3,1.4,0.5,2.8,0.6v0.8h-9.4v-0.8
		c1.2-0.2,2.1-0.5,2.4-0.8c0.7-0.7,1.6-2,2.5-4l10.5-22.8h0.8l10.4,23c0.8,1.9,1.6,3,2.3,3.6c0.7,0.5,1.6,0.9,2.8,0.9v0.8h-11.8
		v-0.8c1.2-0.1,2-0.2,2.4-0.6c0.4-0.3,0.6-0.7,0.6-1.1c0-0.6-0.3-1.5-0.9-2.8L527.8,592.3 M527.2,590.8l-5.1-11.2l-5.2,11.2H527.2z"
		/>
	<path d="M554.3,600.8v0.8h-12.8v-0.8h1.1c1.2,0,2.1-0.3,2.7-1c0.4-0.4,0.5-1.5,0.5-3.1v-17.9c0-1.4-0.1-2.3-0.3-2.8
		c-0.1-0.3-0.4-0.6-0.9-0.9c-0.6-0.3-1.3-0.5-2-0.5h-1.1v-0.8h12.8v0.8h-1.1c-1.2,0-2.1,0.3-2.7,1c-0.4,0.4-0.6,1.5-0.6,3.1v17.9
		c0,1.4,0.1,2.3,0.3,2.8c0.1,0.3,0.5,0.6,0.9,0.9c0.6,0.3,1.3,0.5,2,0.5H554.3 M544,566.7c0.7,0,1.2,0.2,1.7,0.7
		c0.5,0.4,0.7,1,0.7,1.6s-0.2,1.1-0.7,1.6c-0.5,0.4-1,0.6-1.7,0.6s-1.2-0.2-1.7-0.6c-0.5-0.4-0.7-0.9-0.7-1.6s0.2-1.1,0.7-1.6
		S543.4,566.7,544,566.7z M551.8,566.7c0.7,0,1.2,0.2,1.7,0.7s0.7,1,0.7,1.6s-0.2,1.1-0.7,1.6c-0.5,0.4-1,0.6-1.7,0.6
		s-1.2-0.2-1.7-0.6c-0.5-0.4-0.7-0.9-0.7-1.6s0.2-1.1,0.7-1.6S551.1,566.7,551.8,566.7z"/>
	<path d="M582.1,573.9l0.3,6.5h-0.8c-0.2-1.1-0.4-2-0.7-2.4c-0.5-0.8-1.1-1.4-1.8-1.7c-0.8-0.4-1.7-0.6-3-0.6H572v21.1
		c0,1.7,0.2,2.8,0.6,3.2c0.6,0.6,1.4,0.9,2.6,0.9h1v0.8h-12.6v-0.8h1.1c1.3,0,2.2-0.4,2.7-1.1c0.3-0.4,0.5-1.4,0.5-3v-21.1h-3.6
		c-1.4,0-2.4,0.1-3,0.3c-0.8,0.3-1.4,0.8-2,1.5c-0.5,0.7-0.9,1.7-1,3h-0.8l0.4-6.5h24.2"/>
	<path d="M598.1,600.8v0.8h-12.8v-0.8h1.1c1.2,0,2.1-0.3,2.7-1c0.4-0.4,0.5-1.5,0.5-3.1v-17.9c0-1.4-0.1-2.3-0.3-2.8
		c-0.1-0.3-0.4-0.6-0.9-0.9c-0.6-0.3-1.3-0.5-2-0.5h-1.1v-0.8h12.8v0.8H597c-1.2,0-2.1,0.3-2.7,1c-0.4,0.4-0.6,1.5-0.6,3.1v17.9
		c0,1.4,0.1,2.3,0.3,2.8c0.1,0.3,0.5,0.6,0.9,0.9c0.6,0.3,1.3,0.5,2,0.5H598.1"/>
	<path d="M248.7,403.1c-2.1,0-3.2-0.3-4.4-1.1c-1.8-1.2-3.8-4.6-4.9-6.5c-1.9-3.3-4-6.8-6-9.7c-0.3,0.1-0.6,0.1-0.8,0.1
		c-0.6,0-1-0.1-1.6-0.1v3c0,1.5,0.1,3,0.1,4.5c0.1,3,0.1,4.3,0.6,5.5c0.6,1.4,1.6,2.2,3.4,2.3v1.6l-1.3-0.1c-1.4-0.1-3.4,0-6.1,0
		c-2.6,0-4.6-0.1-6,0l-1.3,0.1v-1.6c1.4-0.1,2.1-0.4,2.7-1.1c0.6-0.7,1-1.7,1.1-3c0.2-1.7,0.2-2.7,0.2-8.2v-9.3
		c0-6.8-0.2-8.5-0.6-10c-0.4-1.5-1.6-2.1-3.4-2.3v-1.6c1.1,0.1,2.2,0.1,3.3,0.1c2.9,0,3.8,0,7.2-0.2c3-0.1,4.7-0.2,6.1-0.2
		c3.8,0,6.1,0.6,8,1.9c2.1,1.5,3.5,4.4,3.5,7.3c0,4.6-3,8.3-8.1,10.2c2.1,2.7,3.8,5.3,5.7,8.4c1.8,2.8,3.6,5.3,5,6.7
		c0.8,0.8,1.3,1.1,2.3,1.4v1.6C251.9,403,250.4,403.1,248.7,403.1 M234.4,368.3c-1.1,0-2.1,0.2-3.3,0.4c0,3.3-0.1,9.2-0.1,13.9
		c0.6,0.1,1.7,0.2,2.4,0.2c4.6,0,7.6-2.8,7.6-7.2C241.1,371.3,238.2,368.3,234.4,368.3z"/>
	<path d="M267,369l-2.2-1.3l4.6-6.7l5.3,1L267,369 M277.2,402c-0.4,0.7-0.9,0.8-3.4,0.8c-1.6,0-3.1-0.1-4.6-0.1
		c-2.2,0-4.4-0.1-6.6-0.1s-4.4,0-6.6,0.1v-1.3c2.1-0.2,3-1.4,3.2-3.4c0.1-1.4,0.1-2.9,0.1-5.2v-13c0-2.4-0.1-3.5-0.5-4.5
		c-0.4-1.2-1.2-1.7-2.8-1.9V372h21.5c0,1.3,0,2.7,0,4c0,1.1,0,2.2,0,3.3h-1.7c-0.3-3.5-1.8-4.5-7.3-4.5c-1,0-2.3,0-3.4,0.1
		c-0.1,1.8-0.1,2.4-0.1,5.1v5.3c0.7,0,1.2,0,2.1,0c4.8,0,6.3-0.7,6.5-3.2h1.7c-0.1,0.7-0.1,2.3-0.1,4.6c0,2.3,0,3.7,0.1,4.5h-1.7
		c-0.1-2.6-1.4-3.3-6.1-3.3c-0.8,0-1.7,0-2.5,0c0,2.9,0,5.8,0,8.7c0,1.9,0.3,2.6,1.4,2.9c0.7,0.2,1.7,0.2,3.2,0.2
		c5,0,6.7-1.1,7.8-4.9l1.8,0.4C278.5,398.4,277.7,401.1,277.2,402z"/>
	<path d="M296.4,389c-0.5,0-0.7,0-1.3,0l-1-2.3c4.3-0.3,6.7-2.4,6.7-5.9c0-3.7-2.5-6.3-6-6.3c-0.6,0-1,0-1.7,0.2
		c0,2.9-0.1,5.7-0.1,8.5v8c0,6,0,7,0.5,8.2c0.4,1.2,1.2,1.8,2.8,1.9v1.3h-1.1c-1.2,0-2.9,0-5.1,0s-3.9,0-5,0H284v-1.3
		c2.1-0.2,3-1.4,3.2-3.4c0.1-1.4,0.1-2.2,0.1-6.8v-11.5c0-2.4-0.1-3.5-0.5-4.5c-0.4-1.2-1.2-1.7-2.8-1.9V372c0.6,0,0.1,0,2.1,0
		c0.8,0,1.9,0,3.4,0c2.3-0.1,4.7-0.2,7-0.2c6.5,0,10.4,3.2,10.4,8.5C306.9,385.3,302.5,389,296.4,389"/>
	<path d="M338.2,374.3c-0.5,0.7-0.7,1.6-0.8,3.4c-0.1,2-0.1,3.5-0.1,6.3c0,1.1,0,4.2,0,7.4c0,3.2-0.5,5.1-1.8,7.1
		c-2.1,3.1-5.6,4.6-10.2,4.6c-2.9,0-5.1-0.5-7.2-1.9c-3.2-2.1-4.5-4.8-4.5-9.7c0-5,0.1-7.1,0.1-8.7c0-2.3,0.1-4.8-0.3-7.1
		c-0.3-1.7-1.2-2.3-3.1-2.5V372h1.1c1.2,0,2.9,0,5.1,0s3.9,0,5.1,0h1.1v1.3c-1.4,0.2-2.1,0.6-2.6,1.3c-0.4,0.7-0.6,1.6-0.6,3.6
		c-0.1,2.9-0.1,5.7-0.1,8.6c0,7.9,0.2,9.4,1.6,11.1c1.1,1.3,3,2.2,5.2,2.2c3.1,0,6.1-1.6,7-4.6c0.6-2,0.7-3.4,0.7-8.6v-4.5
		c0-5.2-0.1-6.8-0.6-7.6c-0.5-0.8-1.2-1.3-2.4-1.4V372c1.8,0.1,2.5,0.1,4.8,0.1s3,0,4.8-0.1v1.3
		C339.3,373.4,338.7,373.7,338.2,374.3"/>
	<path d="M366.5,400.5c-2.2,1.7-4.6,2.2-9.3,2.2c-2.5,0-5-0.2-7.5-0.2c-1,0-2.9,0-4.2,0.1H345v-1.3c2.2-0.2,3-1.3,3.2-3.4
		c0.1-1.4,0.2-2.2,0.2-6.8v-8.7c0-4.3,0-6.1-0.5-7.3c-0.5-1.2-1.3-1.7-2.9-1.9V372c2.1,0.1,3.4,0.1,6.3,0.1c2.7,0,6.7-0.1,9.3-0.1
		c4.2,0,8.1,2,8.1,6.8c0,3.5-2.2,5.9-6.6,7c4.9,1,7.4,3.8,7.4,8.3C369.5,396.9,368.5,398.9,366.5,400.5 M356.4,374.4
		c-0.8,0-1.7,0.1-2.5,0.1c0,3-0.1,8.1-0.2,10.1c0.5,0,1.2,0.1,2,0.1c4.5,0,7.1-1.9,7.1-5.2C362.9,376.3,360.5,374.4,356.4,374.4z
		 M356.6,387.2c-0.8,0-1.6,0-2.8,0.1c0,1.2,0,1.5,0,3.6v2.7c0,2.6,0.1,4,0.4,4.9c0.4,1.2,1.5,1.7,3.4,1.7c3.9,0,6.1-2.2,6.1-6
		C363.7,389.9,360.9,387.2,356.6,387.2z"/>
	<path d="M395.5,402c-0.4,0.6-1,0.8-3.3,0.8c-1.1,0-2.3,0-3.5-0.1c-2.9-0.1-5.4-0.2-8.6-0.2c-2.3,0-3.9,0-5.4,0.1v-1.3
		c1.2-0.1,1.7-0.3,2.3-0.9c0.8-1,1.1-2.2,1.1-5.5c0-2.3,0-4.1,0-6.5v-4.9c0-6.2,0-7-0.5-8.3c-0.4-1.2-1.3-1.7-2.9-1.9V372h1.2
		c1.2,0,2.9,0,5.2,0c2.3,0,4,0,5.2,0h1.2v1.3c-2.3,0-3.4,1.2-3.6,3.4c-0.1,0.8-0.1,1.5-0.1,6.8v7.7c0,6.4,0.1,7.2,0.6,7.8
		c0.5,0.5,1.5,0.7,3.4,0.7c2.5,0,3.9-0.3,5.1-0.9c1.3-0.7,2.3-2.1,2.7-4l1.7,0.5C396.9,397.9,396,401.2,395.5,402"/>
	<path d="M411.5,402.6c-1.2,0-2.9,0-5,0c-2.2,0-3.9,0-5.1,0h-1.1v-1.3c2.2-0.2,3-1.3,3.2-3.4c0.1-1.4,0.2-2.2,0.2-6.8v-7.7
		c0-1.2,0-2.4,0-3.8c0-2.4-0.1-3.5-0.5-4.5c-0.4-1.2-1.3-1.7-2.8-1.9V372h1.1c1.2,0,2.9,0,5.1,0s3.9,0,5,0h1.1v1.3
		c-2,0.1-3,1.4-3.2,3.4c-0.1,1.3-0.1,2.6-0.1,6.8v7.7c0,6,0,7,0.5,8.2c0.4,1.2,1.2,1.8,2.8,1.9v1.3L411.5,402.6"/>
	<path d="M454.5,410.9c-3.6,0-7.4-1.1-11-3.1c-2.1-1.2-5-3.1-7.1-4.9c-1.6,0.2-2.2,0.3-3.6,0.3c-9.3,0-15.4-6.1-15.4-15.2
		c0-9.8,6.7-16.6,16.4-16.6c9.5,0,15.8,6.1,15.8,15.2c0,6.5-3.3,12.2-8.5,14.9c1.7,0.8,3.3,1.7,4.9,2.7c4.7,2.9,7.9,4,10.9,4
		c1.9,0,3.4-0.4,5.3-1.3l0.6,1.6C460.4,410.1,457.6,410.9,454.5,410.9 M432.8,374.6c-5.6,0-9.6,4.7-9.6,11.3c0,8,4.7,14.3,10.8,14.3
		c5.7,0,9.7-4.8,9.7-11.4C443.6,380.8,438.8,374.6,432.8,374.6z"/>
	<path d="M481.3,374.3c-0.5,0.7-0.7,1.6-0.8,3.4c-0.1,2-0.1,3.5-0.1,6.3c0,1.1,0,4.2,0,7.4c0,3.2-0.5,5.1-1.8,7.1
		c-2.1,3.1-5.6,4.6-10.2,4.6c-2.9,0-5.1-0.5-7.2-1.9c-3.2-2.1-4.5-4.8-4.5-9.7c0-5,0.1-7.1,0.1-8.7c0-2.3,0.1-4.8-0.3-7.1
		c-0.3-1.7-1.2-2.3-3.1-2.5V372h1.1c1.2,0,2.9,0,5.1,0s3.9,0,5.1,0h1.1v1.3c-1.4,0.2-2.1,0.6-2.6,1.3c-0.4,0.7-0.6,1.6-0.6,3.6
		c-0.1,2.9-0.1,5.7-0.1,8.6c0,7.9,0.2,9.4,1.6,11.1c1.1,1.3,3,2.2,5.2,2.2c3.1,0,6.1-1.6,7-4.6c0.6-2,0.7-3.4,0.7-8.6v-4.5
		c0-5.2-0.1-6.8-0.6-7.6c-0.5-0.8-1.2-1.3-2.4-1.4V372c1.8,0.1,2.5,0.1,4.8,0.1s3,0,4.8-0.1v1.3
		C482.5,373.4,481.8,373.7,481.3,374.3"/>
	<path d="M509.3,402c-0.4,0.7-0.9,0.8-3.4,0.8c-1.6,0-3.1-0.1-4.6-0.1c-2.2,0-4.4-0.1-6.6-0.1s-4.4,0-6.6,0.1v-1.3
		c2.1-0.2,3-1.4,3.2-3.4c0.1-1.4,0.1-2.9,0.1-5.2v-13c0-2.4-0.1-3.5-0.5-4.5c-0.4-1.2-1.2-1.7-2.8-1.9V372h21.5c0,1.3-0.1,2.7-0.1,4
		c0,1.1,0,2.2,0.1,3.3h-1.7c-0.3-3.5-1.8-4.5-7.3-4.5c-1,0-2.3,0-3.4,0.1c-0.1,1.8-0.1,2.4-0.1,5.1v5.3c0.7,0,1.2,0,2.1,0
		c4.8,0,6.2-0.7,6.5-3.2h1.7c-0.1,0.7-0.1,2.3-0.1,4.6c0,2.3,0.1,3.7,0.1,4.5h-1.7c-0.1-2.6-1.4-3.3-6.1-3.3c-0.8,0-1.7,0-2.5,0
		c0,2.9,0.1,5.8,0.1,8.7c0,1.9,0.3,2.6,1.4,2.9c0.7,0.2,1.7,0.2,3.2,0.2c5,0,6.7-1.1,7.8-4.9l1.8,0.4
		C510.6,398.4,509.9,401.1,509.3,402"/>
	<path d="M551.9,374.5c-0.1-4-2.4-5.6-8.7-5.6c-1.3,0-2.5,0.1-3.9,0.2c-0.1,3.8-0.1,6.5-0.1,12.6c1.3,0.1,2,0.1,2.9,0.1
		c5.2,0,6.7-0.9,7-3.9h2c0,1.6-0.1,3.2-0.1,4.7c0,2.1,0.1,4.2,0.1,6.2h-2c-0.4-3.3-1.7-4-7.5-4c-1,0-1.4,0-2.4,0.1v6.2
		c0,1.2,0,2.6,0.1,4c0.1,3.1,0.3,5.7,4,6v1.6l-1.3-0.1c-1.4-0.1-3.5-0.1-6.1-0.1c-2.7,0-4.7,0-6.1,0.1l-1.3,0.1v-1.6
		c2.5-0.2,3.6-1.7,3.8-4.1c0.2-1.7,0.2-2.7,0.2-8.2v-13.9c0-2.9-0.2-4.3-0.6-5.5c-0.5-1.4-1.5-2.1-3.4-2.3v-1.6h25.6
		c-0.1,1.1-0.1,2.8-0.1,5.2c0,2.2,0,2.6,0.1,3.8L551.9,374.5"/>
	<path d="M582.6,403c-1.7,0-2.7-0.2-3.6-0.9c-1.5-1-3.1-3.8-4-5.3c-1.6-2.7-3.3-5.6-5-8c-0.3,0-0.5,0-0.7,0c-0.5,0-0.8,0-1.3,0v2.4
		c0,1.2,0,2.5,0,3.7c0.1,2.5,0.1,3.5,0.5,4.5c0.5,1.2,1.3,1.8,2.8,1.9v1.3h-1.1c-1.2,0-2.9,0-5,0s-3.8,0-5,0h-1.1v-1.3
		c1.2-0.1,1.7-0.3,2.3-0.9c0.5-0.6,0.8-1.4,0.9-2.5c0.1-1.4,0.2-2.2,0.2-6.8v-7.7c0-5.6-0.2-7-0.5-8.3c-0.3-1.2-1.3-1.7-2.9-1.9V372
		c0.9,0.1,1.8,0,2.8,0c2.4,0,3.1,0,6-0.1c2.5-0.1,3.9-0.1,5-0.1c3.1,0,5,0.5,6.6,1.6c1.7,1.2,2.9,3.6,2.9,6c0,3.8-2.5,6.9-6.7,8.4
		c1.7,2.2,3.1,4.4,4.7,6.9c1.5,2.3,2.9,4.4,4.1,5.5c0.6,0.7,1.1,0.9,1.9,1.2v1.3C585.3,402.9,584.1,403,582.6,403 M570.8,374.3
		c-0.9,0-1.7,0.1-2.8,0.4c0,2.7,0,7.6,0,11.4c0.5,0.1,1.4,0.1,2,0.1c3.8,0,6.3-2.3,6.3-5.9C576.4,376.8,574,374.3,570.8,374.3z"/>
	<path d="M615.8,402.6c-1.2,0-2.8,0-4.9,0c-2.2,0-3.8,0-5,0h-1.1v-1.3c1.5-0.1,2.3-0.9,2.3-2.2c0-0.5-0.1-1.1-0.6-2.5
		c-0.5-1.7-0.9-2.9-1.5-4.4h-8.8l-0.9,2.7c-0.7,2.1-1.1,3.6-1.1,4.4c0,1.3,0.6,1.9,2.1,2v1.3c-1.7,0-2.4-0.1-4.6-0.1
		c-2.2,0-2.8,0-4.5,0.1v-1.3c0.7-0.1,0.9-0.2,1.4-0.6c0.9-0.8,1.7-2.4,3.1-5.9l4.4-11.1c1.2-3,3-7.8,4.2-11.7h3.1
		c0.4,1.4,1.4,3.7,2,5.3l6.5,16.6c1.1,2.8,1.9,4.5,2.5,5.5c0.6,1.1,1.3,1.7,2.4,1.9v1.3L615.8,402.6 M600.9,380.1
		c-1.2,3.1-2.9,7.2-3.5,9.4h6.8L600.9,380.1z"/>
	<path d="M648.6,374.7c-0.5,0.8-0.6,1.6-0.7,4c-0.1,4.1-0.2,10.6-0.2,13.7v7c0,1.1,0.1,2.7,0.1,3.3h-3.1c-3-3.9-9.2-11.5-9.2-11.5
		c-0.7-0.9-6.5-8-9.4-11.5c0,1,0,0.4,0,3.4v3c0,3.4,0,6.8,0.2,10.3c0.1,1.9,0.3,2.9,0.7,3.8c0.5,0.9,1.1,1.3,2.5,1.3v1.3
		c-1.6-0.1-3.3-0.1-4.9-0.1c-1.7,0-3.3,0-4.9,0.1v-1.3c3-0.1,3.1-2.6,3.2-5c0.1-1.9,0.1-3.5,0.1-6.5v-9.7c0-3.8-0.2-4.7-0.9-5.7
		c-0.5-0.7-1.1-1-2.4-1.1V372c1.5,0.1,2.1,0.1,4,0.1s2.4,0,4-0.1c0.6,1,1.4,1.9,4.6,5.8c4.5,5.5,8.6,10.1,12.4,14.9v-10
		c0-4.6-0.1-5.7-0.3-6.9c-0.3-1.5-1.2-2.2-2.9-2.4V372c1.9,0.1,2.5,0.1,4.9,0.1c2.3,0,3,0,4.9-0.1v1.3
		C649.9,373.3,649.2,373.6,648.6,374.7"/>
	<path d="M680.6,401.6c-3,1.2-5.6,1.7-9.2,1.7l-0.4,1.8c0.2,0,0.7,0,0.9,0c1.7,0,2.9,1.2,2.9,2.8c0,2.5-2,4.2-5.1,4.2
		c-0.9,0-1.7-0.2-2.8-0.6l0.6-1.8c0.6,0.2,1.1,0.4,1.7,0.4c1.3,0,2.2-0.6,2.2-1.8c0-0.9-0.5-1.5-1.2-1.5c-0.4,0-0.7,0.1-1,0.4
		l-1-0.3l0.9-3.7c-4-0.4-7-1.7-9.5-4.3c-2.9-2.9-4.4-6.8-4.4-11.5c0-9.9,6.4-15.9,16.9-15.9c3.2,0,6.3,0.5,8.9,1.3
		c-0.1,1.1-0.1,2.1-0.1,3.1c0,0.8,0,2.4,0.1,3.5h-1.8c-0.7-3.3-3.4-5-7.5-5c-6.5,0-10.4,4.3-10.4,11.5c0,8.3,4.6,14.3,11,14.3
		c3.9,0,6.5-1.9,7.5-5.6l1.7,0.4C681.2,396.5,680.8,399.1,680.6,401.6"/>
	<path d="M712.5,402.6c-1.2,0-2.8,0-4.9,0c-2.2,0-3.8,0-5,0h-1.1v-1.3c1.5-0.1,2.3-0.9,2.3-2.2c0-0.5-0.1-1.1-0.6-2.5
		c-0.6-1.7-0.9-2.9-1.5-4.4H693l-0.9,2.7c-0.7,2.1-1.1,3.6-1.1,4.4c0,1.3,0.6,1.9,2.1,2v1.3c-1.7,0-2.4-0.1-4.6-0.1
		c-2.2,0-2.8,0-4.5,0.1v-1.3c0.7-0.1,0.9-0.2,1.4-0.6c0.9-0.8,1.7-2.4,3.1-5.9l4.4-11.1c1.2-3,3-7.8,4.2-11.7h3.1
		c0.4,1.4,1.4,3.7,2,5.3l6.5,16.6c1.1,2.8,1.9,4.5,2.5,5.5c0.6,1.1,1.3,1.7,2.4,1.9v1.3L712.5,402.6 M697.6,380.1
		c-1.2,3.1-2.8,7.2-3.5,9.4h6.8L697.6,380.1z"/>
	<path d="M727.5,402.6c-1.2,0-2.9,0-5,0c-2.2,0-3.9,0-5.1,0h-1.1v-1.3c2.2-0.2,3-1.3,3.2-3.4c0.1-1.4,0.2-2.2,0.2-6.8v-7.7
		c0-1.2,0-2.4,0-3.8c0-2.4-0.1-3.5-0.5-4.5c-0.4-1.2-1.3-1.7-2.8-1.9V372h1.1c1.2,0,2.8,0,5.1,0c2.2,0,3.9,0,5,0h1.1v1.3
		c-2,0.1-3,1.4-3.2,3.4c-0.1,1.3-0.1,2.6-0.1,6.8v7.7c0,6,0,7,0.5,8.2c0.4,1.2,1.2,1.8,2.8,1.9v1.3L727.5,402.6"/>
	<path d="M741.8,403.2c-2.7,0-4.6-0.4-7.7-1.6c-0.1-1.7-0.5-4.4-0.8-6.6l1.7-0.3c1.1,3.7,3.5,5.7,7.1,5.7c3.3,0,5.5-1.7,5.5-4.3
		c0-2.1-1.4-3.5-3.5-4.8l-4.8-3.1c-3.3-2.1-5.2-4.3-5.2-8.4c0-5.1,3.9-8.5,10-8.5c2.9,0,5.4,0.6,7.5,1.7c0,1.1,0,1.5,0,2.9
		c0,1.7,0,2.1,0,3.4h-1.7c-0.6-3.3-2.7-5.1-5.9-5.1c-2.9,0-4.9,1.8-4.9,4.3c0,2.2,1.5,3.7,4,5.2l3.9,2.5c3.7,2.4,5.8,4.8,5.8,8.5
		C752.7,399.8,748.3,403.2,741.8,403.2"/>
	<path d="M778.8,402c-0.4,0.7-0.9,0.8-3.4,0.8c-1.6,0-3.1-0.1-4.6-0.1c-2.2,0-4.4-0.1-6.6-0.1c-2.2,0-4.4,0-6.6,0.1v-1.3
		c2.1-0.2,3-1.4,3.2-3.4c0.1-1.4,0.1-2.9,0.1-5.2v-13c0-2.4-0.1-3.5-0.5-4.5c-0.4-1.2-1.2-1.7-2.8-1.9V372H779c0,1.3,0,2.7,0,4
		c0,1.1,0,2.2,0,3.3h-1.7c-0.3-3.5-1.8-4.5-7.3-4.5c-1,0-2.3,0-3.4,0.1c-0.1,1.8-0.1,2.4-0.1,5.1v5.3c0.7,0,1.2,0,2.1,0
		c4.8,0,6.3-0.7,6.5-3.2h1.7c-0.1,0.7-0.1,2.3-0.1,4.6c0,2.3,0.1,3.7,0.1,4.5h-1.7c-0.1-2.6-1.4-3.3-6.1-3.3c-0.8,0-1.7,0-2.5,0
		c0,2.9,0.1,5.8,0.1,8.7c0,1.9,0.3,2.6,1.4,2.9c0.7,0.2,1.7,0.2,3.2,0.2c5,0,6.7-1.1,7.8-4.9l1.8,0.4
		C780,398.4,779.3,401.1,778.8,402"/>
	<path d="M236.1,340.7c-0.4,0.5-1.1,0.7-2.7,0.7c-2.2,0-4.3-0.1-6.5-0.2c-1.9,0-3.3-0.1-4.3-0.1c-1.3,0-4.6,0-5.6,0.1h-0.6l0.2-0.9
		c1.3-0.1,2.2-0.5,2.8-1.4c0.7-0.9,1.2-2.1,1.8-4.7c0.6-2.5,0.9-3.9,1.8-8.5l0.7-3.5c0.7-3.6,1-5.7,1-6.8c0-2-0.7-2.8-2.6-3l0.2-1
		c0.3,0,0.5,0,0.6,0c1.7,0,3.3,0,4.9,0c2.6,0,4.3,0,5.1,0c0.1,0,0.4,0,0.7,0l-0.2,1c-1.4,0.1-2.1,0.4-2.8,1.3
		c-1.1,1.4-1.7,3.4-3.4,12l-0.6,3c-0.7,3.7-1,4.9-1.2,6.6c-0.1,0.5-0.1,1.1-0.1,1.4c0,1.7,0.9,2.3,3.8,2.3c5.1,0,6.9-1,8.6-4.7
		l1.2,0.4C237.6,337.7,236.6,340,236.1,340.7"/>
	<path d="M249.4,318.9c-1.4,0-2.3-0.8-2.3-2.1c0-1.6,1.2-2.7,2.8-2.7c1.3,0,2.2,0.8,2.2,2.1C252,317.7,250.9,318.9,249.4,318.9
		 M244.5,341.8c-0.9,0-1.5-0.5-1.5-1.3c0-0.4,0.1-1.1,0.4-2.1c0.6-2.4,1.4-5.6,1.8-7.3c0.6-2.3,0.9-3.9,0.9-4.6
		c0-0.6-0.3-0.8-0.8-0.8c-0.4,0-0.8,0.1-1.7,0.4l-0.3,0.1l-0.1-1.3c2.5-0.9,4.9-1.5,6.1-1.5c0.7,0,0.9,0.2,0.9,0.8
		c0,0.5-0.2,2-1,5.1l-0.7,2.6c-1.1,4.3-1.4,5.9-1.4,6.6s0.4,1.1,1,1.1c0.4,0,1.2-0.2,2.5-0.6l0.1,1.3
		C248.3,341.1,245.7,341.8,244.5,341.8z"/>
	<path d="M269.1,339.7c-1.7,1.5-3.8,2.1-7,2.1c-3.5,0-5.6-0.6-5.6-1.5c0-0.4,0-0.8,0.5-2.7l2.3-10.2c0.8-3.3,1.3-5.9,2.1-9.5
		c0.4-2.1,0.6-3.3,0.6-3.9c0-0.5-0.3-0.8-0.8-0.8c-0.3,0-1.3,0.2-2,0.4v-1.3l0.5-0.2c2.4-0.8,4.4-1.3,5.4-1.3c0.6,0,0.9,0.3,0.9,0.8
		s-0.2,1.6-1,4.9l-1.3,5.9c-0.4,1.9-0.6,2.6-0.7,3.3c2.8-1.7,5.3-2.4,7.5-2.4c2.7,0,4.1,1.4,4.1,4.2
		C274.8,331.7,272.4,336.8,269.1,339.7 M269.1,325.3c-0.8,0-1.8,0.3-3,1c-1.3,0.7-2.2,1.4-2.7,2.1c-0.6,0.8-1.1,2.2-1.7,5.1
		c-0.7,2.8-1,4.5-1,5.1c0,0.9,1,1.3,2.8,1.3s3.4-0.8,4.6-2.5c1.8-2.6,3.1-6.6,3.1-9.5C271.1,326.2,270.4,325.3,269.1,325.3z"/>
	<path d="M284.5,334.1c-0.3,0-0.7,0-1.3,0c-0.1,0.8-0.2,1.5-0.2,2.1c0,2.3,0.8,3.5,2.4,3.5c1.4,0,3.2-0.8,5.9-2.4l0.5,1.5
		c-3.3,2.1-5.8,3-8.1,3c-2.8,0-4.3-1.7-4.3-4.7c0-7.4,5-13.8,10.8-13.8c2.8,0,4.5,1.3,4.5,3.5C294.6,331,290.3,334.1,284.5,334.1
		 M289.1,325.2c-2.1,0-4.4,3-5.6,7.3h0.4c4.2,0,7.3-2.2,7.3-5.1C291.3,326.1,290.3,325.2,289.1,325.2z"/>
	<path d="M312.6,329.1l-1.5-0.1c0.1-0.5,0.1-1.2,0.1-1.7c0-0.8-0.7-1.4-1.8-1.4c-0.7,0-1.3,0.4-1.9,1.1c-1.7,1.9-2.4,5-3.4,9.9
		l-0.9,4.3c-1.7,0.1-2.1,0.1-3.9,0.4c0.4-1.7,0.8-3,1.1-4.6l1-4.2c0.7-2.8,1-4.6,1-5.5c0-1.1-0.3-1.6-0.8-1.6
		c-0.3,0-0.7,0.1-1.1,0.2l-1.1,0.4l-0.1-1.3c2.2-0.9,4.7-1.6,5.8-1.6c0.4,0,0.7,0.2,0.8,0.6c0.1,0.5,0.2,1.2,0.3,1.9
		c2-1.7,3.8-2.6,5.1-2.6c0.8,0,1.9,0.4,3,1.2C313.5,326.1,312.9,327.6,312.6,329.1"/>
	<path d="M327.8,326.1L324,326l-1.9,9.2c-0.5,2.4-0.5,3-0.5,3.4c0,0.6,0.3,1,0.9,1c0.3,0,1-0.2,2.1-0.5l0.4-0.1l0.1,1.3
		c-2.3,0.9-4.7,1.6-6,1.6c-0.9,0-1.5-0.4-1.5-1.3c0-0.8,0.2-1.9,0.5-3.3c0.4-1.6,0.7-2.9,1.1-4.6l1.4-6.6h-2.4l0.3-1.4
		c3-0.5,4.1-3,4.9-5.6l2.2-0.4l-1.1,5.3h3.7L327.8,326.1"/>
	<path d="M341.5,320.6l-1.4-1.2l5.5-6.2l4,1L341.5,320.6 M336.5,334.1c-0.3,0-0.7,0-1.3,0c-0.1,0.8-0.2,1.5-0.2,2.1
		c0,2.3,0.8,3.5,2.4,3.5c1.4,0,3.2-0.8,5.9-2.4l0.5,1.5c-3.3,2.1-5.8,3-8.1,3c-2.8,0-4.3-1.7-4.3-4.7c0-7.4,5-13.8,10.8-13.8
		c2.8,0,4.5,1.3,4.5,3.5C346.6,331,342.3,334.1,336.5,334.1z M341.1,325.2c-2.1,0-4.4,3-5.6,7.3h0.4c4.2,0,7.3-2.2,7.3-5.1
		C343.3,326.1,342.3,325.2,341.1,325.2z"/>
	<path d="M418.4,308.4l-1.4-1.2l5.5-6.2l4.1,1L418.4,308.4 M426.9,317.9h-1.3c0-0.5,0.1-0.7,0.1-1c0-2.5-1.6-3.3-6.1-3.3
		c-1.5,0-2.9,0-4.4,0.1c-0.9,3.7-1.6,6.9-2.3,10.9c0.7,0,0.9,0,1.7,0c2.9,0,4.1,0,5.1-0.2c1.7-0.3,2.6-1.3,3.1-3.1h1.2
		c-0.6,2.6-1.4,6.4-1.7,8.7h-1.2c0-0.3,0.1-0.6,0.1-0.8c0-1.9-1.2-2.5-4.9-2.5c-2.2,0-3,0-3.8,0.1c-0.2,1.1,0,0.1-1,5.3
		c-0.5,2.5-0.7,4.1-0.7,4.9c0,1.6,0.8,2,3.8,2c5.6,0,7.4-0.9,9.1-4.7l1.1,0.4c-1,3-2.1,5.3-2.7,6.1c-0.4,0.5-1,0.6-2.9,0.6
		c-1.6,0-3.2,0-4.7-0.1c-2.1,0-4.2-0.1-6.2-0.1c-2.1,0-4.2,0-6.3,0l0.2-0.9c1.3-0.1,2.2-0.5,2.8-1.4c0.7-0.9,1.2-2.1,1.8-4.7
		c0.6-2.5,0.8-3.5,1.8-8.5l0.7-3.5c0.7-3.5,1-5.7,1-6.8c0-2-0.7-2.8-2.6-3l0.2-1h20.4C427.7,313.4,427.2,315.8,426.9,317.9z"/>
	<path d="M449,326h-3c0.5,0.9,0.7,1.7,0.7,2.7c0,4.1-3.4,7.3-7.9,7.3c-0.8,0-1.5-0.1-2.4-0.4c-1.1,0.7-1.5,1-1.5,1.4
		c0,0.5,0.5,0.7,2.5,1.3l3.6,1.1c3.6,1.1,5.3,2.2,5.3,4.8c0,4.7-4.7,8.5-10.7,8.5c-4.9,0-7.9-2.3-7.9-6.1c0-3.5,2.2-5.1,5.9-6.1
		c-2.2-0.8-2.7-1.2-2.7-1.9c0-1,1.3-2.2,4-3.7c-1.4-1-2.1-2.3-2.1-4.1c0-4.3,3.4-7.5,7.9-7.5c1.2,0,2,0.1,3,0.5h5.9L449,326
		 M440.5,325.1c-2.4,0-4.4,2.6-4.4,5.6c0,2.1,1.2,3.5,3,3.5c2.4,0,4.3-2.5,4.3-5.5C443.3,326.5,442.2,325.1,440.5,325.1z
		 M441.1,343.2c-1.5-0.6-3.4-1.2-5.2-1.7c-3.1,0.8-5.2,3-5.2,5.6c0,2.4,2.1,4,5.3,4c3.9,0,7.5-2.6,7.5-5.5
		C443.4,344.5,442.8,343.8,441.1,343.2z"/>
	<path d="M465.8,341.8c-0.8,0-1.1-0.5-1.5-2.7c-3.3,1.9-5.7,2.7-8.1,2.7c-2.7,0-4.3-1.4-4.3-3.8s1.2-5.7,3-8.5
		c2.4-3.8,5.4-6.1,10-6.1c2,0,3.8,0.4,5.8,0.8l-0.2,0.7c-1.6,5.1-2.8,10.8-2.8,12.8c0,1.2,0.3,1.9,0.8,1.9c0.4,0,1.3-0.3,2.4-0.7
		l0.1,1.4C468.8,341.1,466.6,341.8,465.8,341.8 M463.8,325.2c-1.8,0-3.6,1.3-5.1,3.9c-1.7,2.7-2.9,6.4-2.9,8.7
		c0,1.4,0.7,2.1,1.8,2.1c1.7,0,4.6-1.5,5.7-2.6c0.6-0.6,1-1.5,1.4-3.2c0.7-2.7,1.4-5.3,1.8-8.2C465.5,325.5,464.5,325.2,463.8,325.2
		z"/>
	<path d="M485.7,315.5c-1.5,6-3,12.6-4.4,18.9c-0.4,2.1-0.7,3.4-0.7,4.1s0.3,1,1,1c0.4,0,1.3-0.2,2.5-0.5l0.1,1.3
		c-2.3,0.9-5.1,1.7-6.3,1.7c-0.9,0-1.3-0.5-1.3-1.3c0-0.6,0.1-1.4,0.8-4.2c1.4-5.9,2.9-12.2,4.1-17.9c0.5-2.6,0.8-3.9,0.8-4.3
		c0-0.5-0.3-0.8-0.8-0.8c-0.4,0-1.3,0.2-2,0.4l-0.1-1.3c2.3-0.8,4.8-1.4,6-1.4c0.6,0,0.9,0.3,0.9,0.8
		C486.4,312.1,486.2,313.2,485.7,315.5"/>
	<path d="M496.8,318.9c-1.4,0-2.3-0.8-2.3-2.1c0-1.6,1.2-2.7,2.8-2.7c1.3,0,2.2,0.8,2.2,2.1C499.4,317.7,498.3,318.9,496.8,318.9
		 M491.9,341.8c-0.9,0-1.5-0.5-1.5-1.3c0-0.4,0.1-1.1,0.4-2.1c0.6-2.4,1.4-5.6,1.8-7.3c0.6-2.3,0.9-3.9,0.9-4.6
		c0-0.6-0.3-0.8-0.8-0.8c-0.4,0-0.8,0.1-1.7,0.4l-0.3,0.1l-0.1-1.3c2.5-0.9,4.9-1.5,6.1-1.5c0.7,0,0.9,0.2,0.9,0.8
		c0,0.5-0.2,2-1,5.1l-0.7,2.6c-1.1,4.3-1.4,5.9-1.4,6.6s0.4,1.1,1,1.1c0.4,0,1.2-0.2,2.5-0.6l0.1,1.3
		C495.7,341.1,493.1,341.8,491.9,341.8z"/>
	<path d="M514.4,326.1l-3.7-0.1l-1.9,9.2c-0.5,2.4-0.5,3-0.5,3.4c0,0.6,0.3,1,0.9,1c0.3,0,1-0.2,2.1-0.5l0.4-0.1l0.1,1.3
		c-2.3,0.9-4.7,1.6-6,1.6c-0.9,0-1.5-0.4-1.5-1.3c0-0.8,0.2-1.9,0.5-3.3c0.4-1.6,0.7-2.9,1.1-4.6l1.4-6.6h-2.4l0.3-1.4
		c3-0.5,4.1-3,4.9-5.6l2.1-0.4l-1.1,5.3h3.7L514.4,326.1"/>
	<path d="M528.1,320.6l-1.4-1.2l5.5-6.2l4,1L528.1,320.6 M523.2,334.1c-0.3,0-0.7,0-1.3,0c-0.1,0.8-0.2,1.5-0.2,2.1
		c0,2.3,0.8,3.5,2.4,3.5c1.4,0,3.2-0.8,5.9-2.4l0.5,1.5c-3.3,2.1-5.8,3-8.1,3c-2.8,0-4.3-1.7-4.3-4.7c0-7.4,5-13.8,10.8-13.8
		c2.8,0,4.5,1.3,4.5,3.5C533.3,331,528.9,334.1,523.2,334.1z M527.8,325.2c-2.1,0-4.4,3-5.5,7.3h0.4c4.2,0,7.3-2.2,7.3-5.1
		C530,326.1,529,325.2,527.8,325.2z"/>
	<path d="M612.9,317.9h-1.3c0-0.4,0.1-0.8,0.1-1c0-0.9-0.3-1.6-0.9-2.1c-0.9-0.8-2.4-1.1-5.8-1.1c-0.9,0-2.2,0-3.3,0.1
		c-0.8,3.7-1.5,7.2-2.3,11c0.8,0,1.7,0,2.5,0c5,0,6-0.4,6.9-3.4h1.2c-0.7,2.9-1.3,5.8-1.7,8.7H607c0-0.3,0.1-0.6,0.1-0.8
		c0-0.8-0.3-1.5-0.9-1.9c-0.8-0.6-1.7-0.7-4.3-0.7c-1.4,0-1.8,0-3,0.1l-0.6,3c-0.8,4.3-1.2,6.3-1.2,7.6c0,1.8,0.8,2.7,2.6,2.9
		l-0.2,0.9h-0.7c-0.4,0-2.3,0-4,0c-1.8,0-5.1,0-5.7,0h-0.8l0.2-0.9c1.3-0.1,2.2-0.5,2.8-1.4c0.7-0.9,1.2-2.1,1.8-4.7
		c0.6-2.5,0.8-3.9,1.8-8.5l0.7-3.5c0.7-3.5,1-5.7,1-6.8c0-2-0.7-2.8-2.6-3l0.2-1h19.9C613.7,313.4,613.3,315.8,612.9,317.9"/>
	<path d="M628.2,329.1l-1.5-0.1c0.1-0.5,0.1-1.2,0.1-1.7c0-0.8-0.7-1.4-1.8-1.4c-0.7,0-1.3,0.4-1.9,1.1c-1.7,1.9-2.4,5-3.4,9.9
		l-0.8,4.3c-1.7,0.1-2.2,0.1-3.9,0.4c0.4-1.7,0.8-3,1.1-4.6l1-4.2c0.7-2.8,1-4.6,1-5.5c0-1.1-0.3-1.6-0.8-1.6
		c-0.3,0-0.7,0.1-1.1,0.2l-1.1,0.4L615,325c2.2-0.9,4.7-1.6,5.8-1.6c0.4,0,0.7,0.2,0.8,0.6c0.1,0.5,0.2,1.2,0.3,1.9
		c2-1.7,3.8-2.6,5.1-2.6c0.8,0,1.9,0.4,2.9,1.2C629.1,326.1,628.5,327.6,628.2,329.1"/>
	<path d="M645.8,341.8c-0.8,0-1.1-0.5-1.5-2.7c-3.3,1.9-5.7,2.7-8.1,2.7c-2.7,0-4.3-1.4-4.3-3.8s1.2-5.7,3-8.5
		c2.4-3.8,5.4-6.1,10-6.1c2,0,3.8,0.4,5.8,0.8l-0.2,0.7c-1.6,5.1-2.8,10.8-2.8,12.8c0,1.2,0.3,1.9,0.8,1.9c0.4,0,1.3-0.3,2.4-0.7
		l0.1,1.4C648.8,341.1,646.6,341.8,645.8,341.8 M643.8,325.2c-1.8,0-3.6,1.3-5.1,3.9c-1.7,2.7-2.9,6.4-2.9,8.7
		c0,1.4,0.7,2.1,1.8,2.1c1.7,0,4.6-1.5,5.7-2.6c0.6-0.6,1-1.5,1.4-3.2c0.7-2.7,1.4-5.3,1.8-8.2C645.5,325.5,644.5,325.2,643.8,325.2
		z"/>
	<path d="M667.2,326.1l-3.7-0.1l-1.9,9.2c-0.5,2.4-0.5,3-0.5,3.4c0,0.6,0.3,1,0.9,1c0.3,0,1-0.2,2.1-0.5l0.4-0.1l0.1,1.3
		c-2.3,0.9-4.7,1.6-6,1.6c-0.9,0-1.5-0.4-1.5-1.3c0-0.8,0.2-1.9,0.5-3.3c0.4-1.6,0.7-2.9,1.1-4.6l1.4-6.6h-2.4l0.3-1.4
		c3-0.5,4.1-3,4.9-5.6l2.1-0.4l-1.1,5.3h3.7L667.2,326.1"/>
	<path d="M675.9,334.1c-0.3,0-0.7,0-1.3,0c-0.1,0.8-0.2,1.5-0.2,2.1c0,2.3,0.8,3.5,2.4,3.5c1.4,0,3.2-0.8,5.9-2.4l0.5,1.5
		c-3.3,2.1-5.8,3-8.1,3c-2.8,0-4.3-1.7-4.3-4.7c0-7.4,5-13.8,10.8-13.8c2.8,0,4.5,1.3,4.5,3.5C686.1,331,681.7,334.1,675.9,334.1
		 M680.6,325.2c-2.2,0-4.4,3-5.6,7.3h0.4c4.2,0,7.3-2.2,7.3-5.1C682.8,326.1,681.8,325.2,680.6,325.2z"/>
	<path d="M704,329.1l-1.5-0.1c0.1-0.5,0.1-1.2,0.1-1.7c0-0.8-0.7-1.4-1.8-1.4c-0.7,0-1.3,0.4-1.9,1.1c-1.7,1.9-2.4,5-3.4,9.9
		l-0.8,4.3c-1.7,0.1-2.1,0.1-3.9,0.4c0.4-1.7,0.8-3,1.1-4.6l1-4.2c0.7-2.8,1-4.6,1-5.5c0-1.1-0.3-1.6-0.8-1.6
		c-0.3,0-0.7,0.1-1.1,0.2l-1.1,0.4l-0.1-1.3c2.2-0.9,4.7-1.6,5.8-1.6c0.4,0,0.7,0.2,0.8,0.6c0.1,0.5,0.2,1.2,0.3,1.9
		c2-1.7,3.8-2.6,5.1-2.6c0.9,0,1.9,0.4,3,1.2C704.9,326.1,704.4,327.6,704,329.1"/>
	<path d="M721.9,341.8c-0.9,0-1.4-0.5-1.4-1.3c0-0.5,0.2-1.5,0.7-3.8l0.4-1.9c1.3-5.6,1.7-7.5,1.7-8.2s-0.3-1-0.9-1
		c-0.8,0-2,0.4-3.4,1.3c-1.4,0.8-2.5,1.7-3,2.6c-0.4,0.7-0.7,1.8-1.3,4.2c-0.7,3.3-1.2,5.5-1.5,7.6c-1.7,0.1-2.2,0.2-3.9,0.4
		c0.9-3.4,1.6-6.1,2.2-9.2c0.7-3,0.9-4.5,0.9-5.3c0-1-0.3-1.5-1-1.5c-0.4,0-1.1,0.2-2.2,0.5l-0.1-1.3c2.1-0.8,4.5-1.5,5.6-1.5
		c1,0,1.3,0.6,1.3,2.7v0.4c3.4-1.9,6.9-3,9.3-3c1.5,0,2.1,0.4,2.1,1.3s-0.3,2.4-1.2,6c-0.5,2.1-1,4.3-1.2,5.2
		c-0.3,1.3-0.4,2.1-0.4,2.6c0,0.7,0.4,1,1,1c0.4,0,1.3-0.2,2.3-0.6l0.1,1.3C725.6,341.1,722.9,341.8,721.9,341.8"/>
	<path d="M740.7,318.9c-1.4,0-2.3-0.8-2.3-2.1c0-1.6,1.2-2.7,2.8-2.7c1.3,0,2.2,0.8,2.2,2.1C743.4,317.7,742.3,318.9,740.7,318.9
		 M735.8,341.8c-0.9,0-1.5-0.5-1.5-1.3c0-0.4,0.1-1.1,0.4-2.1c0.6-2.4,1.4-5.6,1.8-7.3c0.6-2.3,0.9-3.9,0.9-4.6
		c0-0.6-0.3-0.8-0.8-0.8c-0.4,0-0.8,0.1-1.7,0.4l-0.3,0.1l-0.1-1.3c2.5-0.9,4.9-1.5,6.1-1.5c0.7,0,0.9,0.2,0.9,0.8
		c0,0.5-0.2,2-1,5.1l-0.7,2.6c-1.1,4.3-1.4,5.9-1.4,6.6s0.4,1.1,1,1.1c0.4,0,1.2-0.2,2.5-0.6l0.1,1.3
		C739.6,341.1,737.1,341.8,735.8,341.8z"/>
	<path d="M758.3,326.1l-3.7-0.1l-1.9,9.2c-0.5,2.4-0.5,3-0.5,3.4c0,0.6,0.3,1,0.9,1c0.3,0,1-0.2,2.1-0.5l0.4-0.1l0.1,1.3
		c-2.3,0.9-4.7,1.6-6,1.6c-0.9,0-1.5-0.4-1.5-1.3c0-0.8,0.2-1.9,0.5-3.3c0.4-1.6,0.7-2.9,1.1-4.6l1.4-6.6h-2.4l0.3-1.4
		c3-0.5,4.1-3,4.9-5.6l2.1-0.4L755,324h3.7L758.3,326.1"/>
	<path d="M772.1,320.6l-1.4-1.2l5.5-6.2l4,1L772.1,320.6 M767.1,334.1c-0.3,0-0.7,0-1.3,0c-0.1,0.8-0.2,1.5-0.2,2.1
		c0,2.3,0.8,3.5,2.4,3.5c1.4,0,3.2-0.8,5.9-2.4l0.5,1.5c-3.3,2.1-5.8,3-8.1,3c-2.8,0-4.3-1.7-4.3-4.7c0-7.4,5-13.8,10.8-13.8
		c2.8,0,4.5,1.3,4.5,3.5C777.2,331,772.8,334.1,767.1,334.1z M771.7,325.2c-2.1,0-4.4,3-5.6,7.3h0.4c4.2,0,7.3-2.2,7.3-5.1
		C773.9,326.1,772.9,325.2,771.7,325.2z"/>
	<path d="M562.2,333.5c3,0,5.4-2.4,5.4-5.4s-2.4-5.4-5.4-5.4s-5.4,2.4-5.4,5.4C556.8,331,559.2,333.5,562.2,333.5"/>
	<path d="M375.7,333.5c3,0,5.4-2.4,5.4-5.4s-2.4-5.4-5.4-5.4s-5.4,2.4-5.4,5.4C370.3,331,372.7,333.5,375.7,333.5"/>
	<rect x="197.5" y="429.3" width="605" height="2.1"/>
</g>
<g id="marianne">
	<g>
		<g>
			<defs>
				<rect id="SVGID_1_" x="220.1" y="98" width="558.8" height="187.5"/>
			</defs>
			<clipPath id="SVGID_2_">
				<use xlink:href="#SVGID_1_"  style="overflow:visible;"/>
			</clipPath>
			<rect x="220.1" y="98" style="clip-path:url(#SVGID_2_);fill:#FFFFFF;" width="558.8" height="187.5"/>
		</g>
	</g>
	<path style="fill:#FFFFFF;" d="M362.9,235c-1.3,0.3-2.6,1.3-2.1,2.1c1.3,1.7,3.8-0.4,6-0.4c-2.6,0.9-5.5,0.4-7.7,2.6
		c1.7,1.3,3.4,0.4,5.1,0.4c0,0.9,0.9,0.9,1.3,1.3c-2.1,0.9-3.8,2.6-4.3,3.8c-0.9,2.1-3,3-4.3,4.7c0,0.4,0,0.9,0,1.3
		c-4.3,3.8-9,6.4-12.4,11.1c0.4,0,0.4,0.4,0.4,0.9c-0.9,1.3-2.6,1.7-3,3c0,0.4,0,0.9,0.4,0.9c5.1-1.7,9-5.5,13.7-7.3
		c3.4-0.9,6-3,9-3.8c2.1-0.4,4.7-1.3,6.8-1.7c0,0.4,0,0.9,0.4,0.9c1.3,0,2.1,0,3.4,0c-0.4,0.9-2.1,0.4-1.7,0.9
		c1.3,1.3,3.8,0.9,5.5,0c1.3-0.9,2.6-0.9,4.3-0.9c0.4,0,0.4-0.9,0.4-1.3c1.3,0.4,2.1,0.4,3.4,0.4c10.2-2.1,20.1-4.3,29.4-9
		c-11.1-8.5-25.2-11.5-38.4-15.4c1.3,0,2.6,1.3,3.8,0c-2.1-1.7-4.7-0.9-6.8-2.1c0.4,0,1.3,0.4,1.7-0.4c-3.4-1.7-6.8-1.7-10.2-2.6
		c2.1-0.4,3.4-2.1,3.4-4.3c0-0.4-0.9-0.4-1.3-0.4c-5.1,2.6-8.5,7.3-10.7,12.8c3,1.7,6.4,0.4,9.4,0.9
		C366.7,234.6,364.6,234.6,362.9,235"/>
	<path style="fill:#FFFFFF;" d="M345.4,218.4c-4.4,4.6-9,9-14.5,11.9c-3.8,7.7-8.1,14.5-13.7,21.8c0,0.4,0.4,0.9,0.4,0.9
		c10.2-11.5,19.6-21.3,32.9-29.4c0.9-0.4-1.3,1.3,0.4,0.9c5.5-1.3,7.3-6.8,9.8-11.1c3.4-5.5,9.4-7.7,13.7-12.4c0,0.4,0,0.9-0.4,1.3
		c0.4,0.4,0.9,0.4,1.3,0.4c1.7-1.3,3.8-0.9,5.1-2.6c-3.4-1.3-7.7-1.7-11.1-0.4C360.3,203.8,352.7,210.7,345.4,218.4"/>
	<path style="fill:#FFFFFF;" d="M351.8,226.5c0.4-0.8,0.9-0.9,1.3-1.7c0-0.4,0-0.9-0.4-0.9c-1.7,0.4-3,2.1-3.4,3.8
		c0,0.4,0.4,0.4,0.9,0.4C350.9,227.7,351.4,227.3,351.8,226.5"/>
	<g>
		<g>
			<defs>
				<rect id="SVGID_3_" x="220.1" y="98" width="558.8" height="187.5"/>
			</defs>
			<clipPath id="SVGID_4_">
				<use xlink:href="#SVGID_3_"  style="overflow:visible;"/>
			</clipPath>
			<path style="clip-path:url(#SVGID_4_);fill:#FFFFFF;" d="M385.9,258.9c-1.7,0.9-4.7,0.9-5.1,3c-0.4,0.9,1.3,0.4,2.1,0.4
				c3-1.3,6.4,0,9-2.6c-0.9-0.9-2.1-0.4-3-1.7C388.1,257.6,386.8,258.5,385.9,258.9"/>
		</g>
	</g>
	<g>
		<g>
			<path style="fill:#182286;" d="M386.4,285.4c-0.4,0-1.7,0.4-1.7-0.4c0.4-0.9,1.7-1.3,2.6-2.1c0.4,0,0.9,0,0.9,0.4
				c13.7-10.7,32.4-8.1,48.2-13.7c1.3-0.9,2.6-1.7,3.8-2.6c2.1-0.9,3.8-3,6.4-4.3c3.4-2.6,6-5.6,7.3-9.8c0-0.4-0.4-0.9-0.4-0.9
				c-5.5,6-11.9,10.7-18.8,14.1c-9,4.7-18.8,3.8-28.2,5.1c0.4-0.9,1.3-0.9,2.1-0.9c0-1.3,0.9-1.7,1.7-2.6c0.4,0,0.9,0,1.3,0
				s0.4-0.9,0.9-0.9c0.9,0,2.1-0.4,1.7-0.4c-1.3-1.7-3.8,1.3-6,0c0.9-0.9,0.4-2.1,1.3-2.6c0.4,0,1.3,0,1.7,0c0-0.9,0.9-1.7,0.9-1.7
				c6.4-3.8,12.4-6.8,18.4-10.2c-1.3,0-2.1,1.3-3.4,0.4c0.9,0,0-1.3,0.9-1.3c4.7-1.3,8.5-3.8,13.2-5.5c-1.7,0-3,1.3-4.7,0
				c0.9-0.4,1.3-1.3,2.6-1.3c0-0.4,0-0.9,0-1.3c0-0.4,0.4-0.4,0.9-0.4c-0.4,0-0.9-0.4-0.9-0.4c0.4-0.9,1.7-0.4,2.6-1.3
				c-0.4,0-1.3,0-1.3-0.4c1.3-1.7,3.4-2.1,5.6-2.6c-0.4-0.9-1.7,0-1.7-0.9c0-0.4,0.4-0.4,0.9-0.4c-0.4,0-0.4,0-0.9,0
				c-0.9-0.4-0.4-1.3-0.4-1.7c2.6-3,2.6-6.8,3.8-10.2c-0.4,0-0.9,0-0.9-0.4c-4.3,4.7-11.1,6.4-17.5,8.1c-0.4,0-1.7,0-2.1,0
				c-2.1,0.9-5.1,0.9-7.3-0.4c-1.7-0.9-2.6-2.1-4.3-3.4c-3.4-2.1-6.8-3.8-10.7-5.1c-10.7-3.4-21.8-5.1-32.9-4.7
				c4.7-2.6,9.9-2.8,14.9-4.3c7.3-2.1,14.1-4.7,21.8-4.3c-1.3-0.4-3,0-4.3,0c-6-0.4-11.9,1.3-18.4,2.6c-4.3,0.9-8.1,2.6-12.4,3.4
				c-2.6,0.9-3.8,3.4-6.8,3c0,0,0-0.9,0-1.3c4.3-5.1,9.4-10.2,16.2-10.7c7.7-1.3,14.9,0,22.6,0.9c5.5,0.4,10.7,1.7,16.2,3
				c2.1,0,2.6,3.4,4.3,3.8c2.6,0.9,5.1,0,7.7,1.7c0-0.9-0.4-1.7,0-2.6c1.7-1.7,3.8,0.4,5.5-0.4c3.4-2.1-3-6-4.7-9
				c0-0.4,0.4-0.9,0.4-0.9c3.4,3,6,6.4,10.2,8.5c2.1,0.9,7.3,2.1,6.4-0.4c-2.1-4.7-6.4-8.5-9.8-12.8c0-0.4,0-1.3,0-1.7
				c-0.9,0-0.9-0.4-1.3-0.9c0-0.4,0-1.3,0-1.7c-1.7-0.9-1.3-2.6-2.1-3.8c-1.3-2.1-0.4-5.1-1.3-7.7c-0.9-2.6-1.3-4.7-1.7-7.3
				c-1.3-7.3-3-13.7-3.8-20.5c-0.9-8.1,4.7-14.5,8.5-21.8c3-5.1,6.4-10.2,12-13.7c1.3-5.1,4.7-9.4,8.1-13.7
				c3.4-4.2,8.5-6.3,13.2-8.5H220.1v187.5h127.7c3.8-5.6,11.7-5,17.7-7.8c2.1-0.9,4.7,0.4,6.8,0c1.3,0,2.6,0,3.8,0.9
				c-4,2.2-7.8,4.7-11.4,7h22.5c2.4-1.2,4.9-2.8,7.3-4C391.5,282.4,388.9,283.7,386.4,285.4z"/>
			<path style="fill:#FB0F0C;" d="M778.8,98H578.4c3.1,1.6,6.2,3.7,8.1,6.8c0.9,1.3,2.1,3.8,1.3,5.6c-0.9,2.1-1.3,5.5-3.4,6.4
				c-2.6,1.3-6,1.3-9,0.9c-1.7,0-3.4-0.4-5.1-0.9c6.4,2.6,12.4,5.5,16.6,11.5c0.4,0.9,2.1,1.3,3.8,1.3c0.4,0,0.4,0.9,0.4,1.3
				c-0.9,0.9-1.7,1.3-1.3,2.6c0.4,0,0.9,0,1.3,0c2.1-0.9,1.7-5.1,4.7-3.8c2.1,1.3,3,4.3,1.7,6.4c-1.7,1.7-3.4,3-5.1,4.3
				c-0.4,0.9-0.4,2.1,0,3c1.3,1.7,1.7,3.4,2.1,5.1c1.3,3,1.7,6.4,3,9.4c1.7,6.4,3.4,12.8,3,19.2c0,3.4-1.7,6.4-0.4,9.8
				c0.9,3.4,3,6,4.7,9c1.7,2.6,3.4,4.3,4.7,6.8c2.6,4.3,7.3,8.5,5.1,13.7c-1.3,3-6,2.6-9,4.3c-2.6,2.1-0.4,5.5,0.9,7.7
				c2.1,3.8-2.6,6.4-5.5,7.7c0.9,1.3,2.6,0.9,3,1.7c0.4,2.1,2.6,3.4,1.3,5.5c-1.7,2.6-6.8,3.8-4.3,7.7c1.7,3,0.6,6.3-0.4,9.4
				c-1.3,3.8-4.7,5.6-7.7,6.4c-2.6,0.9-5.6,0.9-8.1,0.4c-0.9-0.4-1.7-0.9-2.6-0.9c-7.3-0.9-14.5-3-21.8-3c-2.1,0.4-4.3,0.9-6,1.7
				c-7.2,5.2-11.8,12.7-14.4,20.7h238.8V98z"/>
			<path style="fill:#182286;" d="M474.7,264c-0.2,0.1-0.4,0.3-0.6,0.4C474.5,264.4,474.7,264.3,474.7,264z"/>
			<path style="fill:#182286;" d="M474.7,267c0.4-0.4,0.4-1.3,0.9-1.7c-2.1,0.9-3.4,2.6-5.5,3.4c-0.4,0-0.9-0.4-0.4-0.9
				c1.5-1.1,3-2.3,4.6-3.4c-0.1,0-0.2,0-0.3,0c-0.4,0-0.4-0.4-0.4-0.9c-5.5-0.9-9.8,3-13.7,6.4c-0.9,0.4-1.7-0.4-2.1-0.4
				c-6.4,2.1-11.1,7.7-17.5,10.2c0-0.4,0-0.4,0-0.9c-2.6,0.9-5,2.4-7.7,3c-3.8,0.9-7.3,0.4-10.7,0.4c-5.8,0.6-11.6,1.9-17.4,3.2
				h51.2C461.5,278.8,467.2,272.6,474.7,267z"/>
		</g>
		<path style="fill:#808080;" d="M584.4,176.1c-2.5-0.6-4.7,0-7.3,0c-3.4,0.9-6.4,1.3-9.4,2.6c2.6-1.7,5.1-3.4,8.1-4.3
			c2.1-0.4,4.3-1.7,6.4-1.7c2.6-0.4,5.1-1.3,7.3-0.4c2.1,0.9,5.6,0.9,6,2.1c0.9,2.6-1.3,5.1-3.8,6.8c-0.4,0.9,1.3,1.3,1.3,2.1
			c-0.4,0.9-1.7,1.3-2.6,1.3c-0.9,0.4-1.7,1.7-2.6,2.6c0.9,0,0,1.3,0.9,1.3c-1.7,2.1,0.9,6.4-1.7,7.3c-3,0.9-6.4,0.9-9.8,0
			c1.7-0.4,3.8,0.4,5.1-1.3c0-0.4,0-1.3,0-1.7s-0.4-0.4-0.9-0.4c-0.4,0.4-0.9,0.4-0.9,0.4c0-0.9-0.8-1.7-1.3-1.7
			c-2.6,0.4-4.7-0.9-6.4-2.6c1.3-0.4,2.6-0.9,3.8-0.4c1.3,0,0.9-2.1,2.1-3c0.4,0,0.9,0,1.3,0c2.6-3.4,7.7-4.3,8.5-7.7
			C588.7,176.5,586.1,176.5,584.4,176.1"/>
	</g>
</g>
</svg>
