<?xml version="1.0" encoding="utf-8"?>
<!-- Generator: Adobe Illustrator 23.0.1, SVG Export Plug-In . SVG Version: 6.00 Build 0)  -->
<svg version="1.1" xmlns="http://www.w3.org/2000/svg" xmlns:xlink="http://www.w3.org/1999/xlink" x="0px" y="0px"
	 viewBox="0 0 22 25" enable-background="new 0 0 22 25" xml:space="preserve">
<g id="Calque_1">
</g>
<g id="HTML">
	<g>
		<polygon fill="#E44D26" points="2,22.5 0,0 22,0 20,22.5 11,25 		"/>
		<polygon fill="#F16529" points="11,23.1 18.3,21.1 20,1.8 11,1.8 		"/>
		<polygon fill="#EBEBEB" points="11,10.2 7.4,10.2 7.1,7.4 11,7.4 11,4.6 11,4.6 4.1,4.6 4.2,5.3 4.8,12.9 11,12.9 		"/>
		<polygon fill="#EBEBEB" points="11,17.4 11,17.4 7.9,16.5 7.7,14.3 6.2,14.3 5,14.3 5.4,18.7 11,20.2 11,20.2 		"/>
		<polygon fill="#FFFFFF" points="11,10.2 11,12.9 14.4,12.9 14.1,16.5 11,17.4 11,20.2 16.7,18.7 16.7,18.2 17.4,10.9 17.4,10.2 
			16.7,10.2 		"/>
		<polygon fill="#FFFFFF" points="11,4.6 11,6.3 11,7.4 11,7.4 17.7,7.4 17.7,7.4 17.7,7.4 17.7,6.7 17.9,5.3 17.9,4.6 		"/>
	</g>
</g>
</svg>
