<?xml version="1.0" encoding="utf-8"?>
<!-- Generator: Adobe Illustrator 23.0.1, SVG Export Plug-In . SVG Version: 6.00 Build 0)  -->
<svg version="1.1" xmlns="http://www.w3.org/2000/svg" xmlns:xlink="http://www.w3.org/1999/xlink" x="0px" y="0px"
	 viewBox="0 0 24 24" enable-background="new 0 0 24 24" xml:space="preserve">
<g id="Calque_1">
</g>
<g id="Javascript">
	<rect fill="#F7DF1E" width="24" height="24"/>
	<path d="M16.1,18.8c0.5,0.8,1.1,1.4,2.2,1.4c0.9,0,1.5-0.5,1.5-1.1c0-0.8-0.6-1-1.6-1.5l-0.6-0.2C16,16.6,15,15.7,15,13.9
		c0-1.7,1.3-3,3.3-3c1.4,0,2.5,0.5,3.2,1.8l-1.8,1.1c-0.4-0.7-0.8-1-1.5-1c-0.7,0-1.1,0.4-1.1,1c0,0.7,0.4,1,1.4,1.4l0.6,0.2
		c1.9,0.8,3,1.7,3,3.5c0,2-1.6,3.1-3.7,3.1c-2.1,0-3.4-1-4.1-2.3L16.1,18.8z M8.2,18.9c0.4,0.6,0.7,1.2,1.5,1.2
		c0.7,0,1.2-0.3,1.2-1.4V11h2.3v7.7c0,2.3-1.4,3.4-3.4,3.4c-1.8,0-2.9-0.9-3.4-2.1L8.2,18.9z"/>
</g>
</svg>
