<?xml version="1.0" encoding="utf-8"?>
<!-- Generator: Adobe Illustrator 23.0.1, SVG Export Plug-In . SVG Version: 6.00 Build 0)  -->
<svg version="1.1" xmlns="http://www.w3.org/2000/svg" xmlns:xlink="http://www.w3.org/1999/xlink" x="0px" y="0px"
	 viewBox="0 0 48 47.8" enable-background="new 0 0 48 47.8" xml:space="preserve">
<g id="Calque_1">
</g>
<g id="Mode_Isolation">
	<g>
		<path fill="#CC0000" d="M25.9,32.2l3.4,1.6l-0.3-2.4l-3.1-1.7L25.9,32.2z M0,40.4l4.4,0.5l1-4.1L1.2,36L0,40.4z M15.8,11.8
			l-2.9-2.1l-2,2.7l3.2,2L15.8,11.8z M24.7,4.6l-1.9-2.4l-2.6,1.5L22.4,6L24.7,4.6z M34.3,2.9l-0.6-2l-3.2-0.3l0.9,2.2L34.3,2.9z
			 M45,5.3l-2.7-1.9v1.2l2.6,1.6L45,5.3z M9.1,23l-3.6-1.6L4.3,25L8,26.4L9.1,23z M27.2,21.4l-0.6,2.2l2.3,2.1l0.6-2.1L27.2,21.4z
			 M42.1,11.4l1.9,0.1l0-0.9l-2-0.4L42.1,11.4z M34.1,3.9C24.7,3.4,8,12.3,5.6,47.8h22.9c-5.1-13.3-4.5-23.3-1-30.1
			c5.1-9.9,12.8-10.5,19.9-6.4c0.3-0.6,0.6-1.4,0.6-1.4C43.9,6,40.1,4.2,34.1,3.9z M34.7,11.3l0.9,2l1.6-0.9l-0.6-1.9L34.7,11.3z
			 M29.6,15.9l1.7,2.4l1.1-1.6l-1.5-2.4L29.6,15.9z M32.2,43.6L31.1,41l-4-0.7l1,3L32.2,43.6z"/>
	</g>
</g>
</svg>
