<?xml version="1.0" encoding="utf-8"?>
<!-- Generator: Adobe Illustrator 23.0.1, SVG Export Plug-In . SVG Version: 6.00 Build 0)  -->
<svg version="1.1" xmlns="http://www.w3.org/2000/svg" xmlns:xlink="http://www.w3.org/1999/xlink" x="0px" y="0px"
	 viewBox="0 0 24.1 24" enable-background="new 0 0 24.1 24" xml:space="preserve">
<g id="Calque_1">
</g>
<g id="Layer_1">
	
		<linearGradient id="polygon3282_1_" gradientUnits="userSpaceOnUse" x1="21.1446" y1="427.9703" x2="16.0675" y2="436.9342" gradientTransform="matrix(1 0 0 -1 0 454.153)">
		<stop  offset="0" style="stop-color:#FB7655"/>
		<stop  offset="0" style="stop-color:#FB7655"/>
		<stop  offset="0.41" style="stop-color:#E42B1E"/>
		<stop  offset="0.99" style="stop-color:#990000"/>
		<stop  offset="1" style="stop-color:#990000"/>
	</linearGradient>
	<polygon id="polygon3282" fill-rule="evenodd" clip-rule="evenodd" fill="url(#polygon3282_1_)" points="18.6,15.8 4.9,24 
		22.7,22.8 24.1,4.9 	"/>
	
		<linearGradient id="polygon3293_1_" gradientUnits="userSpaceOnUse" x1="23.6739" y1="435.5004" x2="17.1306" y2="439.8913" gradientTransform="matrix(1 0 0 -1 0 454.153)">
		<stop  offset="0" style="stop-color:#871101"/>
		<stop  offset="0" style="stop-color:#871101"/>
		<stop  offset="0.99" style="stop-color:#911209"/>
		<stop  offset="1" style="stop-color:#911209"/>
	</linearGradient>
	<polygon id="polygon3293" fill-rule="evenodd" clip-rule="evenodd" fill="url(#polygon3293_1_)" points="22.7,22.8 21.2,12.2 
		17,17.7 	"/>
	
		<linearGradient id="polygon3304_1_" gradientUnits="userSpaceOnUse" x1="18.4386" y1="427.6987" x2="11.8955" y2="432.0894" gradientTransform="matrix(1 0 0 -1 0 454.153)">
		<stop  offset="0" style="stop-color:#871101"/>
		<stop  offset="0" style="stop-color:#871101"/>
		<stop  offset="0.99" style="stop-color:#911209"/>
		<stop  offset="1" style="stop-color:#911209"/>
	</linearGradient>
	<polygon id="polygon3304" fill-rule="evenodd" clip-rule="evenodd" fill="url(#polygon3304_1_)" points="22.7,22.8 11.5,21.9 5,24 
			"/>
	
		<linearGradient id="polygon3319_1_" gradientUnits="userSpaceOnUse" x1="4.7004" y1="438.6789" x2="5.7148" y2="432.0866" gradientTransform="matrix(1 0 0 -1 0 454.153)">
		<stop  offset="0" style="stop-color:#FFFFFF"/>
		<stop  offset="0" style="stop-color:#FFFFFF"/>
		<stop  offset="0.23" style="stop-color:#E57252"/>
		<stop  offset="0.46" style="stop-color:#DE3B20"/>
		<stop  offset="0.99" style="stop-color:#A60003"/>
		<stop  offset="1" style="stop-color:#A60003"/>
	</linearGradient>
	<polygon id="polygon3319" fill-rule="evenodd" clip-rule="evenodd" fill="url(#polygon3319_1_)" points="5,24 7.8,14.8 1.6,16.1 	
		"/>
	
		<linearGradient id="polygon3334_1_" gradientUnits="userSpaceOnUse" x1="11.6773" y1="444.8344" x2="12.051" y2="438.1066" gradientTransform="matrix(1 0 0 -1 0 454.153)">
		<stop  offset="0" style="stop-color:#FFFFFF"/>
		<stop  offset="0" style="stop-color:#FFFFFF"/>
		<stop  offset="0.23" style="stop-color:#E4714E"/>
		<stop  offset="0.56" style="stop-color:#BE1A0D"/>
		<stop  offset="0.99" style="stop-color:#A80D00"/>
		<stop  offset="1" style="stop-color:#A80D00"/>
	</linearGradient>
	<polygon id="polygon3334" fill-rule="evenodd" clip-rule="evenodd" fill="url(#polygon3334_1_)" points="17,17.8 14.5,7.7 
		7.1,14.6 	"/>
	
		<linearGradient id="polygon3349_1_" gradientUnits="userSpaceOnUse" x1="17.8686" y1="451.053" x2="18.9875" y2="446.2312" gradientTransform="matrix(1 0 0 -1 0 454.153)">
		<stop  offset="0" style="stop-color:#FFFFFF"/>
		<stop  offset="0" style="stop-color:#FFFFFF"/>
		<stop  offset="0.18" style="stop-color:#E46342"/>
		<stop  offset="0.4" style="stop-color:#C82410"/>
		<stop  offset="0.99" style="stop-color:#A80D00"/>
		<stop  offset="1" style="stop-color:#A80D00"/>
	</linearGradient>
	<polygon id="polygon3349" fill-rule="evenodd" clip-rule="evenodd" fill="url(#polygon3349_1_)" points="23.5,7.8 16.5,2.1 
		14.6,8.4 	"/>
	
		<linearGradient id="polygon3362_1_" gradientUnits="userSpaceOnUse" x1="14.452" y1="452.751" x2="19.2735" y2="455.1617" gradientTransform="matrix(1 0 0 -1 0 454.153)">
		<stop  offset="0" style="stop-color:#FFFFFF"/>
		<stop  offset="0" style="stop-color:#FFFFFF"/>
		<stop  offset="0.54" style="stop-color:#C81F11"/>
		<stop  offset="0.99" style="stop-color:#BF0905"/>
		<stop  offset="1" style="stop-color:#BF0905"/>
	</linearGradient>
	<polygon id="polygon3362" fill-rule="evenodd" clip-rule="evenodd" fill="url(#polygon3362_1_)" points="20.2,0.1 16.1,2.4 
		13.5,0.1 	"/>
	
		<linearGradient id="polygon3375_1_" gradientUnits="userSpaceOnUse" x1="0.4742" y1="440.3595" x2="0.871" y2="436.3865" gradientTransform="matrix(1 0 0 -1 0 454.153)">
		<stop  offset="0" style="stop-color:#FFFFFF"/>
		<stop  offset="0" style="stop-color:#FFFFFF"/>
		<stop  offset="0.31" style="stop-color:#DE4024"/>
		<stop  offset="0.99" style="stop-color:#BF190B"/>
		<stop  offset="1" style="stop-color:#BF190B"/>
	</linearGradient>
	<polygon id="polygon3375" fill-rule="evenodd" clip-rule="evenodd" fill="url(#polygon3375_1_)" points="0,19.2 1.7,16.1 0.3,12.3 
			"/>
	<path id="path3377" fill-rule="evenodd" clip-rule="evenodd" fill="#FFFFFF" d="M0.2,12.2l1.4,4l6.1-1.4l6.9-6.4l2-6.2L13.5,0
		L8.3,2c-1.6,1.5-4.9,4.6-5,4.6C3.2,6.6,1.2,10.4,0.2,12.2z"/>
	
		<linearGradient id="path3400_1_" gradientUnits="userSpaceOnUse" x1="-2.254" y1="435.3125" x2="16.4002" y2="454.4943" gradientTransform="matrix(1 0 0 -1 0 454.153)">
		<stop  offset="0" style="stop-color:#BD0012"/>
		<stop  offset="0" style="stop-color:#BD0012"/>
		<stop  offset="7.000000e-02" style="stop-color:#FFFFFF"/>
		<stop  offset="0.17" style="stop-color:#FFFFFF"/>
		<stop  offset="0.27" style="stop-color:#C82F1C"/>
		<stop  offset="0.33" style="stop-color:#820C01"/>
		<stop  offset="0.46" style="stop-color:#A31601"/>
		<stop  offset="0.72" style="stop-color:#B31301"/>
		<stop  offset="0.99" style="stop-color:#E82609"/>
		<stop  offset="1" style="stop-color:#E82609"/>
	</linearGradient>
	<path id="path3400" fill-rule="evenodd" clip-rule="evenodd" fill="url(#path3400_1_)" d="M5.1,5.1c3.6-3.5,8.2-5.6,10-3.9
		c1.8,1.8-0.1,6.1-3.7,9.7s-8.1,5.8-9.9,4C-0.3,13.1,1.6,8.7,5.1,5.1z"/>
	
		<linearGradient id="path3413_1_" gradientUnits="userSpaceOnUse" x1="12.0346" y1="433.3777" x2="6.4158" y2="434.7645" gradientTransform="matrix(1 0 0 -1 0 454.153)">
		<stop  offset="0" style="stop-color:#8C0C01"/>
		<stop  offset="0" style="stop-color:#8C0C01"/>
		<stop  offset="0.54" style="stop-color:#990C00"/>
		<stop  offset="0.99" style="stop-color:#A80D0E"/>
		<stop  offset="1" style="stop-color:#A80D0E"/>
	</linearGradient>
	<path id="path3413" fill-rule="evenodd" clip-rule="evenodd" fill="url(#path3413_1_)" d="M5,24l2.8-9.2l9.2,3
		C13.6,20.9,9.9,23.5,5,24z"/>
	
		<linearGradient id="path3424_1_" gradientUnits="userSpaceOnUse" x1="21.6855" y1="440.1215" x2="16.6939" y2="444.5952" gradientTransform="matrix(1 0 0 -1 0 454.153)">
		<stop  offset="0" style="stop-color:#7E110B"/>
		<stop  offset="0" style="stop-color:#7E110B"/>
		<stop  offset="0.99" style="stop-color:#9E0C00"/>
		<stop  offset="1" style="stop-color:#9E0C00"/>
	</linearGradient>
	<path id="path3424" fill-rule="evenodd" clip-rule="evenodd" fill="url(#path3424_1_)" d="M14.6,8.4l2.4,9.4
		c2.8-2.9,5.3-6.1,6.5-10L14.6,8.4z"/>
	
		<linearGradient id="path3435_1_" gradientUnits="userSpaceOnUse" x1="23.5193" y1="448.33" x2="21.0329" y2="450.9882" gradientTransform="matrix(1 0 0 -1 0 454.153)">
		<stop  offset="0" style="stop-color:#79130D"/>
		<stop  offset="0" style="stop-color:#79130D"/>
		<stop  offset="0.99" style="stop-color:#9E120B"/>
		<stop  offset="1" style="stop-color:#9E120B"/>
	</linearGradient>
	<path id="path3435" fill-rule="evenodd" clip-rule="evenodd" fill="url(#path3435_1_)" d="M23.5,7.8c0.9-2.9,1.2-7-3.3-7.7l-3.7,2
		L23.5,7.8z"/>
	<path id="path3437" fill-rule="evenodd" clip-rule="evenodd" fill="#9E1209" d="M0,19.2C0.1,23.9,3.5,24,5,24l-3.4-7.8L0,19.2z"/>
	
		<radialGradient id="path3448_1_" cx="17.4712" cy="444.5097" r="6.1169" gradientTransform="matrix(1 0 0 -1 0 454.153)" gradientUnits="userSpaceOnUse">
		<stop  offset="0" style="stop-color:#A80D00"/>
		<stop  offset="0" style="stop-color:#A80D00"/>
		<stop  offset="0.99" style="stop-color:#7E0E08"/>
		<stop  offset="1" style="stop-color:#7E0E08"/>
	</radialGradient>
	<path id="path3448" fill-rule="evenodd" clip-rule="evenodd" fill="url(#path3448_1_)" d="M14.7,8.4c2.1,1.3,6.5,4,6.5,4
		c0.1,0.1,1.9-2.9,2.3-4.6L14.7,8.4z"/>
	
		<radialGradient id="path3459_1_" cx="9" cy="436.4486" r="8.1316" gradientTransform="matrix(1 0 0 -1 0 454.153)" gradientUnits="userSpaceOnUse">
		<stop  offset="0" style="stop-color:#A30C00"/>
		<stop  offset="0" style="stop-color:#A30C00"/>
		<stop  offset="0.99" style="stop-color:#800E08"/>
		<stop  offset="1" style="stop-color:#800E08"/>
	</radialGradient>
	<path id="path3459" fill-rule="evenodd" clip-rule="evenodd" fill="url(#path3459_1_)" d="M7.8,14.8l3.7,7.2
		c2.2-1.2,3.9-2.6,5.5-4.2L7.8,14.8z"/>
	
		<linearGradient id="path3472_1_" gradientUnits="userSpaceOnUse" x1="3.2396" y1="430.1826" x2="1.2134" y2="437.0571" gradientTransform="matrix(1 0 0 -1 0 454.153)">
		<stop  offset="0" style="stop-color:#8B2114"/>
		<stop  offset="0" style="stop-color:#8B2114"/>
		<stop  offset="0.43" style="stop-color:#9E100A"/>
		<stop  offset="0.99" style="stop-color:#B3100C"/>
		<stop  offset="1" style="stop-color:#B3100C"/>
	</linearGradient>
	<path id="path3472" fill-rule="evenodd" clip-rule="evenodd" fill="url(#path3472_1_)" d="M1.6,16.2l-0.5,6.3
		c1,1.4,2.4,1.5,3.8,1.4C3.8,21.2,1.8,16.1,1.6,16.2z"/>
	
		<linearGradient id="path3485_1_" gradientUnits="userSpaceOnUse" x1="18.7842" y1="452.9629" x2="23.3269" y2="450.9576" gradientTransform="matrix(1 0 0 -1 0 454.153)">
		<stop  offset="0" style="stop-color:#B31000"/>
		<stop  offset="0" style="stop-color:#B31000"/>
		<stop  offset="0.44" style="stop-color:#910F08"/>
		<stop  offset="0.99" style="stop-color:#791C12"/>
		<stop  offset="1" style="stop-color:#791C12"/>
	</linearGradient>
	<path id="path3485" fill-rule="evenodd" clip-rule="evenodd" fill="url(#path3485_1_)" d="M16.5,2.1l7.4,1
		c-0.4-1.7-1.6-2.7-3.7-3.1L16.5,2.1z"/>
</g>
</svg>
