<?xml version="1.0" encoding="utf-8"?>
<!-- Generator: Adobe Illustrator 23.0.1, SVG Export Plug-In . SVG Version: 6.00 Build 0)  -->
<svg version="1.1" id="DDB" xmlns="http://www.w3.org/2000/svg" xmlns:xlink="http://www.w3.org/1999/xlink" x="0px" y="0px"
	 viewBox="0 0 1000 700" enable-background="new 0 0 1000 700" xml:space="preserve">
<g>
	<path fill="#0E0C15" d="M940.8,251.6c-1.8,5.4-3.4,10.9-6.3,15.9c-12.1,21.1-37.5,31.7-60.8,25.3c-24.2-6.7-40.5-28.5-39.9-53.3
		c0.7-27.5,21.1-49.4,48.8-52.4c26-2.9,50.6,14.6,57.4,40.7c0.1,0.6,0,1.4,0.8,1.8C940.8,236.9,940.8,244.2,940.8,251.6z"/>
	<path fill="#0E0C15" d="M307.2,304.2c-12.8-36.5-37.1-61.8-74-74.4c-16.7-5.7-34-7.6-51.4-7.6c-39.5,0-79.1,0-118.7,0
		c-1.3,0-2.5-0.1-3.8-0.2c0,97.1,0,194.2,0.1,291.3c1.2-0.1,2.5-0.1,3.8-0.1c40.2,0,80.5,0,120.8,0c11.5,0,22.9-1,34.2-3.4
		c38.2-8.1,65.8-29.8,82.8-64.9c8.5-17.8,13.1-36.8,14.9-56.5C318.3,359.8,316.7,331.5,307.2,304.2z M248.6,406.6
		c-8.7,33.4-33.6,52.5-68.2,52.8c-18,0.1-36-0.1-54.1,0.1c-2.6,0-3.2-0.7-3.2-3.2c0.1-29.5,0.1-59.2,0.1-88.8
		c0-29.3,0.1-58.5-0.1-87.8c0-2.7,0.4-3.7,3.4-3.7c17.4,0.3,34.6-0.5,52,0.5c17.5,1,34,5.2,47.7,16.9c11.6,9.8,18.3,22.8,21.8,37.3
		C254.2,355.9,255.1,381.3,248.6,406.6z"/>
	<path fill="#F6C307" d="M893.3,211.6c13.3,1.3,24.3,14.7,24.2,29.3c-0.1,15.9-11.6,28.4-28.3,29.6c-13.5,1-27.3-7.8-30.9-23.9
		c-3.5-16.2,8.4-33.5,23.8-35.1C885.8,211.1,889.6,211.1,893.3,211.6z"/>
	<path fill="#F1C625" d="M893.3,211.6c-3.7,0-7.4,0-11.2,0C885.8,210.5,889.6,210.5,893.3,211.6z"/>
	<path fill="#0E0C15" d="M843,425.1c-0.9-34.8-19.4-59.5-53.1-70c1.6-0.9,2.5-1.4,3.6-2c14.3-7.7,25.4-18.3,31.4-33.7
		c4.6-12.1,5.2-24.6,3.7-37.3c-2.9-24.5-15.3-41.9-38.4-51.3c-16.3-6.6-33.5-8.4-50.9-8.5c-45.3-0.1-90.6-0.1-136-0.2
		c-3.2,0-4,0.8-4,3.9c0.1,94.4,0.1,188.9,0,283.3c0,3,0.7,3.8,3.8,3.8c45.7-0.1,91.5,0,137.3-0.1c14.3-0.1,28.3-1.8,42-6.1
		c16.5-5.2,31.2-13.2,42.6-26.4C838.8,464.7,843.6,445.8,843,425.1z M663.3,274.8c0-2.1,0.4-3,2.8-3c21.6,0.1,43.2,0.1,64.7,0.3
		c6.1,0.1,12.1,1.3,17.8,3.5c11.5,4.4,17.4,13,18.5,25c0.5,5,0.3,9.8-0.9,14.7c-3.5,14.1-13.4,20.9-26.9,23.6
		c-3.7,0.8-7.5,0.9-11.3,0.9c-9.4-0.1-18.7-0.1-28-0.1c-11.2,0-22.5-0.1-33.7,0.1c-2.4,0-3-0.7-3-3.1
		C663.4,316.2,663.4,295.5,663.3,274.8z M778,436.1c-3.2,13.6-12.2,21.3-25.3,24.9c-6.9,1.9-14,2.4-21.1,2.5c-9.2,0-18.5,0-27.8,0
		c-12.4,0-24.8-0.1-37.2,0.1c-2.5,0-3.3-0.5-3.3-3.2c0.1-24.6,0.1-49.1,0-73.7c0-2.1,0.3-3,2.8-3c23.9,0.1,47.7,0.1,71.6,0.2
		c7,0.1,13.7,1.4,20,4.2c13.5,5.9,19.8,16.8,21.1,30.9C779.4,424.6,779.3,430.4,778,436.1z"/>
	<path fill="#0E0C15" d="M579.1,309.8c-7.9-27.8-23.6-50.6-48-66.6c-21.4-14-45.2-20.4-70.6-20.7c-42.8-0.5-85.6-0.2-128.4-0.4
		c-3.2-0.1-2.8,1.7-2.8,3.7c0,47.3,0,94.6,0,141.9s0.1,94.6,0,141.8c0,3.1,0.8,3.7,3.8,3.7c40.5-0.1,81.1,0,121.6-0.1
		c20.5,0,40.4-3.2,59.2-11.6c29.3-13.1,49.2-35.2,60.5-64.8C590.3,395,591.2,352.5,579.1,309.8z M518.6,407.2
		c-5.4,20.7-17.1,36.8-37.2,45.9c-9.8,4.4-20.1,6.2-30.8,6.2c-18,0.1-36,0-54.1,0.1c-2.5,0-3.2-0.6-3.2-3.2c0-29.3,0-58.9,0-88.4
		c0-29.4,0.1-58.7-0.1-88.2c0-2.8,0.5-3.7,3.5-3.7c17.4,0.3,34.6-0.4,52,0.4c15.1,0.8,29.5,4.2,42.2,12.7
		c14.6,9.8,22.9,24.1,27.1,40.8C524.4,355.6,525.3,381.5,518.6,407.2z"/>
</g>
</svg>
