<?xml version="1.0" encoding="utf-8"?>
<!-- Generator: Adobe Illustrator 23.0.1, SVG Export Plug-In . SVG Version: 6.00 Build 0)  -->
<svg version="1.1" id="Calque_3" xmlns="http://www.w3.org/2000/svg" xmlns:xlink="http://www.w3.org/1999/xlink" x="0px" y="0px"
	 viewBox="0 0 1000 700" enable-background="new 0 0 1000 700" xml:space="preserve">
<polygon fill="#C00020" points="482.7,414.5 490.9,414.5 490.9,410.3 482.7,410.3 482.7,405.5 493.9,405.5 493.9,401.1 477.9,401.1 
	477.9,424.9 494.3,424.9 494.3,420.5 482.7,420.5 "/>
<path fill="#C00020" d="M508.5,411.2l-2.7-1.2c-1-0.5-1.7-0.9-2.1-1.2s-0.6-0.9-0.6-1.5c0-0.7,0.3-1.3,0.8-1.7
	c0.6-0.4,1.3-0.6,2.1-0.6c1.8,0,3.3,0.9,4.5,2.7l3.3-2.6c-0.7-1.4-1.8-2.5-3.1-3.3c-1.3-0.8-2.9-1.2-4.7-1.2c-2.3,0-4.2,0.6-5.7,1.9
	c-1.5,1.2-2.2,2.9-2.2,4.9c0,1.6,0.5,2.9,1.5,4s2.4,2,4.3,2.9l2.6,1.2c0.8,0.4,1.3,0.6,1.7,0.8c0.3,0.2,0.7,0.5,0.9,0.8
	c0.3,0.4,0.4,0.8,0.4,1.3c0,0.8-0.3,1.5-0.9,1.9c-0.6,0.5-1.4,0.7-2.5,0.7c-2.2,0-4.2-1.2-5.8-3.5l-3.4,2.5c0.9,1.6,2.2,2.9,3.8,3.8
	c1.6,1,3.4,1.4,5.4,1.4c2.4,0,4.4-0.6,6-1.9c1.6-1.3,2.3-3,2.3-5.2c0-1.6-0.5-3-1.4-4C512,413.1,510.5,412.1,508.5,411.2z"/>
<path fill="#C00020" d="M530.1,405.2c2.9,0,5.1,1.3,6.8,4l3.7-2.6c-1.1-1.9-2.5-3.3-4.3-4.3c-1.8-1-3.9-1.6-6.2-1.6
	c-3.6,0-6.6,1.2-9,3.6c-2.5,2.4-3.7,5.3-3.7,8.8c0,3.5,1.2,6.4,3.7,8.8c2.4,2.4,5.4,3.6,9,3.6c2.3,0,4.4-0.5,6.2-1.6
	s3.3-2.5,4.3-4.3l-3.7-2.6c-1.7,2.7-4,4-6.8,4c-2.2,0-4.1-0.7-5.5-2.2c-1.4-1.5-2.2-3.3-2.2-5.6c0-2.3,0.7-4.2,2.2-5.7
	C526,405.9,527.8,405.2,530.1,405.2z"/>
<path fill="#C00020" d="M552.7,400.7l-10.6,24.3h5.2l1.3-3.1h9.7l1.3,3.1h5.2l-10.6-24.3H552.7z M550.4,417.8l3.1-8l3.1,8H550.4z"/>
<path fill="#C00020" d="M583.3,403.2c-1.6-1.4-3.7-2.1-6.2-2.1h-9v23.8h4.9v-8.4h4.1c2.5,0,4.6-0.7,6.2-2.1c1.6-1.4,2.4-3.3,2.4-5.6
	C585.7,406.5,584.9,404.6,583.3,403.2z M579.8,411.3c-0.6,0.6-1.5,1-2.7,1h-4.1v-6.9h4.1c1.1,0,2,0.3,2.6,0.9c0.6,0.6,1,1.4,1,2.5
	C580.8,409.8,580.4,410.7,579.8,411.3z"/>
<path fill="#C00020" d="M595.1,400.7l-10.6,24.3h5.2l1.3-3.1h9.7l1.3,3.1h5.2l-10.6-24.3H595.1z M592.8,417.8l3.1-8l3.1,8H592.8z"/>
<path fill="#C00020" d="M627.8,404.4c-2.4-2.2-5.5-3.2-9.4-3.2h-7.8v23.8h7.8c3.8,0,6.9-1.1,9.4-3.4c2.4-2.2,3.6-5.1,3.6-8.6
	C631.4,409.4,630.2,406.5,627.8,404.4z M624.2,418.4c-1.5,1.4-3.4,2.1-5.8,2.1h-2.9v-15h2.9c2.4,0,4.4,0.7,5.8,2
	c1.5,1.3,2.2,3.1,2.2,5.4C626.4,415.2,625.7,417.1,624.2,418.4z"/>
<polygon fill="#C00020" points="640.4,414.5 648.6,414.5 648.6,410.3 640.4,410.3 640.4,405.5 651.5,405.5 651.5,401.1 635.5,401.1 
	635.5,424.9 652,424.9 652,420.5 640.4,420.5 "/>
</svg>
