<?xml version="1.0" encoding="utf-8"?>
<!-- Generator: Adobe Illustrator 23.0.1, SVG Export Plug-In . SVG Version: 6.00 Build 0)  -->
<svg version="1.1" id="Calque_2" xmlns="http://www.w3.org/2000/svg" xmlns:xlink="http://www.w3.org/1999/xlink" x="0px" y="0px"
	 viewBox="0 0 1000 700" enable-background="new 0 0 1000 700" xml:space="preserve">
<g>
	<path fill="#221F1C" d="M353.3,384.4c0.8,0,0.8-1.2,0.8-4.2c0.1-3.7,2.1-9.2,3.8-14c4.4-11.3,6.7-20.4,14.5-29.1
		c-3.3-5-9.1-7.8-11.9-8.5c-7.7,3.8-11.4,17.2-12.2,20.5c-3.3,15.4-4.4,21.4-4.4,24.4C343.9,381.1,352,384.4,353.3,384.4z"/>
	<path fill="#221F1C" d="M368.4,317.8c0,1.4,1.8,3.1,3.8,3.5c1.3-2.8,10.6-14.2,14.5-17.8c-2.6-3.8-11.5-9-15.5-9
		c-2.2,5.5-4,13.9-4,16.8c0,1.4,0.6,3.3,1.5,4.2C368.5,316.6,368.4,317.3,368.4,317.8z"/>
	<path fill="#221F1C" d="M376.2,372.8c0.3,0.6,1.3,1.8,2.2,2.4c1.9,1.4,2.7,2.3,3,3.1c0.5,1.5,1.4,2.6,2.2,2.6
		c1.3-12.8,27.5-53.4,34.6-53.6c0.9,0.3,1.7,1.2,1.7,2.1c-3,19.2-18.1,43.1-34,53.8c0,1.7,5.1,3.7,9.1,3.7
		c14.4,0,35.9-31.3,36.4-53.1c-0.8-6-5.8-11.9-11.3-13.3c-7.2,0-22.6,16.4-32.2,34.3c8.7-32.3,22.6-56.5,41.3-71.6
		c-2.1-2.3-9.1-6.7-12.4-7.7c-16.4,7.1-41.1,63.6-41.1,94.2C375.7,371.1,375.8,372,376.2,372.8z"/>
	<path fill="#221F1C" d="M484,325c-8.3,13.7-13.6,25.7-21.7,37.9c-6.4,9.5-11.8,13.9-14.9,14.4c-0.3-0.3-0.9-1-0.9-2.3
		c0-4.5,3.9-16.2,5.4-20c7.7-18.2,14.8-28,16.7-29.6c-3-3-8.9-4-11.7-4c-10.6,7.8-19.8,29.5-23,42.5c-0.9,3.6-1.2,6-1.2,10.9
		c1.4,6,8.7,9.8,14.1,10c8-2.8,17.3-17.3,21.7-24.3c-9.6,37-28.1,60.7-47.6,60.7c-3.8,0-5.1-0.6-9.1-4.2c-1,0.6-1.8,1.7-1.8,2.7
		c2.6,4.7,11.7,8.9,20.1,8.9c8.3,0,16.9-4.5,24.8-12.7c12.4-13,20.1-28.5,27.8-53.5c3.6-11.2,8.3-21.9,13.6-33.1
		C494.9,327.2,488.5,325,484,325z"/>
	<path fill="#221F1C" d="M499.9,385.3c1.2,0.8,3.1,2.8,3.5,3.7c0.5,1.2,2.4,2.2,4.7,2.4c-0.1-0.6-0.1-0.8-0.1-3.7
		c0-10.8,3.8-27.5,11-47.5c8.5-23.5,18.1-40.8,31.4-56.6c-1.4-2.2-10.3-7.3-14.4-8.1c-8.9,10.8-18.1,29.9-28.6,58.6
		c-6.5,18-10.3,32.2-10.3,39.6C497.2,379.4,498.4,384.3,499.9,385.3z"/>
	<path fill="#221F1C" d="M586.5,337.1c-3.3-5-9.1-7.8-11.9-8.5c-7.7,3.8-11.4,17.2-12.2,20.5c-3.3,15.4-4.4,21.4-4.4,24.4
		c0,7.6,8.1,10.9,9.4,10.9c0.8,0,0.8-1.2,0.8-4.2c0.1-3.7,2.1-9.2,3.9-14C576.4,354.9,578.7,345.8,586.5,337.1z"/>
	<path fill="#221F1C" d="M586.4,321.3c1.3-2.8,10.6-14.2,14.5-17.8c-2.6-3.8-11.5-9-15.5-9c-2.2,5.5-4,13.9-4,16.8
		c0,1.4,0.6,3.3,1.5,4.2c-0.3,1-0.4,1.8-0.4,2.3C582.6,319.2,584.4,320.9,586.4,321.3z"/>
	<path fill="#221F1C" d="M645.3,328.4c-8.3,0-20.4,12.7-26.9,19.6c-3,3.1-11.7,13.9-17.1,19.6c1-7.8,14.5-26,18.3-35.4
		c-1.8-5.6-6.2-10.9-10.6-12.3c-1.4,0.6-7.4,9.6-14,24.6c-5.8,13.2-9.6,27.6-9.6,34c0.8,3.8,2.3,8,5.9,10c2.1-1.2,4.9-5.1,8.6-10.4
		c6.7-9.2,12.7-16.3,20.7-24c5-4.9,10-7.3,10.4-7.3c-5.9,13.6-7.1,18.9-7.1,23.1c0,7.6,2.3,13.6,12.2,13.6c3,0,8.5-3,11-5.3
		c0-0.8-0.5-2.2-1.2-2.6c-1.2,0-3.6,1.3-5.4,1.3c-2.1,0-3.2-0.8-3.2-5c0-10.5,8.7-27.5,13.3-33.5c2.3-2.7,3.7-2.8,3.7-3.2
		C652.7,332.1,649.7,328.4,645.3,328.4z"/>
	<path fill="#221F1C" d="M703.4,329c-3.5-4.4-7.2-6.8-11-7.3c-16.9,0-36.2,24.8-36.2,45.8c0,10.3,6.9,18.3,18.7,19.6
		c8.1-1.8,18-9.1,25.7-19.2c-0.6-0.8-1.3-1.4-2.2-2.2c-5.4,5.8-14.2,15-23.5,15c-4.9,0-5.9-5.9-5.9-10.3c0-1.2,0.1-2.3,0.1-3.3
		C691,358.4,702.1,350,703.4,329z M694.6,333.2c-0.6,11.7-10.8,22.2-24.4,29C674.3,346.3,685.2,334.5,694.6,333.2z"/>
</g>
</svg>
