<?xml version="1.0" encoding="utf-8"?>
<!-- Generator: Adobe Illustrator 23.0.1, SVG Export Plug-In . SVG Version: 6.00 Build 0)  -->
<svg version="1.1" id="SibyllineEscapade" xmlns="http://www.w3.org/2000/svg" xmlns:xlink="http://www.w3.org/1999/xlink" x="0px"
	 y="0px" viewBox="0 0 1000 700" enable-background="new 0 0 1000 700" xml:space="preserve">
<path fill="#C00020" d="M796.5,318.2c-10.5-30.1-39.3-53.3-66.8-67.7c-40-20.9-91.4-21.2-131.4-0.1c-12.2,6.4-22.6,15.1-31.4,25.4
	c-0.2,0-0.4-0.1-0.5-0.1c-1.7,2.1-3.5,4.6-5.3,7.4c-21.1,28.4-31.9,66-36.4,99.5c-0.3,1.9,4.7,4.9,6,5.8c0.5,0.3,7.3,4.5,7.4,3.9
	c0-0.3,0.1-0.5,0.1-0.8c0.1,0,0.2,0,0.3,0c-0.1-0.4-0.1-0.6-0.1-1.3c5.7-40.2,20.3-85.7,50.5-114.3c32.2-30.5,83.9-37.4,125.4-26.3
	c28.3,7.6,53.4,25.3,66.1,52.4c17,36.5-1.1,80.6-28.3,107.2c-21.7,21.3-60.9,36.9-89.8,20c-1.2-0.7-4.4-3.1-3.3-0.5
	c1.1,2.6,6.6,5.6,8.9,7c27.1,15.8,60.2,11.2,85.3-6.5C785.8,406.1,810.4,357.9,796.5,318.2z"/>
<path fill="#C00020" d="M462.1,430.6c-17.4,12.2-36.2,22.4-58.1,21.3c-23.3-1.2-46.8-13.2-66-25.7c-12.4-8.1-22.2-17.7-30.4-28.8
	c1.2-0.8,2.4-1.6,3.6-2.4c8.2-6,18.3-13.8,20.8-24.2c2.8-11.5-3.5-22.3-10.8-30.6c-9.7-11-21.6-19.9-32.8-29.4
	c-10-8.5-24-19.3-26.3-33.1c-0.2-1-0.3-2.1-0.3-3.1c0,0.6,1-4.2,1.8-6.8c0.2-0.1,0.3-0.1,0.5-0.2c2.1-1,4.3-1.8,6.5-2.4
	c6.6-1.9,13.7-2.7,20.6-1.9c11.4,1.4,22.8,7.7,26,19.4c-0.1-0.5,17.9-8.7,16.7-13.1c-5.9-21.3-33.8-22.5-51-16.6
	c-10.9,3.7-20.8,10.5-29.1,18.4c-8,7.5-11.1,16.2-6,26.5c5.2,10.5,15.2,18.6,23.9,26c9.7,8.3,19.8,16,28.7,25.1
	c8.1,8.2,17.2,19.5,15.4,31.9c-0.7,4.5-2.6,8.6-5.3,10c-1.8,1-3.8,1.7-5.9,2.3c-4.3-6.3-8.2-13.1-11.8-20.4
	c-9.3-18.8-20.1-51.5-46.2-49.8c-11.6,0.8-21.9,7.8-30.6,15c-8.2,6.8-16.2,14.9-15.7,26.3c1,23.5,28.6,38.6,48.7,43
	c13,2.9,26.1,2.5,38.4-1c10.8,16.2,25.8,28.7,42.7,38.3c20.5,11.7,44.2,22.6,68.4,20.2c22.7-2.2,42.6-15.8,60.8-28.6
	c1.8-1.3,9.9-6.3,9.6-8.9C468.9,425.6,462.7,430.2,462.1,430.6z M264.5,266.3c0.1,0.2-0.2,0.5-0.6,0.8
	C264.2,266.4,264.4,266,264.5,266.3z M220.6,339C220,339.7,220.1,339.4,220.6,339L220.6,339z M229.8,375.7
	c-7.7-7.4-14.7-18.6-12.2-29.8c0.6-2.5,1.6-5,3.1-7.1c0.3-0.2,0.6-0.4,1-0.5c1.7-0.5,3.3-1.1,5.1-1.5c6-1.2,12.4-0.7,17.9,2.2
	c10.4,5.4,16.6,17.5,21.8,27.4c5.1,9.8,9.6,19.9,14.8,29.6C262.6,395.8,243.3,388.8,229.8,375.7z"/>
</svg>
