<?xml version="1.0" encoding="utf-8"?>
<!-- Generator: Adobe Illustrator 23.0.1, SVG Export Plug-In . SVG Version: 6.00 Build 0)  -->
<svg version="1.1" xmlns="http://www.w3.org/2000/svg" xmlns:xlink="http://www.w3.org/1999/xlink" x="0px" y="0px"
	 viewBox="0 0 1000 700" enable-background="new 0 0 1000 700" xml:space="preserve">
<g id="SibyllineEscapade">
	<path fill="#C00020" d="M796.5,318.2c-10.5-30.1-39.3-53.3-66.8-67.7c-40-20.9-91.4-21.2-131.4-0.1c-12.2,6.4-22.6,15.1-31.4,25.4
		c-0.2,0-0.4-0.1-0.5-0.1c-1.7,2.1-3.5,4.6-5.3,7.4c-21.1,28.4-31.9,66-36.4,99.5c-0.3,1.9,4.7,4.9,6,5.8c0.5,0.3,7.3,4.5,7.4,3.9
		c0-0.3,0.1-0.5,0.1-0.8c0.1,0,0.2,0,0.3,0c-0.1-0.4-0.1-0.6-0.1-1.3c5.7-40.2,20.3-85.7,50.5-114.3c32.2-30.5,83.9-37.4,125.4-26.3
		c28.3,7.6,53.4,25.3,66.1,52.4c17,36.5-1.1,80.6-28.3,107.2c-21.7,21.3-60.9,36.9-89.8,20c-1.2-0.7-4.4-3.1-3.3-0.5
		c1.1,2.6,6.6,5.6,8.9,7c27.1,15.8,60.2,11.2,85.3-6.5C785.8,406.1,810.4,357.9,796.5,318.2z"/>
	<path fill="#C00020" d="M462.1,430.6c-17.4,12.2-36.2,22.4-58.1,21.3c-23.3-1.2-46.8-13.2-66-25.7c-12.4-8.1-22.2-17.7-30.4-28.8
		c1.2-0.8,2.4-1.6,3.6-2.4c8.2-6,18.3-13.8,20.8-24.2c2.8-11.5-3.5-22.3-10.8-30.6c-9.7-11-21.6-19.9-32.8-29.4
		c-10-8.5-24-19.3-26.3-33.1c-0.2-1-0.3-2.1-0.3-3.1c0,0.6,1-4.2,1.8-6.8c0.2-0.1,0.3-0.1,0.5-0.2c2.1-1,4.3-1.8,6.5-2.4
		c6.6-1.9,13.7-2.7,20.6-1.9c11.4,1.4,22.8,7.7,26,19.4c-0.1-0.5,17.9-8.7,16.7-13.1c-5.9-21.3-33.8-22.5-51-16.6
		c-10.9,3.7-20.8,10.5-29.1,18.4c-8,7.5-11.1,16.2-6,26.5c5.2,10.5,15.2,18.6,23.9,26c9.7,8.3,19.8,16,28.7,25.1
		c8.1,8.2,17.2,19.5,15.4,31.9c-0.7,4.5-2.6,8.6-5.3,10c-1.8,1-3.8,1.7-5.9,2.3c-4.3-6.3-8.2-13.1-11.8-20.4
		c-9.3-18.8-20.1-51.5-46.2-49.8c-11.6,0.8-21.9,7.8-30.6,15c-8.2,6.8-16.2,14.9-15.7,26.3c1,23.5,28.6,38.6,48.7,43
		c13,2.9,26.1,2.5,38.4-1c10.8,16.2,25.8,28.7,42.7,38.3c20.5,11.7,44.2,22.6,68.4,20.2c22.7-2.2,42.6-15.8,60.8-28.6
		c1.8-1.3,9.9-6.3,9.6-8.9C468.9,425.6,462.7,430.2,462.1,430.6z M264.5,266.3c0.1,0.2-0.2,0.5-0.6,0.8
		C264.2,266.4,264.4,266,264.5,266.3z M220.6,339C220,339.7,220.1,339.4,220.6,339L220.6,339z M229.8,375.7
		c-7.7-7.4-14.7-18.6-12.2-29.8c0.6-2.5,1.6-5,3.1-7.1c0.3-0.2,0.6-0.4,1-0.5c1.7-0.5,3.3-1.1,5.1-1.5c6-1.2,12.4-0.7,17.9,2.2
		c10.4,5.4,16.6,17.5,21.8,27.4c5.1,9.8,9.6,19.9,14.8,29.6C262.6,395.8,243.3,388.8,229.8,375.7z"/>
</g>
<g id="Calque_3">
	<polygon fill="#C00020" points="482.7,414.5 490.9,414.5 490.9,410.3 482.7,410.3 482.7,405.5 493.9,405.5 493.9,401.1 
		477.9,401.1 477.9,424.9 494.3,424.9 494.3,420.5 482.7,420.5 	"/>
	<path fill="#C00020" d="M508.5,411.2l-2.7-1.2c-1-0.5-1.7-0.9-2.1-1.2s-0.6-0.9-0.6-1.5c0-0.7,0.3-1.3,0.8-1.7
		c0.6-0.4,1.3-0.6,2.1-0.6c1.8,0,3.3,0.9,4.5,2.7l3.3-2.6c-0.7-1.4-1.8-2.5-3.1-3.3c-1.3-0.8-2.9-1.2-4.7-1.2
		c-2.3,0-4.2,0.6-5.7,1.9c-1.5,1.2-2.2,2.9-2.2,4.9c0,1.6,0.5,2.9,1.5,4s2.4,2,4.3,2.9l2.6,1.2c0.8,0.4,1.3,0.6,1.7,0.8
		c0.3,0.2,0.7,0.5,0.9,0.8c0.3,0.4,0.4,0.8,0.4,1.3c0,0.8-0.3,1.5-0.9,1.9c-0.6,0.5-1.4,0.7-2.5,0.7c-2.2,0-4.2-1.2-5.8-3.5
		l-3.4,2.5c0.9,1.6,2.2,2.9,3.8,3.8c1.6,1,3.4,1.4,5.4,1.4c2.4,0,4.4-0.6,6-1.9c1.6-1.3,2.3-3,2.3-5.2c0-1.6-0.5-3-1.4-4
		C512,413.1,510.5,412.1,508.5,411.2z"/>
	<path fill="#C00020" d="M530.1,405.2c2.9,0,5.1,1.3,6.8,4l3.7-2.6c-1.1-1.9-2.5-3.3-4.3-4.3c-1.8-1-3.9-1.6-6.2-1.6
		c-3.6,0-6.6,1.2-9,3.6c-2.5,2.4-3.7,5.3-3.7,8.8c0,3.5,1.2,6.4,3.7,8.8c2.4,2.4,5.4,3.6,9,3.6c2.3,0,4.4-0.5,6.2-1.6
		s3.3-2.5,4.3-4.3l-3.7-2.6c-1.7,2.7-4,4-6.8,4c-2.2,0-4.1-0.7-5.5-2.2c-1.4-1.5-2.2-3.3-2.2-5.6c0-2.3,0.7-4.2,2.2-5.7
		C526,405.9,527.8,405.2,530.1,405.2z"/>
	<path fill="#C00020" d="M552.7,400.7l-10.6,24.3h5.2l1.3-3.1h9.7l1.3,3.1h5.2l-10.6-24.3H552.7z M550.4,417.8l3.1-8l3.1,8H550.4z"
		/>
	<path fill="#C00020" d="M583.3,403.2c-1.6-1.4-3.7-2.1-6.2-2.1h-9v23.8h4.9v-8.4h4.1c2.5,0,4.6-0.7,6.2-2.1
		c1.6-1.4,2.4-3.3,2.4-5.6C585.7,406.5,584.9,404.6,583.3,403.2z M579.8,411.3c-0.6,0.6-1.5,1-2.7,1h-4.1v-6.9h4.1
		c1.1,0,2,0.3,2.6,0.9c0.6,0.6,1,1.4,1,2.5C580.8,409.8,580.4,410.7,579.8,411.3z"/>
	<path fill="#C00020" d="M595.1,400.7l-10.6,24.3h5.2l1.3-3.1h9.7l1.3,3.1h5.2l-10.6-24.3H595.1z M592.8,417.8l3.1-8l3.1,8H592.8z"
		/>
	<path fill="#C00020" d="M627.8,404.4c-2.4-2.2-5.5-3.2-9.4-3.2h-7.8v23.8h7.8c3.8,0,6.9-1.1,9.4-3.4c2.4-2.2,3.6-5.1,3.6-8.6
		C631.4,409.4,630.2,406.5,627.8,404.4z M624.2,418.4c-1.5,1.4-3.4,2.1-5.8,2.1h-2.9v-15h2.9c2.4,0,4.4,0.7,5.8,2
		c1.5,1.3,2.2,3.1,2.2,5.4C626.4,415.2,625.7,417.1,624.2,418.4z"/>
	<polygon fill="#C00020" points="640.4,414.5 648.6,414.5 648.6,410.3 640.4,410.3 640.4,405.5 651.5,405.5 651.5,401.1 
		635.5,401.1 635.5,424.9 652,424.9 652,420.5 640.4,420.5 	"/>
</g>
<g id="Calque_2">
	<g>
		<path fill="#221F1C" d="M353.3,384.4c0.8,0,0.8-1.2,0.8-4.2c0.1-3.7,2.1-9.2,3.8-14c4.4-11.3,6.7-20.4,14.5-29.1
			c-3.3-5-9.1-7.8-11.9-8.5c-7.7,3.8-11.4,17.2-12.2,20.5c-3.3,15.4-4.4,21.4-4.4,24.4C343.9,381.1,352,384.4,353.3,384.4z"/>
		<path fill="#221F1C" d="M368.4,317.8c0,1.4,1.8,3.1,3.8,3.5c1.3-2.8,10.6-14.2,14.5-17.8c-2.6-3.8-11.5-9-15.5-9
			c-2.2,5.5-4,13.9-4,16.8c0,1.4,0.6,3.3,1.5,4.2C368.5,316.6,368.4,317.3,368.4,317.8z"/>
		<path fill="#221F1C" d="M376.2,372.8c0.3,0.6,1.3,1.8,2.2,2.4c1.9,1.4,2.7,2.3,3,3.1c0.5,1.5,1.4,2.6,2.2,2.6
			c1.3-12.8,27.5-53.4,34.6-53.6c0.9,0.3,1.7,1.2,1.7,2.1c-3,19.2-18.1,43.1-34,53.8c0,1.7,5.1,3.7,9.1,3.7
			c14.4,0,35.9-31.3,36.4-53.1c-0.8-6-5.8-11.9-11.3-13.3c-7.2,0-22.6,16.4-32.2,34.3c8.7-32.3,22.6-56.5,41.3-71.6
			c-2.1-2.3-9.1-6.7-12.4-7.7c-16.4,7.1-41.1,63.6-41.1,94.2C375.7,371.1,375.8,372,376.2,372.8z"/>
		<path fill="#221F1C" d="M484,325c-8.3,13.7-13.6,25.7-21.7,37.9c-6.4,9.5-11.8,13.9-14.9,14.4c-0.3-0.3-0.9-1-0.9-2.3
			c0-4.5,3.9-16.2,5.4-20c7.7-18.2,14.8-28,16.7-29.6c-3-3-8.9-4-11.7-4c-10.6,7.8-19.8,29.5-23,42.5c-0.9,3.6-1.2,6-1.2,10.9
			c1.4,6,8.7,9.8,14.1,10c8-2.8,17.3-17.3,21.7-24.3c-9.6,37-28.1,60.7-47.6,60.7c-3.8,0-5.1-0.6-9.1-4.2c-1,0.6-1.8,1.7-1.8,2.7
			c2.6,4.7,11.7,8.9,20.1,8.9c8.3,0,16.9-4.5,24.8-12.7c12.4-13,20.1-28.5,27.8-53.5c3.6-11.2,8.3-21.9,13.6-33.1
			C494.9,327.2,488.5,325,484,325z"/>
		<path fill="#221F1C" d="M499.9,385.3c1.2,0.8,3.1,2.8,3.5,3.7c0.5,1.2,2.4,2.2,4.7,2.4c-0.1-0.6-0.1-0.8-0.1-3.7
			c0-10.8,3.8-27.5,11-47.5c8.5-23.5,18.1-40.8,31.4-56.6c-1.4-2.2-10.3-7.3-14.4-8.1c-8.9,10.8-18.1,29.9-28.6,58.6
			c-6.5,18-10.3,32.2-10.3,39.6C497.2,379.4,498.4,384.3,499.9,385.3z"/>
		<path fill="#221F1C" d="M586.5,337.1c-3.3-5-9.1-7.8-11.9-8.5c-7.7,3.8-11.4,17.2-12.2,20.5c-3.3,15.4-4.4,21.4-4.4,24.4
			c0,7.6,8.1,10.9,9.4,10.9c0.8,0,0.8-1.2,0.8-4.2c0.1-3.7,2.1-9.2,3.9-14C576.4,354.9,578.7,345.8,586.5,337.1z"/>
		<path fill="#221F1C" d="M586.4,321.3c1.3-2.8,10.6-14.2,14.5-17.8c-2.6-3.8-11.5-9-15.5-9c-2.2,5.5-4,13.9-4,16.8
			c0,1.4,0.6,3.3,1.5,4.2c-0.3,1-0.4,1.8-0.4,2.3C582.6,319.2,584.4,320.9,586.4,321.3z"/>
		<path fill="#221F1C" d="M645.3,328.4c-8.3,0-20.4,12.7-26.9,19.6c-3,3.1-11.7,13.9-17.1,19.6c1-7.8,14.5-26,18.3-35.4
			c-1.8-5.6-6.2-10.9-10.6-12.3c-1.4,0.6-7.4,9.6-14,24.6c-5.8,13.2-9.6,27.6-9.6,34c0.8,3.8,2.3,8,5.9,10c2.1-1.2,4.9-5.1,8.6-10.4
			c6.7-9.2,12.7-16.3,20.7-24c5-4.9,10-7.3,10.4-7.3c-5.9,13.6-7.1,18.9-7.1,23.1c0,7.6,2.3,13.6,12.2,13.6c3,0,8.5-3,11-5.3
			c0-0.8-0.5-2.2-1.2-2.6c-1.2,0-3.6,1.3-5.4,1.3c-2.1,0-3.2-0.8-3.2-5c0-10.5,8.7-27.5,13.3-33.5c2.3-2.7,3.7-2.8,3.7-3.2
			C652.7,332.1,649.7,328.4,645.3,328.4z"/>
		<path fill="#221F1C" d="M703.4,329c-3.5-4.4-7.2-6.8-11-7.3c-16.9,0-36.2,24.8-36.2,45.8c0,10.3,6.9,18.3,18.7,19.6
			c8.1-1.8,18-9.1,25.7-19.2c-0.6-0.8-1.3-1.4-2.2-2.2c-5.4,5.8-14.2,15-23.5,15c-4.9,0-5.9-5.9-5.9-10.3c0-1.2,0.1-2.3,0.1-3.3
			C691,358.4,702.1,350,703.4,329z M694.6,333.2c-0.6,11.7-10.8,22.2-24.4,29C674.3,346.3,685.2,334.5,694.6,333.2z"/>
	</g>
</g>
</svg>
