<?xml version="1.0" encoding="utf-8"?>
<!-- Generator: Adobe Illustrator 23.0.1, SVG Export Plug-In . SVG Version: 6.00 Build 0)  -->
<svg version="1.1" id="Calque_1" xmlns="http://www.w3.org/2000/svg" xmlns:xlink="http://www.w3.org/1999/xlink" x="0px" y="0px"
	 viewBox="0 0 1000 700" enable-background="new 0 0 1000 700" xml:space="preserve">
<g>
	<g id="SibyllineEscapade">
	</g>
	<g id="Calque_3">
	</g>
	<g opacity="0.2">
		<g>
			<path fill="rgba(255,0,0,1)" d="M802.5,324.2c-10.5-30.1-39.3-53.3-66.8-67.7c-40-20.9-91.4-21.2-131.4-0.1
				c-12.2,6.4-22.6,15.1-31.4,25.4c-0.2,0-0.4-0.1-0.5-0.1c-1.7,2.1-3.5,4.6-5.3,7.4c-21.1,28.4-31.9,66-36.4,99.5
				c-0.3,1.9,4.7,4.9,6,5.8c0.5,0.3,7.3,4.5,7.4,3.9c0-0.3,0.1-0.5,0.1-0.8c0.1,0,0.2,0,0.3,0c-0.1-0.4-0.1-0.6-0.1-1.3
				c5.7-40.2,20.3-85.7,50.5-114.3c32.2-30.5,83.9-37.4,125.4-26.3c28.3,7.6,53.4,25.3,66.1,52.4c17,36.5-1.1,80.6-28.3,107.2
				c-21.7,21.3-60.9,36.9-89.8,20c-1.2-0.7-4.4-3.1-3.3-0.5c1.1,2.6,6.6,5.6,8.9,7c27.1,15.8,60.2,11.2,85.3-6.5
				C791.8,412.1,816.4,363.9,802.5,324.2z"/>
			<path fill="rgba(255,0,0,1)" d="M468.1,436.6c-17.4,12.2-36.2,22.4-58.1,21.3c-23.3-1.2-46.8-13.2-66-25.7c-12.4-8.1-22.2-17.7-30.4-28.8
				c1.2-0.8,2.4-1.6,3.6-2.4c8.2-6,18.3-13.8,20.8-24.2c2.8-11.5-3.5-22.3-10.8-30.6c-9.7-11-21.6-19.9-32.8-29.4
				c-10-8.5-24-19.3-26.3-33.1c-0.2-1-0.3-2.1-0.3-3.1c0,0.6,1-4.2,1.8-6.8c0.2-0.1,0.3-0.1,0.5-0.2c2.1-1,4.3-1.8,6.5-2.4
				c6.6-1.9,13.7-2.7,20.6-1.9c11.4,1.4,22.8,7.7,26,19.4c-0.1-0.5,17.9-8.7,16.7-13.1c-5.9-21.3-33.8-22.5-51-16.6
				c-10.9,3.7-20.8,10.5-29.1,18.4c-8,7.5-11.1,16.2-6,26.5c5.2,10.5,15.2,18.6,23.9,26c9.7,8.3,19.8,16,28.7,25.1
				c8.1,8.2,17.2,19.5,15.4,31.9c-0.7,4.5-2.6,8.6-5.3,10c-1.8,1-3.8,1.7-5.9,2.3c-4.3-6.3-8.2-13.1-11.8-20.4
				c-9.3-18.8-20.1-51.5-46.2-49.8c-11.6,0.8-21.9,7.8-30.6,15c-8.2,6.8-16.2,14.9-15.7,26.3c1,23.5,28.6,38.6,48.7,43
				c13,2.9,26.1,2.5,38.4-1c10.8,16.2,25.8,28.7,42.7,38.3c20.5,11.7,44.2,22.6,68.4,20.2c22.7-2.2,42.6-15.8,60.8-28.6
				c1.8-1.3,9.9-6.3,9.7-8.9C474.9,431.6,468.7,436.2,468.1,436.6z M270.5,272.3c0.1,0.2-0.2,0.5-0.6,0.8
				C270.2,272.4,270.4,272,270.5,272.3z M226.6,345C226,345.7,226.1,345.4,226.6,345L226.6,345z M235.8,381.7
				c-7.7-7.4-14.7-18.6-12.2-29.8c0.6-2.5,1.6-5,3.1-7.1c0.3-0.2,0.6-0.4,1-0.5c1.7-0.5,3.3-1.1,5.1-1.5c6-1.2,12.4-0.7,17.9,2.2
				c10.4,5.4,16.6,17.5,21.8,27.4c5.1,9.8,9.6,19.9,14.8,29.6C268.6,401.8,249.3,394.8,235.8,381.7z"/>
			<polygon fill="rgba(255,0,0,1)" points="488.7,420.5 496.9,420.5 496.9,416.3 488.7,416.3 488.7,411.5 499.9,411.5 499.9,407.1
				483.9,407.1 483.9,430.9 500.3,430.9 500.3,426.5 488.7,426.5 			"/>
			<path fill="rgba(255,0,0,1)" d="M514.5,417.2l-2.7-1.2c-1-0.5-1.7-0.9-2.1-1.2c-0.4-0.4-0.6-0.9-0.6-1.5c0-0.7,0.3-1.3,0.8-1.7
				c0.6-0.4,1.3-0.6,2.1-0.6c1.8,0,3.3,0.9,4.5,2.7l3.3-2.6c-0.7-1.4-1.8-2.5-3.1-3.3s-2.9-1.2-4.7-1.2c-2.3,0-4.2,0.6-5.7,1.9
				c-1.5,1.2-2.2,2.9-2.2,4.9c0,1.6,0.5,2.9,1.5,4s2.4,2,4.3,2.9l2.6,1.2c0.8,0.4,1.3,0.6,1.7,0.8c0.3,0.2,0.7,0.5,0.9,0.8
				c0.3,0.4,0.4,0.8,0.4,1.3c0,0.8-0.3,1.5-0.9,1.9c-0.6,0.5-1.4,0.7-2.5,0.7c-2.2,0-4.2-1.2-5.8-3.5l-3.4,2.5
				c0.9,1.6,2.2,2.9,3.8,3.8c1.6,1,3.4,1.4,5.4,1.4c2.4,0,4.4-0.6,6-1.9s2.3-3,2.3-5.2c0-1.6-0.5-3-1.4-4
				C518,419.1,516.5,418.1,514.5,417.2z"/>
			<path fill="rgba(255,0,0,1)" d="M536.1,411.2c2.9,0,5.1,1.3,6.8,4l3.7-2.6c-1.1-1.9-2.5-3.3-4.3-4.3s-3.9-1.6-6.2-1.6
				c-3.6,0-6.6,1.2-9,3.6c-2.5,2.4-3.7,5.3-3.7,8.8s1.2,6.4,3.7,8.8c2.4,2.4,5.4,3.6,9,3.6c2.3,0,4.4-0.5,6.2-1.6
				c1.9-1,3.3-2.5,4.3-4.3l-3.7-2.6c-1.7,2.7-4,4-6.8,4c-2.2,0-4.1-0.7-5.5-2.2s-2.2-3.3-2.2-5.6c0-2.3,0.7-4.2,2.2-5.7
				C532,411.9,533.8,411.2,536.1,411.2z"/>
			<path fill="rgba(255,0,0,1)" d="M558.7,406.7L548.1,431h5.2l1.3-3.1h9.7l1.3,3.1h5.2l-10.6-24.3H558.7z M556.4,423.8l3.1-8l3.1,8H556.4z"
				/>
			<path fill="rgba(255,0,0,1)" d="M589.3,409.2c-1.6-1.4-3.7-2.1-6.2-2.1h-9v23.8h4.9v-8.4h4.1c2.5,0,4.6-0.7,6.2-2.1
				c1.6-1.4,2.4-3.3,2.4-5.6C591.7,412.5,590.9,410.6,589.3,409.2z M585.8,417.3c-0.6,0.6-1.5,1-2.7,1H579v-6.9h4.1
				c1.1,0,2,0.3,2.6,0.9s1,1.4,1,2.5C586.8,415.8,586.4,416.7,585.8,417.3z"/>
			<path fill="rgba(255,0,0,1)" d="M601.1,406.7L590.5,431h5.2l1.3-3.1h9.7l1.3,3.1h5.2l-10.6-24.3H601.1z M598.8,423.8l3.1-8l3.1,8H598.8z"
				/>
			<path fill="rgba(255,0,0,1)" d="M633.8,410.4c-2.4-2.2-5.5-3.2-9.4-3.2h-7.8V431h7.8c3.8,0,6.9-1.1,9.4-3.4c2.4-2.2,3.6-5.1,3.6-8.6
				C637.4,415.4,636.2,412.5,633.8,410.4z M630.2,424.4c-1.5,1.4-3.4,2.1-5.8,2.1h-2.9v-15h2.9c2.4,0,4.4,0.7,5.8,2
				c1.5,1.3,2.2,3.1,2.2,5.4C632.4,421.2,631.7,423.1,630.2,424.4z"/>
			<polygon fill="rgba(255,0,0,1)" points="646.4,420.5 654.6,420.5 654.6,416.3 646.4,416.3 646.4,411.5 657.5,411.5 657.5,407.1
				641.5,407.1 641.5,430.9 658,430.9 658,426.5 646.4,426.5 			"/>
			<path fill="rgba(255,0,0,1)" d="M359.3,390.4c0.8,0,0.8-1.2,0.8-4.2c0.1-3.7,2.1-9.2,3.8-14c4.4-11.3,6.7-20.4,14.5-29.1
				c-3.3-5-9.1-7.8-11.9-8.5c-7.7,3.8-11.4,17.2-12.2,20.5c-3.3,15.4-4.4,21.4-4.4,24.4C349.9,387.1,358,390.4,359.3,390.4z"/>
			<path fill="rgba(255,0,0,1)" d="M374.4,323.8c0,1.4,1.8,3.1,3.8,3.5c1.3-2.8,10.6-14.2,14.5-17.8c-2.6-3.8-11.5-9-15.5-9
				c-2.2,5.5-4,13.9-4,16.8c0,1.4,0.6,3.3,1.5,4.2C374.5,322.6,374.4,323.3,374.4,323.8z"/>
			<path fill="rgba(255,0,0,1)" d="M382.2,378.8c0.3,0.6,1.3,1.8,2.2,2.4c1.9,1.4,2.7,2.3,3,3.1c0.5,1.5,1.4,2.6,2.2,2.6
				c1.3-12.8,27.5-53.4,34.6-53.6c0.9,0.3,1.7,1.2,1.7,2.1c-3,19.2-18.1,43.1-34,53.8c0,1.7,5.1,3.7,9.1,3.7
				c14.4,0,35.9-31.3,36.4-53.1c-0.8-6-5.8-11.9-11.3-13.3c-7.2,0-22.6,16.4-32.2,34.3c8.7-32.3,22.6-56.5,41.3-71.6
				c-2.1-2.3-9.1-6.7-12.4-7.7c-16.4,7.1-41.1,63.6-41.1,94.2C381.7,377.1,381.8,378,382.2,378.8z"/>
			<path fill="rgba(255,0,0,1)" d="M490,331c-8.3,13.7-13.6,25.7-21.7,37.9c-6.4,9.5-11.8,13.9-14.9,14.4c-0.3-0.3-0.9-1-0.9-2.3
				c0-4.5,3.9-16.2,5.4-20c7.7-18.2,14.8-28,16.7-29.6c-3-3-8.9-4-11.7-4c-10.6,7.8-19.8,29.5-23,42.5c-0.9,3.6-1.2,6-1.2,10.9
				c1.4,6,8.7,9.8,14.1,10c8-2.8,17.3-17.3,21.7-24.3c-9.6,37-28.1,60.7-47.6,60.7c-3.8,0-5.1-0.6-9.1-4.2c-1,0.6-1.8,1.7-1.8,2.7
				c2.6,4.7,11.7,8.9,20.1,8.9c8.3,0,16.9-4.5,24.8-12.7c12.4-13,20.1-28.5,27.8-53.5c3.6-11.2,8.3-21.9,13.6-33.1
				C500.9,333.2,494.5,331,490,331z"/>
			<path fill="rgba(255,0,0,1)" d="M505.9,391.3c1.2,0.8,3.1,2.8,3.5,3.7c0.5,1.2,2.4,2.2,4.7,2.4c-0.1-0.6-0.1-0.8-0.1-3.7
				c0-10.8,3.8-27.5,11-47.5c8.5-23.5,18.1-40.8,31.4-56.6c-1.4-2.2-10.3-7.3-14.4-8.1c-8.9,10.8-18.1,29.9-28.6,58.6
				c-6.5,18-10.3,32.2-10.3,39.6C503.2,385.4,504.4,390.3,505.9,391.3z"/>
			<path fill="rgba(255,0,0,1)" d="M592.5,343.1c-3.3-5-9.1-7.8-11.9-8.5c-7.7,3.8-11.4,17.2-12.2,20.5c-3.3,15.4-4.4,21.4-4.4,24.4
				c0,7.6,8.1,10.9,9.4,10.9c0.8,0,0.8-1.2,0.8-4.2c0.1-3.7,2.1-9.2,3.9-14C582.4,360.9,584.7,351.8,592.5,343.1z"/>
			<path fill="rgba(255,0,0,1)" d="M592.4,327.3c1.3-2.8,10.6-14.2,14.5-17.8c-2.6-3.8-11.5-9-15.5-9c-2.2,5.5-4,13.9-4,16.8
				c0,1.4,0.6,3.3,1.5,4.2c-0.3,1-0.4,1.8-0.4,2.3C588.6,325.2,590.4,326.9,592.4,327.3z"/>
			<path fill="rgba(255,0,0,1)" d="M651.3,334.4c-8.3,0-20.4,12.7-26.9,19.6c-3,3.1-11.7,13.9-17.1,19.6c1-7.8,14.5-26,18.3-35.4
				c-1.8-5.6-6.2-10.9-10.6-12.3c-1.4,0.6-7.4,9.6-14,24.6c-5.8,13.2-9.6,27.6-9.6,34c0.8,3.8,2.3,8,5.9,10
				c2.1-1.2,4.9-5.1,8.6-10.4c6.7-9.2,12.7-16.3,20.7-24c5-4.9,10-7.3,10.4-7.3c-5.9,13.6-7.1,18.9-7.1,23.1
				c0,7.6,2.3,13.6,12.2,13.6c3,0,8.5-3,11-5.3c0-0.8-0.5-2.2-1.2-2.6c-1.2,0-3.6,1.3-5.4,1.3c-2.1,0-3.2-0.8-3.2-5
				c0-10.5,8.7-27.5,13.3-33.5c2.3-2.7,3.7-2.8,3.7-3.2C658.7,338.1,655.7,334.4,651.3,334.4z"/>
			<path fill="rgba(255,0,0,1)" d="M709.4,335c-3.5-4.4-7.2-6.8-11-7.3c-16.9,0-36.2,24.8-36.2,45.8c0,10.3,6.9,18.3,18.7,19.6
				c8.1-1.8,18-9.1,25.7-19.2c-0.6-0.8-1.3-1.4-2.2-2.2c-5.4,5.8-14.2,15-23.5,15c-4.9,0-5.9-5.9-5.9-10.3c0-1.2,0.1-2.3,0.1-3.3
				C697,364.4,708.1,356,709.4,335z M700.6,339.2c-0.6,11.7-10.8,22.2-24.4,29C680.3,352.3,691.2,340.5,700.6,339.2z"/>
		</g>
	</g>
</g>
<g>
	<g>
		<g>
			<polyline fill="none" stroke="#000000" stroke-miterlimit="10" points="797.1,448.4 797.1,451.4 794.1,451.4 			"/>

				<line fill="none" stroke="#000000" stroke-miterlimit="10" stroke-dasharray="6.0219,6.0219" x1="788.1" y1="451.4" x2="225" y2="451.4"/>
			<polyline fill="none" stroke="#000000" stroke-miterlimit="10" points="222,451.4 219,451.4 219,448.4 			"/>

				<line fill="none" stroke="#000000" stroke-miterlimit="10" stroke-dasharray="6.11,6.11" x1="219" y1="442.2" x2="219" y2="262"/>
			<polyline fill="none" stroke="#000000" stroke-miterlimit="10" points="219,258.9 219,255.9 222,255.9 			"/>

				<line fill="none" stroke="#000000" stroke-miterlimit="10" stroke-dasharray="6.0219,6.0219" x1="228" y1="255.9" x2="791.1" y2="255.9"/>
			<polyline fill="none" stroke="#000000" stroke-miterlimit="10" points="794.1,255.9 797.1,255.9 797.1,258.9 			"/>

				<line fill="none" stroke="#000000" stroke-miterlimit="10" stroke-dasharray="6.11,6.11" x1="797.1" y1="265.1" x2="797.1" y2="445.3"/>
		</g>
	</g>
	<path fill="none" stroke="#000000" stroke-miterlimit="10" stroke-dasharray="6" d="M227.7,344.3c5.9-1.4,14.3-2.5,23,0.7
		c20.8,7.6,24.9,33,34.6,53.3c20.1,41.8,70.6,74.5,115.1,72.8c33.4-1.3,59.3-21.9,74.6-37.8"/>
	<path fill="none" stroke="#000000" stroke-miterlimit="10" stroke-dasharray="6" d="M563.3,294.5c9.1-12.6,25.2-30.8,50.6-42.7
		c65.5-30.6,130.9,9.6,138.3,14.3c16.2,10.3,37.9,24.2,47.4,50.8c17.6,49.5-15.4,119.9-67.7,131.3c-28,6.1-52.9-6.7-63.6-13.1"/>
	<line fill="none" stroke="#000000" stroke-miterlimit="10" stroke-dasharray="6" x1="340.6" y1="391.5" x2="700.6" y2="391.5"/>
	<line fill="none" stroke="#000000" stroke-miterlimit="10" stroke-dasharray="6" x1="340.6" y1="334.6" x2="700.6" y2="334.6"/>
	<line fill="none" stroke="#000000" stroke-miterlimit="10" stroke-dasharray="6" x1="484" y1="437" x2="659" y2="437"/>
	<path fill="none" stroke="#000000" stroke-miterlimit="10" stroke-dasharray="6" d="M205,366.8c2.2-5.2,7.1-14.7,17-22.8
		c11.6-9.4,29.3-16.2,43.6-12.7c25,6.1,20.3,38.8,51.2,76.2c6.8,8.2,39.5,47.9,88,50c33.8,1.4,59.6-16,70.2-24.1"/>
	<path fill="none" stroke="#000000" stroke-miterlimit="10" stroke-dasharray="6" d="M577.7,302.3c5.6-6.9,41.8-50.2,101.3-51.6
		c9.1-0.2,78.1-0.9,103.5,49.9c24.2,48.5-5.3,115.7-53.6,134.3c-24.6,9.5-48.4,4.2-60.5,0.3"/>
</g>
<g id="Calque_3_1_">
</g>
</svg>
