<?xml version="1.0" encoding="utf-8"?>
<!-- Generator: Adobe Illustrator 23.0.1, SVG Export Plug-In . SVG Version: 6.00 Build 0)  -->
<svg version="1.1" xmlns="http://www.w3.org/2000/svg" xmlns:xlink="http://www.w3.org/1999/xlink" x="0px" y="0px"
	 viewBox="0 0 1000 700" enable-background="new 0 0 1000 700" xml:space="preserve">
<g id="Typo">
	<g>
		<path fill="#221F1C" d="M361.8,466h-19.9v27.7h-24.5v-72.8h24.4v24.7h19.9v-24.7h24.6v72.8h-24.5V466z"/>
		<path fill="#221F1C" d="M419.4,420.9h26l28.4,72.8h-26.6l-3.8-10.7h-23.1l-3.6,10.7h-25.9L419.4,420.9z M432,446.3l-6,18h11.8
			L432,446.3z"/>
		<path fill="#221F1C" d="M474,420.9h24.7v72.8H474V420.9z"/>
		<path fill="#221F1C" d="M507.4,420.9h24.4l20.8,36.9h0.4l-1-36.9h23.2v72.8h-25L530,458.9h-0.4l1,34.7h-23.2V420.9z"/>
		<path fill="#221F1C" d="M581.8,420.9h50.1v20.4h-27v6.3h25.4v19h-25.4v6.8h28.8v20.4h-51.8V420.9z"/>
		<path fill="#221F1C" d="M677.2,493.7h-24.5v-52.1h-17.9v-20.7h60.2v20.7h-17.9V493.7z"/>
	</g>
</g>
<g id="D">
	<path fill="#0091D9" d="M339.1,281.8l3.1-3.1l0,0l2.4-2.4c0.4-0.4,0.9-0.8,1.4-1.1c31-27.2,78.2-26.4,108.2,2.5
		c0.1,0.1,0.3,0.2,0.4,0.4l5.5,5.5c3.3,3.3,3.3,8.6,0,11.9c-3.3,3.3-8.6,3.3-11.9,0l-5.5-5.5c-0.1,0-0.1-0.1-0.1-0.1
		c-24.3-23.5-62.8-23.6-87.3-0.5l-4.3,4.3c-3.3,3.3-8.6,3.3-11.9,0C335.8,290.5,335.8,285.1,339.1,281.8 M357.9,310.2
		c0-2.4,0.9-4.7,2.7-6.5l3.6-3.6c0.2-0.2,0.4-0.4,0.7-0.6l0.6-0.6c0.1-0.1,0.2-0.2,0.4-0.3c19-17.3,48.1-16.6,66.3,1.5l2.1,2.2
		l3,2.9c3.6,3.6,3.6,9.4,0,13c-3.6,3.6-9.4,3.6-13,0l-5.1-5.1c-11.6-11.5-30.3-11.5-41.9,0l-3.7,3.6c-3.6,3.6-9.3,3.6-12.9,0
		C358.9,314.9,357.9,312.6,357.9,310.2 M384.6,335.5c0-8.1,6.6-14.7,14.7-14.7c8.1,0,14.7,6.6,14.7,14.7c0,8.1-6.6,14.7-14.7,14.7
		C391.2,350.2,384.6,343.6,384.6,335.5 M301.9,302.8L301.9,302.8c0,53.6,43.5,97.1,97.1,97.1h97.1V205.7H399
		C345.4,205.7,301.9,249.2,301.9,302.8"/>
</g>
<g id="H">
	<path fill="#F77619" d="M632.8,326.1h-53.2v73.8h-65.3V205.7h65v65.8h53.2v-65.8h65.6v194.3h-65.3V326.1z"/>
</g>
</svg>
