<?xml version="1.0" encoding="utf-8"?>
<!-- Generator: Adobe Illustrator 23.0.1, SVG Export Plug-In . SVG Version: 6.00 Build 0)  -->
<svg version="1.1" id="Calque_1" xmlns="http://www.w3.org/2000/svg" xmlns:xlink="http://www.w3.org/1999/xlink" x="0px" y="0px"
	 viewBox="0 0 1000 700" enable-background="new 0 0 1000 700" xml:space="preserve">
<g id="Typo" opacity="0.2">
	<g>
		<path fill="#FF0000" d="M367.8,472h-19.9v27.7h-24.5v-72.8h24.4v24.7h19.9v-24.7h24.6v72.8h-24.5V472z"/>
		<path fill="#FF0000" d="M425.4,426.9h26l28.4,72.8h-26.6l-3.8-10.7h-23.1l-3.6,10.7h-25.9L425.4,426.9z M438,452.3l-6,18h11.8
			L438,452.3z"/>
		<path fill="#FF0000" d="M480,426.9h24.7v72.8H480V426.9z"/>
		<path fill="#FF0000" d="M513.4,426.9h24.4l20.8,36.9h0.4l-1-36.9h23.2v72.8h-25L536,464.9h-0.4l1,34.7h-23.2L513.4,426.9
			L513.4,426.9z"/>
		<path fill="#FF0000" d="M587.8,426.9h50.1v20.4h-27v6.3h25.4v19h-25.4v6.8h28.8v20.4h-51.8L587.8,426.9L587.8,426.9z"/>
		<path fill="#FF0000" d="M683.2,499.7h-24.5v-52.1h-17.9v-20.7H701v20.7h-17.9v52.1H683.2z"/>
	</g>
</g>
<g id="D" opacity="0.2">
	<path fill="#FF0000" d="M345.1,287.8l3.1-3.1l0,0l2.4-2.4c0.4-0.4,0.9-0.8,1.4-1.1c31-27.2,78.2-26.4,108.2,2.5
		c0.1,0.1,0.3,0.2,0.4,0.4l5.5,5.5c3.3,3.3,3.3,8.6,0,11.9s-8.6,3.3-11.9,0l-5.5-5.5c-0.1,0-0.1-0.1-0.1-0.1
		c-24.3-23.5-62.8-23.6-87.3-0.5l-4.3,4.3c-3.3,3.3-8.6,3.3-11.9,0C341.8,296.5,341.8,291.1,345.1,287.8 M363.9,316.2
		c0-2.4,0.9-4.7,2.7-6.5l3.6-3.6c0.2-0.2,0.4-0.4,0.7-0.6l0.6-0.6c0.1-0.1,0.2-0.2,0.4-0.3c19-17.3,48.1-16.6,66.3,1.5l2.1,2.2
		l3,2.9c3.6,3.6,3.6,9.4,0,13s-9.4,3.6-13,0l-5.1-5.1c-11.6-11.5-30.3-11.5-41.9,0l-3.7,3.6c-3.6,3.6-9.3,3.6-12.9,0
		C364.9,320.9,363.9,318.6,363.9,316.2 M390.6,341.5c0-8.1,6.6-14.7,14.7-14.7s14.7,6.6,14.7,14.7s-6.6,14.7-14.7,14.7
		S390.6,349.6,390.6,341.5 M307.9,308.8L307.9,308.8c0,53.6,43.5,97.1,97.1,97.1h97.1V211.7H405
		C351.4,211.7,307.9,255.2,307.9,308.8"/>
</g>
<g id="H" opacity="0.2">
	<path fill="#FF0000" d="M638.8,332.1h-53.2v73.8h-65.3V211.7h65v65.8h53.2v-65.8h65.6V406h-65.3V332.1z"/>
</g>
<g>
	<g>
		<polyline fill="none" stroke="#000000" stroke-miterlimit="10" points="323.4,496.7 323.4,499.7 326.4,499.7 		"/>
		
			<line fill="none" stroke="#000000" stroke-miterlimit="10" stroke-dasharray="5.9476,5.9476" x1="332.3" y1="499.7" x2="698.1" y2="499.7"/>
		<polyline fill="none" stroke="#000000" stroke-miterlimit="10" points="701.1,499.7 704.1,499.7 704.1,496.7 		"/>
		<line fill="none" stroke="#000000" stroke-miterlimit="10" stroke-dasharray="6,6" x1="704.1" y1="490.7" x2="704.1" y2="217.7"/>
		<polyline fill="none" stroke="#000000" stroke-miterlimit="10" points="704.1,214.7 704.1,211.7 701.1,211.7 		"/>
		
			<line fill="none" stroke="#000000" stroke-miterlimit="10" stroke-dasharray="5.9476,5.9476" x1="695.2" y1="211.7" x2="329.4" y2="211.7"/>
		<polyline fill="none" stroke="#000000" stroke-miterlimit="10" points="326.4,211.7 323.4,211.7 323.4,214.7 		"/>
		<line fill="none" stroke="#000000" stroke-miterlimit="10" stroke-dasharray="6,6" x1="323.4" y1="220.7" x2="323.4" y2="493.7"/>
	</g>
</g>
<g>
	<circle fill="none" stroke="#000000" stroke-miterlimit="10" stroke-dasharray="5.9816,5.9816" cx="405" cy="308.8" r="97.1"/>
</g>
<line fill="none" stroke="#000000" stroke-miterlimit="10" stroke-dasharray="6" x1="704.1" y1="406" x2="405" y2="405.9"/>
<line fill="none" stroke="#000000" stroke-miterlimit="10" stroke-dasharray="6" x1="502.1" y1="211.7" x2="502.1" y2="405.9"/>
<line fill="none" stroke="#000000" stroke-miterlimit="10" stroke-dasharray="6" x1="520.3" y1="211.7" x2="520.3" y2="405.9"/>
<line fill="none" stroke="#000000" stroke-miterlimit="10" stroke-dasharray="6" x1="323.4" y1="426.9" x2="704.1" y2="426.9"/>
<line fill="none" stroke="#000000" stroke-miterlimit="10" stroke-dasharray="6" x1="405" y1="405.9" x2="405" y2="211.7"/>
<line fill="none" stroke="#000000" stroke-miterlimit="10" stroke-dasharray="6" x1="307.9" y1="308.8" x2="704.1" y2="308.8"/>
<line fill="none" stroke="#000000" stroke-miterlimit="10" stroke-dasharray="6" x1="585.6" y1="405.9" x2="585.3" y2="211.7"/>
<line fill="none" stroke="#000000" stroke-miterlimit="10" stroke-dasharray="6" x1="638.8" y1="406" x2="638.5" y2="211.7"/>
<line fill="none" stroke="#000000" stroke-miterlimit="10" stroke-dasharray="6" x1="585.6" y1="332.1" x2="638.8" y2="332.1"/>
<line fill="none" stroke="#000000" stroke-miterlimit="10" stroke-dasharray="6" x1="638.5" y1="277.5" x2="585.3" y2="277.5"/>
</svg>
