<?xml version="1.0" encoding="utf-8"?>
<!-- Generator: Adobe Illustrator 23.0.1, SVG Export Plug-In . SVG Version: 6.00 Build 0)  -->
<svg version="1.1" id="Calque_1" xmlns="http://www.w3.org/2000/svg" xmlns:xlink="http://www.w3.org/1999/xlink" x="0px" y="0px"
	 viewBox="0 0 1000 700" enable-background="new 0 0 1000 700" xml:space="preserve">
<g id="Typo" opacity="0.2">
	<g>
		<path fill="#FF0000" d="M264.2,559.1h-34.8v48.5h-42.9V480.2h42.7v43.2h34.8v-43.2h43v127.4h-42.9V559.1z"/>
		<path fill="#FF0000" d="M365,480.2h45.5l49.7,127.4h-46.5l-6.6-18.7h-40.4l-6.3,18.7H315L365,480.2z M387,524.7l-10.5,31.5h20.6
			L387,524.7z"/>
		<path fill="#FF0000" d="M460.5,480.2h43.2v127.4h-43.2V480.2z"/>
		<path fill="#FF0000" d="M518.9,480.2h42.7l36.4,64.6h0.7l-1.7-64.6h40.6v127.4h-43.7l-35.3-60.9h-0.7l1.7,60.7h-40.6L518.9,480.2
			L518.9,480.2z"/>
		<path fill="#FF0000" d="M649.1,480.2h87.6v35.7h-47.2v11h44.4v33.2h-44.4v11.9h50.4v35.7h-90.6L649.1,480.2L649.1,480.2z"/>
		<path fill="#FF0000" d="M816,607.6h-42.9v-91.1h-31.3v-36.2h105.3v36.2h-31.3v91.1H816z"/>
	</g>
</g>
<g id="D" opacity="0.2">
	<path fill="#FF0000" d="M224.5,236.9l5.4-5.4l0,0l4.2-4.2c0.7-0.7,1.6-1.4,2.4-1.9c54.2-47.6,136.8-46.2,189.3,4.4
		c0.2,0.2,0.5,0.3,0.7,0.7l9.6,9.6c5.8,5.8,5.8,15,0,20.8c-5.8,5.8-15,5.8-20.8,0l-9.6-9.6c-0.2,0-0.2-0.2-0.2-0.2
		c-42.5-41.1-109.9-41.3-152.7-0.9l-7.5,7.5c-5.8,5.8-15,5.8-20.8,0C218.7,252.1,218.7,242.7,224.5,236.9 M257.4,286.6
		c0-4.2,1.6-8.2,4.7-11.4l6.3-6.3c0.3-0.3,0.7-0.7,1.2-1l1-1c0.2-0.2,0.3-0.3,0.7-0.5c33.2-30.3,84.1-29,116,2.6l3.7,3.8l5.2,5.1
		c6.3,6.3,6.3,16.4,0,22.7s-16.4,6.3-22.7,0l-8.9-8.9c-20.3-20.1-53-20.1-73.3,0l-6.5,6.3c-6.3,6.3-16.3,6.3-22.6,0
		C259.2,294.8,257.4,290.8,257.4,286.6 M304.1,330.8c0-14.2,11.5-25.7,25.7-25.7c14.2,0,25.7,11.5,25.7,25.7
		c0,14.2-11.5,25.7-25.7,25.7C315.7,356.5,304.1,345,304.1,330.8 M159.4,273.6L159.4,273.6c0,93.8,76.1,169.9,169.9,169.9h169.9
		V103.7H329.3C235.5,103.7,159.4,179.8,159.4,273.6"/>
</g>
<g id="H" opacity="0.2">
	<path fill="#FF0000" d="M738.3,314.4h-93.1v129.1H531V103.7h113.7v115.1h93.1V103.7h114.8v339.9H738.3V314.4z"/>
</g>
<g>
	<g>
		<polyline fill="none" stroke="#000000" stroke-miterlimit="10" points="186.6,602.3 186.6,607.6 191.8,607.6 		"/>
		
			<line fill="none" stroke="#000000" stroke-miterlimit="10" stroke-dasharray="5.9476,5.9476" x1="202.1" y1="607.6" x2="842.1" y2="607.6"/>
		<polyline fill="none" stroke="#000000" stroke-miterlimit="10" points="847.3,607.6 852.6,607.6 852.6,602.3 		"/>
		<line fill="none" stroke="#000000" stroke-miterlimit="10" stroke-dasharray="6,6" x1="852.6" y1="591.8" x2="852.6" y2="114.2"/>
		<polyline fill="none" stroke="#000000" stroke-miterlimit="10" points="852.6,109 852.6,103.7 847.3,103.7 		"/>
		
			<line fill="none" stroke="#000000" stroke-miterlimit="10" stroke-dasharray="5.9476,5.9476" x1="837" y1="103.7" x2="197.1" y2="103.7"/>
		<polyline fill="none" stroke="#000000" stroke-miterlimit="10" points="191.8,103.7 186.6,103.7 186.6,109 		"/>
		<line fill="none" stroke="#000000" stroke-miterlimit="10" stroke-dasharray="6,6" x1="186.6" y1="119.5" x2="186.6" y2="597.1"/>
	</g>
</g>
<g>
	<circle fill="none" stroke="#000000" stroke-miterlimit="10" stroke-dasharray="5.9816,5.9816" cx="329.3" cy="273.6" r="169.9"/>
</g>
<line fill="none" stroke="#000000" stroke-miterlimit="10" stroke-dasharray="6" x1="852.6" y1="443.7" x2="329.3" y2="443.5"/>
<line fill="none" stroke="#000000" stroke-miterlimit="10" stroke-dasharray="6" x1="499.2" y1="103.7" x2="499.2" y2="443.5"/>
<line fill="none" stroke="#000000" stroke-miterlimit="10" stroke-dasharray="6" x1="531" y1="103.7" x2="531" y2="443.5"/>
<line fill="none" stroke="#000000" stroke-miterlimit="10" stroke-dasharray="6" x1="186.6" y1="480.2" x2="852.6" y2="480.2"/>
<line fill="none" stroke="#000000" stroke-miterlimit="10" stroke-dasharray="6" x1="329.3" y1="443.5" x2="329.3" y2="103.7"/>
<line fill="none" stroke="#000000" stroke-miterlimit="10" stroke-dasharray="6" x1="159.4" y1="273.6" x2="852.6" y2="273.6"/>
<line fill="none" stroke="#000000" stroke-miterlimit="10" stroke-dasharray="6" x1="645.3" y1="443.5" x2="644.7" y2="103.7"/>
<line fill="none" stroke="#000000" stroke-miterlimit="10" stroke-dasharray="6" x1="738.3" y1="443.7" x2="737.8" y2="103.7"/>
<line fill="none" stroke="#000000" stroke-miterlimit="10" stroke-dasharray="6" x1="645.3" y1="314.4" x2="738.3" y2="314.4"/>
<line fill="none" stroke="#000000" stroke-miterlimit="10" stroke-dasharray="6" x1="737.8" y1="218.9" x2="644.7" y2="218.9"/>
</svg>
