<?xml version="1.0" encoding="utf-8"?>
<!-- Generator: Adobe Illustrator 23.0.1, SVG Export Plug-In . SVG Version: 6.00 Build 0)  -->
<svg version="1.1" id="Calque_1" xmlns="http://www.w3.org/2000/svg" xmlns:xlink="http://www.w3.org/1999/xlink" x="0px" y="0px"
	 viewBox="0 0 1000 700" enable-background="new 0 0 1000 700" xml:space="preserve">
<g id="Typo">
	<g>
		<path fill="#221F1C" d="M258.2,553.1h-34.8v48.5h-42.9V474.2h42.7v43.2h34.8v-43.2h43v127.4h-42.9V553.1z"/>
		<path fill="#221F1C" d="M359,474.2h45.5l49.7,127.4h-46.5l-6.6-18.7h-40.4l-6.3,18.7H309L359,474.2z M381,518.7l-10.5,31.5h20.6
			L381,518.7z"/>
		<path fill="#221F1C" d="M454.5,474.2h43.2v127.4h-43.2V474.2z"/>
		<path fill="#221F1C" d="M512.9,474.2h42.7l36.4,64.6h0.7l-1.7-64.6h40.6v127.4h-43.7l-35.3-60.9h-0.7l1.7,60.7h-40.6L512.9,474.2
			L512.9,474.2z"/>
		<path fill="#221F1C" d="M643.1,474.2h87.6v35.7h-47.2v11h44.4v33.2h-44.4v11.9h50.4v35.7h-90.6V474.2H643.1z"/>
		<path fill="#221F1C" d="M810,601.6h-42.9v-91.1h-31.3v-36.2h105.3v36.2h-31.3v91.1H810z"/>
	</g>
</g>
<g id="D">
	<path fill="#0091D9" d="M218.5,230.9l5.4-5.4l0,0l4.2-4.2c0.7-0.7,1.6-1.4,2.4-1.9c54.2-47.6,136.8-46.2,189.3,4.4
		c0.2,0.2,0.5,0.3,0.7,0.7l9.6,9.6c5.8,5.8,5.8,15,0,20.8c-5.8,5.8-15,5.8-20.8,0l-9.6-9.6c-0.2,0-0.2-0.2-0.2-0.2
		c-42.5-41.1-109.9-41.3-152.7-0.9l-7.5,7.5c-5.8,5.8-15,5.8-20.8,0C212.7,246.1,212.7,236.7,218.5,230.9 M251.4,280.6
		c0-4.2,1.6-8.2,4.7-11.4l6.3-6.3c0.3-0.3,0.7-0.7,1.2-1l1-1c0.2-0.2,0.3-0.3,0.7-0.5c33.2-30.3,84.1-29,116,2.6l3.7,3.8l5.2,5.1
		c6.3,6.3,6.3,16.4,0,22.7s-16.4,6.3-22.7,0l-8.9-8.9c-20.3-20.1-53-20.1-73.3,0l-6.5,6.3c-6.3,6.3-16.3,6.3-22.6,0
		C253.2,288.8,251.4,284.8,251.4,280.6 M298.1,324.8c0-14.2,11.5-25.7,25.7-25.7c14.2,0,25.7,11.5,25.7,25.7s-11.5,25.7-25.7,25.7
		C309.7,350.5,298.1,339,298.1,324.8 M153.4,267.6L153.4,267.6c0,93.8,76.1,169.9,169.9,169.9h169.9V97.7H323.3
		C229.5,97.7,153.4,173.8,153.4,267.6"/>
</g>
<g id="H">
	<path fill="#F77619" d="M732.3,308.4h-93.1v129.1H525V97.7h113.7v115.1h93.1V97.7h114.8v339.9H732.3V308.4z"/>
</g>
</svg>
