<?xml version="1.0" encoding="utf-8"?>
<!-- Generator: Adobe Illustrator 23.0.1, SVG Export Plug-In . SVG Version: 6.00 Build 0)  -->
<svg version="1.1" xmlns="http://www.w3.org/2000/svg" xmlns:xlink="http://www.w3.org/1999/xlink" x="0px" y="0px"
	 viewBox="0 0 1000 700" enable-background="new 0 0 1000 700" xml:space="preserve">
<g id="Typo">
	<g>
		<path fill="#221F1C" d="M361.8,466h-19.9v27.7h-24.5v-72.8h24.4v24.7h19.9v-24.7h24.6v72.8h-24.5V466z"/>
		<path fill="#221F1C" d="M419.4,420.9h26l28.4,72.8h-26.6l-3.8-10.7h-23.1l-3.6,10.7h-25.9L419.4,420.9z M432,446.3l-6,18h11.8
			L432,446.3z"/>
		<path fill="#221F1C" d="M474,420.9h24.7v72.8H474V420.9z"/>
		<path fill="#221F1C" d="M507.4,420.9h24.4l20.8,36.9h0.4l-1-36.9h23.2v72.8h-25L530,458.9h-0.4l1,34.7h-23.2V420.9z"/>
		<path fill="#221F1C" d="M581.8,420.9h50.1v20.4h-27v6.3h25.4v19h-25.4v6.8h28.8v20.4h-51.8V420.9z"/>
		<path fill="#221F1C" d="M677.2,493.7h-24.5v-52.1h-17.9v-20.7h60.2v20.7h-17.9V493.7z"/>
	</g>
</g>
</svg>
