<?xml version="1.0" encoding="utf-8"?>
<!-- Generator: Adobe Illustrator 23.0.1, SVG Export Plug-In . SVG Version: 6.00 Build 0)  -->
<svg version="1.1" id="Calque_1" xmlns="http://www.w3.org/2000/svg" xmlns:xlink="http://www.w3.org/1999/xlink" x="0px" y="0px"
	 viewBox="0 0 24.6 24" enable-background="new 0 0 24.6 24" xml:space="preserve">
<path fill="#442F55" d="M1,1h22.6V23H1V1z"/>
<path fill="#D8A1FF" d="M1,1h22.6V23H1V1z M0,24h24.6V0H0V24z M17.4,11.6c0.5,0,0.7,0,0.8,0c0-0.1,0-0.1,0-0.2
	c0-0.6-0.3-1.6-1.3-1.6c-1,0-1.4,0.9-1.5,1.8H17.4L17.4,11.6z M15.3,13c0,1.4,0.7,2.3,2.2,2.3c0.6,0,1.1-0.1,1.7-0.3
	c0.1,0,0.1,0,0.1,0.1v1.3c0,0.1,0,0.2-0.1,0.2c-0.5,0.3-1.2,0.4-2.1,0.4c-2.7,0-3.7-2-3.7-4.2c0-2.4,1.3-4.4,3.5-4.4
	c2.2,0,3,1.9,3,3.4c0,0.5,0,0.9-0.1,1.1c0,0.1-0.1,0.1-0.1,0.1C19.5,13,18.9,13,18,13L15.3,13L15.3,13z M9.8,11.9
	c-0.3-1.1-1-3.6-1.2-4.8h0c-0.2,1.2-0.8,3.2-1.2,4.8H9.8z M7,13.6l-0.8,3.1c0,0.1-0.1,0.1-0.2,0.1H4.5c-0.1,0-0.1,0-0.1-0.2L7.3,6.4
	c0.1-0.2,0.1-0.3,0.1-0.8c0-0.1,0-0.1,0.1-0.1h2.2c0.1,0,0.1,0,0.1,0.1l3.3,11c0,0.1,0,0.1-0.1,0.1h-1.7c-0.1,0-0.1,0-0.2-0.1
	l-0.8-3.1L7,13.6L7,13.6z"/>
</svg>
