<?xml version="1.0" encoding="utf-8"?>
<!-- Generator: Adobe Illustrator 23.0.1, SVG Export Plug-In . SVG Version: 6.00 Build 0)  -->
<svg version="1.1" id="Calque_1" xmlns="http://www.w3.org/2000/svg" xmlns:xlink="http://www.w3.org/1999/xlink" x="0px" y="0px"
	 viewBox="0 0 24.6 24" enable-background="new 0 0 24.6 24" xml:space="preserve">
<path fill="#423325" d="M1,1h22.6V23H1V1z"/>
<path fill="#FF7F18" d="M1,1h22.6V23H1V1z M0,24h24.6V0H0V24z M16.1,8.6c0-0.1,0-0.1,0.1-0.1h1.6c0.1,0,0.1,0,0.1,0.1v8.1
	c0,0.1,0,0.1-0.1,0.1h-1.6c-0.1,0-0.1-0.1-0.1-0.1L16.1,8.6L16.1,8.6L16.1,8.6z M16,6.2c0-0.7,0.5-1,1-1c0.6,0,1,0.4,1,1
	c0,0.7-0.4,1-1.1,1C16.4,7.3,16,6.9,16,6.2z M11.4,11.9c-0.3-1.1-1-3.6-1.2-4.8h0C9.9,8.3,9.4,10.3,9,11.9H11.4z M8.5,13.6l-0.8,3.1
	c0,0.1-0.1,0.1-0.2,0.1H6.1c-0.1,0-0.1,0-0.1-0.2L8.9,6.4C8.9,6.2,9,6.1,9,5.6c0-0.1,0-0.1,0.1-0.1h2.2c0.1,0,0.1,0,0.1,0.1
	l3.3,11.1c0,0.1,0,0.1-0.1,0.1h-1.7c-0.1,0-0.1,0-0.2-0.1l-0.8-3.1H8.5L8.5,13.6z"/>
</svg>
