<?xml version="1.0" encoding="utf-8"?>
<!-- Generator: Adobe Illustrator 23.0.1, SVG Export Plug-In . SVG Version: 6.00 Build 0)  -->
<svg version="1.1" id="Calque_1" xmlns="http://www.w3.org/2000/svg" xmlns:xlink="http://www.w3.org/1999/xlink" x="0px" y="0px"
	 viewBox="0 0 24.6 24" enable-background="new 0 0 24.6 24" xml:space="preserve">
<path fill="#4B2B36" d="M1,1h22.6V23H1V1z"/>
<path fill="#FF408C" d="M1,1h22.6V23H1V1z M0,24h24.6V0H0V24z M15.6,10c-0.2-0.1-0.4-0.1-0.6-0.1c-1.3,0-2.2,1-2.2,2.7
	c0,1.9,0.9,2.7,2.1,2.7c0.3,0,0.5,0,0.7-0.1V10z M15,8.3c0.2,0,0.3,0,0.5,0V5.6c0-0.1,0.1-0.1,0.1-0.1h1.7c0.1,0,0.1,0,0.1,0.1v9.6
	c0,0.3,0,0.6,0.1,1c0,0.1,0,0.1-0.1,0.1c-0.9,0.4-1.8,0.6-2.7,0.6c-2.3,0-3.9-1.4-3.9-4.3C10.8,10.2,12.4,8.3,15,8.3L15,8.3z
	 M9,16.6c0,0.1,0,0.1-0.1,0.1H7.3c-0.1,0-0.1-0.1-0.1-0.1v-11c0-0.1,0.1-0.1,0.1-0.1h1.6C9,5.5,9,5.5,9,5.6V16.6z"/>
</svg>
