<?xml version="1.0" encoding="utf-8"?>
<!-- Generator: Adobe Illustrator 23.0.1, SVG Export Plug-In . SVG Version: 6.00 Build 0)  -->
<svg version="1.1" id="Calque_1" xmlns="http://www.w3.org/2000/svg" xmlns:xlink="http://www.w3.org/1999/xlink" x="0px" y="0px"
	 viewBox="0 0 24.6 24" enable-background="new 0 0 24.6 24" xml:space="preserve">
<path fill="#39464D" d="M1,1h22.6V23H1V1z"/>
<path fill="#AAD1EB" d="M1,1h22.6V23H1V1z M0,24h24.6V0H0V24z M14.4,10.1c0-0.1,0-0.4-0.1-1c0-0.1,0-0.1,0.1-0.1
	c0.6-0.3,2.1-0.7,3.8-0.7c0.1,0,0.1,0,0.1,0.1v1.5c0,0.1,0,0.1-0.1,0.1c-0.6,0-1.6,0.1-2,0.2v6.5c0,0.1,0,0.1-0.1,0.1h-1.6
	c-0.1,0-0.1,0-0.1-0.1L14.4,10.1L14.4,10.1L14.4,10.1L14.4,10.1z M6.8,16.7c-0.1,0-0.2-0.1-0.2-0.2v-11c0-0.1,0-0.1,0.1-0.1h1.6
	c0.1,0,0.1,0,0.1,0.1v9.5h4.2c0.1,0,0.1,0,0.1,0.1l-0.3,1.5c0,0.1-0.1,0.1-0.2,0.1L6.8,16.7L6.8,16.7z"/>
</svg>
