<?xml version="1.0" encoding="utf-8"?>
<!-- Generator: Adobe Illustrator 23.0.1, SVG Export Plug-In . SVG Version: 6.00 Build 0)  -->
<svg version="1.1" id="Calque_1" xmlns="http://www.w3.org/2000/svg" xmlns:xlink="http://www.w3.org/1999/xlink" x="0px" y="0px"
	 viewBox="0 0 24.6 24" enable-background="new 0 0 24.6 24" xml:space="preserve">
<path fill="#34364E" d="M1,1h22.6V23H1V1z"/>
<path fill="#31C5F0" d="M1,1h22.6V23H1V1z M0,24h24.6V0H0V24z M16.6,9.8c-0.8,0-1.1,0.4-1.1,0.7c0,0.4,0.2,0.6,1.3,1.2
	c1.6,0.8,2.1,1.5,2.1,2.6c0,1.6-1.3,2.5-2.9,2.5c-0.9,0-1.7-0.2-2.1-0.4c-0.1,0-0.1-0.1-0.1-0.2v-1.5c0-0.1,0.1-0.1,0.1-0.1
	c0.6,0.4,1.4,0.6,2.1,0.6c0.8,0,1.1-0.3,1.1-0.8c0-0.4-0.2-0.7-1.3-1.2c-1.5-0.7-2.1-1.4-2.1-2.6c0-1.3,1-2.4,2.8-2.4
	c0.9,0,1.5,0.1,1.8,0.3c0.1,0.1,0.1,0.1,0.1,0.2v1.4c0,0.1-0.1,0.1-0.2,0.1C17.9,10,17.3,9.8,16.6,9.8L16.6,9.8z M7.8,11.1
	c0.2,0,0.4,0,0.8,0c1.2,0,2.3-0.4,2.3-2.1c0-1.3-0.8-2-2.2-2c-0.4,0-0.8,0-1,0V11.1z M5.9,5.6c0-0.1,0.1-0.1,0.2-0.1
	c0.7,0,1.6-0.1,2.6-0.1c2.8,0,3.9,1.6,3.9,3.5c0,2.6-1.9,3.7-4.2,3.7c-0.4,0-0.5,0-0.8,0v3.9c0,0.1,0,0.1-0.1,0.1H6.1
	c-0.1,0-0.1,0-0.1-0.1L5.9,5.6L5.9,5.6z"/>
</svg>
