<?xml version="1.0" encoding="utf-8"?>
<!-- Generator: Adobe Illustrator 23.0.1, SVG Export Plug-In . SVG Version: 6.00 Build 0)  -->
<svg version="1.1" xmlns="http://www.w3.org/2000/svg" xmlns:xlink="http://www.w3.org/1999/xlink" x="0px" y="0px"
	 viewBox="0 0 24.6 24" enable-background="new 0 0 24.6 24" xml:space="preserve">
<g id="Calque_1">
</g>
<g id="ps_x5F_cc_x5F_app_x5F_RGB.svg">
	<path fill="#2E001E" d="M1,1h22.6V23H1V1z"/>
	<path fill="#FF2BC2" d="M0,0v24h24.6V0H0z M1,1h22.6V23H1V1z"/>
	<path fill="#FF2BC2" d="M17.9,10.1C17.7,10,17.5,10,17.3,10c-1.3,0-2.2,1-2.2,2.6c0,1.9,0.9,2.6,2,2.6c0.2,0,0.5,0,0.7-0.1
		L17.9,10.1L17.9,10.1z M13.3,12.7c0-2.4,1.5-4.3,4.1-4.3c0.2,0,0.3,0,0.5,0V5.8c0-0.1,0.1-0.1,0.1-0.1h1.7c0.1,0,0.1,0,0.1,0.1v9.4
		c0,0.3,0,0.6,0.1,1c0,0.1,0,0.1-0.1,0.1c-0.9,0.4-1.8,0.6-2.6,0.6C14.9,16.9,13.3,15.5,13.3,12.7L13.3,12.7z M9.8,11l2.9,5.6
		c0.1,0.1,0,0.2-0.1,0.2h-1.8c-0.1,0-0.2,0-0.2-0.1c-0.7-1.4-1.3-2.8-2-4.2h0c-0.6,1.4-1.3,2.9-1.9,4.2c-0.1,0.1-0.1,0.1-0.2,0.1
		H4.7c-0.1,0-0.1-0.1-0.1-0.1l2.8-5.4L4.8,5.8c-0.1-0.1,0-0.2,0.1-0.2h1.8c0.1,0,0.2,0,0.2,0.1c0.6,1.4,1.3,2.7,1.9,4.1h0
		c0.6-1.4,1.3-2.7,1.9-4.1c0.1-0.1,0.1-0.1,0.2-0.1h1.7c0.1,0,0.1,0.1,0.1,0.2L9.8,11L9.8,11z"/>
</g>
</svg>
