<?xml version="1.0" encoding="utf-8"?>
<!-- Generator: Adobe Illustrator 23.0.1, SVG Export Plug-In . SVG Version: 6.00 Build 0)  -->
<svg version="1.1" id="Calque_1" xmlns="http://www.w3.org/2000/svg" xmlns:xlink="http://www.w3.org/1999/xlink" x="0px" y="0px"
	 viewBox="0 0 1000 700" enable-background="new 0 0 1000 700" xml:space="preserve">
<g>
	<g id="Typo">
		<g opacity="0.2">
			<path fill="#FF0000" d="M281.8,637.9h-6.5l25.1-57.3h5.7l24.9,57.3h-6.6l-6.4-15h-30L281.8,637.9z M290.3,617.4h25.6l-12.7-30.5
				L290.3,617.4z"/>
			<path fill="#FF0000" d="M358.7,637.9h-5.8v-24.7l-21.7-32.7h7.4l17.4,27.8l17.6-27.8h6.9l-21.7,32.7v24.7H358.7z"/>
			<path fill="#FF0000" d="M398,637.9h-5.8v-57.3h5.8V637.9z"/>
			<path fill="#FF0000" d="M436.1,637.9h-5.8v-52.2h-19.4v-5.2h44.7v5.2h-19.4L436.1,637.9L436.1,637.9z"/>
			<path fill="#FF0000" d="M474.2,637.9h-5.8v-57.3h5.8V637.9z"/>
			<path fill="#FF0000" d="M546.9,628L546.9,628l19.5-47.5h9v57.3h-5.8V588h-0.2l-21,49.8h-3.1l-21-49.8h-0.2v49.8h-5.8v-57.3h9
				L546.9,628z"/>
			<path fill="#FF0000" d="M600.8,637.9H595v-57.3h5.8V637.9z"/>
			<path fill="#FF0000" d="M619.9,637.9h-6.5l25.1-57.3h5.7l24.9,57.3h-6.5l-6.4-15h-30L619.9,637.9z M628.4,617.4H654l-12.7-30.5
				L628.4,617.4z"/>
			<path fill="#FF0000" d="M710.5,628L710.5,628l19.5-47.5h9v57.3h-5.8V588h-0.2l-21,49.8h-3.1l-21-49.8h-0.1v49.8h-5.8v-57.3h9
				L710.5,628z"/>
		</g>
	</g>
	<g id="Kosmika">
		<g opacity="0.2">
			<path fill="#FF0000" d="M725.1,434.2c-4.3,0.2-8.6,0.6-12.8,1.3c-4.3,0.6-8.1,1.6-11.6,2.8c-3.3,1.3-6.2,3-8.4,5.2
				s-3.2,5-3.2,8.5c0,2.2,0.5,4,1.6,5.5c1,1.5,2.4,2.7,4,3.6c1.6,0.8,3.4,1.5,5.4,1.7c2.1,0.3,4.1,0.4,6,0.3
				c7.8-0.4,13.9-2.8,18-7.3c4.1-4.5,6.2-10.3,6.1-17.6l-0.1-4L725.1,434.2z"/>
			<path fill="#FF0000" d="M506,73.6c-173,0-313.3,188.4-313.3,318.1S333,543.3,506,543.3s313.3-21.9,313.3-151.6S679,73.6,506,73.6
				z M599.6,213c2.9-5,6.7-9.2,11.4-12.6c4.7-3.3,9.9-6,15.7-7.7s11.4-2.8,17.1-3.1c8.8-0.4,17.4,0.4,25.9,2.7
				c8.5,2.3,15.7,6,21.5,11.1l-21,23c-3.2-2.8-6.9-5.1-11.2-6.9c-4.3-1.8-8.8-2.6-13.5-2.3c-3.7,0.2-7,1-10,2.6
				c-3,1.6-4.6,4.1-4.5,7.4c0,3.2,1.8,5.5,5.2,6.7c3.4,1.3,8.9,2.5,16.5,3.8c4.4,0.7,8.9,1.8,13.4,3.2c4.5,1.5,8.6,3.6,12.2,6.2
				c3.7,2.6,6.6,5.8,8.9,9.8c2.3,4,3.4,8.7,3.6,14.3c0.1,7.3-1.4,13.6-4.2,18.7c-2.9,5.2-6.8,9.5-11.5,12.8
				c-4.8,3.3-10.1,5.8-16.1,7.6c-6,1.7-11.9,2.7-18,3c-9.6,0.5-19-0.5-28.3-3c-4.2-1.1-7.9-2.6-11.5-4.4c0.8-1.6,1.7-3.2,2.4-4.9
				c3.3-7.8,5.4-16.4,6.2-25.5l1-1.3c3.6,3.6,7.8,6.5,12.8,8.7c5.1,2.2,10.4,3.1,16.1,2.9c3.1-0.2,6.3-1,9.3-2.7
				c3-1.7,4.6-4.3,4.5-8c-0.1-3.6-2-6.2-5.7-7.6c-3.8-1.5-9.7-3-17.8-4.4c-4.1-0.7-8.2-1.8-12.3-3.1c-3-0.9-5.7-2.4-8.2-4
				c-1-8.9-3.3-17-6.9-24.4c-1.8-3.8-3.9-7.2-6.2-10.4C597.1,218.1,598.1,215.5,599.6,213z M401.3,519.3l-0.5-100.4
				c0-3.2-0.3-6.4-0.8-9.4c-0.5-3-1.5-5.5-2.7-7.6c-1.3-2.1-3-3.8-5.1-5c-2.2-1.3-4.9-1.7-8.5-1.6c-3.3,0.2-6.2,1-8.6,2.5
				c-2.4,1.6-4.5,3.4-6.1,6c-1.7,2.4-2.8,5.1-3.6,8.2c-0.7,3-1,6.3-1,9.5l0.5,93c-13.7-2.3-26.6-5-38.8-8.4l-0.5-86.1
				c-0.1-6.7-1.5-11.9-4.3-15.7c-2.7-3.8-7-5.4-12.8-5.1c-6.2,0.3-10.9,2.9-14.2,7.9c-3.3,5-4.9,11-4.8,18l0.4,67.9
				c-15.4-7.2-28.6-16-39.4-26.6l-0.8-92.4l37.6-2l0.2,16.1h0.5c1.4-2.5,3.1-5,5.2-7.5c2.1-2.4,4.6-4.6,7.6-6.6
				c2.9-1.9,6.3-3.6,10-4.8c3.7-1.3,7.7-2,12.1-2.3c8.5-0.4,15.8,0.9,21.7,4c6,3.1,10.7,7.7,14,14c3.9-6.3,8.9-11.3,14.9-15.2
				c6.1-3.9,13.6-6.1,22.3-6.5c8-0.4,14.8,0.6,20.3,3.2c5.4,2.6,9.9,6.1,13.3,10.5c3.3,4.4,5.8,9.4,7.4,15
				c1.6,5.6,2.4,11.1,2.5,16.5l0.6,113.6C426.7,521.4,413.8,520.5,401.3,519.3z M414.6,349.3l-39.3-53.7h-0.7l0.8,55.7l-38.9,2
				l-2.5-176l38.9-2l1.5,107h0.7l36.9-49l47-2.4l-44.6,54.7l48.1,61.1L414.6,349.3z M506,523.6c-12.5,0-25-0.1-37.1-0.4l-3-119.6
				l38.7-2l3,122C507.1,523.6,506.5,523.6,506,523.6z M462.6,366.7c0-2.8,0.5-5.5,1.6-8.1c1-2.6,2.6-4.9,4.6-6.9s4.4-3.7,7-4.9
				c2.6-1.3,5.5-2,8.7-2.2c3-0.1,5.8,0.2,8.7,1.1c2.8,0.9,5.1,2.3,7.1,4.1c2,1.8,3.6,3.9,4.8,6.4c1.3,2.5,1.9,5.2,1.9,8.1
				c0,2.9-0.5,5.7-1.7,8.4c-1.1,2.6-2.7,4.9-4.6,6.9c-2,2-4.3,3.6-7,4.8s-5.6,1.9-8.6,2.1c-6.3,0.3-11.6-1.5-15.9-5.3
				C464.9,377.3,462.7,372.5,462.6,366.7z M497.3,329.5c-8-2.5-14.9-6.4-21-11.4c-6-5-10.8-11.3-14.3-18.8c-3.6-7.5-5.4-16-5.5-25.5
				c-0.1-9.5,1.5-18.1,4.8-25.9c3.3-7.8,7.9-14.5,13.8-20c5.8-5.5,12.7-10,20.6-13.2c7.9-3.2,16.3-5,25.1-5.5
				c9-0.4,17.4,0.5,25.4,2.9s14.9,6.1,21,11.1c6.1,5,10.9,11.2,14.4,18.6c3.6,7.4,5.4,15.9,5.5,25.4c0.1,9.5-1.5,18.2-4.8,26
				c-3.3,7.8-7.9,14.6-13.9,20.3c-6,5.6-12.7,10.1-20.6,13.6c-7.8,3.3-16.2,5.2-25.2,5.7C513.7,333.2,505.4,332.2,497.3,329.5z
				 M616.8,518.7L571.4,460h-0.7l1.5,62c-12.6,0.6-25.7,1-38.9,1.3L530,353.7c9.4-1.1,18.3-3.4,26.7-7.1c4.3-1.8,8.2-4,12.1-6.3
				l1.5,106.4h0.7l36.9-49l47-2.4L610.4,450L661,512C647.1,514.8,632.2,517,616.8,518.7z M739,484l-8.1,0.4l-0.2-12.3h-0.7
				c-2.9,5-7.4,8.9-13.4,11.9c-6.1,2.9-12.5,4.6-19.6,5c-4.7,0.2-9.6-0.1-14.6-1.1c-5-0.9-9.7-2.7-13.9-5.3
				c-4.2-2.6-7.7-6.2-10.4-10.7c-2.7-4.5-4.2-10.1-4.3-17c-0.1-8.4,2.1-15.2,6.7-20.6c4.6-5.3,10.5-9.6,17.8-12.8
				c7.3-3.1,15.5-5.4,24.3-6.9c9-1.4,17.6-2.3,26.2-2.7v-1.9c-0.1-5.7-2.2-9.8-6.4-12.3c-4.2-2.5-9.2-3.6-15.1-3.2
				c-5.5,0.3-10.9,1.8-15.9,4.3c-5.1,2.6-9.4,5.6-12.9,9.1L658.5,388c6.8-6.9,14.8-12.2,24-15.9c9.2-3.8,18.6-5.8,28.2-6.4
				c9.9-0.5,18.3,0.2,25.2,2.3c6.9,2.1,12.5,5.5,16.8,10.3c4.3,4.8,7.5,11.1,9.6,18.6c2.1,7.6,3.2,16.6,3.3,27.2l0.5,37.6
				C758.3,470.2,749.3,477.6,739,484z"/>
			<path fill="#FF0000" d="M549.8,269.1c-0.1-3.8-0.7-7.3-2.1-10.9c-1.4-3.6-3.1-6.6-5.5-9.2c-2.4-2.6-5.3-4.7-8.9-6.2
				c-3.4-1.6-7.5-2.2-12.1-2c-4.6,0.2-8.6,1.3-12,3.2c-3.4,1.9-6.3,4.3-8.6,7.1c-2.3,2.8-4,6.1-5,9.7c-1.1,3.7-1.7,7.3-1.7,11.1
				c0.1,3.8,0.7,7.3,1.9,10.9c1.3,3.6,3,6.7,5.4,9.4c2.4,2.7,5.3,4.9,8.9,6.4c3.4,1.6,7.5,2.2,12.1,1.9c4.6-0.2,8.6-1.3,12-3.1
				c3.4-1.9,6.3-4.3,8.7-7.3c2.3-3,4.1-6.3,5.2-9.9C549.3,276.5,549.9,272.8,549.8,269.1z"/>
		</g>
	</g>
	<g id="Kosmika_1_">
		<g>
			<path fill="none" stroke="#000000" stroke-miterlimit="10" stroke-dasharray="6" d="M506,73.6c-173,0-313.3,188.4-313.3,318.1
				S333,543.3,506,543.3s313.3-21.9,313.3-151.6S679,73.6,506,73.6z M497.3,329.5c-8-2.5-14.9-6.4-21-11.4c-6-5-10.8-11.3-14.3-18.8
				c-3.6-7.5-5.4-16-5.5-25.5c-0.1-9.5,1.5-18.1,4.8-25.9c3.3-7.8,7.9-14.5,13.8-20c5.8-5.5,12.7-10,20.6-13.2
				c7.9-3.2,16.3-5,25.1-5.5c9-0.4,17.4,0.5,25.4,2.9s14.9,6.1,21,11.1c6.1,5,10.9,11.2,14.4,18.6c3.6,7.4,5.4,15.9,5.5,25.4
				c0.1,9.5-1.5,18.2-4.8,26c-3.3,7.8-7.9,14.6-13.9,20.3c-6,5.6-12.7,10.1-20.6,13.6c-7.8,3.3-16.2,5.2-25.2,5.7
				C513.7,333.2,505.4,332.2,497.3,329.5z M488.5,350.8c-11-3.4-20.4-8.7-28.6-15.6c-8.1-6.8-14.6-15.4-19.5-25.6
				c-4.8-10.2-7.4-21.8-7.5-34.8c-0.1-12.9,2-24.6,6.6-35.3c4.6-10.7,10.9-19.7,18.8-27.4c7.9-7.5,17.3-13.7,28.1-18
				c10.9-4.4,22.2-6.8,34.1-7.5c12.2-0.5,23.8,0.7,34.6,4c10.9,3.2,20.4,8.2,28.6,15c8.2,6.8,14.8,15.2,19.6,25.4
				c4.8,10.1,7.4,21.6,7.5,34.6c0.1,12.9-2,24.7-6.6,35.4c-4.6,10.7-10.9,19.9-18.9,27.6c-8.1,7.7-17.3,13.8-28.1,18.5
				c-10.7,4.6-22,7.1-34.4,7.8C510.8,355.8,499.4,354.4,488.5,350.8z"/>
			<g>
				<path fill="none" stroke="#000000" stroke-miterlimit="10" stroke-dasharray="6" d="M506,93.3c-158.5,0-287,172.5-287,291.3
					s128.4,138.9,287,138.9s287-20,287-138.9S664.5,93.3,506,93.3z"/>
			</g>
		</g>
	</g>
	<line fill="none" stroke="#000000" stroke-miterlimit="10" stroke-dasharray="6" x1="275.3" y1="637.9" x2="739" y2="637.8"/>
	<line fill="none" stroke="#000000" stroke-miterlimit="10" stroke-dasharray="6" x1="275.3" y1="580.6" x2="739" y2="580.5"/>
	
		<rect x="199.4" y="80.7" fill="none" stroke="#000000" stroke-miterlimit="10" stroke-dasharray="6" width="613.8" height="568.9"/>
</g>
<g id="Mode_Isolation">
</g>
</svg>
