<?xml version="1.0" encoding="utf-8"?>
<!-- Generator: Adobe Illustrator 23.0.1, SVG Export Plug-In . SVG Version: 6.00 Build 0)  -->
<svg version="1.1" id="Calque_1" xmlns="http://www.w3.org/2000/svg" xmlns:xlink="http://www.w3.org/1999/xlink" x="0px" y="0px"
	 viewBox="0 0 1000 700" enable-background="new 0 0 1000 700" xml:space="preserve">
<g id="Typo">
	<g>
		<path d="M271.2,638h-6.6l25.6-58.5h5.9l25.4,58.5h-6.7l-6.5-15.3h-30.6L271.2,638z M279.8,617.1h26.1l-13-31.1L279.8,617.1z"/>
		<path d="M349.6,638h-6v-25.3l-22.2-33.4h7.6l17.8,28.4l18-28.4h7l-22.2,33.4V638H349.6z"/>
		<path d="M389.8,638h-6v-58.5h6V638z"/>
		<path d="M428.7,638h-6v-53.3h-19.8v-5.3h45.6v5.3h-19.8L428.7,638L428.7,638z"/>
		<path d="M467.5,638h-6v-58.5h6V638z"/>
		<path d="M541.8,627.9L541.8,627.9l19.9-48.5h9.2v58.5h-6v-50.8h-0.2l-21.4,50.8h-3.2l-21.4-50.8h-0.2v50.8h-6v-58.5h9.2
			L541.8,627.9z"/>
		<path d="M596.8,638h-6v-58.5h6V638z"/>
		<path d="M616.3,638h-6.6l25.6-58.5h5.9l25.4,58.5h-6.6l-6.5-15.3h-30.6L616.3,638z M624.9,617.1H651L638,586L624.9,617.1z"/>
		<path d="M708.7,627.9L708.7,627.9l19.9-48.5h9.2v58.5h-6v-50.8h-0.2l-21.4,50.8H707l-21.4-50.8h-0.1v50.8h-6v-58.5h9.2
			L708.7,627.9z"/>
	</g>
</g>
<g id="Kosmika">
	<g>
		<path fill="#FBBA00" d="M723.6,430c-4.4,0.2-8.7,0.6-13.1,1.3s-8.3,1.6-11.8,2.9c-3.4,1.3-6.3,3.1-8.5,5.3
			c-2.2,2.2-3.3,5.1-3.3,8.6c0,2.2,0.5,4.1,1.6,5.6c1.1,1.5,2.5,2.8,4.1,3.6s3.5,1.5,5.5,1.7c2.1,0.3,4.2,0.4,6.1,0.3
			c8-0.4,14.2-2.9,18.3-7.5c4.2-4.6,6.3-10.6,6.2-18l-0.1-4.1L723.6,430z"/>
		<path fill="#FBBA00" d="M500,62c-176.6,0-319.8,192.3-319.8,324.7S323.4,541.4,500,541.4S819.8,519,819.8,386.7S676.6,62,500,62z
			 M595.5,204.3c3-5.1,6.8-9.4,11.6-12.9c4.8-3.4,10.1-6.1,16-7.9c5.9-1.8,11.6-2.9,17.5-3.2c9-0.4,17.8,0.4,26.4,2.8
			c8.6,2.3,16,6.1,22,11.3l-21.4,23.4c-3.3-2.9-7-5.2-11.4-7c-4.4-1.8-9-2.7-13.7-2.3c-3.7,0.2-7.1,1.1-10.2,2.7
			c-3.1,1.6-4.7,4.2-4.6,7.6c0,3.3,1.8,5.6,5.3,6.8c3.5,1.3,9.1,2.6,16.8,3.8c4.5,0.7,9.1,1.8,13.6,3.3c4.6,1.5,8.7,3.6,12.5,6.3
			c3.7,2.7,6.7,6,9.1,10c2.3,4.1,3.5,8.8,3.6,14.6c0.1,7.5-1.4,13.9-4.3,19.1c-3,5.3-6.9,9.7-11.7,13.1c-4.9,3.4-10.3,6-16.4,7.8
			c-6.1,1.7-12.2,2.8-18.3,3.1c-9.8,0.5-19.4-0.5-28.9-3.1c-4.3-1.2-8.1-2.7-11.7-4.5c0.9-1.6,1.7-3.3,2.5-5c3.4-8,5.5-16.7,6.3-26
			l1.1-1.3c3.6,3.6,8,6.6,13.1,8.8c5.2,2.2,10.7,3.2,16.4,3c3.2-0.2,6.4-1.1,9.5-2.8s4.7-4.4,4.6-8.2c-0.1-3.6-2-6.3-5.9-7.8
			c-3.8-1.5-9.9-3.1-18.1-4.5c-4.2-0.7-8.4-1.8-12.6-3.2c-3.1-1-5.9-2.5-8.4-4.1c-1.1-9.1-3.4-17.4-7-24.9
			c-1.8-3.8-3.9-7.4-6.3-10.7C592.9,209.5,594,206.9,595.5,204.3z M393.1,516.9l-0.5-102.4c0-3.3-0.3-6.5-0.9-9.6s-1.5-5.6-2.8-7.8
			c-1.3-2.1-3.1-3.8-5.2-5.1c-2.2-1.3-5-1.7-8.6-1.6c-3.4,0.2-6.3,1.1-8.7,2.6c-2.5,1.6-4.6,3.5-6.2,6.1c-1.7,2.5-2.9,5.2-3.6,8.4
			c-0.7,3.1-1.1,6.4-1.1,9.7l0.5,95c-14-2.3-27.2-5.1-39.7-8.5l-0.5-87.9c-0.1-6.8-1.5-12.2-4.4-16c-2.8-3.8-7.1-5.5-13.1-5.2
			c-6.3,0.3-11.1,3-14.5,8.1c-3.4,5.1-5,11.2-4.9,18.3l0.4,69.3c-15.7-7.4-29.2-16.3-40.2-27.2l-0.9-94.3l38.4-2l0.2,16.4h0.5
			c1.4-2.6,3.2-5.1,5.3-7.7c2.1-2.5,4.7-4.7,7.8-6.7c3-1.9,6.4-3.6,10.2-4.9c3.7-1.3,7.9-2,12.4-2.3c8.6-0.4,16.1,1,22.2,4.1
			c6.1,3.2,10.9,7.9,14.3,14.3c3.9-6.4,9.1-11.5,15.2-15.6c6.2-3.9,13.9-6.2,22.8-6.6c8.2-0.4,15.1,0.6,20.7,3.3
			c5.5,2.7,10.1,6.2,13.5,10.8c3.4,4.5,6,9.6,7.6,15.3c1.6,5.8,2.5,11.3,2.6,16.8l0.6,116C419.1,519,405.9,518.2,393.1,516.9z
			 M406.7,343.4l-40.1-54.8h-0.7l0.9,56.8l-39.8,2l-2.6-179.6l39.8-2l1.5,109.3h0.7l37.6-50l48-2.5l-45.5,55.9l49.1,62.4
			L406.7,343.4z M500,521.3c-12.8,0-25.5-0.1-37.8-0.4l-3.1-122l39.5-2l3.1,124.5C501.2,521.3,500.5,521.3,500,521.3z M455.7,361.2
			c0-2.9,0.5-5.6,1.6-8.3c1.1-2.7,2.7-5,4.7-7c2-2,4.5-3.7,7.1-5c2.7-1.3,5.6-2,8.8-2.2c3.1-0.1,6,0.2,8.8,1.2s5.2,2.3,7.2,4.2
			c2,1.8,3.6,3.9,4.9,6.5c1.3,2.6,1.9,5.3,1.9,8.3s-0.5,5.9-1.7,8.5c-1.2,2.7-2.8,5-4.7,7c-2,2-4.4,3.6-7.1,4.9
			c-2.8,1.3-5.8,1.9-8.7,2.1c-6.4,0.3-11.8-1.5-16.2-5.4C458,372,455.8,367.1,455.7,361.2z M491.2,323.2
			c-8.2-2.6-15.2-6.5-21.4-11.6c-6.1-5.1-11-11.5-14.6-19.2c-3.6-7.7-5.5-16.3-5.6-26s1.5-18.4,4.9-26.4c3.4-8,8.1-14.8,14.1-20.5
			c6-5.6,13-10.2,21-13.4c8.1-3.3,16.6-5.1,25.6-5.6c9.2-0.4,17.8,0.5,25.9,3s15.2,6.2,21.4,11.3s11.1,11.4,14.7,19
			s5.5,16.2,5.6,25.9c0.1,9.7-1.5,18.5-4.9,26.5c-3.4,8-8.1,14.9-14.2,20.7s-13,10.3-21,13.9c-8,3.4-16.5,5.3-25.7,5.9
			C507.9,327,499.4,325.9,491.2,323.2z M613.1,516.3l-46.4-59.9H566l1.5,63.3c-12.9,0.6-26.2,1.1-39.8,1.3l-3.2-173.1
			c9.6-1.2,18.7-3.5,27.3-7.2c4.4-1.8,8.4-4.1,12.4-6.4l1.5,108.6h0.7l37.6-50l48-2.5l-45.4,55.9l51.6,63.2
			C644,512.3,628.9,514.6,613.1,516.3z M737.8,480.9l-8.3,0.4l-0.2-12.6h-0.7c-3,5.1-7.6,9.1-13.6,12.2c-6.2,3-12.8,4.7-20,5.1
			c-4.8,0.2-9.8-0.1-14.9-1.2c-5.1-1-9.9-2.8-14.2-5.4c-4.3-2.7-7.9-6.3-10.7-10.9c-2.8-4.6-4.3-10.3-4.4-17.4
			c-0.1-8.5,2.1-15.6,6.8-21s10.8-9.8,18.1-13.1c7.5-3.2,15.8-5.5,24.8-7c9.2-1.4,18-2.3,26.8-2.8v-1.9c-0.1-5.9-2.2-10-6.5-12.6
			c-4.3-2.6-9.4-3.6-15.5-3.3c-5.6,0.3-11.1,1.8-16.2,4.4c-5.2,2.7-9.6,5.8-13.2,9.3l-20.3-20.1c6.9-7,15.1-12.5,24.5-16.2
			c9.4-3.8,19-6,28.8-6.5c10.1-0.5,18.7,0.2,25.7,2.3c7,2.1,12.8,5.6,17.2,10.6s7.7,11.3,9.8,19c2.1,7.8,3.3,16.9,3.4,27.7l0.5,38.4
			C757.5,466.8,748.3,474.4,737.8,480.9z"/>
		<path fill="#FBBA00" d="M544.7,261.5c-0.1-3.8-0.7-7.5-2.1-11.1s-3.2-6.7-5.6-9.4c-2.5-2.7-5.4-4.8-9.1-6.3
			c-3.5-1.6-7.7-2.2-12.4-2c-4.7,0.2-8.7,1.3-12.3,3.3c-3.5,1.9-6.4,4.4-8.7,7.2s-4.1,6.2-5.1,9.9c-1.2,3.7-1.7,7.5-1.7,11.3
			c0.1,3.8,0.7,7.5,1.9,11.1c1.3,3.6,3.1,6.8,5.5,9.6c2.5,2.8,5.4,5,9.1,6.5c3.5,1.6,7.7,2.2,12.4,1.9c4.7-0.2,8.7-1.3,12.3-3.2
			c3.5-1.9,6.4-4.4,8.8-7.5c2.3-3.1,4.2-6.4,5.3-10.1C544.2,269.1,544.8,265.4,544.7,261.5z"/>
	</g>
</g>
</svg>
