<?xml version="1.0" encoding="utf-8"?>
<!-- Generator: Adobe Illustrator 23.0.1, SVG Export Plug-In . SVG Version: 6.00 Build 0)  -->
<svg version="1.1" id="Kosmika" xmlns="http://www.w3.org/2000/svg" xmlns:xlink="http://www.w3.org/1999/xlink" x="0px" y="0px"
	 viewBox="0 0 1000 700" enable-background="new 0 0 1000 700" xml:space="preserve">
<g>
	<path fill="#FBBA00" d="M709.8,425.1c-4.1,0.2-8.2,0.6-12.3,1.2s-7.8,1.5-11.1,2.7c-3.2,1.2-5.9,2.9-8,5s-3.1,4.8-3.1,8.1
		c0,2.1,0.5,3.8,1.5,5.3c1,1.4,2.3,2.6,3.8,3.4s3.3,1.4,5.2,1.6c2,0.3,3.9,0.4,5.7,0.3c7.5-0.4,13.3-2.7,17.2-7s5.9-9.9,5.8-16.9
		l-0.1-3.8L709.8,425.1z"/>
	<path fill="#FBBA00" d="M500,79.8c-165.7,0-300,180.4-300,304.6s134.3,145.2,300,145.2s300-21,300-145.2S665.7,79.8,500,79.8z
		 M589.6,213.3c2.8-4.8,6.4-8.8,10.9-12.1c4.5-3.2,9.5-5.7,15-7.4s10.9-2.7,16.4-3c8.4-0.4,16.7,0.4,24.8,2.6
		c8.1,2.2,15,5.7,20.6,10.6l-20.1,22c-3.1-2.7-6.6-4.9-10.7-6.6c-4.1-1.7-8.4-2.5-12.9-2.2c-3.5,0.2-6.7,1-9.6,2.5
		c-2.9,1.5-4.4,3.9-4.3,7.1c0,3.1,1.7,5.3,5,6.4c3.3,1.2,8.5,2.4,15.8,3.6c4.2,0.7,8.5,1.7,12.8,3.1c4.3,1.4,8.2,3.4,11.7,5.9
		s6.3,5.6,8.5,9.4c2.2,3.8,3.3,8.3,3.4,13.7c0.1,7-1.3,13-4,17.9c-2.8,5-6.5,9.1-11,12.3c-4.6,3.2-9.7,5.6-15.4,7.3
		c-5.7,1.6-11.4,2.6-17.2,2.9c-9.2,0.5-18.2-0.5-27.1-2.9c-4-1.1-7.6-2.5-11-4.2c0.8-1.5,1.6-3.1,2.3-4.7c3.2-7.5,5.2-15.7,5.9-24.4
		l1-1.2c3.4,3.4,7.5,6.2,12.3,8.3c4.9,2.1,10,3,15.4,2.8c3-0.2,6-1,8.9-2.6s4.4-4.1,4.3-7.7c-0.1-3.4-1.9-5.9-5.5-7.3
		s-9.3-2.9-17-4.2c-3.9-0.7-7.9-1.7-11.8-3c-2.9-0.9-5.5-2.3-7.9-3.8c-1-8.5-3.2-16.3-6.6-23.4c-1.7-3.6-3.7-6.9-5.9-10
		C587.2,218.2,588.2,215.7,589.6,213.3z M399.7,506.6l-0.5-96.1c0-3.1-0.3-6.1-0.8-9s-1.4-5.3-2.6-7.3s-2.9-3.6-4.9-4.8
		c-2.1-1.2-4.7-1.6-8.1-1.5c-3.2,0.2-5.9,1-8.2,2.4c-2.3,1.5-4.3,3.3-5.8,5.7c-1.6,2.3-2.7,4.9-3.4,7.9c-0.7,2.9-1,6-1,9.1l0.5,89.1
		c-13.1-2.2-25.5-4.8-37.2-8l-0.5-82.5c-0.1-6.4-1.4-11.4-4.1-15c-2.6-3.6-6.7-5.2-12.3-4.9c-5.9,0.3-10.4,2.8-13.6,7.6
		c-3.2,4.8-4.7,10.5-4.6,17.2l0.4,65c-14.7-6.9-27.4-15.3-37.7-25.5l-0.8-88.5l36-1.9l0.2,15.4h0.5c1.3-2.4,3-4.8,5-7.2
		c2-2.3,4.4-4.4,7.3-6.3c2.8-1.8,6-3.4,9.6-4.6c3.5-1.2,7.4-1.9,11.6-2.2c8.1-0.4,15.1,0.9,20.8,3.8c5.7,3,10.2,7.4,13.4,13.4
		c3.7-6,8.5-10.8,14.3-14.6c5.8-3.7,13-5.8,21.4-6.2c7.7-0.4,14.2,0.6,19.4,3.1c5.2,2.5,9.5,5.8,12.7,10.1c3.2,4.2,5.6,9,7.1,14.4
		s2.3,10.6,2.4,15.8l0.6,108.8C424.1,508.6,411.7,507.8,399.7,506.6z M412.5,343.8l-37.6-51.4h-0.7l0.8,53.3l-37.3,1.9l-2.4-168.5
		l37.3-1.9l1.4,102.5h0.7l35.3-46.9l45-2.3l-42.7,52.4l46.1,58.5L412.5,343.8z M500,510.7c-12,0-23.9-0.1-35.5-0.4l-2.9-114.5
		l37.1-1.9l2.9,116.8C501.1,510.7,500.5,510.7,500,510.7z M458.4,360.5c0-2.7,0.5-5.3,1.5-7.8s2.5-4.7,4.4-6.6s4.2-3.5,6.7-4.7
		s5.3-1.9,8.3-2.1c2.9-0.1,5.6,0.2,8.3,1.1c2.7,0.9,4.9,2.2,6.8,3.9c1.9,1.7,3.4,3.7,4.6,6.1s1.8,5,1.8,7.8s-0.5,5.5-1.6,8
		s-2.6,4.7-4.4,6.6c-1.9,1.9-4.1,3.4-6.7,4.6s-5.4,1.8-8.2,2c-6,0.3-11.1-1.4-15.2-5.1C460.6,370.6,458.5,366,458.4,360.5z
		 M491.7,324.9c-7.7-2.4-14.3-6.1-20.1-10.9c-5.7-4.8-10.3-10.8-13.7-18c-3.4-7.2-5.2-15.3-5.3-24.4c-0.1-9.1,1.4-17.3,4.6-24.8
		s7.6-13.9,13.2-19.2s12.2-9.6,19.7-12.6c7.6-3.1,15.6-4.8,24-5.3c8.6-0.4,16.7,0.5,24.3,2.8s14.3,5.8,20.1,10.6
		s10.4,10.7,13.8,17.8c3.4,7.1,5.2,15.2,5.3,24.3s-1.4,17.4-4.6,24.9c-3.2,7.5-7.6,14-13.3,19.4s-12.2,9.7-19.7,13
		c-7.5,3.2-15.5,5-24.1,5.5C507.4,328.4,499.4,327.4,491.7,324.9z M606.1,506l-43.5-56.2h-0.7l1.4,59.4c-12.1,0.6-24.6,1-37.3,1.2
		L523,348c9-1.1,17.5-3.3,25.6-6.8c4.1-1.7,7.9-3.8,11.6-6l1.4,101.9h0.7l35.3-46.9l45-2.3L600,440.3l48.4,59.3
		C635.1,502.3,620.9,504.4,606.1,506z M723.1,472.8l-7.8,0.4l-0.2-11.8h-0.7c-2.8,4.8-7.1,8.5-12.8,11.4c-5.8,2.8-12,4.4-18.8,4.8
		c-4.5,0.2-9.2-0.1-14-1.1c-4.8-0.9-9.3-2.6-13.3-5.1s-7.4-5.9-10-10.2c-2.6-4.3-4-9.7-4.1-16.3c-0.1-8,2-14.6,6.4-19.7
		s10.1-9.2,17-12.3c7-3,14.8-5.2,23.3-6.6c8.6-1.3,16.9-2.2,25.1-2.6v-1.8c-0.1-5.5-2.1-9.4-6.1-11.8s-8.8-3.4-14.5-3.1
		c-5.3,0.3-10.4,1.7-15.2,4.1c-4.9,2.5-9,5.4-12.4,8.7l-19-18.9c6.5-6.6,14.2-11.7,23-15.2c8.8-3.6,17.8-5.6,27-6.1
		c9.5-0.5,17.5,0.2,24.1,2.2s12,5.3,16.1,9.9s7.2,10.6,9.2,17.8c2,7.3,3.1,15.9,3.2,26l0.5,36C741.6,459.6,733,466.7,723.1,472.8z"
		/>
	<path fill="#FBBA00" d="M541.9,267c-0.1-3.6-0.7-7-2-10.4s-3-6.3-5.3-8.8s-5.1-4.5-8.5-5.9c-3.3-1.5-7.2-2.1-11.6-1.9
		c-4.4,0.2-8.2,1.2-11.5,3.1c-3.3,1.8-6,4.1-8.2,6.8s-3.8,5.8-4.8,9.3c-1.1,3.5-1.6,7-1.6,10.6c0.1,3.6,0.7,7,1.8,10.4
		c1.2,3.4,2.9,6.4,5.2,9c2.3,2.6,5.1,4.7,8.5,6.1c3.3,1.5,7.2,2.1,11.6,1.8c4.4-0.2,8.2-1.2,11.5-3s6-4.1,8.3-7c2.2-2.9,3.9-6,5-9.5
		C541.5,274.1,542,270.6,541.9,267z"/>
</g>
</svg>
