<?xml version="1.0" encoding="utf-8"?>
<!-- Generator: Adobe Illustrator 23.0.1, SVG Export Plug-In . SVG Version: 6.00 Build 0)  -->
<svg version="1.1" id="Typo" xmlns="http://www.w3.org/2000/svg" xmlns:xlink="http://www.w3.org/1999/xlink" x="0px" y="0px"
	 viewBox="0 0 1000 700" enable-background="new 0 0 1000 700" xml:space="preserve">
<g>
	<path d="M285.3,620.2h-6.2l24-54.9h5.5l23.8,54.9h-6.3l-6.1-14.4h-28.7L285.3,620.2z M293.4,600.6h24.5l-12.2-29.2L293.4,600.6z"/>
	<path d="M358.9,620.2h-5.6v-23.7l-20.8-31.3h7.1l16.7,26.6l16.9-26.6h6.6L359,596.5v23.7H358.9z"/>
	<path d="M396.6,620.2H391v-54.9h5.6V620.2z"/>
	<path d="M433.1,620.2h-5.6v-50h-18.6v-5h42.8v5h-18.6L433.1,620.2L433.1,620.2z"/>
	<path d="M469.5,620.2h-5.6v-54.9h5.6V620.2z"/>
	<path d="M539.2,610.7L539.2,610.7l18.7-45.5h8.6v54.9h-5.6v-47.7h-0.2l-20.1,47.7h-3l-20.1-47.7h-0.2v47.7h-5.6v-54.9h8.6
		L539.2,610.7z"/>
	<path d="M590.8,620.2h-5.6v-54.9h5.6V620.2z"/>
	<path d="M609.1,620.2h-6.2l24-54.9h5.5l23.8,54.9H650l-6.1-14.4h-28.7L609.1,620.2z M617.2,600.6h24.5l-12.2-29.2L617.2,600.6z"/>
	<path d="M695.8,610.7L695.8,610.7l18.7-45.5h8.6v54.9h-5.6v-47.7h-0.2l-20.1,47.7h-3l-20.1-47.7H674v47.7h-5.6v-54.9h8.6
		L695.8,610.7z"/>
</g>
</svg>
