<?xml version="1.0" encoding="utf-8"?>
<!-- Generator: Adobe Illustrator 23.0.1, SVG Export Plug-In . SVG Version: 6.00 Build 0)  -->
<svg version="1.1" id="Calque_1" xmlns="http://www.w3.org/2000/svg" xmlns:xlink="http://www.w3.org/1999/xlink" x="0px" y="0px"
	 viewBox="0 0 72 72" enable-background="new 0 0 72 72" xml:space="preserve">
<path d="M20.4,25.6c4.7,6.3,6.4,13.2,5.2,20c-0.2,0.9-0.4,1.7-0.6,2.6c-0.2,0.8-0.4,1.6-0.9,2.4c-0.1,0.2-0.4,0.7-0.8,0.6
	c-0.5,0-0.7-0.7-0.9-0.9c-0.5-0.8-0.8-1.6-1.1-2.5c-1-3.4-0.1-6.9,1.8-10.2c2.1-3.7,5.4-7.2,8.7-10.6c-0.5-0.1-0.9-0.2-1.4-0.3
	c-0.6,1.2-0.9,2.4-0.9,3.7c0,1.1,0.1,2.4,0.8,3.4c0.5,0.8,1.5,1.6,3.1,1.6c1.6,0,2.7-1,3.2-1.8c1-1.6,0.3-3.5-1.7-4.8
	c-1-0.6-2.9-1.3-4.1-0.5c-0.5,0.3-0.6,0.8-0.8,1.2c-0.2,0.5-0.2,1,0,1.4c0.4,1.1,2.3,1.5,4,1.1c1.9-0.4,2.6-1.6,3.1-2.6
	c-0.4,0.1-0.7,0.2-1.1,0.3c2.7,1,4.6,2.6,5.4,4.3c0.2,0.5,1.5,0.4,1.5-0.1c0-2.3-1-4.5-1.6-6.7c-0.6-2.2-0.9-4.5,0.7-6.5
	c-0.5,0-0.9-0.1-1.4-0.1c5.4,7.4,6.7,15.4,7.2,23.3c0.1,2.3,0.2,4.5,0.2,6.8c0,0.6,1.5,0.6,1.5,0c-0.2-8-0.4-16.1-3.8-23.9
	c-1-2.2-2.2-4.3-3.7-6.4c-0.2-0.3-1.1-0.5-1.4-0.1c-3.5,4.4,0.7,9.2,0.8,13.7c0.5,0,1-0.1,1.5-0.1c-0.9-2-3.1-3.7-6.1-4.9
	c-0.4-0.2-1,0-1.1,0.3c-0.3,0.7-0.7,1.5-1.7,1.9c-0.9,0.4-2.3,0.3-2.5-0.4c-0.1-0.3-0.1-0.7,0-1c0.1-0.2,0.1-0.8,0.5-0.9
	c0.8-0.3,2.3,0.8,2.6,1.2c1.1,1,1.3,2.3,0.5,3.4c-0.3,0.5-1.1,1.3-2.2,1c-0.9-0.3-1.3-1.1-1.5-1.6c-0.7-1.9-0.5-4,0.5-5.9
	c0.2-0.5-1-0.8-1.4-0.3C24.4,33,17.9,40.1,19.9,47.8c0.2,0.9,0.6,1.8,1.1,2.7c0.4,0.6,0.8,1.4,2.2,1.5c1.2,0.1,2-0.6,2.3-1.2
	c0.5-0.8,0.7-1.8,0.9-2.6c1.1-3.7,1.3-7.4,0.6-11.1c-0.8-4.1-2.6-8.1-5.4-11.9C21.3,24.7,20,25.1,20.4,25.6L20.4,25.6z"/>
<path d="M50.3,25.8c-0.2-0.3-0.5-0.5-1.1-0.6c-0.4-0.1-0.8,0.1-0.9,0.3c-1,2.1-1.2,4.4-0.2,6.4c0.4,0.8,1.3,1.7,2.9,1.7
	c1.8,0.1,2.5-1,2.8-1.8c0.5-1,0.7-2.1,0.5-3.1c-0.2-0.9-0.7-1.8-2.1-2.2c-1.2-0.4-2.9-0.3-3.7,0.4c-0.9,0.7-0.5,1.8,0.6,2.4
	c1.1,0.7,2.9,0.9,4.3,0.3c1.3-0.5,2-1.4,1.6-2.3c-0.2-0.5-1.7-0.3-1.4,0.2c0.5,1.2-2,2-3.5,1.1c-0.6-0.4-1-1.2,0.1-1.5
	c0.9-0.2,1.9,0.2,2.3,0.7c0.5,0.6,0.5,1.3,0.5,1.9c0,0.7-0.2,1.5-0.6,2.2c-0.1,0.3-0.3,0.7-0.7,0.8c-0.5,0.1-1,0-1.3-0.3
	c-0.7-0.5-0.8-1.2-1-1.8c-0.4-1.7-0.2-3.3,0.6-5c-0.3,0.1-0.6,0.2-0.9,0.3c0,0,0,0,0.1,0C49.2,26.5,50.6,26.3,50.3,25.8L50.3,25.8z"
	/>
<path d="M50.6,19.5c0,1.1,0,2.3,0,3.4c0,0.6,1.5,0.6,1.5,0c0-1.1,0-2.3,0-3.4C52.1,19,50.6,19,50.6,19.5L50.6,19.5z"/>
<path d="M34,23.5c-0.1,0-0.2,0-0.3,0c-0.2,0-0.4,0-0.5,0.1C33.1,23.7,33,23.9,33,24c0,0.1,0.1,0.2,0.2,0.3c0.1,0.1,0.3,0.1,0.5,0.1
	c0.1,0,0.2,0,0.3,0c0.2,0,0.4,0,0.5-0.1c0.1-0.1,0.2-0.2,0.2-0.3c0-0.1-0.1-0.2-0.2-0.3C34.4,23.6,34.2,23.5,34,23.5L34,23.5z"/>
</svg>
