<svg version="1.1" id="Calque_1" xmlns="http://www.w3.org/2000/svg" xmlns:xlink="http://www.w3.org/1999/xlink" x="0px" y="0px"
   viewBox="0 0 127.5 168" style="enable-background:new 0 0 127.5 168;" xml:space="preserve">
<style type="text/css">
  .st0{fill-rule:evenodd;clip-rule:evenodd;}
</style>
<g>
  <g>
    <path class="st0" d="M19.7,86.5c0.1,0,0.2-0.1,0.2-0.1c1.7-3.2,3.7-7.4,6.6-9.4c6.3-4.2,22.3-4.6,28.1,0.4c2.5,2.2,4.1,6,5.1,9.7
      c0.2,0.1,0.4,0.2,0.5,0.2h0.1c1.2-2.6,1.4-7.7,1-11.2c-3.3-25.5-28.9-11-35.4-27.6c-1.3-3.4,0.5-7.9,1.4-10.1
      C32,27.2,53,11.2,71,14.1c14,2.3,45.4,18.6,30.7,37C92.2,62.9,71,55.3,68,75.1c-0.6,4.1,0.1,9.2,1.7,11.8h0.2c2-3.8,2.1-7,5.1-9.6
      c6.1-5.2,22.4-6.6,29.4-1c1.2,1.9,2.5,3.9,3.7,5.8h0.2c2-3,1.3-16,1.7-20.7c2.7-30.8-16.9-49.7-46-49.4
      c-7.1,1.8-13.7,2.5-19.8,5.1c-11.9,5-22.3,17.6-26.3,30.4C15,56.4,17.2,78.8,19.7,86.5L19.7,86.5z M101.2,49.2
      c1.3-2,1.8-4.5,1.8-7.9c0-14.8-21.5-24.6-35.5-26c-3,0.4-5.9,0.7-8.9,1.1c-12.7,4.3-23.1,10.2-29.1,21.3c-1.7,3.1-3.4,8.3-1,12.2
      c6.4,10.2,26.7,4.8,32.5,18c3.6,8.2,0.5,18.3-0.9,25.6c-0.7,3.8-0.2,7.4-0.8,11.5c-0.5,3.2-2.1,9-0.3,12.2c0.7,1.2,3.1,1.7,4.8,2
      c2.9,0.4,5.9-0.8,6.5-2.6v-7.3c0-12.7-2.3-21.6-3.9-33.3c-0.3-2.2,1.6-7,2.5-8.7C74.7,56.1,94.5,59.4,101.2,49.2z M107,82.7
      c-1-6.2-8.8-9.2-16.4-9.1c-10.2,2.4-17.7,3.5-19.2,14.3c2.1,0.4,4.6-2.2,6.4-2.9c6.4-2.3,12.2-1.9,17.9,0.5
      c1.5,0.6,3.9,1.6,4.4,3.2c0.9,3.1-8.1,6.2-11,6.6c-2.5-0.3-5.1-0.5-7.6-0.8c-2.7-0.5-3.7-2.5-5.7-3.7c-0.6-0.4-2-1.4-3.2-0.8
      c-2.8,1.4-0.9,16,0.3,18.6c1.7,2.5,3.3,5.1,5,7.6c0.1,0.3,0.1,0.6,0.2,0.8v1c-1.2,3.9-15.2,2.9-19.8,2.3c-1.5,0.1-3.1,0.2-4.6,0.3
      c-0.7-0.2-1.9-1.4-1.8-2.3c0.2-3,3.1-4.2,4.1-6.4c1.3-3.1,5-19.3,1.1-21.6c-2.7-1.6-11.5,4.6-15.5,5.3c-5.8,1-9.8-1.5-12.8-3.3
      c-0.9-0.6-1.8-0.2-2.3-1.1c-0.3-2.1,1.8-2.9,3.1-3.7c5.8-3.4,14.1-4.4,21.1-1.6c1.9,1,3.8,1.9,5.7,2.9c0.4,0,0.8-0.1,1.1-0.1
      c3.3-3.2-3.1-9.7-5.1-10.8c-8.9-4.6-19.1-3-26,2.4c-1.9,1.5-5.8,5.7-6.3,8.3c-1,4.6,4.7,17.6,5.7,22.3c0.8,3.3,0.2,6.9,1.8,9.3
      c1.1,1.6,12.6,9.2,14.7,10c5.1,1.8,10.5-6.7,16.3-6.1c2,0.8,4,1.6,6,2.3c2.5-0.3,4.8-2.9,8.5-2.3c2.7,0.5,5.4,1.4,7.2,2.8
      c1,0.8,2,1.7,3,2.5c1.9,0.6,3.1-0.8,4.2-1.4c6.3-2.9,11.3-5.8,14.8-11.5c2.3-3.8,1.6-10.2,2.4-15.5c0.5-3.3,0.6-7.8,1.4-11.6
      C106.3,87.3,107.4,85.3,107,82.7z M112,78c-0.6,0.5-1.3,0.9-1.9,1.4c-0.6,4.8-1.2,9.7-1.8,14.5c-1,4-2,8.1-3,12.1l0.1,0.1
      c0.6-0.4,1.1-0.7,1.7-1.1c1-1.5,0.9-4.2,1.7-6C109.2,98.2,121.3,78.1,112,78z M17,81.3c-0.3-0.1-0.6-0.2-0.8-0.3
      c-10.2,3.5,1.2,18.5,3.2,22c0.7,1.8,1.3,3.6,2,5.4c0.4,0.6,1.3,1,2.2,0.8h0.1c0-0.1,0.1-0.1,0.1-0.2c-1.1-3.1-2.2-6.2-3.2-9.3
      C18.9,94,18.2,87.4,17,81.3z M98.7,88.9v-0.3c-2.8-2.3-6.8-3.6-12-3.5c-3.5,0.9-8.7,0.9-10.9,3.2c0.6,1.8,2.2,2.3,3.8,3.2
      C85.9,95.3,94.7,93.5,98.7,88.9z M39.9,85.7c-3.3,0.8-11.6,1-11.3,4.6c8.6,4.5,16.1,5.4,23.6-1.2v-0.2
      C49.7,86.8,44.3,85.6,39.9,85.7z M72,111.2c0,2.1-0.1,4.2-0.1,6.3c0.7,0.5,1.9,0.9,3,0.5C75.8,116.7,73.3,111.7,72,111.2z
       M53.6,118.6c1.3,0.5,2.9-0.2,4-0.8c-0.3-1.5-0.7-3-1-4.5C55.5,114.6,52.9,116.2,53.6,118.6z M45.9,132.8
      c-0.1-0.1-0.2-0.1-0.3-0.2c-2-0.7-4-1.4-6-2c-2.6-1.5-5.2-3.1-7.8-4.6c-1.2-1-2.4-2-3.5-2.9h-0.2c-0.2,0.1-0.4,0.2-0.5,0.3
      c-0.8,5.5,15.9,24.3,19.8,26.5H48c-0.1-0.4-0.1-0.8-0.2-1.1C47.3,147,46.2,133.2,45.9,132.8z M97.5,124.2
      c-3.3,1.4-12.9,5.6-13.7,8.9c-0.4,3.6-0.7,7.1-1.1,10.7c-0.4,2-2.5,4.8-1.3,6.8l0.5,0.1c2.7-3.5,17.7-21.6,16.5-26.1
      C98.2,124.5,97.9,124.3,97.5,124.2z M80.8,129.6c-1.6-2.8-6-4.4-10.3-4.4c-2.5,0.6-4.2,2.4-6,2.8c-1.7-0.8-3.4-1.6-5.1-2.4
      c-2.1-0.5-9.6,3.3-10.9,4.3l-0.1,0.4c1.2,0.6,31.7,0.2,32.3-0.2C80.7,129.9,80.7,129.8,80.8,129.6z M53.4,131.9
      c0.4,1.1,2,1.2,2.8,1.9c1.4,1.1,2.2,2.5,4.2,3c5.6,1.6,15.9-1.2,17.2-4.7c0,0-0.1-0.1-0.1-0.1c-3-0.2-5.9-0.3-8.9-0.5
      C63.7,132.9,58.7,131.4,53.4,131.9z M82.5,131.8h-0.5c-5.5,4.2-14.4,9.7-23.3,5.9c-3.7-1.6-6.1-5.3-11.1-5.7
      c-0.8,1.7,0.1,4.1,0,6.1c-0.8,13.5,8.7,19.6,21.7,17.4c2.8-0.5,4.5,0.1,6.3-1.3c3.7-2.8,4.4-6.5,5.7-11.8
      C81.8,138.9,82.2,135.4,82.5,131.8z"/>
  </g>
</g>
</svg>
