<?xml version="1.0" encoding="utf-8"?>
<!-- Generator: Adobe Illustrator 23.0.1, SVG Export Plug-In . SVG Version: 6.00 Build 0)  -->
<svg version="1.1" id="Calque_3" xmlns="http://www.w3.org/2000/svg" xmlns:xlink="http://www.w3.org/1999/xlink" x="0px" y="0px"
	 viewBox="0 0 1000 700" enable-background="new 0 0 1000 700" xml:space="preserve">
<g>
	<path fill="#221F1C" d="M618.2,344.3l0-0.1l-0.1-0.1c-2-2.7-4.6-4.7-7.7-5.8l-0.3-0.1l7.1-3.7l0-0.2c-0.8-5.5-2-11.1-3.6-16.6
		l-0.1-0.4l-11.4,6c-6,3.1-9.4,9.3-9,16c0.4,6.7,4.6,12.4,10.9,14.8l0.4,0.2l-7.4,8.6l-20.4-13.2c-2.7-1.8-5.9-2.7-9.1-2.7
		c-2.4,0-4.7,0.5-6.9,1.5c-5.2,2.3-8.9,7.1-9.8,12.7l-1.6,9.7c-0.9,5.6,1,11.2,5.1,15.1l10.6,9.9L547.4,422
		c-1.7,2.6-2.7,5.5-2.8,8.6l-1.2,30.6l0.5-0.2c5.8-2.3,11.4-5.1,16.7-8.3l0.2-0.1l0.8-21.3l17.4-26.4c4.5-6.9,3.5-16-2.6-21.6
		l-10.7-10l1.5-9.4l20.4,13.1c2.7,1.7,5.9,2.7,9.1,2.7c4.9,0,9.6-2.1,12.8-5.8l7.6-8.7c0.1-0.1,0.1-0.1,0.1-0.2c0,0,0.1-0.1,0.1-0.1
		l0.1-0.1l0-0.1c0.5-4.7,0.8-9.2,0.8-13.6C618.4,348.9,618.3,346.7,618.2,344.3z"/>
	<path fill="#221F1C" d="M449.4,247.1c3.6,4.2,8.8,6.6,14.4,6.6l0.3,0c2,0,8.8-0.5,14.1-6.6l12-14.1l-0.8,0.1
		c-14.5,1.3-28.4,5.1-41.3,11.5l-0.4,0.2l0.2,0.3C448.4,245.8,448.9,246.5,449.4,247.1z"/>
	<path fill="#221F1C" d="M566.5,313.7l-2.2-4.9c-2.6-5.8-8.1-9.6-14.5-10l-65.5-3.6l19.2-5.2c2.7-0.7,5.2-2.1,7.2-4l24.3-22.9
		l36.6-3.8c0.7-0.1,1.4-0.2,2-0.4l0.7-0.2l-0.6-0.5c-6.9-5.5-14.4-10.2-22.2-14l-0.1,0l-18.2,1.9c-3.7,0.4-7.2,2-9.9,4.5l-24.3,22.9
		l-19.9,5.4c-6.6,1.8-11.5,7.3-12.4,14.1c-0.9,6.8,2.4,13.4,8.4,16.8c2.3,1.3,4.9,2.1,7.5,2.2l66.2,3.6l2.1,4.8l-23.4,16.8
		l-35.6-3.9l-25.7-10.7c-2.1-0.9-4.2-1.3-6.5-1.3c-3.7,0-7.3,1.2-10.2,3.4l-26.5,20c-3.5,2.7-5.9,6.6-6.5,11l-4.3,28.9
		c-0.6,3.8,0.2,7.7,2.1,11l17.3,29.8c2.8,4.8,7.7,7.9,13.1,8.4l30.3,2.6l6.6,17.7l3,13.8l0.1,0.2l0.2,0c5.2,0.7,10.2,1,15.1,1
		c0.4,0,0.7,0,1.1,0c0.3,0,0.5,0,0.8,0l0.4,0l-0.1-0.4c-1.7-7.5-4.5-20.1-4.6-20.6l-6.6-17.8c-2.3-6.1-7.9-10.4-14.4-10.9l-30.3-2.6
		L429,387.3l4.3-28.9l26.4-20l25.7,10.7c1.5,0.6,3.1,1,4.7,1.2l35.6,3.9c0.6,0.1,1.2,0.1,1.8,0.1c3.5,0,6.9-1.1,9.8-3.2l23.6-16.9
		C567.4,329.7,569.8,321,566.5,313.7z"/>
</g>
</svg>
