<?xml version="1.0" encoding="utf-8"?>
<!-- Generator: Adobe Illustrator 23.0.1, SVG Export Plug-In . SVG Version: 6.00 Build 0)  -->
<svg version="1.1" id="Calque_3_1_" xmlns="http://www.w3.org/2000/svg" xmlns:xlink="http://www.w3.org/1999/xlink" x="0px"
	 y="0px" viewBox="-6 -6 1000 700" enable-background="new 0 0 1000 700" xml:space="preserve">
<g>
	<path fill="rgba(255,0,0,.2)" d="M345.4,200.9c4.4-4.2,7.9-9,10.6-14.2c2.7-5.2,4.3-10.6,4.8-16.1c0.5-5.5-0.1-11.1-2-16.7
		c-1.9-5.6-5.3-10.9-10.1-15.9c-5.5-5.7-11.1-9.6-16.7-11.7c-5.7-2.2-11.3-3-16.9-2.4c-5.6,0.6-11,2.4-16.3,5.3
		c-5.3,3-10.3,6.8-15,11.3l-19.4,18.8l59.9,62L345.4,200.9z M297.1,152.1c2.7-2.6,5.7-4.8,8.8-6.4c3.2-1.7,6.4-2.6,9.6-2.9
		c3.2-0.3,6.5,0.1,9.7,1.3c3.3,1.2,6.4,3.3,9.3,6.4c3.4,3.5,5.7,7,7,10.4c1.3,3.5,1.7,6.9,1.2,10.2c-0.4,3.3-1.6,6.5-3.6,9.7
		c-2,3.1-4.4,6.1-7.4,9l-6.7,6.5l-35.5-36.8L297.1,152.1z"/>

		<rect x="367.1" y="81.3" transform="matrix(0.8794 -0.4762 0.4762 0.8794 -13.853 194.0854)" fill="rgba(255,0,0,.2)" width="18" height="86.2"/>
	<path fill="rgba(255,0,0,.2)" d="M434.6,146l-8.5-32.5l12.8-3.3c4.2-1.1,7.9-2.5,11.3-4.3c3.4-1.8,6.1-4,8.2-6.6c2.1-2.6,3.5-5.8,4.1-9.5
		c0.6-3.7,0.3-8-1-12.8c-1.3-4.9-3.2-8.8-5.6-11.7c-2.5-2.8-5.3-4.9-8.5-6.1c-3.2-1.2-6.8-1.7-10.6-1.6c-3.9,0.2-7.8,0.8-11.9,1.9
		l-29.4,7.7l21.8,83.4L434.6,146z M425.8,75.8c1.6-0.4,3.4-0.8,5.2-1c1.8-0.3,3.6-0.2,5.2,0.1c1.6,0.3,3.1,1,4.4,2.1
		c1.3,1,2.2,2.6,2.7,4.8c0.5,2,0.6,3.7,0.2,5.2c-0.4,1.5-1,2.7-2,3.8c-1,1-2.1,1.9-3.5,2.6c-1.4,0.7-2.8,1.2-4.4,1.7l-11.6,3
		l-5.2-19.8L425.8,75.8z"/>
	<polygon fill="rgba(255,0,0,.2)" points="538.2,120.4 504.8,119 507.7,50.4 489.7,49.6 486,135.7 537.4,137.9 	"/>
	<path fill="rgba(255,0,0,.2)" d="M564.8,145c4.2,4,9.2,7.2,15.1,9.7c5.9,2.4,11.8,3.7,17.6,3.8c5.8,0.1,11.3-0.9,16.4-3
		c5.1-2.1,9.8-5.4,14-9.7c4.2-4.3,7.6-9.7,10.2-16.1c2.6-6.4,4-12.6,4.1-18.6c0.1-6-0.9-11.6-3-16.7c-2.1-5.1-5.3-9.7-9.5-13.7
		c-4.2-4-9.2-7.2-15.1-9.7c-5.9-2.4-11.8-3.7-17.6-3.8c-5.8-0.1-11.3,0.9-16.4,3c-5.1,2.1-9.8,5.4-14,9.7
		c-4.2,4.3-7.6,9.7-10.2,16.1c-2.6,6.4-4,12.6-4.1,18.6c-0.1,6,0.9,11.6,3,16.7C557.5,136.4,560.6,141,564.8,145z M571.1,114.1
		c0.2-3.6,1-7.2,2.6-11c1.5-3.7,3.5-6.9,5.9-9.6c2.4-2.7,5.1-4.8,8.1-6.2c3-1.4,6.2-2.2,9.6-2.3c3.4-0.1,6.9,0.6,10.5,2.1
		c3.6,1.5,6.5,3.4,8.9,5.9c2.4,2.5,4.1,5.3,5.2,8.4c1.1,3.1,1.6,6.5,1.4,10.1c-0.2,3.6-1.1,7.2-2.6,10.9c-1.6,3.8-3.5,7-5.9,9.6
		c-2.4,2.7-5.1,4.7-8.1,6.1c-3,1.4-6.2,2.2-9.6,2.3c-3.4,0.1-6.9-0.6-10.5-2.1c-3.6-1.5-6.5-3.4-8.9-5.9c-2.4-2.5-4.1-5.3-5.2-8.4
		C571.4,121,570.9,117.7,571.1,114.1z"/>
	<polygon fill="rgba(255,0,0,.2)" points="639.8,186.9 689,142.7 689.2,142.9 653.8,202.4 663,212.7 726.5,184.5 726.7,184.7 677.5,228.9
		689.6,242.3 753.7,184.7 735.5,164.5 681,187.9 680.9,187.8 710.1,136.2 691.9,115.9 627.8,173.4 	"/>
	<path fill="rgba(255,0,0,.2)" d="M696.7,264.8l19.5,1.1l9.5,30.4l-15.3,12.2l6.1,19.4l71.6-59.7l-4.5-14.2l-92.8-8L696.7,264.8z
		 M761.7,267.9l-22.6,17.6l-6-19.1L761.7,267.9z"/>
	<polygon fill="rgba(255,0,0,.2)" points="782.6,338 713.2,339 713.5,357 782.9,356 783.2,379.4 800,379.2 799.1,314.4 782.3,314.6 	"/>
	<polygon fill="rgba(255,0,0,.2)" points="706.7,405 791,423.1 794.8,405.5 710.5,387.4 	"/>
	<polygon fill="rgba(255,0,0,.2)" points="678.7,472 694.4,479.6 711.8,443.9 727.5,451.6 712,483.5 727.8,491.2 743.3,459.3 757.8,466.3
		741.3,500.1 757.1,507.7 781.4,457.7 703.9,420.1 	"/>
	<path fill="rgba(255,0,0,.2)" d="M693.6,504c-12.9,0.3-23.2,11-22.8,24c0.3,12.9,11,23.2,24,22.8c12.9-0.3,23.2-11,22.8-24
		C717.3,513.9,706.5,503.7,693.6,504z"/>
	<path fill="rgba(255,0,0,.2)" d="M500,166.2c-49.1,0-95.2,19.1-130,53.8c-34.7,34.7-53.8,80.9-53.8,130s19.1,95.2,53.8,130
		c34.7,34.7,80.9,53.8,130,53.8s95.2-19.1,130-53.8c34.7-34.7,53.8-80.9,53.8-130s-19.1-95.2-53.8-130
		C595.2,185.3,549.1,166.2,500,166.2z M535.8,197.2l7.2-8.3c12.5,3.4,24.7,8.2,36.1,14.4c-0.9,3.3-7.8,32-9.3,38.2l-18.3,1.9l0,0
		l0,0c-16.1-7.8-33.4-11.8-51.5-11.8c-3.1,0-6.3,0.1-9.8,0.4l18.2-21.3c0.2-0.2,0.5-0.4,0.8-0.5l19.4-7.8
		C531.4,201.3,533.9,199.5,535.8,197.2z M502.3,468.4c14.2-0.3,28.1-3,41.2-8.2l-0.3,7.2L520.1,490l-14.9-8.8
		C505,480.7,503.7,475,502.3,468.4z M462.2,232.1l13.7-25.8c2.1-3.9,2.7-8.4,1.8-12.7L476,185c7.9-1.2,16-1.7,24-1.7
		c8,0,16,0.6,23.9,1.7c-0.8,0.8-1.6,1.6-1.7,1.7l-19.4,7.8c-2.8,1.1-5.4,3-7.3,5.3L465.3,235c-0.3,0.4-0.9,0.7-1.4,0.7l-0.1,0
		c-0.6,0-1.1-0.2-1.5-0.7C461.4,233.9,462.2,232.1,462.2,232.1z M390.3,224.5v23.7c0,6.7-3.4,12.9-9,16.6l-17.6,11.4
		c-4.1,2.7-7.6,6.1-10.3,10.1l-14.8,21.7C347.1,275.5,364.9,246.7,390.3,224.5z M401,464.3l-2.2,18.1c-26.2-20-45.6-47-56.4-77.9
		h9.9c1.2,0,2.2,0.6,2.8,1.6l21,32.7c1,1.5,2.1,2.9,3.4,4l20.4,18.6C400.7,462.1,401.1,463.2,401,464.3z M666.8,350
		c0,92-74.8,166.8-166.8,166.8c-30.1,0-59.7-8.2-85.4-23.6l3.3-26.8c0.8-6.5-1.6-13.1-6.5-17.5c-7.1-6.5-20.6-18.9-21-19.3l-21-32.7
		c-3.8-5.9-10.2-9.4-17.1-9.4h-14.8c-2.8-12.2-4.3-24.9-4.3-37.5c0-1.4,0-2.7,0-4.1l34.2-50.1c1.5-2.2,3.4-4,5.6-5.4l17.5-11.4
		c10.5-6.8,16.7-18.3,16.7-30.8v-36.7c15.9-10.7,33.4-18.5,52-23.1l1.8,8.8c0.1,0.4,0,0.9-0.2,1.3l-13.7,25.8
		c-0.9,1.6-1.9,5.7-2,5.9c-0.9,4.7,0,9.6,2.5,13.6l0,0l0,0c-19.5,9.6-36,24.4-47.7,42.7c-12.1,19-18.5,41-18.5,63.6
		c0,59.4,44.3,109.8,103.1,117.4l0,0l0,0l3.8,17.5c1,4.6,3.9,8.6,8,11l15.1,8.8c2.6,1.5,5.5,2.3,8.5,2.3c4.5,0,8.7-1.7,11.8-4.8
		l23.2-22.8c3.1-3,4.9-7.1,5.1-11.4l0.7-16.5l0,0l0,0c31.4-18.8,52.6-51.6,56.8-87.9l0,0l0,0c3.4-4.1,4.6-9.7,3.3-14.8
		c-0.5-2.1-1.4-4-2.7-5.7l0,0l0,0c-0.2-3.2-0.5-6.4-1-9.7l4.8-2.5l9.7,7.3c3,2.2,6.4,3.4,10.1,3.4c1.9,0,3.8-0.3,5.7-1
		c5.3-1.9,9.4-6.3,10.7-11.8l1.6-6.5l4.3-0.8C665.9,330.8,666.8,340.4,666.8,350z M656.7,305.5c-6.4,1.2-11.6,6.2-13.2,12.5
		l-1.6,6.4l-9.7-7.2c-2.9-2.2-6.5-3.4-10.2-3.4c-2.7,0-5.4,0.7-7.8,1.9l-0.8,0.4l0,0l0,0c-6.9-23-20.4-43.2-39.2-58.4l0,0l0,0
		c5.9-1.6,10.6-6.4,12-12.3l7.9-33c32.2,22.1,55.7,54.9,66.3,92.3L656.7,305.5z"/>
	<path fill="rgba(255,0,0,.2)" d="M207.3,308.2c1.7,3.3,4.1,6.2,7.3,8.6s7.1,4.1,11.7,5.1c4.9,1,9,1,12.4-0.2c3.3-1.2,6.1-3,8.5-5.4
		c2.3-2.4,4.3-5.1,5.9-8c1.6-3,3.2-5.7,4.7-8.3c1.5-2.6,3.2-4.6,4.9-6.1c1.7-1.5,3.9-2,6.4-1.5c1.6,0.3,2.9,1,3.8,2
		c1,1,1.6,2.2,2.1,3.5c0.4,1.3,0.6,2.7,0.7,4.2c0,1.4-0.1,2.8-0.4,4.1c-0.5,2.2-1.4,4.4-2.8,6.7c-1.4,2.3-3.3,3.9-5.5,4.9l11.4,15.1
		c3.9-2.7,7-6.1,9.2-10c2.2-3.9,3.8-8.2,4.8-12.7c0.8-3.9,1.1-7.9,0.7-11.8c-0.4-3.9-1.4-7.6-3.1-10.9c-1.7-3.3-4.1-6.2-7.1-8.6
		c-3.1-2.4-6.8-4.1-11.4-5.1c-4.7-1-8.7-0.9-11.9,0.4c-3.3,1.2-6,3.1-8.4,5.5c-2.3,2.4-4.4,5.1-6.1,8.2c-1.7,3-3.4,5.8-5,8.4
		c-1.6,2.6-3.4,4.6-5.2,6.2c-1.9,1.5-4.1,2-6.6,1.5c-1.5-0.3-2.7-1-3.7-1.9c-1-1-1.7-2.1-2.1-3.4c-0.5-1.3-0.7-2.8-0.8-4.3
		c0-1.5,0.1-3,0.4-4.5c0.6-2.9,1.9-5.6,3.9-8.1c2-2.5,4.4-4.3,7.3-5.6l-11.9-15.6c-4.5,3.1-8.1,6.6-10.7,10.7
		c-2.6,4.1-4.5,8.8-5.6,14c-0.9,4.2-1.2,8.2-0.8,12.2C204.6,301.3,205.6,304.9,207.3,308.2z"/>
	<path fill="rgba(255,0,0,.2)" d="M251.2,428.8c6.8-0.9,12.9-2.8,18.2-5.7c5.3-2.9,9.6-6.6,13-11c3.4-4.4,5.8-9.4,7.1-15.1
		c1.4-5.6,1.6-11.6,0.8-18c-0.8-6.3-2.7-12-5.5-17.1c-2.8-5.1-6.4-9.3-10.8-12.7c-4.4-3.4-9.6-5.8-15.4-7.2
		c-5.8-1.4-12.2-1.7-19-0.8c-6.8,0.9-12.9,2.8-18.1,5.7c-5.3,2.9-9.6,6.6-13,11c-3.4,4.4-5.8,9.4-7.1,15.1c-1.4,5.6-1.6,11.6-0.8,18
		c0.8,6.3,2.7,12.1,5.5,17.1c2.8,5.1,6.4,9.3,10.8,12.7c4.4,3.4,9.5,5.8,15.4,7.2C238,429.4,244.4,429.7,251.2,428.8z M221.3,398.8
		c-1.8-2.9-2.9-6.3-3.4-10.1c-0.5-3.8-0.3-7.4,0.7-10.7c1-3.3,2.5-6.2,4.7-8.7c2.2-2.5,4.8-4.6,8-6.3c3.2-1.6,6.8-2.7,10.8-3.2
		c3.9-0.5,7.7-0.4,11.2,0.3c3.5,0.7,6.7,2,9.4,3.9c2.7,1.9,5,4.3,6.8,7.2c1.8,2.9,2.9,6.3,3.4,10.1c0.5,3.8,0.3,7.4-0.7,10.7
		c-1,3.3-2.5,6.2-4.7,8.7c-2.2,2.5-4.8,4.6-8.1,6.3c-3.2,1.6-6.8,2.7-10.7,3.2c-4,0.5-7.8,0.4-11.3-0.3c-3.5-0.7-6.6-2.1-9.4-3.9
		C225.3,404.1,223.1,401.7,221.3,398.8z"/>
	<polygon fill="rgba(255,0,0,.2)" points="245.9,474.2 307.2,443.2 299,427.1 222.1,466.1 245.4,512 261,504.1 	"/>

		<rect x="256.7" y="502.6" transform="matrix(0.7827 -0.6223 0.6223 0.7827 -253.2332 297.7441)" fill="rgba(255,0,0,.2)" width="86.2" height="18"/>
	<path fill="rgba(255,0,0,.2)" d="M387.9,562.4c1.2-6,1.1-11.7-0.4-17c-1.5-5.4-4.1-10.4-8-15.2c-3.8-4.7-8.4-9.1-13.7-13l-21.8-16.1
		l-51.2,69.3l23.7,17.5c4.9,3.6,10.1,6.3,15.7,8.1c5.6,1.8,11.1,2.5,16.7,2.1c5.6-0.4,10.9-2,16.1-4.8c5.2-2.8,9.8-7,14-12.6
		C383.7,574.5,386.7,568.3,387.9,562.4z M369.3,558.7c-0.6,3.4-2.2,6.8-4.7,10.2c-2.9,3.9-5.9,6.8-9.2,8.6c-3.2,1.8-6.5,2.8-9.8,2.9
		c-3.3,0.1-6.7-0.5-10.1-2c-3.4-1.4-6.8-3.4-10.1-5.8l-7.5-5.6l30.4-41.1l8.6,6.3c3,2.2,5.6,4.8,7.8,7.6c2.2,2.9,3.7,5.9,4.5,9
		C369.9,552,369.9,555.3,369.3,558.7z"/>
	<path fill="rgba(255,0,0,.2)" d="M434.7,553.9l-57,73.7l19.2,5.3l11.4-15.8l30.7,8.5l1.9,19.5l19.6,5.4l-11.4-92.6L434.7,553.9z M418,603.1
		l16.7-23.2l2.6,28.5L418,603.1z"/>

		<rect x="452.1" y="597.7" transform="matrix(1.481995e-02 -0.9999 0.9999 1.481995e-02 -118.7417 1092.8317)" fill="rgba(255,0,0,.2)" width="86.2" height="18"/>
	<path fill="rgba(255,0,0,.2)" d="M582.6,592.9c2-4.8,2.3-10.2,1-16.1c-1.1-4.9-2.8-8.8-5.2-11.8c-2.3-2.9-5.1-5.1-8.3-6.4
		c-3.2-1.3-6.7-2-10.5-2c-3.8,0-7.8,0.4-11.8,1.3l-30.9,6.9l18.7,84.1l17.6-3.9l-7.5-33.6l8.7-1.9l24.2,29.9l21.1-4.7l-28.2-31
		C576.8,601.3,580.5,597.7,582.6,592.9z M565,586.4c-0.7,1.5-1.6,2.7-2.9,3.6c-1.3,0.9-2.8,1.6-4.6,2.1c-1.7,0.5-3.4,0.9-5,1.3
		l-10.4,2.3l-4.3-19.1l11.5-2.6c1.6-0.4,3.2-0.6,4.9-0.7c1.7-0.1,3.3,0,4.7,0.4c1.4,0.4,2.7,1.1,3.8,2.2c1.1,1.1,1.9,2.7,2.4,4.8
		C565.8,583.1,565.7,584.9,565,586.4z"/>
	<polygon fill="rgba(255,0,0,.2)" points="633.6,598.1 624.7,583 655.2,564.9 646.3,549.8 615.7,567.9 607.6,554.1 639.9,535 631,519.9
		583.1,548.2 627,622.4 676.7,593 667.7,577.9 	"/>

		<ellipse transform="matrix(0.9988 -4.915991e-02 4.915991e-02 0.9988 -10.9283 13.8826)" fill="rgba(255,0,0,.2)" cx="276.8" cy="229.1" rx="23.4" ry="23.4"/>
</g>
</svg>
