<?xml version="1.0" encoding="utf-8"?>
<!-- Generator: Adobe Illustrator 23.0.1, SVG Export Plug-In . SVG Version: 6.00 Build 0)  -->
<svg version="1.1" id="Calque_3" xmlns="http://www.w3.org/2000/svg" xmlns:xlink="http://www.w3.org/1999/xlink" x="0px" y="0px"
	 viewBox="0 0 1000 700" enable-background="new 0 0 1000 700" xml:space="preserve">
<g>
	<path fill="#FB1F14" d="M617.2,334.2l-0.1-0.5l-7.5,3.9c-0.1,0-0.1,0.1-0.2,0.1l-0.1,0.1c-0.1,0.2-0.1,0.5,0.1,0.7l0.1,0.1
		c0,0,0.1,0,0.2,0.1l0.6,0.2c2.9,1.1,5.5,3,7.3,5.6l0.7,0.9l-0.1-1.2C618,341,617.7,337.6,617.2,334.2z"/>
	<path fill="#FB1F14" d="M565.4,395.2l-10.7-10c-4-3.7-5.8-9.1-4.9-14.4l1.6-9.7c0.9-5.4,4.4-10,9.4-12.2c4.9-2.2,10.8-1.7,15.3,1.2
		l20.5,13.2c0.2,0.2,0.6,0.1,0.8-0.1l7.6-8.8c0.1-0.1,0.2-0.2,0.1-0.5c-0.1-0.3-0.2-0.3-0.4-0.4l-0.6-0.2
		c-6.1-2.3-10.1-7.7-10.5-14.2c-0.4-6.5,2.9-12.3,8.6-15.3l11.3-5.9l-0.1-0.3c-6.9-23.4-20.7-43.9-39.9-59.2l-0.1-0.1l-0.2,0
		c-0.6,0.1-1.2,0.3-1.9,0.3l-36.6,3.8c-0.1,0-0.3,0.1-0.3,0.2l-24.3,23c-1.9,1.8-4.3,3.2-6.9,3.9l-19.9,5.4c-0.1,0-0.2,0.1-0.2,0.1
		l-0.1,0.1c-0.1,0.2-0.1,0.5-0.1,0.7l0.1,0.3l0.2-0.1c0.1,0,0.1,0,0.2,0.1l66.3,3.6c6.1,0.3,11.4,4,13.9,9.6l2.2,4.9
		c3.1,7,0.9,15.3-5.4,19.8L537,350.7c-2.8,2-6,3-9.4,3c-0.6,0-1.2,0-1.8-0.1l-35.6-3.9c-1.5-0.2-3-0.6-4.5-1.2L460,337.9
		c-0.2-0.1-0.4,0-0.6,0.1l-26.5,20c-0.1,0.1-0.2,0.2-0.2,0.4l-4.3,28.9c0,0.1,0,0.3,0.1,0.4l17.3,29.8c0.1,0.2,0.3,0.3,0.5,0.3
		l30.4,2.6c6.2,0.5,11.6,4.6,13.8,10.5l6.6,17.8c0.1,0.4,1.9,8,4.6,20.5l0.1,0.3l0.3,0c14.5-0.2,28.7-3.1,42.1-8.4l0.2-0.1l1.2-30.3
		c0.1-2.9,1-5.8,2.7-8.3l17.4-26.4C565.6,395.7,565.6,395.4,565.4,395.2z"/>
	<path fill="#FB1F14" d="M475.6,436.3c-0.1-0.2-0.3-0.4-0.5-0.4l-30.4-2.6c-5.3-0.5-10-3.5-12.6-8l-17.3-29.8
		c-1.8-3.2-2.6-6.9-2-10.5l4.3-28.9c0.6-4.2,2.9-8,6.3-10.5l26.5-20c2.8-2.1,6.3-3.3,9.8-3.3c2.2,0,4.2,0.4,6.2,1.2l25.7,10.7
		l35.8,3.9c0.1,0,0.2,0,0.3-0.1l23.6-16.9c0.2-0.2,0.3-0.5,0.2-0.7l-2.2-4.9c-0.1-0.2-0.3-0.3-0.5-0.3l-66.3-3.6
		c-2.5-0.1-5-0.9-7.2-2.1c-5.7-3.3-8.9-9.6-8-16.1c0.8-6.5,5.5-11.9,11.8-13.6l19.9-5.4c0.1,0,0.2-0.1,0.3-0.1l24.3-23
		c2.6-2.4,5.9-4,9.5-4.3l19.3-2l-1.1-0.5c-16.2-7.8-33.5-11.8-51.6-11.8c-3.4,0-6.9,0.2-10.6,0.5l-0.1,0l-11.6,13.5
		c-5.2,5.9-11.7,6.4-13.6,6.4l-0.3,0c-5.3,0-10.4-2.3-13.8-6.4c-0.5-0.6-0.9-1.2-1.4-1.9l-0.2-0.3l-0.3,0.1
		c-19.6,9.6-36.2,24.4-48,42.9c-12.1,19-18.5,41-18.5,63.6c0,59.5,44.4,110,103.4,117.4l0.5,0.1l-3.1-14.4L475.6,436.3z"/>
	<path fill="#FB1F14" d="M616.9,364.5c0,0-0.1,0.1-0.1,0.1l-7.6,8.7c-3.1,3.5-7.5,5.5-12.3,5.5c-3.1,0-6.1-0.9-8.7-2.6l-20.5-13.2
		c-0.1-0.1-0.3-0.2-0.6,0c-0.2,0.1-0.3,0.3-0.3,0.4l-1.6,9.7c0,0.2,0,0.4,0.2,0.5l10.7,10c5.8,5.4,6.8,14.1,2.5,20.7l-17.4,26.4
		c-0.1,0.1-0.1,0.2-0.1,0.3l-0.9,21.8l0.6-0.3c31.5-18.8,52.8-51.7,56.9-88.1l0.1-1.2l-0.7,0.9C616.9,364.4,616.9,364.5,616.9,364.5
		z"/>
	<path fill="#FB1F14" d="M348.7,139.1c-5.5-5.7-11.1-9.6-16.7-11.7c-5.7-2.2-11.3-3-16.9-2.4c-5.6,0.6-11,2.4-16.3,5.3
		c-5.3,3-10.3,6.8-15,11.3l-19.4,18.8l59.9,62l21.2-20.5c4.4-4.2,7.9-9,10.6-14.2c2.7-5.2,4.3-10.6,4.8-16.1
		c0.5-5.5-0.1-11.1-2-16.7C356.9,149.4,353.5,144.1,348.7,139.1z M342.7,172c-0.4,3.3-1.6,6.5-3.6,9.7c-2,3.1-4.4,6.1-7.4,9
		l-6.7,6.5l-35.5-36.8l7.7-7.4c2.7-2.6,5.7-4.8,8.8-6.4c3.2-1.7,6.4-2.6,9.6-2.9c3.2-0.3,6.5,0.1,9.7,1.3c3.3,1.2,6.4,3.3,9.3,6.4
		c3.4,3.5,5.7,7,7,10.4C342.7,165.3,343.2,168.7,342.7,172z"/>
	
		<rect x="367" y="82.3" transform="matrix(0.8794 -0.4762 0.4762 0.8794 -14.3333 194.19)" fill="#FB1F14" width="18" height="86.2"/>
	<path fill="#FB1F14" d="M434.6,147l-8.5-32.5l12.8-3.3c4.2-1.1,7.9-2.5,11.3-4.3c3.4-1.8,6.1-4,8.2-6.6c2.1-2.6,3.5-5.8,4.1-9.5
		c0.6-3.7,0.3-8-1-12.8c-1.3-4.9-3.2-8.8-5.6-11.7c-2.5-2.8-5.3-4.9-8.5-6.1c-3.2-1.2-6.8-1.7-10.6-1.6c-3.9,0.2-7.8,0.8-11.9,1.9
		l-29.4,7.7l21.8,83.4L434.6,147z M425.8,76.8c1.6-0.4,3.4-0.8,5.2-1c1.8-0.3,3.6-0.2,5.2,0.1c1.6,0.3,3.1,1,4.4,2.1
		c1.3,1,2.2,2.6,2.7,4.8c0.5,2,0.6,3.7,0.2,5.2c-0.4,1.5-1,2.7-2,3.8c-1,1-2.1,1.9-3.5,2.6c-1.4,0.7-2.8,1.2-4.4,1.7l-11.6,3
		l-5.2-19.8L425.8,76.8z"/>
	<polygon fill="#FB1F14" points="538.1,121.4 504.7,120 507.7,51.4 489.6,50.6 486,136.7 537.4,138.9 	"/>
	<path fill="#FB1F14" d="M564.8,146c4.2,4,9.2,7.2,15.1,9.7c5.9,2.4,11.8,3.7,17.6,3.8c5.8,0.1,11.3-0.9,16.4-3
		c5.1-2.1,9.8-5.4,14-9.7c4.2-4.3,7.6-9.7,10.2-16.1c2.6-6.4,4-12.6,4.1-18.6c0.1-6-0.9-11.6-3-16.7c-2.1-5.1-5.3-9.7-9.5-13.7
		c-4.2-4-9.2-7.2-15.1-9.7c-5.9-2.4-11.8-3.7-17.6-3.8c-5.8-0.1-11.3,0.9-16.4,3c-5.1,2.1-9.8,5.4-14,9.7
		c-4.2,4.3-7.6,9.7-10.2,16.1c-2.6,6.4-4,12.6-4.1,18.6c-0.1,6,0.9,11.6,3,16.7C557.4,137.4,560.6,142,564.8,146z M571.1,115.1
		c0.2-3.6,1-7.2,2.6-11c1.5-3.7,3.5-6.9,5.9-9.6c2.4-2.7,5.1-4.8,8.1-6.2c3-1.4,6.2-2.2,9.6-2.3c3.4-0.1,6.9,0.6,10.5,2.1
		c3.6,1.5,6.5,3.4,8.9,5.9c2.4,2.5,4.1,5.3,5.2,8.4c1.1,3.1,1.6,6.5,1.4,10.1c-0.2,3.6-1.1,7.2-2.6,10.9c-1.6,3.8-3.5,7-5.9,9.6
		c-2.4,2.7-5.1,4.7-8.1,6.1c-3,1.4-6.2,2.2-9.6,2.3c-3.4,0.1-6.9-0.6-10.5-2.1c-3.6-1.5-6.5-3.4-8.9-5.9c-2.4-2.5-4.1-5.3-5.2-8.4
		C571.4,122,570.9,118.7,571.1,115.1z"/>
	<polygon fill="#FB1F14" points="726.7,185.7 677.5,229.9 689.5,243.3 753.7,185.7 735.5,165.5 681,188.9 680.8,188.8 710.1,137.2 
		691.9,116.9 627.7,174.4 639.8,187.9 689,143.7 689.1,143.9 653.8,203.4 663,213.7 726.5,185.5 	"/>
	<path fill="#FB1F14" d="M696.7,265.8l19.5,1.1l9.5,30.4l-15.3,12.2l6.1,19.4l71.6-59.7l-4.5-14.2l-92.8-8L696.7,265.8z
		 M761.7,268.9l-22.6,17.6l-6-19.1L761.7,268.9z"/>
	<polygon fill="#FB1F14" points="782.6,339 713.2,340 713.5,358 782.8,357 783.2,380.4 800,380.2 799,315.4 782.2,315.6 	"/>
	<polygon fill="#FB1F14" points="706.7,406 791,424.1 794.7,406.5 710.5,388.4 	"/>
	<polygon fill="#FB1F14" points="678.6,473 694.4,480.6 711.7,444.9 727.5,452.6 712,484.5 727.8,492.2 743.3,460.3 757.7,467.3 
		741.3,501.1 757.1,508.7 781.4,458.7 703.9,421.1 	"/>
	<path fill="#FB1F14" d="M693.6,505c-12.9,0.3-23.2,11-22.8,24c0.3,12.9,11,23.2,24,22.8c12.9-0.3,23.2-11,22.8-24
		C717.2,514.9,706.5,504.7,693.6,505z"/>
</g>
<g>
	<path fill="#001D8A" d="M620.9,349.9c-0.5-2.1-1.5-4.1-2.8-5.8l-0.7-0.9l0.1,1.2c0.1,2.4,0.2,4.6,0.2,6.7c0,4.4-0.3,8.9-0.8,13.6
		l-0.1,1.2l0.7-0.9C621,360.7,622.2,355.1,620.9,349.9z"/>
	<path fill="#001D8A" d="M496.5,496.9l15.1,8.8c2.6,1.5,5.5,2.3,8.5,2.3c4.5,0,8.7-1.7,11.8-4.8l23.2-22.8c3.1-3,4.9-7.1,5.1-11.4
		l0.7-17.3l-0.6,0.3c-5.2,3.1-10.8,5.9-16.6,8.2l-0.2,0.1l-0.3,8L520,491l-14.9-8.8c-0.1-0.6-1.4-6.6-2.9-13.3l-0.1-0.3l-0.3,0
		c-0.3,0-0.5,0-0.8,0c-0.3,0-0.7,0-1,0c-4.8,0-9.8-0.3-15-1l-0.5-0.1l4,18.3C489.5,490.5,492.4,494.5,496.5,496.9z"/>
	<path fill="#001D8A" d="M500,534.8c49.1,0,95.2-19.1,130-53.8c34.7-34.7,53.8-80.9,53.8-130c0-49.1-19.1-95.2-53.8-130
		c-34.7-34.7-80.9-53.8-130-53.8s-95.2,19.1-130,53.8c-34.7,34.7-53.8,80.9-53.8,130c0,49.1,19.1,95.2,53.8,130
		C404.7,515.7,450.9,534.8,500,534.8z M462.2,233.1l13.7-25.8c2.1-3.9,2.7-8.4,1.8-12.7l-1.8-8.7c7.9-1.2,16-1.7,24-1.7
		c8,0,16,0.6,23.9,1.7c-0.8,0.8-1.6,1.6-1.7,1.7l-19.4,7.8c-2.8,1.1-5.4,3-7.3,5.3L465.3,236c-0.3,0.4-0.9,0.7-1.4,0.7l-0.1,0
		c-0.6,0-1.1-0.2-1.5-0.7C461.3,234.9,462.2,233.1,462.2,233.1z M390.3,225.5v23.7c0,6.7-3.4,12.9-9,16.6l-17.6,11.4
		c-4.1,2.7-7.6,6.1-10.3,10.1l-14.8,21.7C347,276.5,364.9,247.7,390.3,225.5z M333.2,351c0-1.4,0-2.7,0-4.1l34.2-50.1
		c1.5-2.2,3.4-4,5.6-5.4l17.5-11.4c10.5-6.8,16.7-18.3,16.7-30.8v-36.7c15.9-10.7,33.4-18.5,52-23.1l1.8,8.8c0.1,0.4,0,0.9-0.2,1.3
		l-13.7,25.8c-0.9,1.6-1.9,5.7-2,5.9c-1,4.9,0,9.8,2.7,14l0.2,0.3l0.3-0.1c12.9-6.3,26.7-10.1,41.1-11.4l0.1,0l18.8-22
		c0.2-0.2,0.5-0.4,0.8-0.5l19.4-7.8c2.8-1.1,5.3-2.9,7.3-5.2l7.2-8.3c12.5,3.4,24.7,8.2,36.1,14.4c-0.9,3.3-7.8,32-9.3,38.2l-19.6,2
		l1.1,0.5c7.7,3.8,15.2,8.4,22,13.9l0.1,0.1l0.2,0c6.2-1.4,11.2-6.3,12.7-12.5l7.9-33c32.2,22.1,55.7,54.9,66.3,92.3l-3.9,0.7
		c-6.4,1.2-11.6,6.2-13.2,12.5l-1.6,6.4l-9.7-7.2c-2.9-2.2-6.5-3.4-10.2-3.4c-2.7,0-5.4,0.7-7.8,1.9l-1.4,0.7l0.1,0.3
		c1.6,5.4,2.8,11,3.6,16.5l0.1,0.5l5.5-2.9l9.7,7.3c3,2.2,6.4,3.4,10.1,3.4c1.9,0,3.8-0.3,5.7-1c5.3-1.9,9.4-6.3,10.7-11.8l1.6-6.5
		l4.3-0.8c1.6,9.4,2.5,19.1,2.5,28.7c0,92-74.8,166.8-166.8,166.8c-30.1,0-59.7-8.2-85.4-23.6l3.3-26.8c0.8-6.5-1.6-13.1-6.5-17.5
		c-7.1-6.5-20.6-18.9-21-19.3l-21-32.7c-3.8-5.9-10.2-9.4-17.1-9.4h-14.8C334.6,376.3,333.2,363.6,333.2,351z M352.2,405.5
		c1.2,0,2.2,0.6,2.8,1.6l21,32.7c1,1.5,2.1,2.9,3.4,4l20.4,18.6c0.8,0.7,1.2,1.8,1.1,2.9l-2.2,18.1c-26.2-20-45.6-47-56.4-77.9
		H352.2z"/>
	<path fill="#001D8A" d="M207.3,309.2c1.7,3.3,4.1,6.2,7.3,8.6c3.1,2.4,7.1,4.1,11.7,5.1c4.9,1,9,1,12.4-0.2c3.3-1.2,6.1-3,8.5-5.4
		c2.3-2.4,4.3-5.1,5.9-8c1.6-3,3.2-5.7,4.7-8.3c1.5-2.6,3.2-4.6,4.9-6.1c1.7-1.5,3.9-2,6.4-1.5c1.6,0.3,2.9,1,3.8,2
		c1,1,1.6,2.2,2.1,3.5c0.4,1.3,0.6,2.7,0.7,4.2c0,1.4-0.1,2.8-0.4,4.1c-0.5,2.2-1.4,4.4-2.8,6.7c-1.4,2.3-3.3,3.9-5.5,4.9l11.4,15.1
		c3.9-2.7,7-6.1,9.2-10c2.2-3.9,3.8-8.2,4.8-12.7c0.8-3.9,1.1-7.9,0.7-11.8c-0.4-3.9-1.4-7.6-3.1-10.9c-1.7-3.3-4.1-6.2-7.1-8.6
		c-3.1-2.4-6.8-4.1-11.4-5.1c-4.7-1-8.7-0.9-11.9,0.4c-3.3,1.2-6,3.1-8.4,5.5c-2.3,2.4-4.4,5.1-6.1,8.2c-1.7,3-3.4,5.8-5,8.4
		c-1.6,2.6-3.4,4.6-5.2,6.2c-1.9,1.5-4.1,2-6.6,1.5c-1.5-0.3-2.7-1-3.7-1.9c-1-1-1.7-2.1-2.1-3.4c-0.5-1.3-0.7-2.8-0.8-4.3
		c0-1.5,0.1-3,0.4-4.5c0.6-2.9,1.9-5.6,3.9-8.1c2-2.5,4.4-4.3,7.3-5.6l-11.9-15.6c-4.5,3.1-8.1,6.6-10.7,10.7
		c-2.6,4.1-4.5,8.8-5.6,14c-0.9,4.2-1.2,8.2-0.8,12.2C204.6,302.3,205.6,305.9,207.3,309.2z"/>
	<path fill="#001D8A" d="M251.2,429.8c6.8-0.9,12.9-2.8,18.2-5.7c5.3-2.9,9.6-6.6,13-11c3.4-4.4,5.8-9.4,7.1-15.1
		c1.4-5.6,1.6-11.6,0.8-18c-0.8-6.3-2.7-12-5.5-17.1c-2.8-5.1-6.4-9.3-10.8-12.7c-4.4-3.4-9.6-5.8-15.4-7.2
		c-5.8-1.4-12.2-1.7-19-0.8c-6.8,0.9-12.9,2.8-18.1,5.7c-5.3,2.9-9.6,6.6-13,11c-3.4,4.4-5.8,9.4-7.1,15.1c-1.4,5.6-1.6,11.6-0.8,18
		c0.8,6.3,2.7,12.1,5.5,17.1c2.8,5.1,6.4,9.3,10.8,12.7c4.4,3.4,9.5,5.8,15.4,7.2C238,430.4,244.3,430.7,251.2,429.8z M221.3,399.8
		c-1.8-2.9-2.9-6.3-3.4-10.1c-0.5-3.8-0.3-7.4,0.7-10.7c1-3.3,2.5-6.2,4.7-8.7c2.2-2.5,4.8-4.6,8-6.3c3.2-1.6,6.8-2.7,10.8-3.2
		c3.9-0.5,7.7-0.4,11.2,0.3c3.5,0.7,6.7,2,9.4,3.9c2.7,1.9,5,4.3,6.8,7.2c1.8,2.9,2.9,6.3,3.4,10.1c0.5,3.8,0.3,7.4-0.7,10.7
		c-1,3.3-2.5,6.2-4.7,8.7c-2.2,2.5-4.8,4.6-8.1,6.3c-3.2,1.6-6.8,2.7-10.7,3.2c-4,0.5-7.8,0.4-11.3-0.3c-3.5-0.7-6.6-2.1-9.4-3.9
		C225.3,405.1,223,402.7,221.3,399.8z"/>
	<polygon fill="#001D8A" points="245.9,475.2 307.1,444.2 299,428.1 222.1,467.1 245.3,513 261,505.1 	"/>
	
		<rect x="256.7" y="503.6" transform="matrix(0.7827 -0.6223 0.6223 0.7827 -253.8627 297.9401)" fill="#001D8A" width="86.2" height="18"/>
	<path fill="#001D8A" d="M387.8,563.4c1.2-6,1.1-11.7-0.4-17c-1.5-5.4-4.1-10.4-8-15.2c-3.8-4.7-8.4-9.1-13.7-13L344,502.1
		l-51.2,69.3l23.7,17.5c4.9,3.6,10.1,6.3,15.7,8.1c5.6,1.8,11.1,2.5,16.7,2.1c5.6-0.4,10.9-2,16.1-4.8c5.2-2.8,9.8-7,14-12.6
		C383.7,575.5,386.6,569.3,387.8,563.4z M369.3,559.7c-0.6,3.4-2.2,6.8-4.7,10.2c-2.9,3.9-5.9,6.8-9.2,8.6c-3.2,1.8-6.5,2.8-9.8,2.9
		c-3.3,0.1-6.7-0.5-10.1-2c-3.4-1.4-6.8-3.4-10.1-5.8l-7.5-5.6l30.4-41.1l8.6,6.3c3,2.2,5.6,4.8,7.8,7.6c2.2,2.9,3.7,5.9,4.5,9
		C369.8,553,369.9,556.3,369.3,559.7z"/>
	<path fill="#001D8A" d="M434.7,554.9l-57,73.7l19.2,5.3l11.4-15.8l30.7,8.5l1.9,19.5l19.6,5.4l-11.4-92.6L434.7,554.9z M418,604.1
		l16.7-23.2l2.6,28.5L418,604.1z"/>
	
		<rect x="452.1" y="598.7" transform="matrix(1.481995e-02 -0.9999 0.9999 1.481995e-02 -119.7748 1093.7831)" fill="#001D8A" width="86.2" height="18"/>
	<path fill="#001D8A" d="M582.5,593.9c2-4.8,2.3-10.2,1-16.1c-1.1-4.9-2.8-8.8-5.2-11.8c-2.3-2.9-5.1-5.1-8.3-6.4
		c-3.2-1.3-6.7-2-10.5-2c-3.8,0-7.8,0.4-11.8,1.3l-30.9,6.9l18.7,84.1l17.6-3.9l-7.5-33.6l8.7-1.9l24.2,29.9l21.1-4.7l-28.2-31
		C576.8,602.3,580.5,598.7,582.5,593.9z M565,587.4c-0.7,1.5-1.6,2.7-2.9,3.6c-1.3,0.9-2.8,1.6-4.6,2.1c-1.7,0.5-3.4,0.9-5,1.3
		l-10.4,2.3l-4.3-19.1l11.5-2.6c1.6-0.4,3.2-0.6,4.9-0.7c1.7-0.1,3.3,0,4.7,0.4c1.4,0.4,2.7,1.1,3.8,2.2c1.1,1.1,1.9,2.7,2.4,4.8
		C565.7,584.1,565.7,585.9,565,587.4z"/>
	<polygon fill="#001D8A" points="633.6,599.1 624.6,584 655.2,565.9 646.3,550.8 615.7,568.9 607.5,555.1 639.9,536 631,520.9 
		583.1,549.2 626.9,623.4 676.6,594 667.7,578.9 	"/>
	
		<ellipse transform="matrix(3.598863e-02 -0.9994 0.9994 3.598863e-02 36.8096 498.3762)" fill="#001D8A" cx="276.7" cy="230.1" rx="23.4" ry="23.4"/>
</g>
<g>
	<path fill="#221F1C" d="M618.2,344.3l0-0.1l-0.1-0.1c-2-2.7-4.6-4.7-7.7-5.8l-0.3-0.1l7.1-3.7l0-0.2c-0.8-5.5-2-11.1-3.6-16.6
		l-0.1-0.4l-11.4,6c-6,3.1-9.4,9.3-9,16c0.4,6.7,4.6,12.4,10.9,14.8l0.4,0.2l-7.4,8.6l-20.4-13.2c-2.7-1.8-5.9-2.7-9.1-2.7
		c-2.4,0-4.7,0.5-6.9,1.5c-5.2,2.3-8.9,7.1-9.8,12.7l-1.6,9.7c-0.9,5.6,1,11.2,5.1,15.1l10.6,9.9L547.4,422
		c-1.7,2.6-2.7,5.5-2.8,8.6l-1.2,30.6l0.5-0.2c5.8-2.3,11.4-5.1,16.7-8.3l0.2-0.1l0.8-21.3l17.4-26.4c4.5-6.9,3.5-16-2.6-21.6
		l-10.7-10l1.5-9.4l20.4,13.1c2.7,1.7,5.9,2.7,9.1,2.7c4.9,0,9.6-2.1,12.8-5.8l7.6-8.7c0.1-0.1,0.1-0.1,0.1-0.2c0,0,0.1-0.1,0.1-0.1
		l0.1-0.1l0-0.1c0.5-4.7,0.8-9.2,0.8-13.6C618.4,348.9,618.3,346.7,618.2,344.3z"/>
	<path fill="#221F1C" d="M449.4,247.1c3.6,4.2,8.8,6.6,14.4,6.6l0.3,0c2,0,8.8-0.5,14.1-6.6l12-14.1l-0.8,0.1
		c-14.5,1.3-28.4,5.1-41.3,11.5l-0.4,0.2l0.2,0.3C448.4,245.8,448.9,246.5,449.4,247.1z"/>
	<path fill="#221F1C" d="M566.5,313.7l-2.2-4.9c-2.6-5.8-8.1-9.6-14.5-10l-65.5-3.6l19.2-5.2c2.7-0.7,5.2-2.1,7.2-4l24.3-22.9
		l36.6-3.8c0.7-0.1,1.4-0.2,2-0.4l0.7-0.2l-0.6-0.5c-6.9-5.5-14.4-10.2-22.2-14l-0.1,0l-18.2,1.9c-3.7,0.4-7.2,2-9.9,4.5l-24.3,22.9
		l-19.9,5.4c-6.6,1.8-11.5,7.3-12.4,14.1c-0.9,6.8,2.4,13.4,8.4,16.8c2.3,1.3,4.9,2.1,7.5,2.2l66.2,3.6l2.1,4.8l-23.4,16.8
		l-35.6-3.9l-25.7-10.7c-2.1-0.9-4.2-1.3-6.5-1.3c-3.7,0-7.3,1.2-10.2,3.4l-26.5,20c-3.5,2.7-5.9,6.6-6.5,11l-4.3,28.9
		c-0.6,3.8,0.2,7.7,2.1,11l17.3,29.8c2.8,4.8,7.7,7.9,13.1,8.4l30.3,2.6l6.6,17.7l3,13.8l0.1,0.2l0.2,0c5.2,0.7,10.2,1,15.1,1
		c0.4,0,0.7,0,1.1,0c0.3,0,0.5,0,0.8,0l0.4,0l-0.1-0.4c-1.7-7.5-4.5-20.1-4.6-20.6l-6.6-17.8c-2.3-6.1-7.9-10.4-14.4-10.9l-30.3-2.6
		L429,387.3l4.3-28.9l26.4-20l25.7,10.7c1.5,0.6,3.1,1,4.7,1.2l35.6,3.9c0.6,0.1,1.2,0.1,1.8,0.1c3.5,0,6.9-1.1,9.8-3.2l23.6-16.9
		C567.4,329.7,569.8,321,566.5,313.7z"/>
</g>
</svg>
