<?xml version="1.0" encoding="utf-8"?>
<!-- Generator: Adobe Illustrator 23.0.1, SVG Export Plug-In . SVG Version: 6.00 Build 0)  -->
<svg version="1.1" id="Calque_3" xmlns="http://www.w3.org/2000/svg" xmlns:xlink="http://www.w3.org/1999/xlink" x="0px" y="0px"
	 viewBox="0 0 1000 700" enable-background="new 0 0 1000 700" xml:space="preserve">
<g>
	<path fill="#FB1F14" d="M617.2,334.2l-0.1-0.5l-7.5,3.9c-0.1,0-0.1,0.1-0.2,0.1l-0.1,0.1c-0.1,0.2-0.1,0.5,0.1,0.7l0.1,0.1
		c0,0,0.1,0,0.2,0.1l0.6,0.2c2.9,1.1,5.5,3,7.3,5.6l0.7,0.9l-0.1-1.2C618,341,617.7,337.6,617.2,334.2z"/>
	<path fill="#FB1F14" d="M565.4,395.2l-10.7-10c-4-3.7-5.8-9.1-4.9-14.4l1.6-9.7c0.9-5.4,4.4-10,9.4-12.2c4.9-2.2,10.8-1.7,15.3,1.2
		l20.5,13.2c0.2,0.2,0.6,0.1,0.8-0.1l7.6-8.8c0.1-0.1,0.2-0.2,0.1-0.5c-0.1-0.3-0.2-0.3-0.4-0.4l-0.6-0.2
		c-6.1-2.3-10.1-7.7-10.5-14.2c-0.4-6.5,2.9-12.3,8.6-15.3l11.3-5.9l-0.1-0.3c-6.9-23.4-20.7-43.9-39.9-59.2l-0.1-0.1l-0.2,0
		c-0.6,0.1-1.2,0.3-1.9,0.3l-36.6,3.8c-0.1,0-0.3,0.1-0.3,0.2l-24.3,23c-1.9,1.8-4.3,3.2-6.9,3.9l-19.9,5.4c-0.1,0-0.2,0.1-0.2,0.1
		l-0.1,0.1c-0.1,0.2-0.1,0.5-0.1,0.7l0.1,0.3l0.2-0.1c0.1,0,0.1,0,0.2,0.1l66.3,3.6c6.1,0.3,11.4,4,13.9,9.6l2.2,4.9
		c3.1,7,0.9,15.3-5.4,19.8L537,350.7c-2.8,2-6,3-9.4,3c-0.6,0-1.2,0-1.8-0.1l-35.6-3.9c-1.5-0.2-3-0.6-4.5-1.2L460,337.9
		c-0.2-0.1-0.4,0-0.6,0.1l-26.5,20c-0.1,0.1-0.2,0.2-0.2,0.4l-4.3,28.9c0,0.1,0,0.3,0.1,0.4l17.3,29.8c0.1,0.2,0.3,0.3,0.5,0.3
		l30.4,2.6c6.2,0.5,11.6,4.6,13.8,10.5l6.6,17.8c0.1,0.4,1.9,8,4.6,20.5l0.1,0.3l0.3,0c14.5-0.2,28.7-3.1,42.1-8.4l0.2-0.1l1.2-30.3
		c0.1-2.9,1-5.8,2.7-8.3l17.4-26.4C565.6,395.7,565.6,395.4,565.4,395.2z"/>
	<path fill="#FB1F14" d="M475.6,436.3c-0.1-0.2-0.3-0.4-0.5-0.4l-30.4-2.6c-5.3-0.5-10-3.5-12.6-8l-17.3-29.8
		c-1.8-3.2-2.6-6.9-2-10.5l4.3-28.9c0.6-4.2,2.9-8,6.3-10.5l26.5-20c2.8-2.1,6.3-3.3,9.8-3.3c2.2,0,4.2,0.4,6.2,1.2l25.7,10.7
		l35.8,3.9c0.1,0,0.2,0,0.3-0.1l23.6-16.9c0.2-0.2,0.3-0.5,0.2-0.7l-2.2-4.9c-0.1-0.2-0.3-0.3-0.5-0.3l-66.3-3.6
		c-2.5-0.1-5-0.9-7.2-2.1c-5.7-3.3-8.9-9.6-8-16.1c0.8-6.5,5.5-11.9,11.8-13.6l19.9-5.4c0.1,0,0.2-0.1,0.3-0.1l24.3-23
		c2.6-2.4,5.9-4,9.5-4.3l19.3-2l-1.1-0.5c-16.2-7.8-33.5-11.8-51.6-11.8c-3.4,0-6.9,0.2-10.6,0.5l-0.1,0l-11.6,13.5
		c-5.2,5.9-11.7,6.4-13.6,6.4l-0.3,0c-5.3,0-10.4-2.3-13.8-6.4c-0.5-0.6-0.9-1.2-1.4-1.9l-0.2-0.3l-0.3,0.1
		c-19.6,9.6-36.2,24.4-48,42.9c-12.1,19-18.5,41-18.5,63.6c0,59.5,44.4,110,103.4,117.4l0.5,0.1l-3.1-14.4L475.6,436.3z"/>
	<path fill="#FB1F14" d="M616.9,364.5c0,0-0.1,0.1-0.1,0.1l-7.6,8.7c-3.1,3.5-7.5,5.5-12.3,5.5c-3.1,0-6.1-0.9-8.7-2.6l-20.5-13.2
		c-0.1-0.1-0.3-0.2-0.6,0c-0.2,0.1-0.3,0.3-0.3,0.4l-1.6,9.7c0,0.2,0,0.4,0.2,0.5l10.7,10c5.8,5.4,6.8,14.1,2.5,20.7l-17.4,26.4
		c-0.1,0.1-0.1,0.2-0.1,0.3l-0.9,21.8l0.6-0.3c31.5-18.8,52.8-51.7,56.9-88.1l0.1-1.2l-0.7,0.9C616.9,364.4,616.9,364.5,616.9,364.5
		z"/>
	<path fill="#FB1F14" d="M348.7,139.1c-5.5-5.7-11.1-9.6-16.7-11.7c-5.7-2.2-11.3-3-16.9-2.4c-5.6,0.6-11,2.4-16.3,5.3
		c-5.3,3-10.3,6.8-15,11.3l-19.4,18.8l59.9,62l21.2-20.5c4.4-4.2,7.9-9,10.6-14.2c2.7-5.2,4.3-10.6,4.8-16.1
		c0.5-5.5-0.1-11.1-2-16.7C356.9,149.4,353.5,144.1,348.7,139.1z M342.7,172c-0.4,3.3-1.6,6.5-3.6,9.7c-2,3.1-4.4,6.1-7.4,9
		l-6.7,6.5l-35.5-36.8l7.7-7.4c2.7-2.6,5.7-4.8,8.8-6.4c3.2-1.7,6.4-2.6,9.6-2.9c3.2-0.3,6.5,0.1,9.7,1.3c3.3,1.2,6.4,3.3,9.3,6.4
		c3.4,3.5,5.7,7,7,10.4C342.7,165.3,343.2,168.7,342.7,172z"/>

		<rect x="367" y="82.3" transform="matrix(0.8794 -0.4762 0.4762 0.8794 -14.3333 194.19)" fill="#FB1F14" width="18" height="86.2"/>
	<path fill="#FB1F14" d="M434.6,147l-8.5-32.5l12.8-3.3c4.2-1.1,7.9-2.5,11.3-4.3c3.4-1.8,6.1-4,8.2-6.6c2.1-2.6,3.5-5.8,4.1-9.5
		c0.6-3.7,0.3-8-1-12.8c-1.3-4.9-3.2-8.8-5.6-11.7c-2.5-2.8-5.3-4.9-8.5-6.1c-3.2-1.2-6.8-1.7-10.6-1.6c-3.9,0.2-7.8,0.8-11.9,1.9
		l-29.4,7.7l21.8,83.4L434.6,147z M425.8,76.8c1.6-0.4,3.4-0.8,5.2-1c1.8-0.3,3.6-0.2,5.2,0.1c1.6,0.3,3.1,1,4.4,2.1
		c1.3,1,2.2,2.6,2.7,4.8c0.5,2,0.6,3.7,0.2,5.2c-0.4,1.5-1,2.7-2,3.8c-1,1-2.1,1.9-3.5,2.6c-1.4,0.7-2.8,1.2-4.4,1.7l-11.6,3
		l-5.2-19.8L425.8,76.8z"/>
	<polygon fill="#FB1F14" points="538.1,121.4 504.7,120 507.7,51.4 489.6,50.6 486,136.7 537.4,138.9 	"/>
	<path fill="#FB1F14" d="M564.8,146c4.2,4,9.2,7.2,15.1,9.7c5.9,2.4,11.8,3.7,17.6,3.8c5.8,0.1,11.3-0.9,16.4-3
		c5.1-2.1,9.8-5.4,14-9.7c4.2-4.3,7.6-9.7,10.2-16.1c2.6-6.4,4-12.6,4.1-18.6c0.1-6-0.9-11.6-3-16.7c-2.1-5.1-5.3-9.7-9.5-13.7
		c-4.2-4-9.2-7.2-15.1-9.7c-5.9-2.4-11.8-3.7-17.6-3.8c-5.8-0.1-11.3,0.9-16.4,3c-5.1,2.1-9.8,5.4-14,9.7
		c-4.2,4.3-7.6,9.7-10.2,16.1c-2.6,6.4-4,12.6-4.1,18.6c-0.1,6,0.9,11.6,3,16.7C557.4,137.4,560.6,142,564.8,146z M571.1,115.1
		c0.2-3.6,1-7.2,2.6-11c1.5-3.7,3.5-6.9,5.9-9.6c2.4-2.7,5.1-4.8,8.1-6.2c3-1.4,6.2-2.2,9.6-2.3c3.4-0.1,6.9,0.6,10.5,2.1
		c3.6,1.5,6.5,3.4,8.9,5.9c2.4,2.5,4.1,5.3,5.2,8.4c1.1,3.1,1.6,6.5,1.4,10.1c-0.2,3.6-1.1,7.2-2.6,10.9c-1.6,3.8-3.5,7-5.9,9.6
		c-2.4,2.7-5.1,4.7-8.1,6.1c-3,1.4-6.2,2.2-9.6,2.3c-3.4,0.1-6.9-0.6-10.5-2.1c-3.6-1.5-6.5-3.4-8.9-5.9c-2.4-2.5-4.1-5.3-5.2-8.4
		C571.4,122,570.9,118.7,571.1,115.1z"/>
	<polygon fill="#FB1F14" points="726.7,185.7 677.5,229.9 689.5,243.3 753.7,185.7 735.5,165.5 681,188.9 680.8,188.8 710.1,137.2
		691.9,116.9 627.7,174.4 639.8,187.9 689,143.7 689.1,143.9 653.8,203.4 663,213.7 726.5,185.5 	"/>
	<path fill="#FB1F14" d="M696.7,265.8l19.5,1.1l9.5,30.4l-15.3,12.2l6.1,19.4l71.6-59.7l-4.5-14.2l-92.8-8L696.7,265.8z
		 M761.7,268.9l-22.6,17.6l-6-19.1L761.7,268.9z"/>
	<polygon fill="#FB1F14" points="782.6,339 713.2,340 713.5,358 782.8,357 783.2,380.4 800,380.2 799,315.4 782.2,315.6 	"/>
	<polygon fill="#FB1F14" points="706.7,406 791,424.1 794.7,406.5 710.5,388.4 	"/>
	<polygon fill="#FB1F14" points="678.6,473 694.4,480.6 711.7,444.9 727.5,452.6 712,484.5 727.8,492.2 743.3,460.3 757.7,467.3
		741.3,501.1 757.1,508.7 781.4,458.7 703.9,421.1 	"/>
	<path fill="#FB1F14" d="M693.6,505c-12.9,0.3-23.2,11-22.8,24c0.3,12.9,11,23.2,24,22.8c12.9-0.3,23.2-11,22.8-24
		C717.2,514.9,706.5,504.7,693.6,505z"/>
</g>
</svg>
