<?xml version="1.0" encoding="utf-8"?>
<!-- Generator: Adobe Illustrator 23.0.1, SVG Export Plug-In . SVG Version: 6.00 Build 0)  -->
<svg version="1.1" id="Calque_3_1_" xmlns="http://www.w3.org/2000/svg" xmlns:xlink="http://www.w3.org/1999/xlink" x="0px"
	 y="0px" viewBox="0 0 1000 700" enable-background="new 0 0 1000 700" xml:space="preserve">
<g opacity="0.2">
	<path fill="#FF0000" d="M351.4,206.9c4.4-4.2,7.9-9,10.6-14.2s4.3-10.6,4.8-16.1s-0.1-11.1-2-16.7c-1.9-5.6-5.3-10.9-10.1-15.9
		c-5.5-5.7-11.1-9.6-16.7-11.7c-5.7-2.2-11.3-3-16.9-2.4s-11,2.4-16.3,5.3c-5.3,3-10.3,6.8-15,11.3l-19.4,18.8l59.9,62L351.4,206.9z
		 M303.1,158.1c2.7-2.6,5.7-4.8,8.8-6.4c3.2-1.7,6.4-2.6,9.6-2.9c3.2-0.3,6.5,0.1,9.7,1.3c3.3,1.2,6.4,3.3,9.3,6.4
		c3.4,3.5,5.7,7,7,10.4c1.3,3.5,1.7,6.9,1.2,10.2c-0.4,3.3-1.6,6.5-3.6,9.7c-2,3.1-4.4,6.1-7.4,9l-6.7,6.5l-35.5-36.8L303.1,158.1z"
		/>
	
		<rect x="373.1" y="87.3" transform="matrix(0.8794 -0.4762 0.4762 0.8794 -15.9967 197.6907)" fill="#FF0000" width="18" height="86.2"/>
	<path fill="#FF0000" d="M440.6,152l-8.5-32.5l12.8-3.3c4.2-1.1,7.9-2.5,11.3-4.3s6.1-4,8.2-6.6s3.5-5.8,4.1-9.5s0.3-8-1-12.8
		c-1.3-4.9-3.2-8.8-5.6-11.7c-2.5-2.8-5.3-4.9-8.5-6.1c-3.2-1.2-6.8-1.7-10.6-1.6c-3.9,0.2-7.8,0.8-11.9,1.9l-29.4,7.7l21.8,83.4
		L440.6,152z M431.8,81.8c1.6-0.4,3.4-0.8,5.2-1c1.8-0.3,3.6-0.2,5.2,0.1c1.6,0.3,3.1,1,4.4,2.1c1.3,1,2.2,2.6,2.7,4.8
		c0.5,2,0.6,3.7,0.2,5.2s-1,2.7-2,3.8c-1,1-2.1,1.9-3.5,2.6s-2.8,1.2-4.4,1.7l-11.6,3l-5.2-19.8L431.8,81.8z"/>
	<polygon fill="#FF0000" points="544.2,126.4 510.8,125 513.7,56.4 495.7,55.6 492,141.7 543.4,143.9 	"/>
	<path fill="#FF0000" d="M570.8,151c4.2,4,9.2,7.2,15.1,9.7c5.9,2.4,11.8,3.7,17.6,3.8s11.3-0.9,16.4-3c5.1-2.1,9.8-5.4,14-9.7
		s7.6-9.7,10.2-16.1c2.6-6.4,4-12.6,4.1-18.6s-0.9-11.6-3-16.7c-2.1-5.1-5.3-9.7-9.5-13.7s-9.2-7.2-15.1-9.7
		c-5.9-2.4-11.8-3.7-17.6-3.8c-5.8-0.1-11.3,0.9-16.4,3c-5.1,2.1-9.8,5.4-14,9.7c-4.2,4.3-7.6,9.7-10.2,16.1
		c-2.6,6.4-4,12.6-4.1,18.6s0.9,11.6,3,16.7C563.5,142.4,566.6,147,570.8,151z M577.1,120.1c0.2-3.6,1-7.2,2.6-11
		c1.5-3.7,3.5-6.9,5.9-9.6s5.1-4.8,8.1-6.2c3-1.4,6.2-2.2,9.6-2.3c3.4-0.1,6.9,0.6,10.5,2.1s6.5,3.4,8.9,5.9s4.1,5.3,5.2,8.4
		c1.1,3.1,1.6,6.5,1.4,10.1c-0.2,3.6-1.1,7.2-2.6,10.9c-1.6,3.8-3.5,7-5.9,9.6c-2.4,2.7-5.1,4.7-8.1,6.1c-3,1.4-6.2,2.2-9.6,2.3
		c-3.4,0.1-6.9-0.6-10.5-2.1s-6.5-3.4-8.9-5.9s-4.1-5.3-5.2-8.4C577.4,127,576.9,123.7,577.1,120.1z"/>
	<polygon fill="#FF0000" points="645.8,192.9 695,148.7 695.2,148.9 659.8,208.4 669,218.7 732.5,190.5 732.7,190.7 683.5,234.9 
		695.6,248.3 759.7,190.7 741.5,170.5 687,193.9 686.9,193.8 716.1,142.2 697.9,121.9 633.8,179.4 	"/>
	<path fill="#FF0000" d="M702.7,270.8l19.5,1.1l9.5,30.4l-15.3,12.2l6.1,19.4l71.6-59.7l-4.5-14.2l-92.8-8L702.7,270.8z
		 M767.7,273.9l-22.6,17.6l-6-19.1L767.7,273.9z"/>
	<polygon fill="#FF0000" points="788.6,344 719.2,345 719.5,363 788.9,362 789.2,385.4 806,385.2 805.1,320.4 788.3,320.6 	"/>
	<polygon fill="#FF0000" points="712.7,411 797,429.1 800.8,411.5 716.5,393.4 	"/>
	<polygon fill="#FF0000" points="684.7,478 700.4,485.6 717.8,449.9 733.5,457.6 718,489.5 733.8,497.2 749.3,465.3 763.8,472.3 
		747.3,506.1 763.1,513.7 787.4,463.7 709.9,426.1 	"/>
	<path fill="#FF0000" d="M699.6,510c-12.9,0.3-23.2,11-22.8,24c0.3,12.9,11,23.2,24,22.8c12.9-0.3,23.2-11,22.8-24
		C723.3,519.9,712.5,509.7,699.6,510z"/>
	<path fill="#FF0000" d="M506,172.2c-49.1,0-95.2,19.1-130,53.8c-34.7,34.7-53.8,80.9-53.8,130s19.1,95.2,53.8,130
		c34.7,34.7,80.9,53.8,130,53.8s95.2-19.1,130-53.8c34.7-34.7,53.8-80.9,53.8-130s-19.1-95.2-53.8-130
		C601.2,191.3,555.1,172.2,506,172.2z M672.7,356c0,92.1-74.6,166.7-166.7,166.7S339.3,448.1,339.3,356S413.9,189.3,506,189.3
		S672.7,263.9,672.7,356z M624.6,356c0,65.2-53.1,118-118.6,118s-118.6-52.8-118.6-118S440.5,238,506,238S624.6,290.8,624.6,356z"/>
	<path fill="#FF0000" d="M213.3,314.2c1.7,3.3,4.1,6.2,7.3,8.6s7.1,4.1,11.7,5.1c4.9,1,9,1,12.4-0.2c3.3-1.2,6.1-3,8.5-5.4
		c2.3-2.4,4.3-5.1,5.9-8c1.6-3,3.2-5.7,4.7-8.3c1.5-2.6,3.2-4.6,4.9-6.1c1.7-1.5,3.9-2,6.4-1.5c1.6,0.3,2.9,1,3.8,2
		c1,1,1.6,2.2,2.1,3.5c0.4,1.3,0.6,2.7,0.7,4.2c0,1.4-0.1,2.8-0.4,4.1c-0.5,2.2-1.4,4.4-2.8,6.7c-1.4,2.3-3.3,3.9-5.5,4.9l11.4,15.1
		c3.9-2.7,7-6.1,9.2-10s3.8-8.2,4.8-12.7c0.8-3.9,1.1-7.9,0.7-11.8s-1.4-7.6-3.1-10.9s-4.1-6.2-7.1-8.6c-3.1-2.4-6.8-4.1-11.4-5.1
		c-4.7-1-8.7-0.9-11.9,0.4c-3.3,1.2-6,3.1-8.4,5.5c-2.3,2.4-4.4,5.1-6.1,8.2c-1.7,3-3.4,5.8-5,8.4s-3.4,4.6-5.2,6.2
		c-1.9,1.5-4.1,2-6.6,1.5c-1.5-0.3-2.7-1-3.7-1.9c-1-1-1.7-2.1-2.1-3.4c-0.5-1.3-0.7-2.8-0.8-4.3c0-1.5,0.1-3,0.4-4.5
		c0.6-2.9,1.9-5.6,3.9-8.1s4.4-4.3,7.3-5.6l-11.9-15.6c-4.5,3.1-8.1,6.6-10.7,10.7c-2.6,4.1-4.5,8.8-5.6,14
		c-0.9,4.2-1.2,8.2-0.8,12.2C210.6,307.3,211.6,310.9,213.3,314.2z"/>
	<path fill="#FF0000" d="M257.2,434.8c6.8-0.9,12.9-2.8,18.2-5.7c5.3-2.9,9.6-6.6,13-11s5.8-9.4,7.1-15.1c1.4-5.6,1.6-11.6,0.8-18
		c-0.8-6.3-2.7-12-5.5-17.1s-6.4-9.3-10.8-12.7c-4.4-3.4-9.6-5.8-15.4-7.2c-5.8-1.4-12.2-1.7-19-0.8c-6.8,0.9-12.9,2.8-18.1,5.7
		c-5.3,2.9-9.6,6.6-13,11s-5.8,9.4-7.1,15.1c-1.4,5.6-1.6,11.6-0.8,18c0.8,6.3,2.7,12.1,5.5,17.1c2.8,5.1,6.4,9.3,10.8,12.7
		c4.4,3.4,9.5,5.8,15.4,7.2C244,435.4,250.4,435.7,257.2,434.8z M227.3,404.8c-1.8-2.9-2.9-6.3-3.4-10.1c-0.5-3.8-0.3-7.4,0.7-10.7
		c1-3.3,2.5-6.2,4.7-8.7s4.8-4.6,8-6.3c3.2-1.6,6.8-2.7,10.8-3.2c3.9-0.5,7.7-0.4,11.2,0.3c3.5,0.7,6.7,2,9.4,3.9s5,4.3,6.8,7.2
		c1.8,2.9,2.9,6.3,3.4,10.1c0.5,3.8,0.3,7.4-0.7,10.7c-1,3.3-2.5,6.2-4.7,8.7s-4.8,4.6-8.1,6.3c-3.2,1.6-6.8,2.7-10.7,3.2
		c-4,0.5-7.8,0.4-11.3-0.3c-3.5-0.7-6.6-2.1-9.4-3.9C231.3,410.1,229.1,407.7,227.3,404.8z"/>
	<polygon fill="#FF0000" points="251.9,480.2 313.2,449.2 305,433.1 228.1,472.1 251.4,518 267,510.1 	"/>
	
		<rect x="262.7" y="508.6" transform="matrix(0.7827 -0.6223 0.6223 0.7827 -255.6668 302.7311)" fill="#FF0000" width="86.2" height="18"/>
	<path fill="#FF0000" d="M393.9,568.4c1.2-6,1.1-11.7-0.4-17c-1.5-5.4-4.1-10.4-8-15.2c-3.8-4.7-8.4-9.1-13.7-13L350,507.1
		l-51.2,69.3l23.7,17.5c4.9,3.6,10.1,6.3,15.7,8.1s11.1,2.5,16.7,2.1s10.9-2,16.1-4.8s9.8-7,14-12.6
		C389.7,580.5,392.7,574.3,393.9,568.4z M375.3,564.7c-0.6,3.4-2.2,6.8-4.7,10.2c-2.9,3.9-5.9,6.8-9.2,8.6c-3.2,1.8-6.5,2.8-9.8,2.9
		c-3.3,0.1-6.7-0.5-10.1-2c-3.4-1.4-6.8-3.4-10.1-5.8l-7.5-5.6l30.4-41.1l8.6,6.3c3,2.2,5.6,4.8,7.8,7.6c2.2,2.9,3.7,5.9,4.5,9
		C375.9,558,375.9,561.3,375.3,564.7z"/>
	<path fill="#FF0000" d="M440.7,559.9l-57,73.7l19.2,5.3l11.4-15.8l30.7,8.5l1.9,19.5l19.6,5.4l-11.4-92.6L440.7,559.9z M424,609.1
		l16.7-23.2l2.6,28.5L424,609.1z"/>
	
		<rect x="458.2" y="603.7" transform="matrix(1.481950e-02 -0.9999 0.9999 1.481950e-02 -118.7586 1104.806)" fill="#FF0000" width="86.2" height="18"/>
	<path fill="#FF0000" d="M588.6,598.9c2-4.8,2.3-10.2,1-16.1c-1.1-4.9-2.8-8.8-5.2-11.8c-2.3-2.9-5.1-5.1-8.3-6.4
		c-3.2-1.3-6.7-2-10.5-2s-7.8,0.4-11.8,1.3l-30.9,6.9l18.7,84.1l17.6-3.9l-7.5-33.6l8.7-1.9l24.2,29.9l21.1-4.7l-28.2-31
		C582.8,607.3,586.5,603.7,588.6,598.9z M571,592.4c-0.7,1.5-1.6,2.7-2.9,3.6c-1.3,0.9-2.8,1.6-4.6,2.1c-1.7,0.5-3.4,0.9-5,1.3
		l-10.4,2.3l-4.3-19.1l11.5-2.6c1.6-0.4,3.2-0.6,4.9-0.7c1.7-0.1,3.3,0,4.7,0.4s2.7,1.1,3.8,2.2c1.1,1.1,1.9,2.7,2.4,4.8
		C571.8,589.1,571.7,590.9,571,592.4z"/>
	<polygon fill="#FF0000" points="639.6,604.1 630.7,589 661.2,570.9 652.3,555.8 621.7,573.9 613.6,560.1 645.9,541 637,525.9 
		589.1,554.2 633,628.4 682.7,599 673.7,583.9 	"/>
	<ellipse fill="#FF0000" cx="282.8" cy="235.1" rx="23.4" ry="23.4"/>
</g>
<g>
	<circle fill="none" stroke="#000000" stroke-miterlimit="10" stroke-dasharray="6" cx="506" cy="356" r="183.8"/>
</g>
<g>
	<circle fill="none" stroke="#000000" stroke-miterlimit="10" stroke-dasharray="6" cx="506" cy="356" r="166.7"/>
</g>
<g>
	<circle fill="none" stroke="#000000" stroke-miterlimit="10" stroke-dasharray="6" cx="506" cy="356" r="319.1"/>
</g>
<g>
	<ellipse fill="none" stroke="#000000" stroke-miterlimit="10" stroke-dasharray="6" cx="506" cy="356" rx="118.6" ry="118"/>
</g>
<g>
	<g>
		<line fill="none" stroke="#000000" stroke-miterlimit="10" stroke-dasharray="6" x1="245.7" y1="171.5" x2="250.6" y2="174.9"/>
		<line fill="none" stroke="#000000" stroke-miterlimit="10" stroke-dasharray="6" x1="260.2" y1="181.8" x2="756.6" y2="533.6"/>
		<line fill="none" stroke="#000000" stroke-miterlimit="10" stroke-dasharray="6" x1="761.4" y1="537.1" x2="766.3" y2="540.5"/>
	</g>
</g>
<g>
	<g>
		<line fill="none" stroke="#000000" stroke-miterlimit="10" stroke-dasharray="6" x1="216" y1="489.2" x2="221.5" y2="486.6"/>
		<line fill="none" stroke="#000000" stroke-miterlimit="10" stroke-dasharray="6" x1="232.2" y1="481.7" x2="785.1" y2="227.8"/>
		<line fill="none" stroke="#000000" stroke-miterlimit="10" stroke-dasharray="6" x1="790.5" y1="225.4" x2="796" y2="222.8"/>
	</g>
</g>
<g>
	<g>
		<line fill="none" stroke="#000000" stroke-miterlimit="10" stroke-dasharray="6" x1="476.3" y1="673.7" x2="476.9" y2="667.7"/>
		<line fill="none" stroke="#000000" stroke-miterlimit="10" stroke-dasharray="6" x1="478" y1="655.9" x2="534.6" y2="50.2"/>
		<line fill="none" stroke="#000000" stroke-miterlimit="10" stroke-dasharray="6" x1="535.1" y1="44.3" x2="535.7" y2="38.3"/>
	</g>
</g>
</svg>
