<?xml version="1.0" encoding="utf-8"?>
<!-- Generator: Adobe Illustrator 23.0.1, SVG Export Plug-In . SVG Version: 6.00 Build 0)  -->
<svg version="1.1" id="Calque_3" xmlns="http://www.w3.org/2000/svg" xmlns:xlink="http://www.w3.org/1999/xlink" x="0px" y="0px"
	 viewBox="0 0 1000 700" enable-background="new 0 0 1000 700" xml:space="preserve">
<g>
	<path fill="#001D8A" d="M620.9,349.9c-0.5-2.1-1.5-4.1-2.8-5.8l-0.7-0.9l0.1,1.2c0.1,2.4,0.2,4.6,0.2,6.7c0,4.4-0.3,8.9-0.8,13.6
		l-0.1,1.2l0.7-0.9C621,360.7,622.2,355.1,620.9,349.9z"/>
	<path fill="#001D8A" d="M496.5,496.9l15.1,8.8c2.6,1.5,5.5,2.3,8.5,2.3c4.5,0,8.7-1.7,11.8-4.8l23.2-22.8c3.1-3,4.9-7.1,5.1-11.4
		l0.7-17.3l-0.6,0.3c-5.2,3.1-10.8,5.9-16.6,8.2l-0.2,0.1l-0.3,8L520,491l-14.9-8.8c-0.1-0.6-1.4-6.6-2.9-13.3l-0.1-0.3l-0.3,0
		c-0.3,0-0.5,0-0.8,0c-0.3,0-0.7,0-1,0c-4.8,0-9.8-0.3-15-1l-0.5-0.1l4,18.3C489.5,490.5,492.4,494.5,496.5,496.9z"/>
	<path fill="#001D8A" d="M500,534.8c49.1,0,95.2-19.1,130-53.8c34.7-34.7,53.8-80.9,53.8-130c0-49.1-19.1-95.2-53.8-130
		c-34.7-34.7-80.9-53.8-130-53.8s-95.2,19.1-130,53.8c-34.7,34.7-53.8,80.9-53.8,130c0,49.1,19.1,95.2,53.8,130
		C404.7,515.7,450.9,534.8,500,534.8z M462.2,233.1l13.7-25.8c2.1-3.9,2.7-8.4,1.8-12.7l-1.8-8.7c7.9-1.2,16-1.7,24-1.7
		c8,0,16,0.6,23.9,1.7c-0.8,0.8-1.6,1.6-1.7,1.7l-19.4,7.8c-2.8,1.1-5.4,3-7.3,5.3L465.3,236c-0.3,0.4-0.9,0.7-1.4,0.7l-0.1,0
		c-0.6,0-1.1-0.2-1.5-0.7C461.3,234.9,462.2,233.1,462.2,233.1z M390.3,225.5v23.7c0,6.7-3.4,12.9-9,16.6l-17.6,11.4
		c-4.1,2.7-7.6,6.1-10.3,10.1l-14.8,21.7C347,276.5,364.9,247.7,390.3,225.5z M333.2,351c0-1.4,0-2.7,0-4.1l34.2-50.1
		c1.5-2.2,3.4-4,5.6-5.4l17.5-11.4c10.5-6.8,16.7-18.3,16.7-30.8v-36.7c15.9-10.7,33.4-18.5,52-23.1l1.8,8.8c0.1,0.4,0,0.9-0.2,1.3
		l-13.7,25.8c-0.9,1.6-1.9,5.7-2,5.9c-1,4.9,0,9.8,2.7,14l0.2,0.3l0.3-0.1c12.9-6.3,26.7-10.1,41.1-11.4l0.1,0l18.8-22
		c0.2-0.2,0.5-0.4,0.8-0.5l19.4-7.8c2.8-1.1,5.3-2.9,7.3-5.2l7.2-8.3c12.5,3.4,24.7,8.2,36.1,14.4c-0.9,3.3-7.8,32-9.3,38.2l-19.6,2
		l1.1,0.5c7.7,3.8,15.2,8.4,22,13.9l0.1,0.1l0.2,0c6.2-1.4,11.2-6.3,12.7-12.5l7.9-33c32.2,22.1,55.7,54.9,66.3,92.3l-3.9,0.7
		c-6.4,1.2-11.6,6.2-13.2,12.5l-1.6,6.4l-9.7-7.2c-2.9-2.2-6.5-3.4-10.2-3.4c-2.7,0-5.4,0.7-7.8,1.9l-1.4,0.7l0.1,0.3
		c1.6,5.4,2.8,11,3.6,16.5l0.1,0.5l5.5-2.9l9.7,7.3c3,2.2,6.4,3.4,10.1,3.4c1.9,0,3.8-0.3,5.7-1c5.3-1.9,9.4-6.3,10.7-11.8l1.6-6.5
		l4.3-0.8c1.6,9.4,2.5,19.1,2.5,28.7c0,92-74.8,166.8-166.8,166.8c-30.1,0-59.7-8.2-85.4-23.6l3.3-26.8c0.8-6.5-1.6-13.1-6.5-17.5
		c-7.1-6.5-20.6-18.9-21-19.3l-21-32.7c-3.8-5.9-10.2-9.4-17.1-9.4h-14.8C334.6,376.3,333.2,363.6,333.2,351z M352.2,405.5
		c1.2,0,2.2,0.6,2.8,1.6l21,32.7c1,1.5,2.1,2.9,3.4,4l20.4,18.6c0.8,0.7,1.2,1.8,1.1,2.9l-2.2,18.1c-26.2-20-45.6-47-56.4-77.9
		H352.2z"/>
	<path fill="#001D8A" d="M207.3,309.2c1.7,3.3,4.1,6.2,7.3,8.6c3.1,2.4,7.1,4.1,11.7,5.1c4.9,1,9,1,12.4-0.2c3.3-1.2,6.1-3,8.5-5.4
		c2.3-2.4,4.3-5.1,5.9-8c1.6-3,3.2-5.7,4.7-8.3c1.5-2.6,3.2-4.6,4.9-6.1c1.7-1.5,3.9-2,6.4-1.5c1.6,0.3,2.9,1,3.8,2
		c1,1,1.6,2.2,2.1,3.5c0.4,1.3,0.6,2.7,0.7,4.2c0,1.4-0.1,2.8-0.4,4.1c-0.5,2.2-1.4,4.4-2.8,6.7c-1.4,2.3-3.3,3.9-5.5,4.9l11.4,15.1
		c3.9-2.7,7-6.1,9.2-10c2.2-3.9,3.8-8.2,4.8-12.7c0.8-3.9,1.1-7.9,0.7-11.8c-0.4-3.9-1.4-7.6-3.1-10.9c-1.7-3.3-4.1-6.2-7.1-8.6
		c-3.1-2.4-6.8-4.1-11.4-5.1c-4.7-1-8.7-0.9-11.9,0.4c-3.3,1.2-6,3.1-8.4,5.5c-2.3,2.4-4.4,5.1-6.1,8.2c-1.7,3-3.4,5.8-5,8.4
		c-1.6,2.6-3.4,4.6-5.2,6.2c-1.9,1.5-4.1,2-6.6,1.5c-1.5-0.3-2.7-1-3.7-1.9c-1-1-1.7-2.1-2.1-3.4c-0.5-1.3-0.7-2.8-0.8-4.3
		c0-1.5,0.1-3,0.4-4.5c0.6-2.9,1.9-5.6,3.9-8.1c2-2.5,4.4-4.3,7.3-5.6l-11.9-15.6c-4.5,3.1-8.1,6.6-10.7,10.7
		c-2.6,4.1-4.5,8.8-5.6,14c-0.9,4.2-1.2,8.2-0.8,12.2C204.6,302.3,205.6,305.9,207.3,309.2z"/>
	<path fill="#001D8A" d="M251.2,429.8c6.8-0.9,12.9-2.8,18.2-5.7c5.3-2.9,9.6-6.6,13-11c3.4-4.4,5.8-9.4,7.1-15.1
		c1.4-5.6,1.6-11.6,0.8-18c-0.8-6.3-2.7-12-5.5-17.1c-2.8-5.1-6.4-9.3-10.8-12.7c-4.4-3.4-9.6-5.8-15.4-7.2
		c-5.8-1.4-12.2-1.7-19-0.8c-6.8,0.9-12.9,2.8-18.1,5.7c-5.3,2.9-9.6,6.6-13,11c-3.4,4.4-5.8,9.4-7.1,15.1c-1.4,5.6-1.6,11.6-0.8,18
		c0.8,6.3,2.7,12.1,5.5,17.1c2.8,5.1,6.4,9.3,10.8,12.7c4.4,3.4,9.5,5.8,15.4,7.2C238,430.4,244.3,430.7,251.2,429.8z M221.3,399.8
		c-1.8-2.9-2.9-6.3-3.4-10.1c-0.5-3.8-0.3-7.4,0.7-10.7c1-3.3,2.5-6.2,4.7-8.7c2.2-2.5,4.8-4.6,8-6.3c3.2-1.6,6.8-2.7,10.8-3.2
		c3.9-0.5,7.7-0.4,11.2,0.3c3.5,0.7,6.7,2,9.4,3.9c2.7,1.9,5,4.3,6.8,7.2c1.8,2.9,2.9,6.3,3.4,10.1c0.5,3.8,0.3,7.4-0.7,10.7
		c-1,3.3-2.5,6.2-4.7,8.7c-2.2,2.5-4.8,4.6-8.1,6.3c-3.2,1.6-6.8,2.7-10.7,3.2c-4,0.5-7.8,0.4-11.3-0.3c-3.5-0.7-6.6-2.1-9.4-3.9
		C225.3,405.1,223,402.7,221.3,399.8z"/>
	<polygon fill="#001D8A" points="245.9,475.2 307.1,444.2 299,428.1 222.1,467.1 245.3,513 261,505.1 	"/>

		<rect x="256.7" y="503.6" transform="matrix(0.7827 -0.6223 0.6223 0.7827 -253.8627 297.9401)" fill="#001D8A" width="86.2" height="18"/>
	<path fill="#001D8A" d="M387.8,563.4c1.2-6,1.1-11.7-0.4-17c-1.5-5.4-4.1-10.4-8-15.2c-3.8-4.7-8.4-9.1-13.7-13L344,502.1
		l-51.2,69.3l23.7,17.5c4.9,3.6,10.1,6.3,15.7,8.1c5.6,1.8,11.1,2.5,16.7,2.1c5.6-0.4,10.9-2,16.1-4.8c5.2-2.8,9.8-7,14-12.6
		C383.7,575.5,386.6,569.3,387.8,563.4z M369.3,559.7c-0.6,3.4-2.2,6.8-4.7,10.2c-2.9,3.9-5.9,6.8-9.2,8.6c-3.2,1.8-6.5,2.8-9.8,2.9
		c-3.3,0.1-6.7-0.5-10.1-2c-3.4-1.4-6.8-3.4-10.1-5.8l-7.5-5.6l30.4-41.1l8.6,6.3c3,2.2,5.6,4.8,7.8,7.6c2.2,2.9,3.7,5.9,4.5,9
		C369.8,553,369.9,556.3,369.3,559.7z"/>
	<path fill="#001D8A" d="M434.7,554.9l-57,73.7l19.2,5.3l11.4-15.8l30.7,8.5l1.9,19.5l19.6,5.4l-11.4-92.6L434.7,554.9z M418,604.1
		l16.7-23.2l2.6,28.5L418,604.1z"/>

		<rect x="452.1" y="598.7" transform="matrix(1.481995e-02 -0.9999 0.9999 1.481995e-02 -119.7748 1093.7831)" fill="#001D8A" width="86.2" height="18"/>
	<path fill="#001D8A" d="M582.5,593.9c2-4.8,2.3-10.2,1-16.1c-1.1-4.9-2.8-8.8-5.2-11.8c-2.3-2.9-5.1-5.1-8.3-6.4
		c-3.2-1.3-6.7-2-10.5-2c-3.8,0-7.8,0.4-11.8,1.3l-30.9,6.9l18.7,84.1l17.6-3.9l-7.5-33.6l8.7-1.9l24.2,29.9l21.1-4.7l-28.2-31
		C576.8,602.3,580.5,598.7,582.5,593.9z M565,587.4c-0.7,1.5-1.6,2.7-2.9,3.6c-1.3,0.9-2.8,1.6-4.6,2.1c-1.7,0.5-3.4,0.9-5,1.3
		l-10.4,2.3l-4.3-19.1l11.5-2.6c1.6-0.4,3.2-0.6,4.9-0.7c1.7-0.1,3.3,0,4.7,0.4c1.4,0.4,2.7,1.1,3.8,2.2c1.1,1.1,1.9,2.7,2.4,4.8
		C565.7,584.1,565.7,585.9,565,587.4z"/>
	<polygon fill="#001D8A" points="633.6,599.1 624.6,584 655.2,565.9 646.3,550.8 615.7,568.9 607.5,555.1 639.9,536 631,520.9
		583.1,549.2 626.9,623.4 676.6,594 667.7,578.9 	"/>

		<ellipse transform="matrix(3.598863e-02 -0.9994 0.9994 3.598863e-02 36.8096 498.3762)" fill="#001D8A" cx="276.7" cy="230.1" rx="23.4" ry="23.4"/>
</g>
</svg>
